<?xml version="1.0" encoding="utf-8" standalone="no"?>
<!DOCTYPE svg PUBLIC "-//W3C//DTD SVG 1.1//EN"
  "http://www.w3.org/Graphics/SVG/1.1/DTD/svg11.dtd">
<svg xmlns:xlink="http://www.w3.org/1999/xlink" width="460.8pt" height="345.6pt" viewBox="0 0 460.8 345.6" xmlns="http://www.w3.org/2000/svg" version="1.1">
 <metadata>
  <rdf:RDF xmlns:dc="http://purl.org/dc/elements/1.1/" xmlns:cc="http://creativecommons.org/ns#" xmlns:rdf="http://www.w3.org/1999/02/22-rdf-syntax-ns#">
   <cc:Work>
    <dc:type rdf:resource="http://purl.org/dc/dcmitype/StillImage"/>
    <dc:date>2024-01-02T12:00:35.596463</dc:date>
    <dc:format>image/svg+xml</dc:format>
    <dc:creator>
     <cc:Agent>
      <dc:title>Matplotlib v3.8.2, https://matplotlib.org/</dc:title>
     </cc:Agent>
    </dc:creator>
   </cc:Work>
  </rdf:RDF>
 </metadata>
 <defs>
  <style type="text/css">*{stroke-linejoin: round; stroke-linecap: butt}</style>
 </defs>
 <g id="figure_1">
  <g id="patch_1">
   <path d="M 0 345.6 
L 460.8 345.6 
L 460.8 0 
L 0 0 
z
" style="fill: #ffffff"/>
  </g>
  <g id="axes_1">
   <g id="patch_2">
    <path d="M 57.6 307.584 
L 414.72 307.584 
L 414.72 41.472 
L 57.6 41.472 
z
" style="fill: #ffffff"/>
   </g>
   <g id="matplotlib.axis_1">
    <g id="xtick_1">
     <g id="line2d_1">
      <path d="M 73.832727 307.584 
L 73.832727 41.472 
" clip-path="url(#pe8aa023b68)" style="fill: none; stroke: #b0b0b0; stroke-width: 0.8; stroke-linecap: square"/>
     </g>
     <g id="line2d_2">
      <defs>
       <path id="mb1c56ec46d" d="M 0 0 
L 0 3.5 
" style="stroke: #000000; stroke-width: 0.8"/>
      </defs>
      <g>
       <use xlink:href="#mb1c56ec46d" x="73.832727" y="307.584" style="stroke: #000000; stroke-width: 0.8"/>
      </g>
     </g>
     <g id="text_1">
      <!-- 0 -->
      <g transform="translate(70.651477 322.182437) scale(0.1 -0.1)">
       <defs>
        <path id="DejaVuSans-30" d="M 2034 4250 
Q 1547 4250 1301 3770 
Q 1056 3291 1056 2328 
Q 1056 1369 1301 889 
Q 1547 409 2034 409 
Q 2525 409 2770 889 
Q 3016 1369 3016 2328 
Q 3016 3291 2770 3770 
Q 2525 4250 2034 4250 
z
M 2034 4750 
Q 2819 4750 3233 4129 
Q 3647 3509 3647 2328 
Q 3647 1150 3233 529 
Q 2819 -91 2034 -91 
Q 1250 -91 836 529 
Q 422 1150 422 2328 
Q 422 3509 836 4129 
Q 1250 4750 2034 4750 
z
" transform="scale(0.015625)"/>
       </defs>
       <use xlink:href="#DejaVuSans-30"/>
      </g>
     </g>
    </g>
    <g id="xtick_2">
     <g id="line2d_3">
      <path d="M 120.211948 307.584 
L 120.211948 41.472 
" clip-path="url(#pe8aa023b68)" style="fill: none; stroke: #b0b0b0; stroke-width: 0.8; stroke-linecap: square"/>
     </g>
     <g id="line2d_4">
      <g>
       <use xlink:href="#mb1c56ec46d" x="120.211948" y="307.584" style="stroke: #000000; stroke-width: 0.8"/>
      </g>
     </g>
     <g id="text_2">
      <!-- 2 -->
      <g transform="translate(117.030698 322.182437) scale(0.1 -0.1)">
       <defs>
        <path id="DejaVuSans-32" d="M 1228 531 
L 3431 531 
L 3431 0 
L 469 0 
L 469 531 
Q 828 903 1448 1529 
Q 2069 2156 2228 2338 
Q 2531 2678 2651 2914 
Q 2772 3150 2772 3378 
Q 2772 3750 2511 3984 
Q 2250 4219 1831 4219 
Q 1534 4219 1204 4116 
Q 875 4013 500 3803 
L 500 4441 
Q 881 4594 1212 4672 
Q 1544 4750 1819 4750 
Q 2544 4750 2975 4387 
Q 3406 4025 3406 3419 
Q 3406 3131 3298 2873 
Q 3191 2616 2906 2266 
Q 2828 2175 2409 1742 
Q 1991 1309 1228 531 
z
" transform="scale(0.015625)"/>
       </defs>
       <use xlink:href="#DejaVuSans-32"/>
      </g>
     </g>
    </g>
    <g id="xtick_3">
     <g id="line2d_5">
      <path d="M 166.591169 307.584 
L 166.591169 41.472 
" clip-path="url(#pe8aa023b68)" style="fill: none; stroke: #b0b0b0; stroke-width: 0.8; stroke-linecap: square"/>
     </g>
     <g id="line2d_6">
      <g>
       <use xlink:href="#mb1c56ec46d" x="166.591169" y="307.584" style="stroke: #000000; stroke-width: 0.8"/>
      </g>
     </g>
     <g id="text_3">
      <!-- 4 -->
      <g transform="translate(163.409919 322.182437) scale(0.1 -0.1)">
       <defs>
        <path id="DejaVuSans-34" d="M 2419 4116 
L 825 1625 
L 2419 1625 
L 2419 4116 
z
M 2253 4666 
L 3047 4666 
L 3047 1625 
L 3713 1625 
L 3713 1100 
L 3047 1100 
L 3047 0 
L 2419 0 
L 2419 1100 
L 313 1100 
L 313 1709 
L 2253 4666 
z
" transform="scale(0.015625)"/>
       </defs>
       <use xlink:href="#DejaVuSans-34"/>
      </g>
     </g>
    </g>
    <g id="xtick_4">
     <g id="line2d_7">
      <path d="M 212.97039 307.584 
L 212.97039 41.472 
" clip-path="url(#pe8aa023b68)" style="fill: none; stroke: #b0b0b0; stroke-width: 0.8; stroke-linecap: square"/>
     </g>
     <g id="line2d_8">
      <g>
       <use xlink:href="#mb1c56ec46d" x="212.97039" y="307.584" style="stroke: #000000; stroke-width: 0.8"/>
      </g>
     </g>
     <g id="text_4">
      <!-- 6 -->
      <g transform="translate(209.78914 322.182437) scale(0.1 -0.1)">
       <defs>
        <path id="DejaVuSans-36" d="M 2113 2584 
Q 1688 2584 1439 2293 
Q 1191 2003 1191 1497 
Q 1191 994 1439 701 
Q 1688 409 2113 409 
Q 2538 409 2786 701 
Q 3034 994 3034 1497 
Q 3034 2003 2786 2293 
Q 2538 2584 2113 2584 
z
M 3366 4563 
L 3366 3988 
Q 3128 4100 2886 4159 
Q 2644 4219 2406 4219 
Q 1781 4219 1451 3797 
Q 1122 3375 1075 2522 
Q 1259 2794 1537 2939 
Q 1816 3084 2150 3084 
Q 2853 3084 3261 2657 
Q 3669 2231 3669 1497 
Q 3669 778 3244 343 
Q 2819 -91 2113 -91 
Q 1303 -91 875 529 
Q 447 1150 447 2328 
Q 447 3434 972 4092 
Q 1497 4750 2381 4750 
Q 2619 4750 2861 4703 
Q 3103 4656 3366 4563 
z
" transform="scale(0.015625)"/>
       </defs>
       <use xlink:href="#DejaVuSans-36"/>
      </g>
     </g>
    </g>
    <g id="xtick_5">
     <g id="line2d_9">
      <path d="M 259.34961 307.584 
L 259.34961 41.472 
" clip-path="url(#pe8aa023b68)" style="fill: none; stroke: #b0b0b0; stroke-width: 0.8; stroke-linecap: square"/>
     </g>
     <g id="line2d_10">
      <g>
       <use xlink:href="#mb1c56ec46d" x="259.34961" y="307.584" style="stroke: #000000; stroke-width: 0.8"/>
      </g>
     </g>
     <g id="text_5">
      <!-- 8 -->
      <g transform="translate(256.16836 322.182437) scale(0.1 -0.1)">
       <defs>
        <path id="DejaVuSans-38" d="M 2034 2216 
Q 1584 2216 1326 1975 
Q 1069 1734 1069 1313 
Q 1069 891 1326 650 
Q 1584 409 2034 409 
Q 2484 409 2743 651 
Q 3003 894 3003 1313 
Q 3003 1734 2745 1975 
Q 2488 2216 2034 2216 
z
M 1403 2484 
Q 997 2584 770 2862 
Q 544 3141 544 3541 
Q 544 4100 942 4425 
Q 1341 4750 2034 4750 
Q 2731 4750 3128 4425 
Q 3525 4100 3525 3541 
Q 3525 3141 3298 2862 
Q 3072 2584 2669 2484 
Q 3125 2378 3379 2068 
Q 3634 1759 3634 1313 
Q 3634 634 3220 271 
Q 2806 -91 2034 -91 
Q 1263 -91 848 271 
Q 434 634 434 1313 
Q 434 1759 690 2068 
Q 947 2378 1403 2484 
z
M 1172 3481 
Q 1172 3119 1398 2916 
Q 1625 2713 2034 2713 
Q 2441 2713 2670 2916 
Q 2900 3119 2900 3481 
Q 2900 3844 2670 4047 
Q 2441 4250 2034 4250 
Q 1625 4250 1398 4047 
Q 1172 3844 1172 3481 
z
" transform="scale(0.015625)"/>
       </defs>
       <use xlink:href="#DejaVuSans-38"/>
      </g>
     </g>
    </g>
    <g id="xtick_6">
     <g id="line2d_11">
      <path d="M 305.728831 307.584 
L 305.728831 41.472 
" clip-path="url(#pe8aa023b68)" style="fill: none; stroke: #b0b0b0; stroke-width: 0.8; stroke-linecap: square"/>
     </g>
     <g id="line2d_12">
      <g>
       <use xlink:href="#mb1c56ec46d" x="305.728831" y="307.584" style="stroke: #000000; stroke-width: 0.8"/>
      </g>
     </g>
     <g id="text_6">
      <!-- 10 -->
      <g transform="translate(299.366331 322.182437) scale(0.1 -0.1)">
       <defs>
        <path id="DejaVuSans-31" d="M 794 531 
L 1825 531 
L 1825 4091 
L 703 3866 
L 703 4441 
L 1819 4666 
L 2450 4666 
L 2450 531 
L 3481 531 
L 3481 0 
L 794 0 
L 794 531 
z
" transform="scale(0.015625)"/>
       </defs>
       <use xlink:href="#DejaVuSans-31"/>
       <use xlink:href="#DejaVuSans-30" x="63.623047"/>
      </g>
     </g>
    </g>
    <g id="xtick_7">
     <g id="line2d_13">
      <path d="M 352.108052 307.584 
L 352.108052 41.472 
" clip-path="url(#pe8aa023b68)" style="fill: none; stroke: #b0b0b0; stroke-width: 0.8; stroke-linecap: square"/>
     </g>
     <g id="line2d_14">
      <g>
       <use xlink:href="#mb1c56ec46d" x="352.108052" y="307.584" style="stroke: #000000; stroke-width: 0.8"/>
      </g>
     </g>
     <g id="text_7">
      <!-- 12 -->
      <g transform="translate(345.745552 322.182437) scale(0.1 -0.1)">
       <use xlink:href="#DejaVuSans-31"/>
       <use xlink:href="#DejaVuSans-32" x="63.623047"/>
      </g>
     </g>
    </g>
    <g id="xtick_8">
     <g id="line2d_15">
      <path d="M 398.487273 307.584 
L 398.487273 41.472 
" clip-path="url(#pe8aa023b68)" style="fill: none; stroke: #b0b0b0; stroke-width: 0.8; stroke-linecap: square"/>
     </g>
     <g id="line2d_16">
      <g>
       <use xlink:href="#mb1c56ec46d" x="398.487273" y="307.584" style="stroke: #000000; stroke-width: 0.8"/>
      </g>
     </g>
     <g id="text_8">
      <!-- 14 -->
      <g transform="translate(392.124773 322.182437) scale(0.1 -0.1)">
       <use xlink:href="#DejaVuSans-31"/>
       <use xlink:href="#DejaVuSans-34" x="63.623047"/>
      </g>
     </g>
    </g>
    <g id="text_9">
     <!-- # iterations -->
     <g transform="translate(206.65375 335.860562) scale(0.1 -0.1)">
      <defs>
       <path id="DejaVuSans-23" d="M 3272 2816 
L 2363 2816 
L 2100 1772 
L 3016 1772 
L 3272 2816 
z
M 2803 4594 
L 2478 3297 
L 3391 3297 
L 3719 4594 
L 4219 4594 
L 3897 3297 
L 4872 3297 
L 4872 2816 
L 3775 2816 
L 3519 1772 
L 4513 1772 
L 4513 1294 
L 3397 1294 
L 3072 0 
L 2572 0 
L 2894 1294 
L 1978 1294 
L 1656 0 
L 1153 0 
L 1478 1294 
L 494 1294 
L 494 1772 
L 1594 1772 
L 1856 2816 
L 850 2816 
L 850 3297 
L 1978 3297 
L 2297 4594 
L 2803 4594 
z
" transform="scale(0.015625)"/>
       <path id="DejaVuSans-20" transform="scale(0.015625)"/>
       <path id="DejaVuSans-69" d="M 603 3500 
L 1178 3500 
L 1178 0 
L 603 0 
L 603 3500 
z
M 603 4863 
L 1178 4863 
L 1178 4134 
L 603 4134 
L 603 4863 
z
" transform="scale(0.015625)"/>
       <path id="DejaVuSans-74" d="M 1172 4494 
L 1172 3500 
L 2356 3500 
L 2356 3053 
L 1172 3053 
L 1172 1153 
Q 1172 725 1289 603 
Q 1406 481 1766 481 
L 2356 481 
L 2356 0 
L 1766 0 
Q 1100 0 847 248 
Q 594 497 594 1153 
L 594 3053 
L 172 3053 
L 172 3500 
L 594 3500 
L 594 4494 
L 1172 4494 
z
" transform="scale(0.015625)"/>
       <path id="DejaVuSans-65" d="M 3597 1894 
L 3597 1613 
L 953 1613 
Q 991 1019 1311 708 
Q 1631 397 2203 397 
Q 2534 397 2845 478 
Q 3156 559 3463 722 
L 3463 178 
Q 3153 47 2828 -22 
Q 2503 -91 2169 -91 
Q 1331 -91 842 396 
Q 353 884 353 1716 
Q 353 2575 817 3079 
Q 1281 3584 2069 3584 
Q 2775 3584 3186 3129 
Q 3597 2675 3597 1894 
z
M 3022 2063 
Q 3016 2534 2758 2815 
Q 2500 3097 2075 3097 
Q 1594 3097 1305 2825 
Q 1016 2553 972 2059 
L 3022 2063 
z
" transform="scale(0.015625)"/>
       <path id="DejaVuSans-72" d="M 2631 2963 
Q 2534 3019 2420 3045 
Q 2306 3072 2169 3072 
Q 1681 3072 1420 2755 
Q 1159 2438 1159 1844 
L 1159 0 
L 581 0 
L 581 3500 
L 1159 3500 
L 1159 2956 
Q 1341 3275 1631 3429 
Q 1922 3584 2338 3584 
Q 2397 3584 2469 3576 
Q 2541 3569 2628 3553 
L 2631 2963 
z
" transform="scale(0.015625)"/>
       <path id="DejaVuSans-61" d="M 2194 1759 
Q 1497 1759 1228 1600 
Q 959 1441 959 1056 
Q 959 750 1161 570 
Q 1363 391 1709 391 
Q 2188 391 2477 730 
Q 2766 1069 2766 1631 
L 2766 1759 
L 2194 1759 
z
M 3341 1997 
L 3341 0 
L 2766 0 
L 2766 531 
Q 2569 213 2275 61 
Q 1981 -91 1556 -91 
Q 1019 -91 701 211 
Q 384 513 384 1019 
Q 384 1609 779 1909 
Q 1175 2209 1959 2209 
L 2766 2209 
L 2766 2266 
Q 2766 2663 2505 2880 
Q 2244 3097 1772 3097 
Q 1472 3097 1187 3025 
Q 903 2953 641 2809 
L 641 3341 
Q 956 3463 1253 3523 
Q 1550 3584 1831 3584 
Q 2591 3584 2966 3190 
Q 3341 2797 3341 1997 
z
" transform="scale(0.015625)"/>
       <path id="DejaVuSans-6f" d="M 1959 3097 
Q 1497 3097 1228 2736 
Q 959 2375 959 1747 
Q 959 1119 1226 758 
Q 1494 397 1959 397 
Q 2419 397 2687 759 
Q 2956 1122 2956 1747 
Q 2956 2369 2687 2733 
Q 2419 3097 1959 3097 
z
M 1959 3584 
Q 2709 3584 3137 3096 
Q 3566 2609 3566 1747 
Q 3566 888 3137 398 
Q 2709 -91 1959 -91 
Q 1206 -91 779 398 
Q 353 888 353 1747 
Q 353 2609 779 3096 
Q 1206 3584 1959 3584 
z
" transform="scale(0.015625)"/>
       <path id="DejaVuSans-6e" d="M 3513 2113 
L 3513 0 
L 2938 0 
L 2938 2094 
Q 2938 2591 2744 2837 
Q 2550 3084 2163 3084 
Q 1697 3084 1428 2787 
Q 1159 2491 1159 1978 
L 1159 0 
L 581 0 
L 581 3500 
L 1159 3500 
L 1159 2956 
Q 1366 3272 1645 3428 
Q 1925 3584 2291 3584 
Q 2894 3584 3203 3211 
Q 3513 2838 3513 2113 
z
" transform="scale(0.015625)"/>
       <path id="DejaVuSans-73" d="M 2834 3397 
L 2834 2853 
Q 2591 2978 2328 3040 
Q 2066 3103 1784 3103 
Q 1356 3103 1142 2972 
Q 928 2841 928 2578 
Q 928 2378 1081 2264 
Q 1234 2150 1697 2047 
L 1894 2003 
Q 2506 1872 2764 1633 
Q 3022 1394 3022 966 
Q 3022 478 2636 193 
Q 2250 -91 1575 -91 
Q 1294 -91 989 -36 
Q 684 19 347 128 
L 347 722 
Q 666 556 975 473 
Q 1284 391 1588 391 
Q 1994 391 2212 530 
Q 2431 669 2431 922 
Q 2431 1156 2273 1281 
Q 2116 1406 1581 1522 
L 1381 1569 
Q 847 1681 609 1914 
Q 372 2147 372 2553 
Q 372 3047 722 3315 
Q 1072 3584 1716 3584 
Q 2034 3584 2315 3537 
Q 2597 3491 2834 3397 
z
" transform="scale(0.015625)"/>
      </defs>
      <use xlink:href="#DejaVuSans-23"/>
      <use xlink:href="#DejaVuSans-20" x="83.789062"/>
      <use xlink:href="#DejaVuSans-69" x="115.576172"/>
      <use xlink:href="#DejaVuSans-74" x="143.359375"/>
      <use xlink:href="#DejaVuSans-65" x="182.568359"/>
      <use xlink:href="#DejaVuSans-72" x="244.091797"/>
      <use xlink:href="#DejaVuSans-61" x="285.205078"/>
      <use xlink:href="#DejaVuSans-74" x="346.484375"/>
      <use xlink:href="#DejaVuSans-69" x="385.693359"/>
      <use xlink:href="#DejaVuSans-6f" x="413.476562"/>
      <use xlink:href="#DejaVuSans-6e" x="474.658203"/>
      <use xlink:href="#DejaVuSans-73" x="538.037109"/>
     </g>
    </g>
   </g>
   <g id="matplotlib.axis_2">
    <g id="ytick_1">
     <g id="line2d_17">
      <path d="M 57.6 284.166537 
L 414.72 284.166537 
" clip-path="url(#pe8aa023b68)" style="fill: none; stroke: #b0b0b0; stroke-width: 0.8; stroke-linecap: square"/>
     </g>
     <g id="line2d_18">
      <defs>
       <path id="mae42f9f6a6" d="M 0 0 
L -3.5 0 
" style="stroke: #000000; stroke-width: 0.8"/>
      </defs>
      <g>
       <use xlink:href="#mae42f9f6a6" x="57.6" y="284.166537" style="stroke: #000000; stroke-width: 0.8"/>
      </g>
     </g>
     <g id="text_10">
      <!-- $\mathdefault{10^{-6}}$ -->
      <g transform="translate(27.1 287.965756) scale(0.1 -0.1)">
       <defs>
        <path id="DejaVuSans-2212" d="M 678 2272 
L 4684 2272 
L 4684 1741 
L 678 1741 
L 678 2272 
z
" transform="scale(0.015625)"/>
       </defs>
       <use xlink:href="#DejaVuSans-31" transform="translate(0 0.765625)"/>
       <use xlink:href="#DejaVuSans-30" transform="translate(63.623047 0.765625)"/>
       <use xlink:href="#DejaVuSans-2212" transform="translate(128.203125 39.046875) scale(0.7)"/>
       <use xlink:href="#DejaVuSans-36" transform="translate(186.855469 39.046875) scale(0.7)"/>
      </g>
     </g>
    </g>
    <g id="ytick_2">
     <g id="line2d_19">
      <path d="M 57.6 245.888704 
L 414.72 245.888704 
" clip-path="url(#pe8aa023b68)" style="fill: none; stroke: #b0b0b0; stroke-width: 0.8; stroke-linecap: square"/>
     </g>
     <g id="line2d_20">
      <g>
       <use xlink:href="#mae42f9f6a6" x="57.6" y="245.888704" style="stroke: #000000; stroke-width: 0.8"/>
      </g>
     </g>
     <g id="text_11">
      <!-- $\mathdefault{10^{-4}}$ -->
      <g transform="translate(27.1 249.687923) scale(0.1 -0.1)">
       <use xlink:href="#DejaVuSans-31" transform="translate(0 0.684375)"/>
       <use xlink:href="#DejaVuSans-30" transform="translate(63.623047 0.684375)"/>
       <use xlink:href="#DejaVuSans-2212" transform="translate(128.203125 38.965625) scale(0.7)"/>
       <use xlink:href="#DejaVuSans-34" transform="translate(186.855469 38.965625) scale(0.7)"/>
      </g>
     </g>
    </g>
    <g id="ytick_3">
     <g id="line2d_21">
      <path d="M 57.6 207.610871 
L 414.72 207.610871 
" clip-path="url(#pe8aa023b68)" style="fill: none; stroke: #b0b0b0; stroke-width: 0.8; stroke-linecap: square"/>
     </g>
     <g id="line2d_22">
      <g>
       <use xlink:href="#mae42f9f6a6" x="57.6" y="207.610871" style="stroke: #000000; stroke-width: 0.8"/>
      </g>
     </g>
     <g id="text_12">
      <!-- $\mathdefault{10^{-2}}$ -->
      <g transform="translate(27.1 211.410089) scale(0.1 -0.1)">
       <use xlink:href="#DejaVuSans-31" transform="translate(0 0.765625)"/>
       <use xlink:href="#DejaVuSans-30" transform="translate(63.623047 0.765625)"/>
       <use xlink:href="#DejaVuSans-2212" transform="translate(128.203125 39.046875) scale(0.7)"/>
       <use xlink:href="#DejaVuSans-32" transform="translate(186.855469 39.046875) scale(0.7)"/>
      </g>
     </g>
    </g>
    <g id="ytick_4">
     <g id="line2d_23">
      <path d="M 57.6 169.333038 
L 414.72 169.333038 
" clip-path="url(#pe8aa023b68)" style="fill: none; stroke: #b0b0b0; stroke-width: 0.8; stroke-linecap: square"/>
     </g>
     <g id="line2d_24">
      <g>
       <use xlink:href="#mae42f9f6a6" x="57.6" y="169.333038" style="stroke: #000000; stroke-width: 0.8"/>
      </g>
     </g>
     <g id="text_13">
      <!-- $\mathdefault{10^{0}}$ -->
      <g transform="translate(33 173.132256) scale(0.1 -0.1)">
       <use xlink:href="#DejaVuSans-31" transform="translate(0 0.765625)"/>
       <use xlink:href="#DejaVuSans-30" transform="translate(63.623047 0.765625)"/>
       <use xlink:href="#DejaVuSans-30" transform="translate(128.203125 39.046875) scale(0.7)"/>
      </g>
     </g>
    </g>
    <g id="ytick_5">
     <g id="line2d_25">
      <path d="M 57.6 131.055205 
L 414.72 131.055205 
" clip-path="url(#pe8aa023b68)" style="fill: none; stroke: #b0b0b0; stroke-width: 0.8; stroke-linecap: square"/>
     </g>
     <g id="line2d_26">
      <g>
       <use xlink:href="#mae42f9f6a6" x="57.6" y="131.055205" style="stroke: #000000; stroke-width: 0.8"/>
      </g>
     </g>
     <g id="text_14">
      <!-- $\mathdefault{10^{2}}$ -->
      <g transform="translate(33 134.854423) scale(0.1 -0.1)">
       <use xlink:href="#DejaVuSans-31" transform="translate(0 0.765625)"/>
       <use xlink:href="#DejaVuSans-30" transform="translate(63.623047 0.765625)"/>
       <use xlink:href="#DejaVuSans-32" transform="translate(128.203125 39.046875) scale(0.7)"/>
      </g>
     </g>
    </g>
    <g id="ytick_6">
     <g id="line2d_27">
      <path d="M 57.6 92.777372 
L 414.72 92.777372 
" clip-path="url(#pe8aa023b68)" style="fill: none; stroke: #b0b0b0; stroke-width: 0.8; stroke-linecap: square"/>
     </g>
     <g id="line2d_28">
      <g>
       <use xlink:href="#mae42f9f6a6" x="57.6" y="92.777372" style="stroke: #000000; stroke-width: 0.8"/>
      </g>
     </g>
     <g id="text_15">
      <!-- $\mathdefault{10^{4}}$ -->
      <g transform="translate(33 96.57659) scale(0.1 -0.1)">
       <use xlink:href="#DejaVuSans-31" transform="translate(0 0.684375)"/>
       <use xlink:href="#DejaVuSans-30" transform="translate(63.623047 0.684375)"/>
       <use xlink:href="#DejaVuSans-34" transform="translate(128.203125 38.965625) scale(0.7)"/>
      </g>
     </g>
    </g>
    <g id="ytick_7">
     <g id="line2d_29">
      <path d="M 57.6 54.499539 
L 414.72 54.499539 
" clip-path="url(#pe8aa023b68)" style="fill: none; stroke: #b0b0b0; stroke-width: 0.8; stroke-linecap: square"/>
     </g>
     <g id="line2d_30">
      <g>
       <use xlink:href="#mae42f9f6a6" x="57.6" y="54.499539" style="stroke: #000000; stroke-width: 0.8"/>
      </g>
     </g>
     <g id="text_16">
      <!-- $\mathdefault{10^{6}}$ -->
      <g transform="translate(33 58.298757) scale(0.1 -0.1)">
       <use xlink:href="#DejaVuSans-31" transform="translate(0 0.765625)"/>
       <use xlink:href="#DejaVuSans-30" transform="translate(63.623047 0.765625)"/>
       <use xlink:href="#DejaVuSans-36" transform="translate(128.203125 39.046875) scale(0.7)"/>
      </g>
     </g>
    </g>
    <g id="text_17">
     <!-- 2-norm of residual -->
     <g transform="translate(21.020312 220.386594) rotate(-90) scale(0.1 -0.1)">
      <defs>
       <path id="DejaVuSans-2d" d="M 313 2009 
L 1997 2009 
L 1997 1497 
L 313 1497 
L 313 2009 
z
" transform="scale(0.015625)"/>
       <path id="DejaVuSans-6d" d="M 3328 2828 
Q 3544 3216 3844 3400 
Q 4144 3584 4550 3584 
Q 5097 3584 5394 3201 
Q 5691 2819 5691 2113 
L 5691 0 
L 5113 0 
L 5113 2094 
Q 5113 2597 4934 2840 
Q 4756 3084 4391 3084 
Q 3944 3084 3684 2787 
Q 3425 2491 3425 1978 
L 3425 0 
L 2847 0 
L 2847 2094 
Q 2847 2600 2669 2842 
Q 2491 3084 2119 3084 
Q 1678 3084 1418 2786 
Q 1159 2488 1159 1978 
L 1159 0 
L 581 0 
L 581 3500 
L 1159 3500 
L 1159 2956 
Q 1356 3278 1631 3431 
Q 1906 3584 2284 3584 
Q 2666 3584 2933 3390 
Q 3200 3197 3328 2828 
z
" transform="scale(0.015625)"/>
       <path id="DejaVuSans-66" d="M 2375 4863 
L 2375 4384 
L 1825 4384 
Q 1516 4384 1395 4259 
Q 1275 4134 1275 3809 
L 1275 3500 
L 2222 3500 
L 2222 3053 
L 1275 3053 
L 1275 0 
L 697 0 
L 697 3053 
L 147 3053 
L 147 3500 
L 697 3500 
L 697 3744 
Q 697 4328 969 4595 
Q 1241 4863 1831 4863 
L 2375 4863 
z
" transform="scale(0.015625)"/>
       <path id="DejaVuSans-64" d="M 2906 2969 
L 2906 4863 
L 3481 4863 
L 3481 0 
L 2906 0 
L 2906 525 
Q 2725 213 2448 61 
Q 2172 -91 1784 -91 
Q 1150 -91 751 415 
Q 353 922 353 1747 
Q 353 2572 751 3078 
Q 1150 3584 1784 3584 
Q 2172 3584 2448 3432 
Q 2725 3281 2906 2969 
z
M 947 1747 
Q 947 1113 1208 752 
Q 1469 391 1925 391 
Q 2381 391 2643 752 
Q 2906 1113 2906 1747 
Q 2906 2381 2643 2742 
Q 2381 3103 1925 3103 
Q 1469 3103 1208 2742 
Q 947 2381 947 1747 
z
" transform="scale(0.015625)"/>
       <path id="DejaVuSans-75" d="M 544 1381 
L 544 3500 
L 1119 3500 
L 1119 1403 
Q 1119 906 1312 657 
Q 1506 409 1894 409 
Q 2359 409 2629 706 
Q 2900 1003 2900 1516 
L 2900 3500 
L 3475 3500 
L 3475 0 
L 2900 0 
L 2900 538 
Q 2691 219 2414 64 
Q 2138 -91 1772 -91 
Q 1169 -91 856 284 
Q 544 659 544 1381 
z
M 1991 3584 
L 1991 3584 
z
" transform="scale(0.015625)"/>
       <path id="DejaVuSans-6c" d="M 603 4863 
L 1178 4863 
L 1178 0 
L 603 0 
L 603 4863 
z
" transform="scale(0.015625)"/>
      </defs>
      <use xlink:href="#DejaVuSans-32"/>
      <use xlink:href="#DejaVuSans-2d" x="63.623047"/>
      <use xlink:href="#DejaVuSans-6e" x="99.707031"/>
      <use xlink:href="#DejaVuSans-6f" x="163.085938"/>
      <use xlink:href="#DejaVuSans-72" x="224.267578"/>
      <use xlink:href="#DejaVuSans-6d" x="263.630859"/>
      <use xlink:href="#DejaVuSans-20" x="361.042969"/>
      <use xlink:href="#DejaVuSans-6f" x="392.830078"/>
      <use xlink:href="#DejaVuSans-66" x="454.011719"/>
      <use xlink:href="#DejaVuSans-20" x="489.216797"/>
      <use xlink:href="#DejaVuSans-72" x="521.003906"/>
      <use xlink:href="#DejaVuSans-65" x="559.867188"/>
      <use xlink:href="#DejaVuSans-73" x="621.390625"/>
      <use xlink:href="#DejaVuSans-69" x="673.490234"/>
      <use xlink:href="#DejaVuSans-64" x="701.273438"/>
      <use xlink:href="#DejaVuSans-75" x="764.75"/>
      <use xlink:href="#DejaVuSans-61" x="828.128906"/>
      <use xlink:href="#DejaVuSans-6c" x="889.408203"/>
     </g>
    </g>
   </g>
   <g id="line2d_31">
    <path d="M 73.832727 91.8489 
L 97.022338 104.934047 
L 120.211948 119.450914 
L 143.401558 134.094648 
L 166.591169 148.744261 
L 189.780779 163.393958 
L 212.97039 178.043511 
L 236.16 192.69292 
L 259.34961 207.34219 
L 282.539221 221.991328 
L 305.728831 236.640342 
L 328.918442 251.28924 
L 352.108052 265.938027 
L 375.297662 280.586713 
L 398.487273 295.235305 
" clip-path="url(#pe8aa023b68)" style="fill: none; stroke: #1f77b4; stroke-width: 1.5; stroke-linecap: square"/>
   </g>
   <g id="line2d_32">
    <path d="M 73.832727 53.572152 
L 97.022338 66.658839 
L 120.211948 81.177367 
L 143.401558 95.822885 
L 166.591169 110.474442 
L 189.780779 125.126243 
L 212.97039 139.778054 
L 236.16 154.429864 
L 259.34961 169.081675 
L 282.539221 183.733485 
L 305.728831 198.385295 
L 328.918442 213.037105 
L 352.108052 227.688914 
L 375.297662 242.340724 
L 398.487273 256.992533 
" clip-path="url(#pe8aa023b68)" style="fill: none; stroke: #ff7f0e; stroke-width: 1.5; stroke-linecap: square"/>
   </g>
   <g id="line2d_33">
    <path d="M 73.832727 91.848526 
L 97.022338 104.933673 
L 120.211948 119.450541 
L 143.401558 134.094278 
L 166.591169 148.743895 
L 189.780779 163.393598 
L 212.97039 178.04316 
L 236.16 192.69258 
L 259.34961 207.341864 
L 282.539221 221.99102 
L 305.728831 236.640055 
L 328.918442 251.288976 
L 352.108052 265.937791 
L 375.297662 280.586507 
L 398.487273 295.235132 
" clip-path="url(#pe8aa023b68)" style="fill: none; stroke: #2ca02c; stroke-width: 1.5; stroke-linecap: square"/>
   </g>
   <g id="line2d_34">
    <path d="M 73.832727 53.572148 
L 97.022338 66.658835 
L 120.211948 81.177363 
L 143.401558 95.822881 
L 166.591169 110.474438 
L 189.780779 125.12624 
L 212.97039 139.77805 
L 236.16 154.429861 
L 259.34961 169.081671 
L 282.539221 183.733481 
L 305.728831 198.385291 
L 328.918442 213.037101 
L 352.108052 227.688911 
L 375.297662 242.34072 
L 398.487273 256.992529 
" clip-path="url(#pe8aa023b68)" style="fill: none; stroke: #d62728; stroke-width: 1.5; stroke-linecap: square"/>
   </g>
   <g id="line2d_35">
    <path d="M 73.832727 91.844789 
L 97.022338 104.929972 
L 120.211948 119.446947 
L 143.401558 134.090888 
L 166.591169 148.740829 
L 189.780779 163.390992 
L 212.97039 178.041163 
L 236.16 192.691347 
L 259.34961 207.341555 
L 282.539221 221.991795 
L 305.728831 236.642072 
L 328.918442 251.292386 
L 352.108052 265.942738 
L 375.297662 280.593121 
L 398.487273 295.24353 
" clip-path="url(#pe8aa023b68)" style="fill: none; stroke: #9467bd; stroke-width: 1.5; stroke-linecap: square"/>
   </g>
   <g id="line2d_36">
    <path d="M 73.832727 53.572111 
L 97.022338 66.658798 
L 120.211948 81.177326 
L 143.401558 95.822844 
L 166.591169 110.474401 
L 189.780779 125.126202 
L 212.97039 139.778013 
L 236.16 154.429824 
L 259.34961 169.081634 
L 282.539221 183.733445 
L 305.728831 198.385255 
L 328.918442 213.037065 
L 352.108052 227.688875 
L 375.297662 242.340685 
L 398.487273 256.992494 
" clip-path="url(#pe8aa023b68)" style="fill: none; stroke: #8c564b; stroke-width: 1.5; stroke-linecap: square"/>
   </g>
   <g id="line2d_37">
    <path d="M 73.832727 91.807718 
L 97.022338 104.895603 
L 120.211948 119.419459 
L 143.401558 134.074448 
L 166.591169 148.739222 
L 189.780779 163.407402 
L 212.97039 178.078143 
L 236.16 192.75089 
L 259.34961 207.425188 
L 282.539221 222.100673 
L 305.728831 236.777062 
L 328.918442 251.454136 
L 352.108052 266.13173 
L 375.297662 280.809716 
L 398.487273 295.488 
" clip-path="url(#pe8aa023b68)" style="fill: none; stroke: #e377c2; stroke-width: 1.5; stroke-linecap: square"/>
   </g>
   <g id="line2d_38">
    <path d="M 73.832727 53.571737 
L 97.022338 66.658424 
L 120.211948 81.176953 
L 143.401558 95.822473 
L 166.591169 110.474035 
L 189.780779 125.125842 
L 212.97039 139.77766 
L 236.16 154.429481 
L 259.34961 169.081305 
L 282.539221 183.733131 
L 305.728831 198.38496 
L 328.918442 213.036793 
L 352.108052 227.688628 
L 375.297662 242.340467 
L 398.487273 256.99231 
" clip-path="url(#pe8aa023b68)" style="fill: none; stroke: #7f7f7f; stroke-width: 1.5; stroke-linecap: square"/>
   </g>
   <g id="line2d_39">
    <path d="M 73.832727 91.457765 
L 97.022338 104.673957 
L 120.211948 119.414533 
L 143.401558 134.31808 
L 166.591169 149.24354 
L 189.780779 164.176264 
L 212.97039 179.11219 
L 236.16 194.049627 
L 259.34961 208.987804 
L 282.539221 223.926345 
L 305.728831 238.865063 
L 328.918442 253.803861 
L 352.108052 268.742686 
L 375.297662 283.68151 
" clip-path="url(#pe8aa023b68)" style="fill: none; stroke: #bcbd22; stroke-width: 1.5; stroke-linecap: square"/>
   </g>
   <g id="line2d_40">
    <path d="M 73.832727 53.568 
L 97.022338 66.654722 
L 120.211948 81.173354 
L 143.401558 95.819068 
L 166.591169 110.470932 
L 189.780779 125.123163 
L 212.97039 139.775533 
L 236.16 154.428038 
L 259.34961 169.080678 
L 282.539221 183.733452 
L 305.728831 198.386358 
L 328.918442 213.03939 
L 352.108052 227.692544 
L 375.297662 242.345814 
L 398.487273 256.999193 
" clip-path="url(#pe8aa023b68)" style="fill: none; stroke: #17becf; stroke-width: 1.5; stroke-linecap: square"/>
   </g>
   <g id="patch_3">
    <path d="M 57.6 307.584 
L 57.6 41.472 
" style="fill: none; stroke: #000000; stroke-width: 0.8; stroke-linejoin: miter; stroke-linecap: square"/>
   </g>
   <g id="patch_4">
    <path d="M 414.72 307.584 
L 414.72 41.472 
" style="fill: none; stroke: #000000; stroke-width: 0.8; stroke-linejoin: miter; stroke-linecap: square"/>
   </g>
   <g id="patch_5">
    <path d="M 57.6 307.584 
L 414.72 307.584 
" style="fill: none; stroke: #000000; stroke-width: 0.8; stroke-linejoin: miter; stroke-linecap: square"/>
   </g>
   <g id="patch_6">
    <path d="M 57.6 41.472 
L 414.72 41.472 
" style="fill: none; stroke: #000000; stroke-width: 0.8; stroke-linejoin: miter; stroke-linecap: square"/>
   </g>
   <g id="legend_1">
    <g id="patch_7">
     <path d="M 177.22 200.472 
L 407.72 200.472 
Q 409.72 200.472 409.72 198.472 
L 409.72 48.472 
Q 409.72 46.472 407.72 46.472 
L 177.22 46.472 
Q 175.22 46.472 175.22 48.472 
L 175.22 198.472 
Q 175.22 200.472 177.22 200.472 
z
" style="fill: #ffffff; opacity: 0.8; stroke: #cccccc; stroke-linejoin: miter"/>
    </g>
    <g id="line2d_41">
     <path d="M 179.22 54.572 
L 189.22 54.572 
L 199.22 54.572 
" style="fill: none; stroke: #1f77b4; stroke-width: 1.5; stroke-linecap: square"/>
    </g>
    <g id="text_18">
     <!-- $(c,h)=(0.1, 0.01), \kappa_{eff,2}=2.00E+00$ -->
     <g transform="translate(207.22 58.072) scale(0.1 -0.1)">
      <defs>
       <path id="DejaVuSans-28" d="M 1984 4856 
Q 1566 4138 1362 3434 
Q 1159 2731 1159 2009 
Q 1159 1288 1364 580 
Q 1569 -128 1984 -844 
L 1484 -844 
Q 1016 -109 783 600 
Q 550 1309 550 2009 
Q 550 2706 781 3412 
Q 1013 4119 1484 4856 
L 1984 4856 
z
" transform="scale(0.015625)"/>
       <path id="DejaVuSans-Oblique-63" d="M 3431 3366 
L 3316 2797 
Q 3109 2947 2876 3022 
Q 2644 3097 2394 3097 
Q 2119 3097 1870 3000 
Q 1622 2903 1453 2725 
Q 1184 2453 1037 2087 
Q 891 1722 891 1331 
Q 891 859 1127 628 
Q 1363 397 1844 397 
Q 2081 397 2348 469 
Q 2616 541 2906 684 
L 2797 116 
Q 2547 13 2283 -39 
Q 2019 -91 1741 -91 
Q 1044 -91 669 257 
Q 294 606 294 1253 
Q 294 1797 489 2255 
Q 684 2713 1069 3078 
Q 1331 3328 1684 3456 
Q 2038 3584 2456 3584 
Q 2700 3584 2940 3529 
Q 3181 3475 3431 3366 
z
" transform="scale(0.015625)"/>
       <path id="DejaVuSans-2c" d="M 750 794 
L 1409 794 
L 1409 256 
L 897 -744 
L 494 -744 
L 750 256 
L 750 794 
z
" transform="scale(0.015625)"/>
       <path id="DejaVuSans-Oblique-68" d="M 3566 2113 
L 3156 0 
L 2578 0 
L 2988 2091 
Q 3016 2238 3031 2350 
Q 3047 2463 3047 2528 
Q 3047 2791 2881 2937 
Q 2716 3084 2419 3084 
Q 1956 3084 1617 2771 
Q 1278 2459 1178 1941 
L 800 0 
L 225 0 
L 1172 4863 
L 1747 4863 
L 1375 2950 
Q 1594 3244 1934 3414 
Q 2275 3584 2650 3584 
Q 3113 3584 3367 3334 
Q 3622 3084 3622 2631 
Q 3622 2519 3608 2391 
Q 3594 2263 3566 2113 
z
" transform="scale(0.015625)"/>
       <path id="DejaVuSans-29" d="M 513 4856 
L 1013 4856 
Q 1481 4119 1714 3412 
Q 1947 2706 1947 2009 
Q 1947 1309 1714 600 
Q 1481 -109 1013 -844 
L 513 -844 
Q 928 -128 1133 580 
Q 1338 1288 1338 2009 
Q 1338 2731 1133 3434 
Q 928 4138 513 4856 
z
" transform="scale(0.015625)"/>
       <path id="DejaVuSans-3d" d="M 678 2906 
L 4684 2906 
L 4684 2381 
L 678 2381 
L 678 2906 
z
M 678 1631 
L 4684 1631 
L 4684 1100 
L 678 1100 
L 678 1631 
z
" transform="scale(0.015625)"/>
       <path id="DejaVuSans-2e" d="M 684 794 
L 1344 794 
L 1344 0 
L 684 0 
L 684 794 
z
" transform="scale(0.015625)"/>
       <path id="DejaVuSans-Oblique-3ba" d="M 938 3500 
L 1531 3500 
L 1247 2047 
L 3041 3500 
L 3741 3500 
L 2106 2181 
L 3275 0 
L 2572 0 
L 1628 1806 
L 1122 1403 
L 850 0 
L 256 0 
L 938 3500 
z
" transform="scale(0.015625)"/>
       <path id="DejaVuSans-Oblique-65" d="M 3078 2063 
Q 3088 2113 3092 2166 
Q 3097 2219 3097 2272 
Q 3097 2653 2873 2875 
Q 2650 3097 2266 3097 
Q 1838 3097 1509 2826 
Q 1181 2556 1013 2059 
L 3078 2063 
z
M 3578 1613 
L 903 1613 
Q 884 1494 878 1425 
Q 872 1356 872 1306 
Q 872 872 1139 634 
Q 1406 397 1894 397 
Q 2269 397 2603 481 
Q 2938 566 3225 728 
L 3116 159 
Q 2806 34 2476 -28 
Q 2147 -91 1806 -91 
Q 1078 -91 686 257 
Q 294 606 294 1247 
Q 294 1794 489 2264 
Q 684 2734 1063 3103 
Q 1306 3334 1642 3459 
Q 1978 3584 2356 3584 
Q 2950 3584 3301 3228 
Q 3653 2872 3653 2272 
Q 3653 2128 3634 1964 
Q 3616 1800 3578 1613 
z
" transform="scale(0.015625)"/>
       <path id="DejaVuSans-Oblique-66" d="M 3059 4863 
L 2969 4384 
L 2419 4384 
Q 2106 4384 1964 4261 
Q 1822 4138 1753 3809 
L 1691 3500 
L 2638 3500 
L 2553 3053 
L 1606 3053 
L 1013 0 
L 434 0 
L 1031 3053 
L 481 3053 
L 563 3500 
L 1113 3500 
L 1159 3744 
Q 1278 4363 1576 4613 
Q 1875 4863 2516 4863 
L 3059 4863 
z
" transform="scale(0.015625)"/>
       <path id="DejaVuSans-Oblique-45" d="M 1081 4666 
L 4031 4666 
L 3928 4134 
L 1606 4134 
L 1338 2753 
L 3566 2753 
L 3463 2222 
L 1234 2222 
L 909 531 
L 3284 531 
L 3181 0 
L 172 0 
L 1081 4666 
z
" transform="scale(0.015625)"/>
       <path id="DejaVuSans-2b" d="M 2944 4013 
L 2944 2272 
L 4684 2272 
L 4684 1741 
L 2944 1741 
L 2944 0 
L 2419 0 
L 2419 1741 
L 678 1741 
L 678 2272 
L 2419 2272 
L 2419 4013 
L 2944 4013 
z
" transform="scale(0.015625)"/>
      </defs>
      <use xlink:href="#DejaVuSans-28" transform="translate(0 0.015625)"/>
      <use xlink:href="#DejaVuSans-Oblique-63" transform="translate(39.013672 0.015625)"/>
      <use xlink:href="#DejaVuSans-2c" transform="translate(93.994141 0.015625)"/>
      <use xlink:href="#DejaVuSans-Oblique-68" transform="translate(145.263672 0.015625)"/>
      <use xlink:href="#DejaVuSans-29" transform="translate(208.642578 0.015625)"/>
      <use xlink:href="#DejaVuSans-3d" transform="translate(267.138672 0.015625)"/>
      <use xlink:href="#DejaVuSans-28" transform="translate(370.410156 0.015625)"/>
      <use xlink:href="#DejaVuSans-30" transform="translate(409.423828 0.015625)"/>
      <use xlink:href="#DejaVuSans-2e" transform="translate(473.046875 0.015625)"/>
      <use xlink:href="#DejaVuSans-31" transform="translate(504.833984 0.015625)"/>
      <use xlink:href="#DejaVuSans-2c" transform="translate(568.457031 0.015625)"/>
      <use xlink:href="#DejaVuSans-30" transform="translate(619.726562 0.015625)"/>
      <use xlink:href="#DejaVuSans-2e" transform="translate(683.349609 0.015625)"/>
      <use xlink:href="#DejaVuSans-30" transform="translate(715.136719 0.015625)"/>
      <use xlink:href="#DejaVuSans-31" transform="translate(778.759766 0.015625)"/>
      <use xlink:href="#DejaVuSans-29" transform="translate(842.382812 0.015625)"/>
      <use xlink:href="#DejaVuSans-2c" transform="translate(881.396484 0.015625)"/>
      <use xlink:href="#DejaVuSans-Oblique-3ba" transform="translate(932.666016 0.015625)"/>
      <use xlink:href="#DejaVuSans-Oblique-65" transform="translate(991.601562 -16.390625) scale(0.7)"/>
      <use xlink:href="#DejaVuSans-Oblique-66" transform="translate(1034.667969 -16.390625) scale(0.7)"/>
      <use xlink:href="#DejaVuSans-Oblique-66" transform="translate(1059.311523 -16.390625) scale(0.7)"/>
      <use xlink:href="#DejaVuSans-2c" transform="translate(1083.955078 -16.390625) scale(0.7)"/>
      <use xlink:href="#DejaVuSans-32" transform="translate(1119.84375 -16.390625) scale(0.7)"/>
      <use xlink:href="#DejaVuSans-3d" transform="translate(1186.59668 0.015625)"/>
      <use xlink:href="#DejaVuSans-32" transform="translate(1289.868164 0.015625)"/>
      <use xlink:href="#DejaVuSans-2e" transform="translate(1353.491211 0.015625)"/>
      <use xlink:href="#DejaVuSans-30" transform="translate(1385.27832 0.015625)"/>
      <use xlink:href="#DejaVuSans-30" transform="translate(1448.901367 0.015625)"/>
      <use xlink:href="#DejaVuSans-Oblique-45" transform="translate(1512.524414 0.015625)"/>
      <use xlink:href="#DejaVuSans-2b" transform="translate(1595.19043 0.015625)"/>
      <use xlink:href="#DejaVuSans-30" transform="translate(1698.461914 0.015625)"/>
      <use xlink:href="#DejaVuSans-30" transform="translate(1762.084961 0.015625)"/>
     </g>
    </g>
    <g id="line2d_42">
     <path d="M 179.22 69.672 
L 189.22 69.672 
L 199.22 69.672 
" style="fill: none; stroke: #ff7f0e; stroke-width: 1.5; stroke-linecap: square"/>
    </g>
    <g id="text_19">
     <!-- $(c,h)=(0.1, 0.001), \kappa_{eff,2}=2.00E+00$ -->
     <g transform="translate(207.22 73.172) scale(0.1 -0.1)">
      <use xlink:href="#DejaVuSans-28" transform="translate(0 0.015625)"/>
      <use xlink:href="#DejaVuSans-Oblique-63" transform="translate(39.013672 0.015625)"/>
      <use xlink:href="#DejaVuSans-2c" transform="translate(93.994141 0.015625)"/>
      <use xlink:href="#DejaVuSans-Oblique-68" transform="translate(145.263672 0.015625)"/>
      <use xlink:href="#DejaVuSans-29" transform="translate(208.642578 0.015625)"/>
      <use xlink:href="#DejaVuSans-3d" transform="translate(267.138672 0.015625)"/>
      <use xlink:href="#DejaVuSans-28" transform="translate(370.410156 0.015625)"/>
      <use xlink:href="#DejaVuSans-30" transform="translate(409.423828 0.015625)"/>
      <use xlink:href="#DejaVuSans-2e" transform="translate(473.046875 0.015625)"/>
      <use xlink:href="#DejaVuSans-31" transform="translate(504.833984 0.015625)"/>
      <use xlink:href="#DejaVuSans-2c" transform="translate(568.457031 0.015625)"/>
      <use xlink:href="#DejaVuSans-30" transform="translate(619.726562 0.015625)"/>
      <use xlink:href="#DejaVuSans-2e" transform="translate(683.349609 0.015625)"/>
      <use xlink:href="#DejaVuSans-30" transform="translate(715.136719 0.015625)"/>
      <use xlink:href="#DejaVuSans-30" transform="translate(778.759766 0.015625)"/>
      <use xlink:href="#DejaVuSans-31" transform="translate(842.382812 0.015625)"/>
      <use xlink:href="#DejaVuSans-29" transform="translate(906.005859 0.015625)"/>
      <use xlink:href="#DejaVuSans-2c" transform="translate(945.019531 0.015625)"/>
      <use xlink:href="#DejaVuSans-Oblique-3ba" transform="translate(996.289062 0.015625)"/>
      <use xlink:href="#DejaVuSans-Oblique-65" transform="translate(1055.224609 -16.390625) scale(0.7)"/>
      <use xlink:href="#DejaVuSans-Oblique-66" transform="translate(1098.291016 -16.390625) scale(0.7)"/>
      <use xlink:href="#DejaVuSans-Oblique-66" transform="translate(1122.93457 -16.390625) scale(0.7)"/>
      <use xlink:href="#DejaVuSans-2c" transform="translate(1147.578125 -16.390625) scale(0.7)"/>
      <use xlink:href="#DejaVuSans-32" transform="translate(1183.466797 -16.390625) scale(0.7)"/>
      <use xlink:href="#DejaVuSans-3d" transform="translate(1250.219727 0.015625)"/>
      <use xlink:href="#DejaVuSans-32" transform="translate(1353.491211 0.015625)"/>
      <use xlink:href="#DejaVuSans-2e" transform="translate(1417.114258 0.015625)"/>
      <use xlink:href="#DejaVuSans-30" transform="translate(1448.901367 0.015625)"/>
      <use xlink:href="#DejaVuSans-30" transform="translate(1512.524414 0.015625)"/>
      <use xlink:href="#DejaVuSans-Oblique-45" transform="translate(1576.147461 0.015625)"/>
      <use xlink:href="#DejaVuSans-2b" transform="translate(1658.813477 0.015625)"/>
      <use xlink:href="#DejaVuSans-30" transform="translate(1762.084961 0.015625)"/>
      <use xlink:href="#DejaVuSans-30" transform="translate(1825.708008 0.015625)"/>
     </g>
    </g>
    <g id="line2d_43">
     <path d="M 179.22 84.772 
L 189.22 84.772 
L 199.22 84.772 
" style="fill: none; stroke: #2ca02c; stroke-width: 1.5; stroke-linecap: square"/>
    </g>
    <g id="text_20">
     <!-- $(c,h)=(1, 0.01), \kappa_{eff,2}=2.00E+00$ -->
     <g transform="translate(207.22 88.272) scale(0.1 -0.1)">
      <use xlink:href="#DejaVuSans-28" transform="translate(0 0.015625)"/>
      <use xlink:href="#DejaVuSans-Oblique-63" transform="translate(39.013672 0.015625)"/>
      <use xlink:href="#DejaVuSans-2c" transform="translate(93.994141 0.015625)"/>
      <use xlink:href="#DejaVuSans-Oblique-68" transform="translate(145.263672 0.015625)"/>
      <use xlink:href="#DejaVuSans-29" transform="translate(208.642578 0.015625)"/>
      <use xlink:href="#DejaVuSans-3d" transform="translate(267.138672 0.015625)"/>
      <use xlink:href="#DejaVuSans-28" transform="translate(370.410156 0.015625)"/>
      <use xlink:href="#DejaVuSans-31" transform="translate(409.423828 0.015625)"/>
      <use xlink:href="#DejaVuSans-2c" transform="translate(473.046875 0.015625)"/>
      <use xlink:href="#DejaVuSans-30" transform="translate(524.316406 0.015625)"/>
      <use xlink:href="#DejaVuSans-2e" transform="translate(587.939453 0.015625)"/>
      <use xlink:href="#DejaVuSans-30" transform="translate(619.726562 0.015625)"/>
      <use xlink:href="#DejaVuSans-31" transform="translate(683.349609 0.015625)"/>
      <use xlink:href="#DejaVuSans-29" transform="translate(746.972656 0.015625)"/>
      <use xlink:href="#DejaVuSans-2c" transform="translate(785.986328 0.015625)"/>
      <use xlink:href="#DejaVuSans-Oblique-3ba" transform="translate(837.255859 0.015625)"/>
      <use xlink:href="#DejaVuSans-Oblique-65" transform="translate(896.191406 -16.390625) scale(0.7)"/>
      <use xlink:href="#DejaVuSans-Oblique-66" transform="translate(939.257812 -16.390625) scale(0.7)"/>
      <use xlink:href="#DejaVuSans-Oblique-66" transform="translate(963.901367 -16.390625) scale(0.7)"/>
      <use xlink:href="#DejaVuSans-2c" transform="translate(988.544922 -16.390625) scale(0.7)"/>
      <use xlink:href="#DejaVuSans-32" transform="translate(1024.433594 -16.390625) scale(0.7)"/>
      <use xlink:href="#DejaVuSans-3d" transform="translate(1091.186523 0.015625)"/>
      <use xlink:href="#DejaVuSans-32" transform="translate(1194.458008 0.015625)"/>
      <use xlink:href="#DejaVuSans-2e" transform="translate(1258.081055 0.015625)"/>
      <use xlink:href="#DejaVuSans-30" transform="translate(1289.868164 0.015625)"/>
      <use xlink:href="#DejaVuSans-30" transform="translate(1353.491211 0.015625)"/>
      <use xlink:href="#DejaVuSans-Oblique-45" transform="translate(1417.114258 0.015625)"/>
      <use xlink:href="#DejaVuSans-2b" transform="translate(1499.780273 0.015625)"/>
      <use xlink:href="#DejaVuSans-30" transform="translate(1603.051758 0.015625)"/>
      <use xlink:href="#DejaVuSans-30" transform="translate(1666.674805 0.015625)"/>
     </g>
    </g>
    <g id="line2d_44">
     <path d="M 179.22 99.872 
L 189.22 99.872 
L 199.22 99.872 
" style="fill: none; stroke: #d62728; stroke-width: 1.5; stroke-linecap: square"/>
    </g>
    <g id="text_21">
     <!-- $(c,h)=(1, 0.001), \kappa_{eff,2}=2.00E+00$ -->
     <g transform="translate(207.22 103.372) scale(0.1 -0.1)">
      <use xlink:href="#DejaVuSans-28" transform="translate(0 0.015625)"/>
      <use xlink:href="#DejaVuSans-Oblique-63" transform="translate(39.013672 0.015625)"/>
      <use xlink:href="#DejaVuSans-2c" transform="translate(93.994141 0.015625)"/>
      <use xlink:href="#DejaVuSans-Oblique-68" transform="translate(145.263672 0.015625)"/>
      <use xlink:href="#DejaVuSans-29" transform="translate(208.642578 0.015625)"/>
      <use xlink:href="#DejaVuSans-3d" transform="translate(267.138672 0.015625)"/>
      <use xlink:href="#DejaVuSans-28" transform="translate(370.410156 0.015625)"/>
      <use xlink:href="#DejaVuSans-31" transform="translate(409.423828 0.015625)"/>
      <use xlink:href="#DejaVuSans-2c" transform="translate(473.046875 0.015625)"/>
      <use xlink:href="#DejaVuSans-30" transform="translate(524.316406 0.015625)"/>
      <use xlink:href="#DejaVuSans-2e" transform="translate(587.939453 0.015625)"/>
      <use xlink:href="#DejaVuSans-30" transform="translate(619.726562 0.015625)"/>
      <use xlink:href="#DejaVuSans-30" transform="translate(683.349609 0.015625)"/>
      <use xlink:href="#DejaVuSans-31" transform="translate(746.972656 0.015625)"/>
      <use xlink:href="#DejaVuSans-29" transform="translate(810.595703 0.015625)"/>
      <use xlink:href="#DejaVuSans-2c" transform="translate(849.609375 0.015625)"/>
      <use xlink:href="#DejaVuSans-Oblique-3ba" transform="translate(900.878906 0.015625)"/>
      <use xlink:href="#DejaVuSans-Oblique-65" transform="translate(959.814453 -16.390625) scale(0.7)"/>
      <use xlink:href="#DejaVuSans-Oblique-66" transform="translate(1002.880859 -16.390625) scale(0.7)"/>
      <use xlink:href="#DejaVuSans-Oblique-66" transform="translate(1027.524414 -16.390625) scale(0.7)"/>
      <use xlink:href="#DejaVuSans-2c" transform="translate(1052.167969 -16.390625) scale(0.7)"/>
      <use xlink:href="#DejaVuSans-32" transform="translate(1088.056641 -16.390625) scale(0.7)"/>
      <use xlink:href="#DejaVuSans-3d" transform="translate(1154.80957 0.015625)"/>
      <use xlink:href="#DejaVuSans-32" transform="translate(1258.081055 0.015625)"/>
      <use xlink:href="#DejaVuSans-2e" transform="translate(1321.704102 0.015625)"/>
      <use xlink:href="#DejaVuSans-30" transform="translate(1353.491211 0.015625)"/>
      <use xlink:href="#DejaVuSans-30" transform="translate(1417.114258 0.015625)"/>
      <use xlink:href="#DejaVuSans-Oblique-45" transform="translate(1480.737305 0.015625)"/>
      <use xlink:href="#DejaVuSans-2b" transform="translate(1563.40332 0.015625)"/>
      <use xlink:href="#DejaVuSans-30" transform="translate(1666.674805 0.015625)"/>
      <use xlink:href="#DejaVuSans-30" transform="translate(1730.297852 0.015625)"/>
     </g>
    </g>
    <g id="line2d_45">
     <path d="M 179.22 114.972 
L 189.22 114.972 
L 199.22 114.972 
" style="fill: none; stroke: #9467bd; stroke-width: 1.5; stroke-linecap: square"/>
    </g>
    <g id="text_22">
     <!-- $(c,h)=(10, 0.01), \kappa_{eff,2}=2.00E+00$ -->
     <g transform="translate(207.22 118.472) scale(0.1 -0.1)">
      <use xlink:href="#DejaVuSans-28" transform="translate(0 0.015625)"/>
      <use xlink:href="#DejaVuSans-Oblique-63" transform="translate(39.013672 0.015625)"/>
      <use xlink:href="#DejaVuSans-2c" transform="translate(93.994141 0.015625)"/>
      <use xlink:href="#DejaVuSans-Oblique-68" transform="translate(145.263672 0.015625)"/>
      <use xlink:href="#DejaVuSans-29" transform="translate(208.642578 0.015625)"/>
      <use xlink:href="#DejaVuSans-3d" transform="translate(267.138672 0.015625)"/>
      <use xlink:href="#DejaVuSans-28" transform="translate(370.410156 0.015625)"/>
      <use xlink:href="#DejaVuSans-31" transform="translate(409.423828 0.015625)"/>
      <use xlink:href="#DejaVuSans-30" transform="translate(473.046875 0.015625)"/>
      <use xlink:href="#DejaVuSans-2c" transform="translate(536.669922 0.015625)"/>
      <use xlink:href="#DejaVuSans-30" transform="translate(587.939453 0.015625)"/>
      <use xlink:href="#DejaVuSans-2e" transform="translate(651.5625 0.015625)"/>
      <use xlink:href="#DejaVuSans-30" transform="translate(683.349609 0.015625)"/>
      <use xlink:href="#DejaVuSans-31" transform="translate(746.972656 0.015625)"/>
      <use xlink:href="#DejaVuSans-29" transform="translate(810.595703 0.015625)"/>
      <use xlink:href="#DejaVuSans-2c" transform="translate(849.609375 0.015625)"/>
      <use xlink:href="#DejaVuSans-Oblique-3ba" transform="translate(900.878906 0.015625)"/>
      <use xlink:href="#DejaVuSans-Oblique-65" transform="translate(959.814453 -16.390625) scale(0.7)"/>
      <use xlink:href="#DejaVuSans-Oblique-66" transform="translate(1002.880859 -16.390625) scale(0.7)"/>
      <use xlink:href="#DejaVuSans-Oblique-66" transform="translate(1027.524414 -16.390625) scale(0.7)"/>
      <use xlink:href="#DejaVuSans-2c" transform="translate(1052.167969 -16.390625) scale(0.7)"/>
      <use xlink:href="#DejaVuSans-32" transform="translate(1088.056641 -16.390625) scale(0.7)"/>
      <use xlink:href="#DejaVuSans-3d" transform="translate(1154.80957 0.015625)"/>
      <use xlink:href="#DejaVuSans-32" transform="translate(1258.081055 0.015625)"/>
      <use xlink:href="#DejaVuSans-2e" transform="translate(1321.704102 0.015625)"/>
      <use xlink:href="#DejaVuSans-30" transform="translate(1353.491211 0.015625)"/>
      <use xlink:href="#DejaVuSans-30" transform="translate(1417.114258 0.015625)"/>
      <use xlink:href="#DejaVuSans-Oblique-45" transform="translate(1480.737305 0.015625)"/>
      <use xlink:href="#DejaVuSans-2b" transform="translate(1563.40332 0.015625)"/>
      <use xlink:href="#DejaVuSans-30" transform="translate(1666.674805 0.015625)"/>
      <use xlink:href="#DejaVuSans-30" transform="translate(1730.297852 0.015625)"/>
     </g>
    </g>
    <g id="line2d_46">
     <path d="M 179.22 130.072 
L 189.22 130.072 
L 199.22 130.072 
" style="fill: none; stroke: #8c564b; stroke-width: 1.5; stroke-linecap: square"/>
    </g>
    <g id="text_23">
     <!-- $(c,h)=(10, 0.001), \kappa_{eff,2}=2.00E+00$ -->
     <g transform="translate(207.22 133.572) scale(0.1 -0.1)">
      <use xlink:href="#DejaVuSans-28" transform="translate(0 0.015625)"/>
      <use xlink:href="#DejaVuSans-Oblique-63" transform="translate(39.013672 0.015625)"/>
      <use xlink:href="#DejaVuSans-2c" transform="translate(93.994141 0.015625)"/>
      <use xlink:href="#DejaVuSans-Oblique-68" transform="translate(145.263672 0.015625)"/>
      <use xlink:href="#DejaVuSans-29" transform="translate(208.642578 0.015625)"/>
      <use xlink:href="#DejaVuSans-3d" transform="translate(267.138672 0.015625)"/>
      <use xlink:href="#DejaVuSans-28" transform="translate(370.410156 0.015625)"/>
      <use xlink:href="#DejaVuSans-31" transform="translate(409.423828 0.015625)"/>
      <use xlink:href="#DejaVuSans-30" transform="translate(473.046875 0.015625)"/>
      <use xlink:href="#DejaVuSans-2c" transform="translate(536.669922 0.015625)"/>
      <use xlink:href="#DejaVuSans-30" transform="translate(587.939453 0.015625)"/>
      <use xlink:href="#DejaVuSans-2e" transform="translate(651.5625 0.015625)"/>
      <use xlink:href="#DejaVuSans-30" transform="translate(683.349609 0.015625)"/>
      <use xlink:href="#DejaVuSans-30" transform="translate(746.972656 0.015625)"/>
      <use xlink:href="#DejaVuSans-31" transform="translate(810.595703 0.015625)"/>
      <use xlink:href="#DejaVuSans-29" transform="translate(874.21875 0.015625)"/>
      <use xlink:href="#DejaVuSans-2c" transform="translate(913.232422 0.015625)"/>
      <use xlink:href="#DejaVuSans-Oblique-3ba" transform="translate(964.501953 0.015625)"/>
      <use xlink:href="#DejaVuSans-Oblique-65" transform="translate(1023.4375 -16.390625) scale(0.7)"/>
      <use xlink:href="#DejaVuSans-Oblique-66" transform="translate(1066.503906 -16.390625) scale(0.7)"/>
      <use xlink:href="#DejaVuSans-Oblique-66" transform="translate(1091.147461 -16.390625) scale(0.7)"/>
      <use xlink:href="#DejaVuSans-2c" transform="translate(1115.791016 -16.390625) scale(0.7)"/>
      <use xlink:href="#DejaVuSans-32" transform="translate(1151.679688 -16.390625) scale(0.7)"/>
      <use xlink:href="#DejaVuSans-3d" transform="translate(1218.432617 0.015625)"/>
      <use xlink:href="#DejaVuSans-32" transform="translate(1321.704102 0.015625)"/>
      <use xlink:href="#DejaVuSans-2e" transform="translate(1385.327148 0.015625)"/>
      <use xlink:href="#DejaVuSans-30" transform="translate(1417.114258 0.015625)"/>
      <use xlink:href="#DejaVuSans-30" transform="translate(1480.737305 0.015625)"/>
      <use xlink:href="#DejaVuSans-Oblique-45" transform="translate(1544.360352 0.015625)"/>
      <use xlink:href="#DejaVuSans-2b" transform="translate(1627.026367 0.015625)"/>
      <use xlink:href="#DejaVuSans-30" transform="translate(1730.297852 0.015625)"/>
      <use xlink:href="#DejaVuSans-30" transform="translate(1793.920898 0.015625)"/>
     </g>
    </g>
    <g id="line2d_47">
     <path d="M 179.22 145.172 
L 189.22 145.172 
L 199.22 145.172 
" style="fill: none; stroke: #e377c2; stroke-width: 1.5; stroke-linecap: square"/>
    </g>
    <g id="text_24">
     <!-- $(c,h)=(100, 0.01), \kappa_{eff,2}=1.99E+00$ -->
     <g transform="translate(207.22 148.672) scale(0.1 -0.1)">
      <defs>
       <path id="DejaVuSans-39" d="M 703 97 
L 703 672 
Q 941 559 1184 500 
Q 1428 441 1663 441 
Q 2288 441 2617 861 
Q 2947 1281 2994 2138 
Q 2813 1869 2534 1725 
Q 2256 1581 1919 1581 
Q 1219 1581 811 2004 
Q 403 2428 403 3163 
Q 403 3881 828 4315 
Q 1253 4750 1959 4750 
Q 2769 4750 3195 4129 
Q 3622 3509 3622 2328 
Q 3622 1225 3098 567 
Q 2575 -91 1691 -91 
Q 1453 -91 1209 -44 
Q 966 3 703 97 
z
M 1959 2075 
Q 2384 2075 2632 2365 
Q 2881 2656 2881 3163 
Q 2881 3666 2632 3958 
Q 2384 4250 1959 4250 
Q 1534 4250 1286 3958 
Q 1038 3666 1038 3163 
Q 1038 2656 1286 2365 
Q 1534 2075 1959 2075 
z
" transform="scale(0.015625)"/>
      </defs>
      <use xlink:href="#DejaVuSans-28" transform="translate(0 0.015625)"/>
      <use xlink:href="#DejaVuSans-Oblique-63" transform="translate(39.013672 0.015625)"/>
      <use xlink:href="#DejaVuSans-2c" transform="translate(93.994141 0.015625)"/>
      <use xlink:href="#DejaVuSans-Oblique-68" transform="translate(145.263672 0.015625)"/>
      <use xlink:href="#DejaVuSans-29" transform="translate(208.642578 0.015625)"/>
      <use xlink:href="#DejaVuSans-3d" transform="translate(267.138672 0.015625)"/>
      <use xlink:href="#DejaVuSans-28" transform="translate(370.410156 0.015625)"/>
      <use xlink:href="#DejaVuSans-31" transform="translate(409.423828 0.015625)"/>
      <use xlink:href="#DejaVuSans-30" transform="translate(473.046875 0.015625)"/>
      <use xlink:href="#DejaVuSans-30" transform="translate(536.669922 0.015625)"/>
      <use xlink:href="#DejaVuSans-2c" transform="translate(600.292969 0.015625)"/>
      <use xlink:href="#DejaVuSans-30" transform="translate(651.5625 0.015625)"/>
      <use xlink:href="#DejaVuSans-2e" transform="translate(715.185547 0.015625)"/>
      <use xlink:href="#DejaVuSans-30" transform="translate(746.972656 0.015625)"/>
      <use xlink:href="#DejaVuSans-31" transform="translate(810.595703 0.015625)"/>
      <use xlink:href="#DejaVuSans-29" transform="translate(874.21875 0.015625)"/>
      <use xlink:href="#DejaVuSans-2c" transform="translate(913.232422 0.015625)"/>
      <use xlink:href="#DejaVuSans-Oblique-3ba" transform="translate(964.501953 0.015625)"/>
      <use xlink:href="#DejaVuSans-Oblique-65" transform="translate(1023.4375 -16.390625) scale(0.7)"/>
      <use xlink:href="#DejaVuSans-Oblique-66" transform="translate(1066.503906 -16.390625) scale(0.7)"/>
      <use xlink:href="#DejaVuSans-Oblique-66" transform="translate(1091.147461 -16.390625) scale(0.7)"/>
      <use xlink:href="#DejaVuSans-2c" transform="translate(1115.791016 -16.390625) scale(0.7)"/>
      <use xlink:href="#DejaVuSans-32" transform="translate(1151.679688 -16.390625) scale(0.7)"/>
      <use xlink:href="#DejaVuSans-3d" transform="translate(1218.432617 0.015625)"/>
      <use xlink:href="#DejaVuSans-31" transform="translate(1321.704102 0.015625)"/>
      <use xlink:href="#DejaVuSans-2e" transform="translate(1385.327148 0.015625)"/>
      <use xlink:href="#DejaVuSans-39" transform="translate(1417.114258 0.015625)"/>
      <use xlink:href="#DejaVuSans-39" transform="translate(1480.737305 0.015625)"/>
      <use xlink:href="#DejaVuSans-Oblique-45" transform="translate(1544.360352 0.015625)"/>
      <use xlink:href="#DejaVuSans-2b" transform="translate(1627.026367 0.015625)"/>
      <use xlink:href="#DejaVuSans-30" transform="translate(1730.297852 0.015625)"/>
      <use xlink:href="#DejaVuSans-30" transform="translate(1793.920898 0.015625)"/>
     </g>
    </g>
    <g id="line2d_48">
     <path d="M 179.22 160.272 
L 189.22 160.272 
L 199.22 160.272 
" style="fill: none; stroke: #7f7f7f; stroke-width: 1.5; stroke-linecap: square"/>
    </g>
    <g id="text_25">
     <!-- $(c,h)=(100, 0.001), \kappa_{eff,2}=2.00E+00$ -->
     <g transform="translate(207.22 163.772) scale(0.1 -0.1)">
      <use xlink:href="#DejaVuSans-28" transform="translate(0 0.015625)"/>
      <use xlink:href="#DejaVuSans-Oblique-63" transform="translate(39.013672 0.015625)"/>
      <use xlink:href="#DejaVuSans-2c" transform="translate(93.994141 0.015625)"/>
      <use xlink:href="#DejaVuSans-Oblique-68" transform="translate(145.263672 0.015625)"/>
      <use xlink:href="#DejaVuSans-29" transform="translate(208.642578 0.015625)"/>
      <use xlink:href="#DejaVuSans-3d" transform="translate(267.138672 0.015625)"/>
      <use xlink:href="#DejaVuSans-28" transform="translate(370.410156 0.015625)"/>
      <use xlink:href="#DejaVuSans-31" transform="translate(409.423828 0.015625)"/>
      <use xlink:href="#DejaVuSans-30" transform="translate(473.046875 0.015625)"/>
      <use xlink:href="#DejaVuSans-30" transform="translate(536.669922 0.015625)"/>
      <use xlink:href="#DejaVuSans-2c" transform="translate(600.292969 0.015625)"/>
      <use xlink:href="#DejaVuSans-30" transform="translate(651.5625 0.015625)"/>
      <use xlink:href="#DejaVuSans-2e" transform="translate(715.185547 0.015625)"/>
      <use xlink:href="#DejaVuSans-30" transform="translate(746.972656 0.015625)"/>
      <use xlink:href="#DejaVuSans-30" transform="translate(810.595703 0.015625)"/>
      <use xlink:href="#DejaVuSans-31" transform="translate(874.21875 0.015625)"/>
      <use xlink:href="#DejaVuSans-29" transform="translate(937.841797 0.015625)"/>
      <use xlink:href="#DejaVuSans-2c" transform="translate(976.855469 0.015625)"/>
      <use xlink:href="#DejaVuSans-Oblique-3ba" transform="translate(1028.125 0.015625)"/>
      <use xlink:href="#DejaVuSans-Oblique-65" transform="translate(1087.060547 -16.390625) scale(0.7)"/>
      <use xlink:href="#DejaVuSans-Oblique-66" transform="translate(1130.126953 -16.390625) scale(0.7)"/>
      <use xlink:href="#DejaVuSans-Oblique-66" transform="translate(1154.770508 -16.390625) scale(0.7)"/>
      <use xlink:href="#DejaVuSans-2c" transform="translate(1179.414062 -16.390625) scale(0.7)"/>
      <use xlink:href="#DejaVuSans-32" transform="translate(1215.302734 -16.390625) scale(0.7)"/>
      <use xlink:href="#DejaVuSans-3d" transform="translate(1282.055664 0.015625)"/>
      <use xlink:href="#DejaVuSans-32" transform="translate(1385.327148 0.015625)"/>
      <use xlink:href="#DejaVuSans-2e" transform="translate(1448.950195 0.015625)"/>
      <use xlink:href="#DejaVuSans-30" transform="translate(1480.737305 0.015625)"/>
      <use xlink:href="#DejaVuSans-30" transform="translate(1544.360352 0.015625)"/>
      <use xlink:href="#DejaVuSans-Oblique-45" transform="translate(1607.983398 0.015625)"/>
      <use xlink:href="#DejaVuSans-2b" transform="translate(1690.649414 0.015625)"/>
      <use xlink:href="#DejaVuSans-30" transform="translate(1793.920898 0.015625)"/>
      <use xlink:href="#DejaVuSans-30" transform="translate(1857.543945 0.015625)"/>
     </g>
    </g>
    <g id="line2d_49">
     <path d="M 179.22 175.372 
L 189.22 175.372 
L 199.22 175.372 
" style="fill: none; stroke: #bcbd22; stroke-width: 1.5; stroke-linecap: square"/>
    </g>
    <g id="text_26">
     <!-- $(c,h)=(1000, 0.01), \kappa_{eff,2}=1.95E+00$ -->
     <g transform="translate(207.22 178.872) scale(0.1 -0.1)">
      <defs>
       <path id="DejaVuSans-35" d="M 691 4666 
L 3169 4666 
L 3169 4134 
L 1269 4134 
L 1269 2991 
Q 1406 3038 1543 3061 
Q 1681 3084 1819 3084 
Q 2600 3084 3056 2656 
Q 3513 2228 3513 1497 
Q 3513 744 3044 326 
Q 2575 -91 1722 -91 
Q 1428 -91 1123 -41 
Q 819 9 494 109 
L 494 744 
Q 775 591 1075 516 
Q 1375 441 1709 441 
Q 2250 441 2565 725 
Q 2881 1009 2881 1497 
Q 2881 1984 2565 2268 
Q 2250 2553 1709 2553 
Q 1456 2553 1204 2497 
Q 953 2441 691 2322 
L 691 4666 
z
" transform="scale(0.015625)"/>
      </defs>
      <use xlink:href="#DejaVuSans-28" transform="translate(0 0.015625)"/>
      <use xlink:href="#DejaVuSans-Oblique-63" transform="translate(39.013672 0.015625)"/>
      <use xlink:href="#DejaVuSans-2c" transform="translate(93.994141 0.015625)"/>
      <use xlink:href="#DejaVuSans-Oblique-68" transform="translate(145.263672 0.015625)"/>
      <use xlink:href="#DejaVuSans-29" transform="translate(208.642578 0.015625)"/>
      <use xlink:href="#DejaVuSans-3d" transform="translate(267.138672 0.015625)"/>
      <use xlink:href="#DejaVuSans-28" transform="translate(370.410156 0.015625)"/>
      <use xlink:href="#DejaVuSans-31" transform="translate(409.423828 0.015625)"/>
      <use xlink:href="#DejaVuSans-30" transform="translate(473.046875 0.015625)"/>
      <use xlink:href="#DejaVuSans-30" transform="translate(536.669922 0.015625)"/>
      <use xlink:href="#DejaVuSans-30" transform="translate(600.292969 0.015625)"/>
      <use xlink:href="#DejaVuSans-2c" transform="translate(663.916016 0.015625)"/>
      <use xlink:href="#DejaVuSans-30" transform="translate(715.185547 0.015625)"/>
      <use xlink:href="#DejaVuSans-2e" transform="translate(778.808594 0.015625)"/>
      <use xlink:href="#DejaVuSans-30" transform="translate(810.595703 0.015625)"/>
      <use xlink:href="#DejaVuSans-31" transform="translate(874.21875 0.015625)"/>
      <use xlink:href="#DejaVuSans-29" transform="translate(937.841797 0.015625)"/>
      <use xlink:href="#DejaVuSans-2c" transform="translate(976.855469 0.015625)"/>
      <use xlink:href="#DejaVuSans-Oblique-3ba" transform="translate(1028.125 0.015625)"/>
      <use xlink:href="#DejaVuSans-Oblique-65" transform="translate(1087.060547 -16.390625) scale(0.7)"/>
      <use xlink:href="#DejaVuSans-Oblique-66" transform="translate(1130.126953 -16.390625) scale(0.7)"/>
      <use xlink:href="#DejaVuSans-Oblique-66" transform="translate(1154.770508 -16.390625) scale(0.7)"/>
      <use xlink:href="#DejaVuSans-2c" transform="translate(1179.414062 -16.390625) scale(0.7)"/>
      <use xlink:href="#DejaVuSans-32" transform="translate(1215.302734 -16.390625) scale(0.7)"/>
      <use xlink:href="#DejaVuSans-3d" transform="translate(1282.055664 0.015625)"/>
      <use xlink:href="#DejaVuSans-31" transform="translate(1385.327148 0.015625)"/>
      <use xlink:href="#DejaVuSans-2e" transform="translate(1448.950195 0.015625)"/>
      <use xlink:href="#DejaVuSans-39" transform="translate(1480.737305 0.015625)"/>
      <use xlink:href="#DejaVuSans-35" transform="translate(1544.360352 0.015625)"/>
      <use xlink:href="#DejaVuSans-Oblique-45" transform="translate(1607.983398 0.015625)"/>
      <use xlink:href="#DejaVuSans-2b" transform="translate(1690.649414 0.015625)"/>
      <use xlink:href="#DejaVuSans-30" transform="translate(1793.920898 0.015625)"/>
      <use xlink:href="#DejaVuSans-30" transform="translate(1857.543945 0.015625)"/>
     </g>
    </g>
    <g id="line2d_50">
     <path d="M 179.22 190.472 
L 189.22 190.472 
L 199.22 190.472 
" style="fill: none; stroke: #17becf; stroke-width: 1.5; stroke-linecap: square"/>
    </g>
    <g id="text_27">
     <!-- $(c,h)=(1000, 0.001), \kappa_{eff,2}=2.00E+00$ -->
     <g transform="translate(207.22 193.972) scale(0.1 -0.1)">
      <use xlink:href="#DejaVuSans-28" transform="translate(0 0.015625)"/>
      <use xlink:href="#DejaVuSans-Oblique-63" transform="translate(39.013672 0.015625)"/>
      <use xlink:href="#DejaVuSans-2c" transform="translate(93.994141 0.015625)"/>
      <use xlink:href="#DejaVuSans-Oblique-68" transform="translate(145.263672 0.015625)"/>
      <use xlink:href="#DejaVuSans-29" transform="translate(208.642578 0.015625)"/>
      <use xlink:href="#DejaVuSans-3d" transform="translate(267.138672 0.015625)"/>
      <use xlink:href="#DejaVuSans-28" transform="translate(370.410156 0.015625)"/>
      <use xlink:href="#DejaVuSans-31" transform="translate(409.423828 0.015625)"/>
      <use xlink:href="#DejaVuSans-30" transform="translate(473.046875 0.015625)"/>
      <use xlink:href="#DejaVuSans-30" transform="translate(536.669922 0.015625)"/>
      <use xlink:href="#DejaVuSans-30" transform="translate(600.292969 0.015625)"/>
      <use xlink:href="#DejaVuSans-2c" transform="translate(663.916016 0.015625)"/>
      <use xlink:href="#DejaVuSans-30" transform="translate(715.185547 0.015625)"/>
      <use xlink:href="#DejaVuSans-2e" transform="translate(778.808594 0.015625)"/>
      <use xlink:href="#DejaVuSans-30" transform="translate(810.595703 0.015625)"/>
      <use xlink:href="#DejaVuSans-30" transform="translate(874.21875 0.015625)"/>
      <use xlink:href="#DejaVuSans-31" transform="translate(937.841797 0.015625)"/>
      <use xlink:href="#DejaVuSans-29" transform="translate(1001.464844 0.015625)"/>
      <use xlink:href="#DejaVuSans-2c" transform="translate(1040.478516 0.015625)"/>
      <use xlink:href="#DejaVuSans-Oblique-3ba" transform="translate(1091.748047 0.015625)"/>
      <use xlink:href="#DejaVuSans-Oblique-65" transform="translate(1150.683594 -16.390625) scale(0.7)"/>
      <use xlink:href="#DejaVuSans-Oblique-66" transform="translate(1193.75 -16.390625) scale(0.7)"/>
      <use xlink:href="#DejaVuSans-Oblique-66" transform="translate(1218.393555 -16.390625) scale(0.7)"/>
      <use xlink:href="#DejaVuSans-2c" transform="translate(1243.037109 -16.390625) scale(0.7)"/>
      <use xlink:href="#DejaVuSans-32" transform="translate(1278.925781 -16.390625) scale(0.7)"/>
      <use xlink:href="#DejaVuSans-3d" transform="translate(1345.678711 0.015625)"/>
      <use xlink:href="#DejaVuSans-32" transform="translate(1448.950195 0.015625)"/>
      <use xlink:href="#DejaVuSans-2e" transform="translate(1512.573242 0.015625)"/>
      <use xlink:href="#DejaVuSans-30" transform="translate(1544.360352 0.015625)"/>
      <use xlink:href="#DejaVuSans-30" transform="translate(1607.983398 0.015625)"/>
      <use xlink:href="#DejaVuSans-Oblique-45" transform="translate(1671.606445 0.015625)"/>
      <use xlink:href="#DejaVuSans-2b" transform="translate(1754.272461 0.015625)"/>
      <use xlink:href="#DejaVuSans-30" transform="translate(1857.543945 0.015625)"/>
      <use xlink:href="#DejaVuSans-30" transform="translate(1921.166992 0.015625)"/>
     </g>
    </g>
   </g>
  </g>
 </g>
 <defs>
  <clipPath id="pe8aa023b68">
   <rect x="57.6" y="41.472" width="357.12" height="266.112"/>
  </clipPath>
 </defs>
</svg>
