<?xml version="1.0" encoding="utf-8" standalone="no"?>
<!DOCTYPE svg PUBLIC "-//W3C//DTD SVG 1.1//EN"
  "http://www.w3.org/Graphics/SVG/1.1/DTD/svg11.dtd">
<svg xmlns:xlink="http://www.w3.org/1999/xlink" width="1152pt" height="576pt" viewBox="0 0 1152 576" xmlns="http://www.w3.org/2000/svg" version="1.1">
 <metadata>
  <rdf:RDF xmlns:dc="http://purl.org/dc/elements/1.1/" xmlns:cc="http://creativecommons.org/ns#" xmlns:rdf="http://www.w3.org/1999/02/22-rdf-syntax-ns#">
   <cc:Work>
    <dc:type rdf:resource="http://purl.org/dc/dcmitype/StillImage"/>
    <dc:date>2023-12-21T14:12:18.757642</dc:date>
    <dc:format>image/svg+xml</dc:format>
    <dc:creator>
     <cc:Agent>
      <dc:title>Matplotlib v3.8.2, https://matplotlib.org/</dc:title>
     </cc:Agent>
    </dc:creator>
   </cc:Work>
  </rdf:RDF>
 </metadata>
 <defs>
  <style type="text/css">*{stroke-linejoin: round; stroke-linecap: butt}</style>
 </defs>
 <g id="figure_1">
  <g id="patch_1">
   <path d="M 0 576 
L 1152 576 
L 1152 0 
L 0 0 
z
" style="fill: #ffffff"/>
  </g>
  <g id="axes_1">
   <g id="patch_2">
    <path d="M 144 512.64 
L 1036.8 512.64 
L 1036.8 69.12 
L 144 69.12 
z
" style="fill: #ffffff"/>
   </g>
   <g id="matplotlib.axis_1">
    <g id="xtick_1">
     <g id="line2d_1">
      <path d="M 184.581818 512.64 
L 184.581818 69.12 
" clip-path="url(#p19b720a117)" style="fill: none; stroke: #b0b0b0; stroke-width: 0.8; stroke-linecap: square"/>
     </g>
     <g id="line2d_2">
      <defs>
       <path id="m896542c5e6" d="M 0 0 
L 0 3.5 
" style="stroke: #000000; stroke-width: 0.8"/>
      </defs>
      <g>
       <use xlink:href="#m896542c5e6" x="184.581818" y="512.64" style="stroke: #000000; stroke-width: 0.8"/>
      </g>
     </g>
     <g id="text_1">
      <!-- 0 -->
      <g transform="translate(181.400568 527.238438) scale(0.1 -0.1)">
       <defs>
        <path id="DejaVuSans-30" d="M 2034 4250 
Q 1547 4250 1301 3770 
Q 1056 3291 1056 2328 
Q 1056 1369 1301 889 
Q 1547 409 2034 409 
Q 2525 409 2770 889 
Q 3016 1369 3016 2328 
Q 3016 3291 2770 3770 
Q 2525 4250 2034 4250 
z
M 2034 4750 
Q 2819 4750 3233 4129 
Q 3647 3509 3647 2328 
Q 3647 1150 3233 529 
Q 2819 -91 2034 -91 
Q 1250 -91 836 529 
Q 422 1150 422 2328 
Q 422 3509 836 4129 
Q 1250 4750 2034 4750 
z
" transform="scale(0.015625)"/>
       </defs>
       <use xlink:href="#DejaVuSans-30"/>
      </g>
     </g>
    </g>
    <g id="xtick_2">
     <g id="line2d_3">
      <path d="M 297.938852 512.64 
L 297.938852 69.12 
" clip-path="url(#p19b720a117)" style="fill: none; stroke: #b0b0b0; stroke-width: 0.8; stroke-linecap: square"/>
     </g>
     <g id="line2d_4">
      <g>
       <use xlink:href="#m896542c5e6" x="297.938852" y="512.64" style="stroke: #000000; stroke-width: 0.8"/>
      </g>
     </g>
     <g id="text_2">
      <!-- 50 -->
      <g transform="translate(291.576352 527.238438) scale(0.1 -0.1)">
       <defs>
        <path id="DejaVuSans-35" d="M 691 4666 
L 3169 4666 
L 3169 4134 
L 1269 4134 
L 1269 2991 
Q 1406 3038 1543 3061 
Q 1681 3084 1819 3084 
Q 2600 3084 3056 2656 
Q 3513 2228 3513 1497 
Q 3513 744 3044 326 
Q 2575 -91 1722 -91 
Q 1428 -91 1123 -41 
Q 819 9 494 109 
L 494 744 
Q 775 591 1075 516 
Q 1375 441 1709 441 
Q 2250 441 2565 725 
Q 2881 1009 2881 1497 
Q 2881 1984 2565 2268 
Q 2250 2553 1709 2553 
Q 1456 2553 1204 2497 
Q 953 2441 691 2322 
L 691 4666 
z
" transform="scale(0.015625)"/>
       </defs>
       <use xlink:href="#DejaVuSans-35"/>
       <use xlink:href="#DejaVuSans-30" x="63.623047"/>
      </g>
     </g>
    </g>
    <g id="xtick_3">
     <g id="line2d_5">
      <path d="M 411.295886 512.64 
L 411.295886 69.12 
" clip-path="url(#p19b720a117)" style="fill: none; stroke: #b0b0b0; stroke-width: 0.8; stroke-linecap: square"/>
     </g>
     <g id="line2d_6">
      <g>
       <use xlink:href="#m896542c5e6" x="411.295886" y="512.64" style="stroke: #000000; stroke-width: 0.8"/>
      </g>
     </g>
     <g id="text_3">
      <!-- 100 -->
      <g transform="translate(401.752136 527.238438) scale(0.1 -0.1)">
       <defs>
        <path id="DejaVuSans-31" d="M 794 531 
L 1825 531 
L 1825 4091 
L 703 3866 
L 703 4441 
L 1819 4666 
L 2450 4666 
L 2450 531 
L 3481 531 
L 3481 0 
L 794 0 
L 794 531 
z
" transform="scale(0.015625)"/>
       </defs>
       <use xlink:href="#DejaVuSans-31"/>
       <use xlink:href="#DejaVuSans-30" x="63.623047"/>
       <use xlink:href="#DejaVuSans-30" x="127.246094"/>
      </g>
     </g>
    </g>
    <g id="xtick_4">
     <g id="line2d_7">
      <path d="M 524.65292 512.64 
L 524.65292 69.12 
" clip-path="url(#p19b720a117)" style="fill: none; stroke: #b0b0b0; stroke-width: 0.8; stroke-linecap: square"/>
     </g>
     <g id="line2d_8">
      <g>
       <use xlink:href="#m896542c5e6" x="524.65292" y="512.64" style="stroke: #000000; stroke-width: 0.8"/>
      </g>
     </g>
     <g id="text_4">
      <!-- 150 -->
      <g transform="translate(515.10917 527.238438) scale(0.1 -0.1)">
       <use xlink:href="#DejaVuSans-31"/>
       <use xlink:href="#DejaVuSans-35" x="63.623047"/>
       <use xlink:href="#DejaVuSans-30" x="127.246094"/>
      </g>
     </g>
    </g>
    <g id="xtick_5">
     <g id="line2d_9">
      <path d="M 638.009954 512.64 
L 638.009954 69.12 
" clip-path="url(#p19b720a117)" style="fill: none; stroke: #b0b0b0; stroke-width: 0.8; stroke-linecap: square"/>
     </g>
     <g id="line2d_10">
      <g>
       <use xlink:href="#m896542c5e6" x="638.009954" y="512.64" style="stroke: #000000; stroke-width: 0.8"/>
      </g>
     </g>
     <g id="text_5">
      <!-- 200 -->
      <g transform="translate(628.466204 527.238438) scale(0.1 -0.1)">
       <defs>
        <path id="DejaVuSans-32" d="M 1228 531 
L 3431 531 
L 3431 0 
L 469 0 
L 469 531 
Q 828 903 1448 1529 
Q 2069 2156 2228 2338 
Q 2531 2678 2651 2914 
Q 2772 3150 2772 3378 
Q 2772 3750 2511 3984 
Q 2250 4219 1831 4219 
Q 1534 4219 1204 4116 
Q 875 4013 500 3803 
L 500 4441 
Q 881 4594 1212 4672 
Q 1544 4750 1819 4750 
Q 2544 4750 2975 4387 
Q 3406 4025 3406 3419 
Q 3406 3131 3298 2873 
Q 3191 2616 2906 2266 
Q 2828 2175 2409 1742 
Q 1991 1309 1228 531 
z
" transform="scale(0.015625)"/>
       </defs>
       <use xlink:href="#DejaVuSans-32"/>
       <use xlink:href="#DejaVuSans-30" x="63.623047"/>
       <use xlink:href="#DejaVuSans-30" x="127.246094"/>
      </g>
     </g>
    </g>
    <g id="xtick_6">
     <g id="line2d_11">
      <path d="M 751.366988 512.64 
L 751.366988 69.12 
" clip-path="url(#p19b720a117)" style="fill: none; stroke: #b0b0b0; stroke-width: 0.8; stroke-linecap: square"/>
     </g>
     <g id="line2d_12">
      <g>
       <use xlink:href="#m896542c5e6" x="751.366988" y="512.64" style="stroke: #000000; stroke-width: 0.8"/>
      </g>
     </g>
     <g id="text_6">
      <!-- 250 -->
      <g transform="translate(741.823238 527.238438) scale(0.1 -0.1)">
       <use xlink:href="#DejaVuSans-32"/>
       <use xlink:href="#DejaVuSans-35" x="63.623047"/>
       <use xlink:href="#DejaVuSans-30" x="127.246094"/>
      </g>
     </g>
    </g>
    <g id="xtick_7">
     <g id="line2d_13">
      <path d="M 864.724022 512.64 
L 864.724022 69.12 
" clip-path="url(#p19b720a117)" style="fill: none; stroke: #b0b0b0; stroke-width: 0.8; stroke-linecap: square"/>
     </g>
     <g id="line2d_14">
      <g>
       <use xlink:href="#m896542c5e6" x="864.724022" y="512.64" style="stroke: #000000; stroke-width: 0.8"/>
      </g>
     </g>
     <g id="text_7">
      <!-- 300 -->
      <g transform="translate(855.180272 527.238438) scale(0.1 -0.1)">
       <defs>
        <path id="DejaVuSans-33" d="M 2597 2516 
Q 3050 2419 3304 2112 
Q 3559 1806 3559 1356 
Q 3559 666 3084 287 
Q 2609 -91 1734 -91 
Q 1441 -91 1130 -33 
Q 819 25 488 141 
L 488 750 
Q 750 597 1062 519 
Q 1375 441 1716 441 
Q 2309 441 2620 675 
Q 2931 909 2931 1356 
Q 2931 1769 2642 2001 
Q 2353 2234 1838 2234 
L 1294 2234 
L 1294 2753 
L 1863 2753 
Q 2328 2753 2575 2939 
Q 2822 3125 2822 3475 
Q 2822 3834 2567 4026 
Q 2313 4219 1838 4219 
Q 1578 4219 1281 4162 
Q 984 4106 628 3988 
L 628 4550 
Q 988 4650 1302 4700 
Q 1616 4750 1894 4750 
Q 2613 4750 3031 4423 
Q 3450 4097 3450 3541 
Q 3450 3153 3228 2886 
Q 3006 2619 2597 2516 
z
" transform="scale(0.015625)"/>
       </defs>
       <use xlink:href="#DejaVuSans-33"/>
       <use xlink:href="#DejaVuSans-30" x="63.623047"/>
       <use xlink:href="#DejaVuSans-30" x="127.246094"/>
      </g>
     </g>
    </g>
    <g id="xtick_8">
     <g id="line2d_15">
      <path d="M 978.081056 512.64 
L 978.081056 69.12 
" clip-path="url(#p19b720a117)" style="fill: none; stroke: #b0b0b0; stroke-width: 0.8; stroke-linecap: square"/>
     </g>
     <g id="line2d_16">
      <g>
       <use xlink:href="#m896542c5e6" x="978.081056" y="512.64" style="stroke: #000000; stroke-width: 0.8"/>
      </g>
     </g>
     <g id="text_8">
      <!-- 350 -->
      <g transform="translate(968.537306 527.238438) scale(0.1 -0.1)">
       <use xlink:href="#DejaVuSans-33"/>
       <use xlink:href="#DejaVuSans-35" x="63.623047"/>
       <use xlink:href="#DejaVuSans-30" x="127.246094"/>
      </g>
     </g>
    </g>
    <g id="text_9">
     <!-- # iterations -->
     <g transform="translate(560.89375 540.916563) scale(0.1 -0.1)">
      <defs>
       <path id="DejaVuSans-23" d="M 3272 2816 
L 2363 2816 
L 2100 1772 
L 3016 1772 
L 3272 2816 
z
M 2803 4594 
L 2478 3297 
L 3391 3297 
L 3719 4594 
L 4219 4594 
L 3897 3297 
L 4872 3297 
L 4872 2816 
L 3775 2816 
L 3519 1772 
L 4513 1772 
L 4513 1294 
L 3397 1294 
L 3072 0 
L 2572 0 
L 2894 1294 
L 1978 1294 
L 1656 0 
L 1153 0 
L 1478 1294 
L 494 1294 
L 494 1772 
L 1594 1772 
L 1856 2816 
L 850 2816 
L 850 3297 
L 1978 3297 
L 2297 4594 
L 2803 4594 
z
" transform="scale(0.015625)"/>
       <path id="DejaVuSans-20" transform="scale(0.015625)"/>
       <path id="DejaVuSans-69" d="M 603 3500 
L 1178 3500 
L 1178 0 
L 603 0 
L 603 3500 
z
M 603 4863 
L 1178 4863 
L 1178 4134 
L 603 4134 
L 603 4863 
z
" transform="scale(0.015625)"/>
       <path id="DejaVuSans-74" d="M 1172 4494 
L 1172 3500 
L 2356 3500 
L 2356 3053 
L 1172 3053 
L 1172 1153 
Q 1172 725 1289 603 
Q 1406 481 1766 481 
L 2356 481 
L 2356 0 
L 1766 0 
Q 1100 0 847 248 
Q 594 497 594 1153 
L 594 3053 
L 172 3053 
L 172 3500 
L 594 3500 
L 594 4494 
L 1172 4494 
z
" transform="scale(0.015625)"/>
       <path id="DejaVuSans-65" d="M 3597 1894 
L 3597 1613 
L 953 1613 
Q 991 1019 1311 708 
Q 1631 397 2203 397 
Q 2534 397 2845 478 
Q 3156 559 3463 722 
L 3463 178 
Q 3153 47 2828 -22 
Q 2503 -91 2169 -91 
Q 1331 -91 842 396 
Q 353 884 353 1716 
Q 353 2575 817 3079 
Q 1281 3584 2069 3584 
Q 2775 3584 3186 3129 
Q 3597 2675 3597 1894 
z
M 3022 2063 
Q 3016 2534 2758 2815 
Q 2500 3097 2075 3097 
Q 1594 3097 1305 2825 
Q 1016 2553 972 2059 
L 3022 2063 
z
" transform="scale(0.015625)"/>
       <path id="DejaVuSans-72" d="M 2631 2963 
Q 2534 3019 2420 3045 
Q 2306 3072 2169 3072 
Q 1681 3072 1420 2755 
Q 1159 2438 1159 1844 
L 1159 0 
L 581 0 
L 581 3500 
L 1159 3500 
L 1159 2956 
Q 1341 3275 1631 3429 
Q 1922 3584 2338 3584 
Q 2397 3584 2469 3576 
Q 2541 3569 2628 3553 
L 2631 2963 
z
" transform="scale(0.015625)"/>
       <path id="DejaVuSans-61" d="M 2194 1759 
Q 1497 1759 1228 1600 
Q 959 1441 959 1056 
Q 959 750 1161 570 
Q 1363 391 1709 391 
Q 2188 391 2477 730 
Q 2766 1069 2766 1631 
L 2766 1759 
L 2194 1759 
z
M 3341 1997 
L 3341 0 
L 2766 0 
L 2766 531 
Q 2569 213 2275 61 
Q 1981 -91 1556 -91 
Q 1019 -91 701 211 
Q 384 513 384 1019 
Q 384 1609 779 1909 
Q 1175 2209 1959 2209 
L 2766 2209 
L 2766 2266 
Q 2766 2663 2505 2880 
Q 2244 3097 1772 3097 
Q 1472 3097 1187 3025 
Q 903 2953 641 2809 
L 641 3341 
Q 956 3463 1253 3523 
Q 1550 3584 1831 3584 
Q 2591 3584 2966 3190 
Q 3341 2797 3341 1997 
z
" transform="scale(0.015625)"/>
       <path id="DejaVuSans-6f" d="M 1959 3097 
Q 1497 3097 1228 2736 
Q 959 2375 959 1747 
Q 959 1119 1226 758 
Q 1494 397 1959 397 
Q 2419 397 2687 759 
Q 2956 1122 2956 1747 
Q 2956 2369 2687 2733 
Q 2419 3097 1959 3097 
z
M 1959 3584 
Q 2709 3584 3137 3096 
Q 3566 2609 3566 1747 
Q 3566 888 3137 398 
Q 2709 -91 1959 -91 
Q 1206 -91 779 398 
Q 353 888 353 1747 
Q 353 2609 779 3096 
Q 1206 3584 1959 3584 
z
" transform="scale(0.015625)"/>
       <path id="DejaVuSans-6e" d="M 3513 2113 
L 3513 0 
L 2938 0 
L 2938 2094 
Q 2938 2591 2744 2837 
Q 2550 3084 2163 3084 
Q 1697 3084 1428 2787 
Q 1159 2491 1159 1978 
L 1159 0 
L 581 0 
L 581 3500 
L 1159 3500 
L 1159 2956 
Q 1366 3272 1645 3428 
Q 1925 3584 2291 3584 
Q 2894 3584 3203 3211 
Q 3513 2838 3513 2113 
z
" transform="scale(0.015625)"/>
       <path id="DejaVuSans-73" d="M 2834 3397 
L 2834 2853 
Q 2591 2978 2328 3040 
Q 2066 3103 1784 3103 
Q 1356 3103 1142 2972 
Q 928 2841 928 2578 
Q 928 2378 1081 2264 
Q 1234 2150 1697 2047 
L 1894 2003 
Q 2506 1872 2764 1633 
Q 3022 1394 3022 966 
Q 3022 478 2636 193 
Q 2250 -91 1575 -91 
Q 1294 -91 989 -36 
Q 684 19 347 128 
L 347 722 
Q 666 556 975 473 
Q 1284 391 1588 391 
Q 1994 391 2212 530 
Q 2431 669 2431 922 
Q 2431 1156 2273 1281 
Q 2116 1406 1581 1522 
L 1381 1569 
Q 847 1681 609 1914 
Q 372 2147 372 2553 
Q 372 3047 722 3315 
Q 1072 3584 1716 3584 
Q 2034 3584 2315 3537 
Q 2597 3491 2834 3397 
z
" transform="scale(0.015625)"/>
      </defs>
      <use xlink:href="#DejaVuSans-23"/>
      <use xlink:href="#DejaVuSans-20" x="83.789062"/>
      <use xlink:href="#DejaVuSans-69" x="115.576172"/>
      <use xlink:href="#DejaVuSans-74" x="143.359375"/>
      <use xlink:href="#DejaVuSans-65" x="182.568359"/>
      <use xlink:href="#DejaVuSans-72" x="244.091797"/>
      <use xlink:href="#DejaVuSans-61" x="285.205078"/>
      <use xlink:href="#DejaVuSans-74" x="346.484375"/>
      <use xlink:href="#DejaVuSans-69" x="385.693359"/>
      <use xlink:href="#DejaVuSans-6f" x="413.476562"/>
      <use xlink:href="#DejaVuSans-6e" x="474.658203"/>
      <use xlink:href="#DejaVuSans-73" x="538.037109"/>
     </g>
    </g>
   </g>
   <g id="matplotlib.axis_2">
    <g id="ytick_1">
     <g id="line2d_17">
      <path d="M 144 478.861058 
L 1036.8 478.861058 
" clip-path="url(#p19b720a117)" style="fill: none; stroke: #b0b0b0; stroke-width: 0.8; stroke-linecap: square"/>
     </g>
     <g id="line2d_18">
      <defs>
       <path id="m459099fa97" d="M 0 0 
L -3.5 0 
" style="stroke: #000000; stroke-width: 0.8"/>
      </defs>
      <g>
       <use xlink:href="#m459099fa97" x="144" y="478.861058" style="stroke: #000000; stroke-width: 0.8"/>
      </g>
     </g>
     <g id="text_10">
      <!-- $\mathdefault{10^{-2}}$ -->
      <g transform="translate(113.5 482.660277) scale(0.1 -0.1)">
       <defs>
        <path id="DejaVuSans-2212" d="M 678 2272 
L 4684 2272 
L 4684 1741 
L 678 1741 
L 678 2272 
z
" transform="scale(0.015625)"/>
       </defs>
       <use xlink:href="#DejaVuSans-31" transform="translate(0 0.765625)"/>
       <use xlink:href="#DejaVuSans-30" transform="translate(63.623047 0.765625)"/>
       <use xlink:href="#DejaVuSans-2212" transform="translate(128.203125 39.046875) scale(0.7)"/>
       <use xlink:href="#DejaVuSans-32" transform="translate(186.855469 39.046875) scale(0.7)"/>
      </g>
     </g>
    </g>
    <g id="ytick_2">
     <g id="line2d_19">
      <path d="M 144 430.16686 
L 1036.8 430.16686 
" clip-path="url(#p19b720a117)" style="fill: none; stroke: #b0b0b0; stroke-width: 0.8; stroke-linecap: square"/>
     </g>
     <g id="line2d_20">
      <g>
       <use xlink:href="#m459099fa97" x="144" y="430.16686" style="stroke: #000000; stroke-width: 0.8"/>
      </g>
     </g>
     <g id="text_11">
      <!-- $\mathdefault{10^{-1}}$ -->
      <g transform="translate(113.5 433.966079) scale(0.1 -0.1)">
       <use xlink:href="#DejaVuSans-31" transform="translate(0 0.684375)"/>
       <use xlink:href="#DejaVuSans-30" transform="translate(63.623047 0.684375)"/>
       <use xlink:href="#DejaVuSans-2212" transform="translate(128.203125 38.965625) scale(0.7)"/>
       <use xlink:href="#DejaVuSans-31" transform="translate(186.855469 38.965625) scale(0.7)"/>
      </g>
     </g>
    </g>
    <g id="ytick_3">
     <g id="line2d_21">
      <path d="M 144 381.472663 
L 1036.8 381.472663 
" clip-path="url(#p19b720a117)" style="fill: none; stroke: #b0b0b0; stroke-width: 0.8; stroke-linecap: square"/>
     </g>
     <g id="line2d_22">
      <g>
       <use xlink:href="#m459099fa97" x="144" y="381.472663" style="stroke: #000000; stroke-width: 0.8"/>
      </g>
     </g>
     <g id="text_12">
      <!-- $\mathdefault{10^{0}}$ -->
      <g transform="translate(119.4 385.271881) scale(0.1 -0.1)">
       <use xlink:href="#DejaVuSans-31" transform="translate(0 0.765625)"/>
       <use xlink:href="#DejaVuSans-30" transform="translate(63.623047 0.765625)"/>
       <use xlink:href="#DejaVuSans-30" transform="translate(128.203125 39.046875) scale(0.7)"/>
      </g>
     </g>
    </g>
    <g id="ytick_4">
     <g id="line2d_23">
      <path d="M 144 332.778465 
L 1036.8 332.778465 
" clip-path="url(#p19b720a117)" style="fill: none; stroke: #b0b0b0; stroke-width: 0.8; stroke-linecap: square"/>
     </g>
     <g id="line2d_24">
      <g>
       <use xlink:href="#m459099fa97" x="144" y="332.778465" style="stroke: #000000; stroke-width: 0.8"/>
      </g>
     </g>
     <g id="text_13">
      <!-- $\mathdefault{10^{1}}$ -->
      <g transform="translate(119.4 336.577684) scale(0.1 -0.1)">
       <use xlink:href="#DejaVuSans-31" transform="translate(0 0.684375)"/>
       <use xlink:href="#DejaVuSans-30" transform="translate(63.623047 0.684375)"/>
       <use xlink:href="#DejaVuSans-31" transform="translate(128.203125 38.965625) scale(0.7)"/>
      </g>
     </g>
    </g>
    <g id="ytick_5">
     <g id="line2d_25">
      <path d="M 144 284.084267 
L 1036.8 284.084267 
" clip-path="url(#p19b720a117)" style="fill: none; stroke: #b0b0b0; stroke-width: 0.8; stroke-linecap: square"/>
     </g>
     <g id="line2d_26">
      <g>
       <use xlink:href="#m459099fa97" x="144" y="284.084267" style="stroke: #000000; stroke-width: 0.8"/>
      </g>
     </g>
     <g id="text_14">
      <!-- $\mathdefault{10^{2}}$ -->
      <g transform="translate(119.4 287.883486) scale(0.1 -0.1)">
       <use xlink:href="#DejaVuSans-31" transform="translate(0 0.765625)"/>
       <use xlink:href="#DejaVuSans-30" transform="translate(63.623047 0.765625)"/>
       <use xlink:href="#DejaVuSans-32" transform="translate(128.203125 39.046875) scale(0.7)"/>
      </g>
     </g>
    </g>
    <g id="ytick_6">
     <g id="line2d_27">
      <path d="M 144 235.39007 
L 1036.8 235.39007 
" clip-path="url(#p19b720a117)" style="fill: none; stroke: #b0b0b0; stroke-width: 0.8; stroke-linecap: square"/>
     </g>
     <g id="line2d_28">
      <g>
       <use xlink:href="#m459099fa97" x="144" y="235.39007" style="stroke: #000000; stroke-width: 0.8"/>
      </g>
     </g>
     <g id="text_15">
      <!-- $\mathdefault{10^{3}}$ -->
      <g transform="translate(119.4 239.189289) scale(0.1 -0.1)">
       <use xlink:href="#DejaVuSans-31" transform="translate(0 0.765625)"/>
       <use xlink:href="#DejaVuSans-30" transform="translate(63.623047 0.765625)"/>
       <use xlink:href="#DejaVuSans-33" transform="translate(128.203125 39.046875) scale(0.7)"/>
      </g>
     </g>
    </g>
    <g id="ytick_7">
     <g id="line2d_29">
      <path d="M 144 186.695872 
L 1036.8 186.695872 
" clip-path="url(#p19b720a117)" style="fill: none; stroke: #b0b0b0; stroke-width: 0.8; stroke-linecap: square"/>
     </g>
     <g id="line2d_30">
      <g>
       <use xlink:href="#m459099fa97" x="144" y="186.695872" style="stroke: #000000; stroke-width: 0.8"/>
      </g>
     </g>
     <g id="text_16">
      <!-- $\mathdefault{10^{4}}$ -->
      <g transform="translate(119.4 190.495091) scale(0.1 -0.1)">
       <defs>
        <path id="DejaVuSans-34" d="M 2419 4116 
L 825 1625 
L 2419 1625 
L 2419 4116 
z
M 2253 4666 
L 3047 4666 
L 3047 1625 
L 3713 1625 
L 3713 1100 
L 3047 1100 
L 3047 0 
L 2419 0 
L 2419 1100 
L 313 1100 
L 313 1709 
L 2253 4666 
z
" transform="scale(0.015625)"/>
       </defs>
       <use xlink:href="#DejaVuSans-31" transform="translate(0 0.684375)"/>
       <use xlink:href="#DejaVuSans-30" transform="translate(63.623047 0.684375)"/>
       <use xlink:href="#DejaVuSans-34" transform="translate(128.203125 38.965625) scale(0.7)"/>
      </g>
     </g>
    </g>
    <g id="ytick_8">
     <g id="line2d_31">
      <path d="M 144 138.001675 
L 1036.8 138.001675 
" clip-path="url(#p19b720a117)" style="fill: none; stroke: #b0b0b0; stroke-width: 0.8; stroke-linecap: square"/>
     </g>
     <g id="line2d_32">
      <g>
       <use xlink:href="#m459099fa97" x="144" y="138.001675" style="stroke: #000000; stroke-width: 0.8"/>
      </g>
     </g>
     <g id="text_17">
      <!-- $\mathdefault{10^{5}}$ -->
      <g transform="translate(119.4 141.800893) scale(0.1 -0.1)">
       <use xlink:href="#DejaVuSans-31" transform="translate(0 0.684375)"/>
       <use xlink:href="#DejaVuSans-30" transform="translate(63.623047 0.684375)"/>
       <use xlink:href="#DejaVuSans-35" transform="translate(128.203125 38.965625) scale(0.7)"/>
      </g>
     </g>
    </g>
    <g id="ytick_9">
     <g id="line2d_33">
      <path d="M 144 89.307477 
L 1036.8 89.307477 
" clip-path="url(#p19b720a117)" style="fill: none; stroke: #b0b0b0; stroke-width: 0.8; stroke-linecap: square"/>
     </g>
     <g id="line2d_34">
      <g>
       <use xlink:href="#m459099fa97" x="144" y="89.307477" style="stroke: #000000; stroke-width: 0.8"/>
      </g>
     </g>
     <g id="text_18">
      <!-- $\mathdefault{10^{6}}$ -->
      <g transform="translate(119.4 93.106696) scale(0.1 -0.1)">
       <defs>
        <path id="DejaVuSans-36" d="M 2113 2584 
Q 1688 2584 1439 2293 
Q 1191 2003 1191 1497 
Q 1191 994 1439 701 
Q 1688 409 2113 409 
Q 2538 409 2786 701 
Q 3034 994 3034 1497 
Q 3034 2003 2786 2293 
Q 2538 2584 2113 2584 
z
M 3366 4563 
L 3366 3988 
Q 3128 4100 2886 4159 
Q 2644 4219 2406 4219 
Q 1781 4219 1451 3797 
Q 1122 3375 1075 2522 
Q 1259 2794 1537 2939 
Q 1816 3084 2150 3084 
Q 2853 3084 3261 2657 
Q 3669 2231 3669 1497 
Q 3669 778 3244 343 
Q 2819 -91 2113 -91 
Q 1303 -91 875 529 
Q 447 1150 447 2328 
Q 447 3434 972 4092 
Q 1497 4750 2381 4750 
Q 2619 4750 2861 4703 
Q 3103 4656 3366 4563 
z
" transform="scale(0.015625)"/>
       </defs>
       <use xlink:href="#DejaVuSans-31" transform="translate(0 0.765625)"/>
       <use xlink:href="#DejaVuSans-30" transform="translate(63.623047 0.765625)"/>
       <use xlink:href="#DejaVuSans-36" transform="translate(128.203125 39.046875) scale(0.7)"/>
      </g>
     </g>
    </g>
    <g id="ytick_10">
     <g id="line2d_35">
      <defs>
       <path id="mf6ba5ad30e" d="M 0 0 
L -2 0 
" style="stroke: #000000; stroke-width: 0.6"/>
      </defs>
      <g>
       <use xlink:href="#mf6ba5ad30e" x="144" y="504.322219" style="stroke: #000000; stroke-width: 0.6"/>
      </g>
     </g>
    </g>
    <g id="ytick_11">
     <g id="line2d_36">
      <g>
       <use xlink:href="#mf6ba5ad30e" x="144" y="498.238427" style="stroke: #000000; stroke-width: 0.6"/>
      </g>
     </g>
    </g>
    <g id="ytick_12">
     <g id="line2d_37">
      <g>
       <use xlink:href="#mf6ba5ad30e" x="144" y="493.519472" style="stroke: #000000; stroke-width: 0.6"/>
      </g>
     </g>
    </g>
    <g id="ytick_13">
     <g id="line2d_38">
      <g>
       <use xlink:href="#mf6ba5ad30e" x="144" y="489.663805" style="stroke: #000000; stroke-width: 0.6"/>
      </g>
     </g>
    </g>
    <g id="ytick_14">
     <g id="line2d_39">
      <g>
       <use xlink:href="#mf6ba5ad30e" x="144" y="486.403884" style="stroke: #000000; stroke-width: 0.6"/>
      </g>
     </g>
    </g>
    <g id="ytick_15">
     <g id="line2d_40">
      <g>
       <use xlink:href="#mf6ba5ad30e" x="144" y="483.580013" style="stroke: #000000; stroke-width: 0.6"/>
      </g>
     </g>
    </g>
    <g id="ytick_16">
     <g id="line2d_41">
      <g>
       <use xlink:href="#mf6ba5ad30e" x="144" y="481.089182" style="stroke: #000000; stroke-width: 0.6"/>
      </g>
     </g>
    </g>
    <g id="ytick_17">
     <g id="line2d_42">
      <g>
       <use xlink:href="#mf6ba5ad30e" x="144" y="464.202644" style="stroke: #000000; stroke-width: 0.6"/>
      </g>
     </g>
    </g>
    <g id="ytick_18">
     <g id="line2d_43">
      <g>
       <use xlink:href="#mf6ba5ad30e" x="144" y="455.628021" style="stroke: #000000; stroke-width: 0.6"/>
      </g>
     </g>
    </g>
    <g id="ytick_19">
     <g id="line2d_44">
      <g>
       <use xlink:href="#mf6ba5ad30e" x="144" y="449.54423" style="stroke: #000000; stroke-width: 0.6"/>
      </g>
     </g>
    </g>
    <g id="ytick_20">
     <g id="line2d_45">
      <g>
       <use xlink:href="#mf6ba5ad30e" x="144" y="444.825274" style="stroke: #000000; stroke-width: 0.6"/>
      </g>
     </g>
    </g>
    <g id="ytick_21">
     <g id="line2d_46">
      <g>
       <use xlink:href="#mf6ba5ad30e" x="144" y="440.969607" style="stroke: #000000; stroke-width: 0.6"/>
      </g>
     </g>
    </g>
    <g id="ytick_22">
     <g id="line2d_47">
      <g>
       <use xlink:href="#mf6ba5ad30e" x="144" y="437.709687" style="stroke: #000000; stroke-width: 0.6"/>
      </g>
     </g>
    </g>
    <g id="ytick_23">
     <g id="line2d_48">
      <g>
       <use xlink:href="#mf6ba5ad30e" x="144" y="434.885816" style="stroke: #000000; stroke-width: 0.6"/>
      </g>
     </g>
    </g>
    <g id="ytick_24">
     <g id="line2d_49">
      <g>
       <use xlink:href="#mf6ba5ad30e" x="144" y="432.394985" style="stroke: #000000; stroke-width: 0.6"/>
      </g>
     </g>
    </g>
    <g id="ytick_25">
     <g id="line2d_50">
      <g>
       <use xlink:href="#mf6ba5ad30e" x="144" y="415.508446" style="stroke: #000000; stroke-width: 0.6"/>
      </g>
     </g>
    </g>
    <g id="ytick_26">
     <g id="line2d_51">
      <g>
       <use xlink:href="#mf6ba5ad30e" x="144" y="406.933824" style="stroke: #000000; stroke-width: 0.6"/>
      </g>
     </g>
    </g>
    <g id="ytick_27">
     <g id="line2d_52">
      <g>
       <use xlink:href="#mf6ba5ad30e" x="144" y="400.850032" style="stroke: #000000; stroke-width: 0.6"/>
      </g>
     </g>
    </g>
    <g id="ytick_28">
     <g id="line2d_53">
      <g>
       <use xlink:href="#mf6ba5ad30e" x="144" y="396.131077" style="stroke: #000000; stroke-width: 0.6"/>
      </g>
     </g>
    </g>
    <g id="ytick_29">
     <g id="line2d_54">
      <g>
       <use xlink:href="#mf6ba5ad30e" x="144" y="392.275409" style="stroke: #000000; stroke-width: 0.6"/>
      </g>
     </g>
    </g>
    <g id="ytick_30">
     <g id="line2d_55">
      <g>
       <use xlink:href="#mf6ba5ad30e" x="144" y="389.015489" style="stroke: #000000; stroke-width: 0.6"/>
      </g>
     </g>
    </g>
    <g id="ytick_31">
     <g id="line2d_56">
      <g>
       <use xlink:href="#mf6ba5ad30e" x="144" y="386.191618" style="stroke: #000000; stroke-width: 0.6"/>
      </g>
     </g>
    </g>
    <g id="ytick_32">
     <g id="line2d_57">
      <g>
       <use xlink:href="#mf6ba5ad30e" x="144" y="383.700787" style="stroke: #000000; stroke-width: 0.6"/>
      </g>
     </g>
    </g>
    <g id="ytick_33">
     <g id="line2d_58">
      <g>
       <use xlink:href="#mf6ba5ad30e" x="144" y="366.814249" style="stroke: #000000; stroke-width: 0.6"/>
      </g>
     </g>
    </g>
    <g id="ytick_34">
     <g id="line2d_59">
      <g>
       <use xlink:href="#mf6ba5ad30e" x="144" y="358.239626" style="stroke: #000000; stroke-width: 0.6"/>
      </g>
     </g>
    </g>
    <g id="ytick_35">
     <g id="line2d_60">
      <g>
       <use xlink:href="#mf6ba5ad30e" x="144" y="352.155834" style="stroke: #000000; stroke-width: 0.6"/>
      </g>
     </g>
    </g>
    <g id="ytick_36">
     <g id="line2d_61">
      <g>
       <use xlink:href="#mf6ba5ad30e" x="144" y="347.436879" style="stroke: #000000; stroke-width: 0.6"/>
      </g>
     </g>
    </g>
    <g id="ytick_37">
     <g id="line2d_62">
      <g>
       <use xlink:href="#mf6ba5ad30e" x="144" y="343.581212" style="stroke: #000000; stroke-width: 0.6"/>
      </g>
     </g>
    </g>
    <g id="ytick_38">
     <g id="line2d_63">
      <g>
       <use xlink:href="#mf6ba5ad30e" x="144" y="340.321292" style="stroke: #000000; stroke-width: 0.6"/>
      </g>
     </g>
    </g>
    <g id="ytick_39">
     <g id="line2d_64">
      <g>
       <use xlink:href="#mf6ba5ad30e" x="144" y="337.49742" style="stroke: #000000; stroke-width: 0.6"/>
      </g>
     </g>
    </g>
    <g id="ytick_40">
     <g id="line2d_65">
      <g>
       <use xlink:href="#mf6ba5ad30e" x="144" y="335.006589" style="stroke: #000000; stroke-width: 0.6"/>
      </g>
     </g>
    </g>
    <g id="ytick_41">
     <g id="line2d_66">
      <g>
       <use xlink:href="#mf6ba5ad30e" x="144" y="318.120051" style="stroke: #000000; stroke-width: 0.6"/>
      </g>
     </g>
    </g>
    <g id="ytick_42">
     <g id="line2d_67">
      <g>
       <use xlink:href="#mf6ba5ad30e" x="144" y="309.545428" style="stroke: #000000; stroke-width: 0.6"/>
      </g>
     </g>
    </g>
    <g id="ytick_43">
     <g id="line2d_68">
      <g>
       <use xlink:href="#mf6ba5ad30e" x="144" y="303.461637" style="stroke: #000000; stroke-width: 0.6"/>
      </g>
     </g>
    </g>
    <g id="ytick_44">
     <g id="line2d_69">
      <g>
       <use xlink:href="#mf6ba5ad30e" x="144" y="298.742682" style="stroke: #000000; stroke-width: 0.6"/>
      </g>
     </g>
    </g>
    <g id="ytick_45">
     <g id="line2d_70">
      <g>
       <use xlink:href="#mf6ba5ad30e" x="144" y="294.887014" style="stroke: #000000; stroke-width: 0.6"/>
      </g>
     </g>
    </g>
    <g id="ytick_46">
     <g id="line2d_71">
      <g>
       <use xlink:href="#mf6ba5ad30e" x="144" y="291.627094" style="stroke: #000000; stroke-width: 0.6"/>
      </g>
     </g>
    </g>
    <g id="ytick_47">
     <g id="line2d_72">
      <g>
       <use xlink:href="#mf6ba5ad30e" x="144" y="288.803223" style="stroke: #000000; stroke-width: 0.6"/>
      </g>
     </g>
    </g>
    <g id="ytick_48">
     <g id="line2d_73">
      <g>
       <use xlink:href="#mf6ba5ad30e" x="144" y="286.312392" style="stroke: #000000; stroke-width: 0.6"/>
      </g>
     </g>
    </g>
    <g id="ytick_49">
     <g id="line2d_74">
      <g>
       <use xlink:href="#mf6ba5ad30e" x="144" y="269.425853" style="stroke: #000000; stroke-width: 0.6"/>
      </g>
     </g>
    </g>
    <g id="ytick_50">
     <g id="line2d_75">
      <g>
       <use xlink:href="#mf6ba5ad30e" x="144" y="260.851231" style="stroke: #000000; stroke-width: 0.6"/>
      </g>
     </g>
    </g>
    <g id="ytick_51">
     <g id="line2d_76">
      <g>
       <use xlink:href="#mf6ba5ad30e" x="144" y="254.767439" style="stroke: #000000; stroke-width: 0.6"/>
      </g>
     </g>
    </g>
    <g id="ytick_52">
     <g id="line2d_77">
      <g>
       <use xlink:href="#mf6ba5ad30e" x="144" y="250.048484" style="stroke: #000000; stroke-width: 0.6"/>
      </g>
     </g>
    </g>
    <g id="ytick_53">
     <g id="line2d_78">
      <g>
       <use xlink:href="#mf6ba5ad30e" x="144" y="246.192817" style="stroke: #000000; stroke-width: 0.6"/>
      </g>
     </g>
    </g>
    <g id="ytick_54">
     <g id="line2d_79">
      <g>
       <use xlink:href="#mf6ba5ad30e" x="144" y="242.932896" style="stroke: #000000; stroke-width: 0.6"/>
      </g>
     </g>
    </g>
    <g id="ytick_55">
     <g id="line2d_80">
      <g>
       <use xlink:href="#mf6ba5ad30e" x="144" y="240.109025" style="stroke: #000000; stroke-width: 0.6"/>
      </g>
     </g>
    </g>
    <g id="ytick_56">
     <g id="line2d_81">
      <g>
       <use xlink:href="#mf6ba5ad30e" x="144" y="237.618194" style="stroke: #000000; stroke-width: 0.6"/>
      </g>
     </g>
    </g>
    <g id="ytick_57">
     <g id="line2d_82">
      <g>
       <use xlink:href="#mf6ba5ad30e" x="144" y="220.731656" style="stroke: #000000; stroke-width: 0.6"/>
      </g>
     </g>
    </g>
    <g id="ytick_58">
     <g id="line2d_83">
      <g>
       <use xlink:href="#mf6ba5ad30e" x="144" y="212.157033" style="stroke: #000000; stroke-width: 0.6"/>
      </g>
     </g>
    </g>
    <g id="ytick_59">
     <g id="line2d_84">
      <g>
       <use xlink:href="#mf6ba5ad30e" x="144" y="206.073242" style="stroke: #000000; stroke-width: 0.6"/>
      </g>
     </g>
    </g>
    <g id="ytick_60">
     <g id="line2d_85">
      <g>
       <use xlink:href="#mf6ba5ad30e" x="144" y="201.354286" style="stroke: #000000; stroke-width: 0.6"/>
      </g>
     </g>
    </g>
    <g id="ytick_61">
     <g id="line2d_86">
      <g>
       <use xlink:href="#mf6ba5ad30e" x="144" y="197.498619" style="stroke: #000000; stroke-width: 0.6"/>
      </g>
     </g>
    </g>
    <g id="ytick_62">
     <g id="line2d_87">
      <g>
       <use xlink:href="#mf6ba5ad30e" x="144" y="194.238699" style="stroke: #000000; stroke-width: 0.6"/>
      </g>
     </g>
    </g>
    <g id="ytick_63">
     <g id="line2d_88">
      <g>
       <use xlink:href="#mf6ba5ad30e" x="144" y="191.414828" style="stroke: #000000; stroke-width: 0.6"/>
      </g>
     </g>
    </g>
    <g id="ytick_64">
     <g id="line2d_89">
      <g>
       <use xlink:href="#mf6ba5ad30e" x="144" y="188.923996" style="stroke: #000000; stroke-width: 0.6"/>
      </g>
     </g>
    </g>
    <g id="ytick_65">
     <g id="line2d_90">
      <g>
       <use xlink:href="#mf6ba5ad30e" x="144" y="172.037458" style="stroke: #000000; stroke-width: 0.6"/>
      </g>
     </g>
    </g>
    <g id="ytick_66">
     <g id="line2d_91">
      <g>
       <use xlink:href="#mf6ba5ad30e" x="144" y="163.462836" style="stroke: #000000; stroke-width: 0.6"/>
      </g>
     </g>
    </g>
    <g id="ytick_67">
     <g id="line2d_92">
      <g>
       <use xlink:href="#mf6ba5ad30e" x="144" y="157.379044" style="stroke: #000000; stroke-width: 0.6"/>
      </g>
     </g>
    </g>
    <g id="ytick_68">
     <g id="line2d_93">
      <g>
       <use xlink:href="#mf6ba5ad30e" x="144" y="152.660089" style="stroke: #000000; stroke-width: 0.6"/>
      </g>
     </g>
    </g>
    <g id="ytick_69">
     <g id="line2d_94">
      <g>
       <use xlink:href="#mf6ba5ad30e" x="144" y="148.804421" style="stroke: #000000; stroke-width: 0.6"/>
      </g>
     </g>
    </g>
    <g id="ytick_70">
     <g id="line2d_95">
      <g>
       <use xlink:href="#mf6ba5ad30e" x="144" y="145.544501" style="stroke: #000000; stroke-width: 0.6"/>
      </g>
     </g>
    </g>
    <g id="ytick_71">
     <g id="line2d_96">
      <g>
       <use xlink:href="#mf6ba5ad30e" x="144" y="142.72063" style="stroke: #000000; stroke-width: 0.6"/>
      </g>
     </g>
    </g>
    <g id="ytick_72">
     <g id="line2d_97">
      <g>
       <use xlink:href="#mf6ba5ad30e" x="144" y="140.229799" style="stroke: #000000; stroke-width: 0.6"/>
      </g>
     </g>
    </g>
    <g id="ytick_73">
     <g id="line2d_98">
      <g>
       <use xlink:href="#mf6ba5ad30e" x="144" y="123.343261" style="stroke: #000000; stroke-width: 0.6"/>
      </g>
     </g>
    </g>
    <g id="ytick_74">
     <g id="line2d_99">
      <g>
       <use xlink:href="#mf6ba5ad30e" x="144" y="114.768638" style="stroke: #000000; stroke-width: 0.6"/>
      </g>
     </g>
    </g>
    <g id="ytick_75">
     <g id="line2d_100">
      <g>
       <use xlink:href="#mf6ba5ad30e" x="144" y="108.684846" style="stroke: #000000; stroke-width: 0.6"/>
      </g>
     </g>
    </g>
    <g id="ytick_76">
     <g id="line2d_101">
      <g>
       <use xlink:href="#mf6ba5ad30e" x="144" y="103.965891" style="stroke: #000000; stroke-width: 0.6"/>
      </g>
     </g>
    </g>
    <g id="ytick_77">
     <g id="line2d_102">
      <g>
       <use xlink:href="#mf6ba5ad30e" x="144" y="100.110224" style="stroke: #000000; stroke-width: 0.6"/>
      </g>
     </g>
    </g>
    <g id="ytick_78">
     <g id="line2d_103">
      <g>
       <use xlink:href="#mf6ba5ad30e" x="144" y="96.850304" style="stroke: #000000; stroke-width: 0.6"/>
      </g>
     </g>
    </g>
    <g id="ytick_79">
     <g id="line2d_104">
      <g>
       <use xlink:href="#mf6ba5ad30e" x="144" y="94.026432" style="stroke: #000000; stroke-width: 0.6"/>
      </g>
     </g>
    </g>
    <g id="ytick_80">
     <g id="line2d_105">
      <g>
       <use xlink:href="#mf6ba5ad30e" x="144" y="91.535601" style="stroke: #000000; stroke-width: 0.6"/>
      </g>
     </g>
    </g>
    <g id="ytick_81">
     <g id="line2d_106">
      <g>
       <use xlink:href="#mf6ba5ad30e" x="144" y="74.649063" style="stroke: #000000; stroke-width: 0.6"/>
      </g>
     </g>
    </g>
    <g id="text_19">
     <!-- 2-norm of residual -->
     <g transform="translate(107.420312 336.738594) rotate(-90) scale(0.1 -0.1)">
      <defs>
       <path id="DejaVuSans-2d" d="M 313 2009 
L 1997 2009 
L 1997 1497 
L 313 1497 
L 313 2009 
z
" transform="scale(0.015625)"/>
       <path id="DejaVuSans-6d" d="M 3328 2828 
Q 3544 3216 3844 3400 
Q 4144 3584 4550 3584 
Q 5097 3584 5394 3201 
Q 5691 2819 5691 2113 
L 5691 0 
L 5113 0 
L 5113 2094 
Q 5113 2597 4934 2840 
Q 4756 3084 4391 3084 
Q 3944 3084 3684 2787 
Q 3425 2491 3425 1978 
L 3425 0 
L 2847 0 
L 2847 2094 
Q 2847 2600 2669 2842 
Q 2491 3084 2119 3084 
Q 1678 3084 1418 2786 
Q 1159 2488 1159 1978 
L 1159 0 
L 581 0 
L 581 3500 
L 1159 3500 
L 1159 2956 
Q 1356 3278 1631 3431 
Q 1906 3584 2284 3584 
Q 2666 3584 2933 3390 
Q 3200 3197 3328 2828 
z
" transform="scale(0.015625)"/>
       <path id="DejaVuSans-66" d="M 2375 4863 
L 2375 4384 
L 1825 4384 
Q 1516 4384 1395 4259 
Q 1275 4134 1275 3809 
L 1275 3500 
L 2222 3500 
L 2222 3053 
L 1275 3053 
L 1275 0 
L 697 0 
L 697 3053 
L 147 3053 
L 147 3500 
L 697 3500 
L 697 3744 
Q 697 4328 969 4595 
Q 1241 4863 1831 4863 
L 2375 4863 
z
" transform="scale(0.015625)"/>
       <path id="DejaVuSans-64" d="M 2906 2969 
L 2906 4863 
L 3481 4863 
L 3481 0 
L 2906 0 
L 2906 525 
Q 2725 213 2448 61 
Q 2172 -91 1784 -91 
Q 1150 -91 751 415 
Q 353 922 353 1747 
Q 353 2572 751 3078 
Q 1150 3584 1784 3584 
Q 2172 3584 2448 3432 
Q 2725 3281 2906 2969 
z
M 947 1747 
Q 947 1113 1208 752 
Q 1469 391 1925 391 
Q 2381 391 2643 752 
Q 2906 1113 2906 1747 
Q 2906 2381 2643 2742 
Q 2381 3103 1925 3103 
Q 1469 3103 1208 2742 
Q 947 2381 947 1747 
z
" transform="scale(0.015625)"/>
       <path id="DejaVuSans-75" d="M 544 1381 
L 544 3500 
L 1119 3500 
L 1119 1403 
Q 1119 906 1312 657 
Q 1506 409 1894 409 
Q 2359 409 2629 706 
Q 2900 1003 2900 1516 
L 2900 3500 
L 3475 3500 
L 3475 0 
L 2900 0 
L 2900 538 
Q 2691 219 2414 64 
Q 2138 -91 1772 -91 
Q 1169 -91 856 284 
Q 544 659 544 1381 
z
M 1991 3584 
L 1991 3584 
z
" transform="scale(0.015625)"/>
       <path id="DejaVuSans-6c" d="M 603 4863 
L 1178 4863 
L 1178 0 
L 603 0 
L 603 4863 
z
" transform="scale(0.015625)"/>
      </defs>
      <use xlink:href="#DejaVuSans-32"/>
      <use xlink:href="#DejaVuSans-2d" x="63.623047"/>
      <use xlink:href="#DejaVuSans-6e" x="99.707031"/>
      <use xlink:href="#DejaVuSans-6f" x="163.085938"/>
      <use xlink:href="#DejaVuSans-72" x="224.267578"/>
      <use xlink:href="#DejaVuSans-6d" x="263.630859"/>
      <use xlink:href="#DejaVuSans-20" x="361.042969"/>
      <use xlink:href="#DejaVuSans-6f" x="392.830078"/>
      <use xlink:href="#DejaVuSans-66" x="454.011719"/>
      <use xlink:href="#DejaVuSans-20" x="489.216797"/>
      <use xlink:href="#DejaVuSans-72" x="521.003906"/>
      <use xlink:href="#DejaVuSans-65" x="559.867188"/>
      <use xlink:href="#DejaVuSans-73" x="621.390625"/>
      <use xlink:href="#DejaVuSans-69" x="673.490234"/>
      <use xlink:href="#DejaVuSans-64" x="701.273438"/>
      <use xlink:href="#DejaVuSans-75" x="764.75"/>
      <use xlink:href="#DejaVuSans-61" x="828.128906"/>
      <use xlink:href="#DejaVuSans-6c" x="889.408203"/>
     </g>
    </g>
   </g>
   <g id="line2d_107">
    <path d="M 184.581818 89.307456 
L 186.848959 118.624087 
L 189.1161 130.458118 
L 191.38324 138.000169 
L 193.650381 143.547457 
L 195.917522 147.937132 
L 198.184662 151.569618 
L 200.451803 154.66785 
L 202.718944 157.368779 
L 204.986084 159.762597 
L 207.253225 161.911859 
L 209.520366 163.861738 
L 214.054647 167.290187 
L 218.588928 170.235639 
L 223.12321 172.81637 
L 227.657491 175.11173 
L 232.191772 177.177542 
L 236.726054 179.054561 
L 243.527476 181.581201 
L 250.328898 183.826394 
L 257.13032 185.843794 
L 266.198883 188.245755 
L 275.267445 190.378347 
L 282.068867 191.775531 
L 284.336008 192.078931 
L 286.603149 192.07583 
L 288.870289 191.913716 
L 291.13743 192.516979 
L 293.404571 193.500455 
L 295.671712 194.183239 
L 300.205993 195.078591 
L 311.541696 196.914832 
L 325.14454 198.863073 
L 338.747384 200.583754 
L 354.617369 202.347459 
L 370.487354 203.886169 
L 386.357339 205.211129 
L 388.624479 205.33328 
L 390.89162 205.310291 
L 395.425901 204.650239 
L 397.693042 205.188792 
L 399.960183 205.885242 
L 402.227324 206.265413 
L 406.761605 206.654004 
L 424.89873 207.776917 
L 445.302996 208.830429 
L 467.974403 209.778114 
L 490.64581 210.513108 
L 495.180091 210.554664 
L 497.447232 210.383477 
L 499.714373 209.889271 
L 501.981513 209.568224 
L 506.515795 210.650484 
L 508.782936 210.890892 
L 515.584358 211.106762 
L 542.790046 211.551454 
L 583.598578 212.128831 
L 601.735703 212.705165 
L 604.002844 212.511334 
L 606.269985 212.017872 
L 608.537125 211.951731 
L 610.804266 212.637641 
L 613.071407 213.169554 
L 617.605688 213.599269 
L 649.345658 215.653021 
L 681.085627 218.002393 
L 706.024175 219.878114 
L 708.291315 219.900833 
L 710.558456 219.635182 
L 712.825597 219.23418 
L 715.092737 219.613416 
L 717.359878 220.36867 
L 719.627019 220.822364 
L 724.1613 221.27957 
L 755.90127 223.713658 
L 798.976943 226.829167 
L 810.312646 227.575842 
L 812.579787 227.644465 
L 814.846927 227.514357 
L 817.114068 227.068185 
L 819.381209 226.97485 
L 823.91549 228.254081 
L 828.449771 228.743298 
L 848.854038 230.050735 
L 889.66257 232.460303 
L 916.868258 233.896025 
L 919.135399 233.835346 
L 923.66968 233.10059 
L 925.936821 233.597074 
L 928.203961 234.321407 
L 935.005383 235.669016 
L 937.272524 236.401728 
L 939.539665 237.505188 
L 941.806805 239.133039 
L 944.073946 241.446288 
L 946.341087 244.589213 
L 948.608228 248.662332 
L 950.875368 253.707667 
L 953.142509 259.711112 
L 955.40965 266.620011 
L 957.67679 274.364034 
L 959.943931 282.871728 
L 962.211072 292.079293 
L 964.478212 301.93319 
L 966.745353 312.389741 
L 971.279634 334.973407 
L 975.813916 359.608108 
L 980.348197 386.129967 
L 984.882478 414.410769 
L 989.41676 444.346106 
L 993.951041 475.848599 
L 996.218182 492.163793 
L 996.218182 492.163793 
" clip-path="url(#p19b720a117)" style="fill: none; stroke: #1f77b4; stroke-width: 1.5; stroke-linecap: square"/>
   </g>
   <g id="line2d_108">
    <path d="M 184.581818 89.307454 
L 186.848959 118.624073 
L 189.1161 130.45807 
L 191.38324 138.000072 
L 193.650381 143.547291 
L 195.917522 147.93688 
L 198.184662 151.56926 
L 200.451803 154.667368 
L 202.718944 157.368153 
L 204.986084 159.761807 
L 207.253225 161.910886 
L 209.520366 163.860561 
L 214.054647 167.28854 
L 218.588928 170.233439 
L 223.12321 172.813532 
L 227.657491 175.108167 
L 232.191772 177.173164 
L 236.726054 179.04928 
L 243.527476 181.574395 
L 250.328898 183.817858 
L 257.13032 185.83332 
L 266.198883 188.232376 
L 275.267445 190.361392 
L 282.068867 191.737457 
L 284.336008 191.994991 
L 288.870289 191.843615 
L 291.13743 192.619955 
L 293.404571 193.559524 
L 295.671712 194.185233 
L 300.205993 195.053365 
L 311.541696 196.882111 
L 325.14454 198.822979 
L 338.747384 200.535764 
L 354.617369 202.289759 
L 370.487354 203.818446 
L 386.357339 205.120958 
L 388.624479 205.20759 
L 390.89162 205.084204 
L 393.158761 204.647877 
L 395.425901 204.609162 
L 397.693042 205.332258 
L 399.960183 205.910394 
L 404.494464 206.404935 
L 418.097308 207.282553 
L 438.501574 208.394467 
L 461.172981 209.400231 
L 486.111529 210.262598 
L 492.912951 210.400944 
L 495.180091 210.304075 
L 499.714373 209.41655 
L 501.981513 209.716862 
L 504.248654 210.352987 
L 506.515795 210.677588 
L 511.050076 210.881947 
L 531.454342 211.27439 
L 560.927171 211.631464 
L 576.797156 211.854259 
L 592.667141 212.366032 
L 599.468563 212.56348 
L 601.735703 212.421887 
L 604.002844 211.962177 
L 606.269985 211.733907 
L 610.804266 212.945237 
L 613.071407 213.243673 
L 619.872829 213.697132 
L 642.544236 215.16354 
L 672.017064 217.327232 
L 703.757034 219.753146 
L 706.024175 219.789988 
L 708.291315 219.549279 
L 710.558456 219.133017 
L 712.825597 219.45444 
L 715.092737 220.220047 
L 717.359878 220.69557 
L 721.894159 221.166613 
L 753.634129 223.636487 
L 796.709802 226.804559 
L 808.045505 227.568218 
L 810.312646 227.645512 
L 812.579787 227.534667 
L 814.846927 227.10185 
L 817.114068 226.963523 
L 821.648349 228.246692 
L 823.91549 228.560315 
L 830.716912 229.069072 
L 866.991163 231.354745 
L 910.066836 233.850745 
L 914.601117 234.028947 
L 916.868258 233.942922 
L 921.402539 233.234226 
L 928.203961 234.854056 
L 932.738243 235.486492 
L 935.005383 235.97273 
L 937.272524 236.70539 
L 939.539665 237.811132 
L 941.806805 239.441566 
L 944.073946 241.757122 
L 946.341087 244.901891 
L 948.608228 248.976355 
L 950.875368 254.022587 
L 953.142509 260.026581 
L 955.40965 266.935792 
L 957.67679 274.679981 
L 959.943931 283.187762 
L 962.211072 292.395373 
L 964.478212 302.249294 
L 966.745353 312.705861 
L 971.279634 335.289548 
L 975.813916 359.924265 
L 980.348197 386.446137 
L 984.882478 414.726951 
L 989.41676 444.662299 
L 993.951041 476.164802 
L 996.218182 492.48 
L 996.218182 492.48 
" clip-path="url(#p19b720a117)" style="fill: none; stroke: #ff7f0e; stroke-width: 1.5; stroke-linecap: square"/>
   </g>
   <g id="line2d_109">
    <path d="M 184.581818 89.307435 
L 186.848959 118.623929 
L 189.1161 130.45759 
L 191.38324 137.999097 
L 193.650381 143.545628 
L 195.917522 147.934346 
L 198.184662 151.56566 
L 200.451803 154.66251 
L 202.718944 157.361839 
L 204.986084 159.753835 
L 207.253225 161.901052 
L 209.520366 163.848657 
L 214.054647 167.271866 
L 218.588928 170.211132 
L 223.12321 172.784711 
L 227.657491 175.071934 
L 232.191772 177.128608 
L 236.726054 178.995477 
L 243.527476 181.504969 
L 250.328898 183.73069 
L 257.13032 185.726286 
L 263.931742 187.531053 
L 273.000305 189.69079 
L 282.068867 191.613951 
L 286.603149 192.473498 
L 288.870289 192.816237 
L 291.13743 192.950553 
L 293.404571 192.747077 
L 295.671712 192.855775 
L 300.205993 194.573011 
L 302.473134 195.096097 
L 309.274556 196.210535 
L 320.610259 197.820389 
L 334.213103 199.527456 
L 347.815947 201.025929 
L 363.685932 202.549513 
L 381.823057 204.039033 
L 397.693042 205.127696 
L 399.960183 205.196645 
L 402.227324 205.076581 
L 404.494464 204.632768 
L 406.761605 204.474239 
L 411.295886 205.722813 
L 413.563027 206.017101 
L 420.364449 206.452389 
L 443.035856 207.549977 
L 467.974403 208.521491 
L 495.180091 209.359461 
L 508.782936 209.666341 
L 511.050076 209.60197 
L 513.317217 209.287674 
L 515.584358 208.733713 
L 517.851498 208.810592 
L 520.118639 209.462884 
L 522.38578 209.856225 
L 526.920061 210.090794 
L 549.591468 210.536763 
L 576.797156 211.097565 
L 590.4 211.663515 
L 606.269985 212.550281 
L 619.872829 213.360505 
L 622.13997 213.273566 
L 624.40711 212.865015 
L 626.674251 212.688254 
L 631.208532 213.997387 
L 633.475673 214.345467 
L 640.277095 214.942267 
L 672.017064 217.601311 
L 730.962722 222.674862 
L 733.229863 222.628581 
L 735.497004 222.255686 
L 737.764144 222.085388 
L 742.298426 223.436992 
L 744.565566 223.810424 
L 751.366988 224.45645 
L 792.175521 227.824132 
L 832.984053 230.978559 
L 842.052616 231.601598 
L 844.319756 231.629235 
L 846.586897 231.382014 
L 848.854038 230.950293 
L 851.121178 231.245333 
L 853.388319 231.999591 
L 855.65546 232.465786 
L 860.189741 232.909952 
L 889.66257 235.006507 
L 925.936821 237.596554 
L 930.471102 238.115723 
L 932.738243 238.517711 
L 935.005383 239.102576 
L 937.272524 239.973359 
L 939.539665 241.263764 
L 941.806805 243.129508 
L 944.073946 245.727912 
L 946.341087 249.190592 
L 948.608228 253.599025 
L 950.875368 258.973032 
L 953.142509 265.272206 
L 955.40965 272.386287 
L 962.211072 295.796223 
L 964.478212 305.19738 
L 966.745353 315.708865 
L 971.279634 338.349867 
L 975.813916 362.987894 
L 980.348197 389.510019 
L 984.882478 417.790954 
L 989.41676 447.72641 
L 993.951041 479.229012 
L 993.951041 479.229012 
" clip-path="url(#p19b720a117)" style="fill: none; stroke: #2ca02c; stroke-width: 1.5; stroke-linecap: square"/>
   </g>
   <g id="line2d_110">
    <path d="M 184.581818 89.307243 
L 186.848959 118.62247 
L 189.1161 130.45266 
L 191.38324 137.988993 
L 193.650381 143.528205 
L 195.917522 147.907546 
L 198.184662 151.527251 
L 200.451803 154.610224 
L 202.718944 157.293309 
L 204.986084 159.666634 
L 207.253225 161.792679 
L 209.520366 163.716552 
L 211.787506 165.471876 
L 216.321788 168.574213 
L 220.856069 171.246959 
L 225.39035 173.586053 
L 229.924632 175.657508 
L 234.458913 177.508726 
L 238.993195 179.174938 
L 245.794617 181.38468 
L 252.596039 183.305534 
L 259.397461 184.986912 
L 266.198883 186.466149 
L 275.267445 188.173545 
L 282.068867 189.276603 
L 286.603149 189.824007 
L 288.870289 189.821736 
L 291.13743 189.504391 
L 293.404571 189.638402 
L 295.671712 190.487655 
L 297.938852 191.155097 
L 302.473134 191.842376 
L 311.541696 192.785843 
L 325.14454 193.958374 
L 341.014525 195.070388 
L 361.418791 196.237431 
L 390.89162 197.680417 
L 395.425901 197.793588 
L 397.693042 197.624706 
L 399.960183 197.141604 
L 402.227324 197.002455 
L 406.761605 198.209951 
L 411.295886 198.63207 
L 458.905841 201.356814 
L 481.577247 202.936749 
L 504.248654 204.632114 
L 506.515795 204.582793 
L 508.782936 204.209053 
L 511.050076 204.028899 
L 515.584358 205.381535 
L 517.851498 205.762622 
L 524.65292 206.440692 
L 549.591468 208.829358 
L 569.995734 210.973268 
L 581.331437 212.372841 
L 597.201422 214.561015 
L 613.071407 216.828332 
L 615.338547 216.994973 
L 619.872829 216.636423 
L 622.13997 217.24061 
L 624.40711 218.136011 
L 626.674251 218.727987 
L 631.208532 219.505442 
L 662.948502 224.270745 
L 696.955612 229.18282 
L 721.894159 232.603285 
L 724.1613 232.80559 
L 726.428441 232.772435 
L 728.695582 232.453026 
L 730.962722 232.661044 
L 733.229863 233.542056 
L 735.497004 234.216311 
L 740.031285 234.978033 
L 764.969832 238.290878 
L 830.716912 246.841476 
L 832.984053 247.047926 
L 835.251193 247.042037 
L 837.518334 246.725179 
L 839.785475 246.825526 
L 842.052616 247.680569 
L 844.319756 248.388187 
L 848.854038 249.170462 
L 903.265414 256.802306 
L 923.66968 259.93789 
L 928.203961 260.755317 
L 932.738243 261.84496 
L 935.005383 262.62177 
L 937.272524 263.671964 
L 939.539665 265.111319 
L 941.806805 267.040246 
L 944.073946 269.444947 
L 946.341087 272.182031 
L 948.608228 275.78222 
L 950.875368 281.049122 
L 953.142509 287.345433 
L 955.40965 294.367227 
L 957.67679 302.146156 
L 959.943931 310.665641 
L 962.211072 319.87807 
L 964.478212 329.734498 
L 966.745353 340.192676 
L 971.279634 362.778593 
L 975.813916 387.415021 
L 980.348197 413.938355 
L 984.882478 442.220469 
L 989.41676 472.156998 
L 991.6839 487.717819 
L 991.6839 487.717819 
" clip-path="url(#p19b720a117)" style="fill: none; stroke: #d62728; stroke-width: 1.5; stroke-linecap: square"/>
   </g>
   <g id="line2d_111">
    <path d="M 184.581818 89.305275 
L 186.848959 118.605995 
L 189.1161 130.391048 
L 191.38324 137.852611 
L 193.650381 143.276751 
L 195.917522 147.49817 
L 198.184662 150.911241 
L 200.451803 153.736259 
L 202.718944 156.107276 
L 204.986084 158.113437 
L 207.253225 159.817048 
L 209.520366 161.264395 
L 211.787506 162.491294 
L 214.054647 163.526744 
L 216.321788 164.395024 
L 218.588928 165.117101 
L 223.12321 166.194825 
L 227.657491 166.88756 
L 232.191772 167.301835 
L 238.993195 167.593954 
L 261.664601 168.165592 
L 268.466023 168.686726 
L 275.267445 169.465446 
L 282.068867 170.506719 
L 288.870289 171.795728 
L 297.938852 173.756614 
L 300.205993 174.074035 
L 302.473134 174.066114 
L 304.740274 174.264267 
L 309.274556 176.412857 
L 313.808837 177.931306 
L 327.411681 182.092279 
L 343.281666 187.209538 
L 411.295886 209.422079 
L 413.563027 210.053764 
L 415.830168 210.46778 
L 418.097308 210.54902 
L 420.364449 211.007969 
L 424.89873 213.358122 
L 429.433012 214.967857 
L 449.837278 221.390884 
L 504.248654 238.273058 
L 529.187202 245.962201 
L 531.454342 246.569603 
L 533.721483 246.956399 
L 535.988624 247.016353 
L 538.255764 247.482961 
L 540.522905 248.70979 
L 542.790046 249.804428 
L 547.324327 251.385163 
L 592.667141 265.809343 
L 613.071407 272.216777 
L 635.742814 279.095962 
L 649.345658 283.085244 
L 651.612798 283.589004 
L 653.879939 283.782494 
L 656.14708 283.848564 
L 658.41422 284.711735 
L 660.681361 285.924074 
L 662.948502 286.848608 
L 667.482783 288.285016 
L 730.962722 307.302757 
L 762.702692 317.120251 
L 774.038395 320.632774 
L 776.305536 321.190419 
L 778.572676 321.44547 
L 780.839817 321.545044 
L 783.106958 322.420297 
L 785.374099 323.68911 
L 787.641239 324.678979 
L 792.175521 326.236486 
L 823.91549 336.657709 
L 844.319756 343.589192 
L 862.456882 349.956184 
L 878.326866 355.733645 
L 891.929711 360.759278 
L 894.196851 361.328156 
L 896.463992 361.564145 
L 898.731133 362.17357 
L 903.265414 364.871429 
L 907.799695 366.886145 
L 919.135399 371.682154 
L 925.936821 374.744483 
L 930.471102 376.995092 
L 932.738243 378.26264 
L 935.005383 379.698094 
L 937.272524 381.386258 
L 939.539665 383.436947 
L 941.806805 385.979107 
L 944.073946 389.146207 
L 946.341087 393.056286 
L 948.608228 397.792875 
L 950.875368 403.394565 
L 953.142509 409.857488 
L 955.40965 417.146772 
L 957.67679 425.211801 
L 959.943931 433.997797 
L 962.211072 443.453637 
L 964.478212 453.534276 
L 966.745353 464.201688 
L 971.279634 487.172619 
L 971.279634 487.172619 
" clip-path="url(#p19b720a117)" style="fill: none; stroke: #9467bd; stroke-width: 1.5; stroke-linecap: square"/>
   </g>
   <g id="line2d_112">
    <path d="M 184.581818 89.28 
L 186.848959 118.256642 
L 189.1161 128.637206 
L 191.38324 133.549167 
L 193.650381 135.263543 
L 195.917522 135.162733 
L 198.184662 134.124956 
L 200.451803 132.838909 
L 202.718944 131.737939 
L 204.986084 131.096584 
L 207.253225 131.0478 
L 209.520366 131.623479 
L 211.787506 132.780095 
L 214.054647 134.430381 
L 216.321788 136.469416 
L 218.588928 138.794495 
L 223.12321 143.96208 
L 238.993195 162.865843 
L 245.794617 170.44762 
L 252.596039 177.656906 
L 259.397461 184.556602 
L 268.466023 193.39232 
L 279.801727 204.041692 
L 288.870289 212.275368 
L 291.13743 214.098067 
L 295.671712 216.952757 
L 297.938852 219.235483 
L 300.205993 221.708537 
L 304.740274 226.018718 
L 322.8774 242.287137 
L 399.960183 311.057135 
L 402.227324 312.953899 
L 404.494464 314.569787 
L 406.761605 315.841006 
L 409.028746 317.642008 
L 413.563027 322.448733 
L 418.097308 326.625808 
L 508.782936 407.814468 
L 513.317217 411.798143 
L 515.584358 413.601509 
L 520.118639 416.405536 
L 522.38578 418.640697 
L 524.65292 421.108417 
L 529.187202 425.411944 
L 554.125749 447.768457 
L 590.4 480.100023 
L 590.4 480.100023 
" clip-path="url(#p19b720a117)" style="fill: none; stroke: #8c564b; stroke-width: 1.5; stroke-linecap: square"/>
   </g>
   <g id="patch_3">
    <path d="M 144 512.64 
L 144 69.12 
" style="fill: none; stroke: #000000; stroke-width: 0.8; stroke-linejoin: miter; stroke-linecap: square"/>
   </g>
   <g id="patch_4">
    <path d="M 1036.8 512.64 
L 1036.8 69.12 
" style="fill: none; stroke: #000000; stroke-width: 0.8; stroke-linejoin: miter; stroke-linecap: square"/>
   </g>
   <g id="patch_5">
    <path d="M 144 512.64 
L 1036.8 512.64 
" style="fill: none; stroke: #000000; stroke-width: 0.8; stroke-linejoin: miter; stroke-linecap: square"/>
   </g>
   <g id="patch_6">
    <path d="M 144 69.12 
L 1036.8 69.12 
" style="fill: none; stroke: #000000; stroke-width: 0.8; stroke-linejoin: miter; stroke-linecap: square"/>
   </g>
   <g id="legend_1">
    <g id="patch_7">
     <path d="M 784.8 165.18875 
L 1029.8 165.18875 
Q 1031.8 165.18875 1031.8 163.18875 
L 1031.8 76.12 
Q 1031.8 74.12 1029.8 74.12 
L 784.8 74.12 
Q 782.8 74.12 782.8 76.12 
L 782.8 163.18875 
Q 782.8 165.18875 784.8 165.18875 
z
" style="fill: #ffffff; opacity: 0.8; stroke: #cccccc; stroke-linejoin: miter"/>
    </g>
    <g id="line2d_113">
     <path d="M 786.8 82.218438 
L 796.8 82.218438 
L 806.8 82.218438 
" style="fill: none; stroke: #1f77b4; stroke-width: 1.5; stroke-linecap: square"/>
    </g>
    <g id="text_20">
     <!-- PCG: $(c,h)=(0.01, 0.001), \kappa_2=5.19E+04$ -->
     <g transform="translate(814.8 85.718438) scale(0.1 -0.1)">
      <defs>
       <path id="DejaVuSans-50" d="M 1259 4147 
L 1259 2394 
L 2053 2394 
Q 2494 2394 2734 2622 
Q 2975 2850 2975 3272 
Q 2975 3691 2734 3919 
Q 2494 4147 2053 4147 
L 1259 4147 
z
M 628 4666 
L 2053 4666 
Q 2838 4666 3239 4311 
Q 3641 3956 3641 3272 
Q 3641 2581 3239 2228 
Q 2838 1875 2053 1875 
L 1259 1875 
L 1259 0 
L 628 0 
L 628 4666 
z
" transform="scale(0.015625)"/>
       <path id="DejaVuSans-43" d="M 4122 4306 
L 4122 3641 
Q 3803 3938 3442 4084 
Q 3081 4231 2675 4231 
Q 1875 4231 1450 3742 
Q 1025 3253 1025 2328 
Q 1025 1406 1450 917 
Q 1875 428 2675 428 
Q 3081 428 3442 575 
Q 3803 722 4122 1019 
L 4122 359 
Q 3791 134 3420 21 
Q 3050 -91 2638 -91 
Q 1578 -91 968 557 
Q 359 1206 359 2328 
Q 359 3453 968 4101 
Q 1578 4750 2638 4750 
Q 3056 4750 3426 4639 
Q 3797 4528 4122 4306 
z
" transform="scale(0.015625)"/>
       <path id="DejaVuSans-47" d="M 3809 666 
L 3809 1919 
L 2778 1919 
L 2778 2438 
L 4434 2438 
L 4434 434 
Q 4069 175 3628 42 
Q 3188 -91 2688 -91 
Q 1594 -91 976 548 
Q 359 1188 359 2328 
Q 359 3472 976 4111 
Q 1594 4750 2688 4750 
Q 3144 4750 3555 4637 
Q 3966 4525 4313 4306 
L 4313 3634 
Q 3963 3931 3569 4081 
Q 3175 4231 2741 4231 
Q 1884 4231 1454 3753 
Q 1025 3275 1025 2328 
Q 1025 1384 1454 906 
Q 1884 428 2741 428 
Q 3075 428 3337 486 
Q 3600 544 3809 666 
z
" transform="scale(0.015625)"/>
       <path id="DejaVuSans-3a" d="M 750 794 
L 1409 794 
L 1409 0 
L 750 0 
L 750 794 
z
M 750 3309 
L 1409 3309 
L 1409 2516 
L 750 2516 
L 750 3309 
z
" transform="scale(0.015625)"/>
       <path id="DejaVuSans-28" d="M 1984 4856 
Q 1566 4138 1362 3434 
Q 1159 2731 1159 2009 
Q 1159 1288 1364 580 
Q 1569 -128 1984 -844 
L 1484 -844 
Q 1016 -109 783 600 
Q 550 1309 550 2009 
Q 550 2706 781 3412 
Q 1013 4119 1484 4856 
L 1984 4856 
z
" transform="scale(0.015625)"/>
       <path id="DejaVuSans-Oblique-63" d="M 3431 3366 
L 3316 2797 
Q 3109 2947 2876 3022 
Q 2644 3097 2394 3097 
Q 2119 3097 1870 3000 
Q 1622 2903 1453 2725 
Q 1184 2453 1037 2087 
Q 891 1722 891 1331 
Q 891 859 1127 628 
Q 1363 397 1844 397 
Q 2081 397 2348 469 
Q 2616 541 2906 684 
L 2797 116 
Q 2547 13 2283 -39 
Q 2019 -91 1741 -91 
Q 1044 -91 669 257 
Q 294 606 294 1253 
Q 294 1797 489 2255 
Q 684 2713 1069 3078 
Q 1331 3328 1684 3456 
Q 2038 3584 2456 3584 
Q 2700 3584 2940 3529 
Q 3181 3475 3431 3366 
z
" transform="scale(0.015625)"/>
       <path id="DejaVuSans-2c" d="M 750 794 
L 1409 794 
L 1409 256 
L 897 -744 
L 494 -744 
L 750 256 
L 750 794 
z
" transform="scale(0.015625)"/>
       <path id="DejaVuSans-Oblique-68" d="M 3566 2113 
L 3156 0 
L 2578 0 
L 2988 2091 
Q 3016 2238 3031 2350 
Q 3047 2463 3047 2528 
Q 3047 2791 2881 2937 
Q 2716 3084 2419 3084 
Q 1956 3084 1617 2771 
Q 1278 2459 1178 1941 
L 800 0 
L 225 0 
L 1172 4863 
L 1747 4863 
L 1375 2950 
Q 1594 3244 1934 3414 
Q 2275 3584 2650 3584 
Q 3113 3584 3367 3334 
Q 3622 3084 3622 2631 
Q 3622 2519 3608 2391 
Q 3594 2263 3566 2113 
z
" transform="scale(0.015625)"/>
       <path id="DejaVuSans-29" d="M 513 4856 
L 1013 4856 
Q 1481 4119 1714 3412 
Q 1947 2706 1947 2009 
Q 1947 1309 1714 600 
Q 1481 -109 1013 -844 
L 513 -844 
Q 928 -128 1133 580 
Q 1338 1288 1338 2009 
Q 1338 2731 1133 3434 
Q 928 4138 513 4856 
z
" transform="scale(0.015625)"/>
       <path id="DejaVuSans-3d" d="M 678 2906 
L 4684 2906 
L 4684 2381 
L 678 2381 
L 678 2906 
z
M 678 1631 
L 4684 1631 
L 4684 1100 
L 678 1100 
L 678 1631 
z
" transform="scale(0.015625)"/>
       <path id="DejaVuSans-2e" d="M 684 794 
L 1344 794 
L 1344 0 
L 684 0 
L 684 794 
z
" transform="scale(0.015625)"/>
       <path id="DejaVuSans-Oblique-3ba" d="M 938 3500 
L 1531 3500 
L 1247 2047 
L 3041 3500 
L 3741 3500 
L 2106 2181 
L 3275 0 
L 2572 0 
L 1628 1806 
L 1122 1403 
L 850 0 
L 256 0 
L 938 3500 
z
" transform="scale(0.015625)"/>
       <path id="DejaVuSans-39" d="M 703 97 
L 703 672 
Q 941 559 1184 500 
Q 1428 441 1663 441 
Q 2288 441 2617 861 
Q 2947 1281 2994 2138 
Q 2813 1869 2534 1725 
Q 2256 1581 1919 1581 
Q 1219 1581 811 2004 
Q 403 2428 403 3163 
Q 403 3881 828 4315 
Q 1253 4750 1959 4750 
Q 2769 4750 3195 4129 
Q 3622 3509 3622 2328 
Q 3622 1225 3098 567 
Q 2575 -91 1691 -91 
Q 1453 -91 1209 -44 
Q 966 3 703 97 
z
M 1959 2075 
Q 2384 2075 2632 2365 
Q 2881 2656 2881 3163 
Q 2881 3666 2632 3958 
Q 2384 4250 1959 4250 
Q 1534 4250 1286 3958 
Q 1038 3666 1038 3163 
Q 1038 2656 1286 2365 
Q 1534 2075 1959 2075 
z
" transform="scale(0.015625)"/>
       <path id="DejaVuSans-Oblique-45" d="M 1081 4666 
L 4031 4666 
L 3928 4134 
L 1606 4134 
L 1338 2753 
L 3566 2753 
L 3463 2222 
L 1234 2222 
L 909 531 
L 3284 531 
L 3181 0 
L 172 0 
L 1081 4666 
z
" transform="scale(0.015625)"/>
       <path id="DejaVuSans-2b" d="M 2944 4013 
L 2944 2272 
L 4684 2272 
L 4684 1741 
L 2944 1741 
L 2944 0 
L 2419 0 
L 2419 1741 
L 678 1741 
L 678 2272 
L 2419 2272 
L 2419 4013 
L 2944 4013 
z
" transform="scale(0.015625)"/>
      </defs>
      <use xlink:href="#DejaVuSans-50" transform="translate(0 0.015625)"/>
      <use xlink:href="#DejaVuSans-43" transform="translate(60.302734 0.015625)"/>
      <use xlink:href="#DejaVuSans-47" transform="translate(130.126953 0.015625)"/>
      <use xlink:href="#DejaVuSans-3a" transform="translate(207.617188 0.015625)"/>
      <use xlink:href="#DejaVuSans-20" transform="translate(241.308594 0.015625)"/>
      <use xlink:href="#DejaVuSans-28" transform="translate(273.095703 0.015625)"/>
      <use xlink:href="#DejaVuSans-Oblique-63" transform="translate(312.109375 0.015625)"/>
      <use xlink:href="#DejaVuSans-2c" transform="translate(367.089844 0.015625)"/>
      <use xlink:href="#DejaVuSans-Oblique-68" transform="translate(418.359375 0.015625)"/>
      <use xlink:href="#DejaVuSans-29" transform="translate(481.738281 0.015625)"/>
      <use xlink:href="#DejaVuSans-3d" transform="translate(540.234375 0.015625)"/>
      <use xlink:href="#DejaVuSans-28" transform="translate(643.505859 0.015625)"/>
      <use xlink:href="#DejaVuSans-30" transform="translate(682.519531 0.015625)"/>
      <use xlink:href="#DejaVuSans-2e" transform="translate(746.142578 0.015625)"/>
      <use xlink:href="#DejaVuSans-30" transform="translate(777.929688 0.015625)"/>
      <use xlink:href="#DejaVuSans-31" transform="translate(841.552734 0.015625)"/>
      <use xlink:href="#DejaVuSans-2c" transform="translate(905.175781 0.015625)"/>
      <use xlink:href="#DejaVuSans-30" transform="translate(956.445312 0.015625)"/>
      <use xlink:href="#DejaVuSans-2e" transform="translate(1020.068359 0.015625)"/>
      <use xlink:href="#DejaVuSans-30" transform="translate(1051.855469 0.015625)"/>
      <use xlink:href="#DejaVuSans-30" transform="translate(1115.478516 0.015625)"/>
      <use xlink:href="#DejaVuSans-31" transform="translate(1179.101562 0.015625)"/>
      <use xlink:href="#DejaVuSans-29" transform="translate(1242.724609 0.015625)"/>
      <use xlink:href="#DejaVuSans-2c" transform="translate(1281.738281 0.015625)"/>
      <use xlink:href="#DejaVuSans-Oblique-3ba" transform="translate(1333.007812 0.015625)"/>
      <use xlink:href="#DejaVuSans-32" transform="translate(1391.943359 -16.390625) scale(0.7)"/>
      <use xlink:href="#DejaVuSans-3d" transform="translate(1458.696289 0.015625)"/>
      <use xlink:href="#DejaVuSans-35" transform="translate(1561.967773 0.015625)"/>
      <use xlink:href="#DejaVuSans-2e" transform="translate(1625.59082 0.015625)"/>
      <use xlink:href="#DejaVuSans-31" transform="translate(1657.37793 0.015625)"/>
      <use xlink:href="#DejaVuSans-39" transform="translate(1721.000977 0.015625)"/>
      <use xlink:href="#DejaVuSans-Oblique-45" transform="translate(1784.624023 0.015625)"/>
      <use xlink:href="#DejaVuSans-2b" transform="translate(1867.290039 0.015625)"/>
      <use xlink:href="#DejaVuSans-30" transform="translate(1970.561523 0.015625)"/>
      <use xlink:href="#DejaVuSans-34" transform="translate(2034.18457 0.015625)"/>
     </g>
    </g>
    <g id="line2d_114">
     <path d="M 786.8 96.896563 
L 796.8 96.896563 
L 806.8 96.896563 
" style="fill: none; stroke: #ff7f0e; stroke-width: 1.5; stroke-linecap: square"/>
    </g>
    <g id="text_21">
     <!-- PCG: $(c,h)=(0.1, 0.001), \kappa_2=5.15E+04$ -->
     <g transform="translate(814.8 100.396563) scale(0.1 -0.1)">
      <use xlink:href="#DejaVuSans-50" transform="translate(0 0.015625)"/>
      <use xlink:href="#DejaVuSans-43" transform="translate(60.302734 0.015625)"/>
      <use xlink:href="#DejaVuSans-47" transform="translate(130.126953 0.015625)"/>
      <use xlink:href="#DejaVuSans-3a" transform="translate(207.617188 0.015625)"/>
      <use xlink:href="#DejaVuSans-20" transform="translate(241.308594 0.015625)"/>
      <use xlink:href="#DejaVuSans-28" transform="translate(273.095703 0.015625)"/>
      <use xlink:href="#DejaVuSans-Oblique-63" transform="translate(312.109375 0.015625)"/>
      <use xlink:href="#DejaVuSans-2c" transform="translate(367.089844 0.015625)"/>
      <use xlink:href="#DejaVuSans-Oblique-68" transform="translate(418.359375 0.015625)"/>
      <use xlink:href="#DejaVuSans-29" transform="translate(481.738281 0.015625)"/>
      <use xlink:href="#DejaVuSans-3d" transform="translate(540.234375 0.015625)"/>
      <use xlink:href="#DejaVuSans-28" transform="translate(643.505859 0.015625)"/>
      <use xlink:href="#DejaVuSans-30" transform="translate(682.519531 0.015625)"/>
      <use xlink:href="#DejaVuSans-2e" transform="translate(746.142578 0.015625)"/>
      <use xlink:href="#DejaVuSans-31" transform="translate(777.929688 0.015625)"/>
      <use xlink:href="#DejaVuSans-2c" transform="translate(841.552734 0.015625)"/>
      <use xlink:href="#DejaVuSans-30" transform="translate(892.822266 0.015625)"/>
      <use xlink:href="#DejaVuSans-2e" transform="translate(956.445312 0.015625)"/>
      <use xlink:href="#DejaVuSans-30" transform="translate(988.232422 0.015625)"/>
      <use xlink:href="#DejaVuSans-30" transform="translate(1051.855469 0.015625)"/>
      <use xlink:href="#DejaVuSans-31" transform="translate(1115.478516 0.015625)"/>
      <use xlink:href="#DejaVuSans-29" transform="translate(1179.101562 0.015625)"/>
      <use xlink:href="#DejaVuSans-2c" transform="translate(1218.115234 0.015625)"/>
      <use xlink:href="#DejaVuSans-Oblique-3ba" transform="translate(1269.384766 0.015625)"/>
      <use xlink:href="#DejaVuSans-32" transform="translate(1328.320312 -16.390625) scale(0.7)"/>
      <use xlink:href="#DejaVuSans-3d" transform="translate(1395.073242 0.015625)"/>
      <use xlink:href="#DejaVuSans-35" transform="translate(1498.344727 0.015625)"/>
      <use xlink:href="#DejaVuSans-2e" transform="translate(1561.967773 0.015625)"/>
      <use xlink:href="#DejaVuSans-31" transform="translate(1593.754883 0.015625)"/>
      <use xlink:href="#DejaVuSans-35" transform="translate(1657.37793 0.015625)"/>
      <use xlink:href="#DejaVuSans-Oblique-45" transform="translate(1721.000977 0.015625)"/>
      <use xlink:href="#DejaVuSans-2b" transform="translate(1803.666992 0.015625)"/>
      <use xlink:href="#DejaVuSans-30" transform="translate(1906.938477 0.015625)"/>
      <use xlink:href="#DejaVuSans-34" transform="translate(1970.561523 0.015625)"/>
     </g>
    </g>
    <g id="line2d_115">
     <path d="M 786.8 111.574688 
L 796.8 111.574688 
L 806.8 111.574688 
" style="fill: none; stroke: #2ca02c; stroke-width: 1.5; stroke-linecap: square"/>
    </g>
    <g id="text_22">
     <!-- PCG: $(c,h)=(1, 0.001), \kappa_2=4.72E+04$ -->
     <g transform="translate(814.8 115.074688) scale(0.1 -0.1)">
      <defs>
       <path id="DejaVuSans-37" d="M 525 4666 
L 3525 4666 
L 3525 4397 
L 1831 0 
L 1172 0 
L 2766 4134 
L 525 4134 
L 525 4666 
z
" transform="scale(0.015625)"/>
      </defs>
      <use xlink:href="#DejaVuSans-50" transform="translate(0 0.015625)"/>
      <use xlink:href="#DejaVuSans-43" transform="translate(60.302734 0.015625)"/>
      <use xlink:href="#DejaVuSans-47" transform="translate(130.126953 0.015625)"/>
      <use xlink:href="#DejaVuSans-3a" transform="translate(207.617188 0.015625)"/>
      <use xlink:href="#DejaVuSans-20" transform="translate(241.308594 0.015625)"/>
      <use xlink:href="#DejaVuSans-28" transform="translate(273.095703 0.015625)"/>
      <use xlink:href="#DejaVuSans-Oblique-63" transform="translate(312.109375 0.015625)"/>
      <use xlink:href="#DejaVuSans-2c" transform="translate(367.089844 0.015625)"/>
      <use xlink:href="#DejaVuSans-Oblique-68" transform="translate(418.359375 0.015625)"/>
      <use xlink:href="#DejaVuSans-29" transform="translate(481.738281 0.015625)"/>
      <use xlink:href="#DejaVuSans-3d" transform="translate(540.234375 0.015625)"/>
      <use xlink:href="#DejaVuSans-28" transform="translate(643.505859 0.015625)"/>
      <use xlink:href="#DejaVuSans-31" transform="translate(682.519531 0.015625)"/>
      <use xlink:href="#DejaVuSans-2c" transform="translate(746.142578 0.015625)"/>
      <use xlink:href="#DejaVuSans-30" transform="translate(797.412109 0.015625)"/>
      <use xlink:href="#DejaVuSans-2e" transform="translate(861.035156 0.015625)"/>
      <use xlink:href="#DejaVuSans-30" transform="translate(892.822266 0.015625)"/>
      <use xlink:href="#DejaVuSans-30" transform="translate(956.445312 0.015625)"/>
      <use xlink:href="#DejaVuSans-31" transform="translate(1020.068359 0.015625)"/>
      <use xlink:href="#DejaVuSans-29" transform="translate(1083.691406 0.015625)"/>
      <use xlink:href="#DejaVuSans-2c" transform="translate(1122.705078 0.015625)"/>
      <use xlink:href="#DejaVuSans-Oblique-3ba" transform="translate(1173.974609 0.015625)"/>
      <use xlink:href="#DejaVuSans-32" transform="translate(1232.910156 -16.390625) scale(0.7)"/>
      <use xlink:href="#DejaVuSans-3d" transform="translate(1299.663086 0.015625)"/>
      <use xlink:href="#DejaVuSans-34" transform="translate(1402.93457 0.015625)"/>
      <use xlink:href="#DejaVuSans-2e" transform="translate(1466.557617 0.015625)"/>
      <use xlink:href="#DejaVuSans-37" transform="translate(1490.594727 0.015625)"/>
      <use xlink:href="#DejaVuSans-32" transform="translate(1554.217773 0.015625)"/>
      <use xlink:href="#DejaVuSans-Oblique-45" transform="translate(1617.84082 0.015625)"/>
      <use xlink:href="#DejaVuSans-2b" transform="translate(1700.506836 0.015625)"/>
      <use xlink:href="#DejaVuSans-30" transform="translate(1803.77832 0.015625)"/>
      <use xlink:href="#DejaVuSans-34" transform="translate(1867.401367 0.015625)"/>
     </g>
    </g>
    <g id="line2d_116">
     <path d="M 786.8 126.252813 
L 796.8 126.252813 
L 806.8 126.252813 
" style="fill: none; stroke: #d62728; stroke-width: 1.5; stroke-linecap: square"/>
    </g>
    <g id="text_23">
     <!-- PCG: $(c,h)=(10, 0.001), \kappa_2=2.58E+04$ -->
     <g transform="translate(814.8 129.752813) scale(0.1 -0.1)">
      <defs>
       <path id="DejaVuSans-38" d="M 2034 2216 
Q 1584 2216 1326 1975 
Q 1069 1734 1069 1313 
Q 1069 891 1326 650 
Q 1584 409 2034 409 
Q 2484 409 2743 651 
Q 3003 894 3003 1313 
Q 3003 1734 2745 1975 
Q 2488 2216 2034 2216 
z
M 1403 2484 
Q 997 2584 770 2862 
Q 544 3141 544 3541 
Q 544 4100 942 4425 
Q 1341 4750 2034 4750 
Q 2731 4750 3128 4425 
Q 3525 4100 3525 3541 
Q 3525 3141 3298 2862 
Q 3072 2584 2669 2484 
Q 3125 2378 3379 2068 
Q 3634 1759 3634 1313 
Q 3634 634 3220 271 
Q 2806 -91 2034 -91 
Q 1263 -91 848 271 
Q 434 634 434 1313 
Q 434 1759 690 2068 
Q 947 2378 1403 2484 
z
M 1172 3481 
Q 1172 3119 1398 2916 
Q 1625 2713 2034 2713 
Q 2441 2713 2670 2916 
Q 2900 3119 2900 3481 
Q 2900 3844 2670 4047 
Q 2441 4250 2034 4250 
Q 1625 4250 1398 4047 
Q 1172 3844 1172 3481 
z
" transform="scale(0.015625)"/>
      </defs>
      <use xlink:href="#DejaVuSans-50" transform="translate(0 0.015625)"/>
      <use xlink:href="#DejaVuSans-43" transform="translate(60.302734 0.015625)"/>
      <use xlink:href="#DejaVuSans-47" transform="translate(130.126953 0.015625)"/>
      <use xlink:href="#DejaVuSans-3a" transform="translate(207.617188 0.015625)"/>
      <use xlink:href="#DejaVuSans-20" transform="translate(241.308594 0.015625)"/>
      <use xlink:href="#DejaVuSans-28" transform="translate(273.095703 0.015625)"/>
      <use xlink:href="#DejaVuSans-Oblique-63" transform="translate(312.109375 0.015625)"/>
      <use xlink:href="#DejaVuSans-2c" transform="translate(367.089844 0.015625)"/>
      <use xlink:href="#DejaVuSans-Oblique-68" transform="translate(418.359375 0.015625)"/>
      <use xlink:href="#DejaVuSans-29" transform="translate(481.738281 0.015625)"/>
      <use xlink:href="#DejaVuSans-3d" transform="translate(540.234375 0.015625)"/>
      <use xlink:href="#DejaVuSans-28" transform="translate(643.505859 0.015625)"/>
      <use xlink:href="#DejaVuSans-31" transform="translate(682.519531 0.015625)"/>
      <use xlink:href="#DejaVuSans-30" transform="translate(746.142578 0.015625)"/>
      <use xlink:href="#DejaVuSans-2c" transform="translate(809.765625 0.015625)"/>
      <use xlink:href="#DejaVuSans-30" transform="translate(861.035156 0.015625)"/>
      <use xlink:href="#DejaVuSans-2e" transform="translate(924.658203 0.015625)"/>
      <use xlink:href="#DejaVuSans-30" transform="translate(956.445312 0.015625)"/>
      <use xlink:href="#DejaVuSans-30" transform="translate(1020.068359 0.015625)"/>
      <use xlink:href="#DejaVuSans-31" transform="translate(1083.691406 0.015625)"/>
      <use xlink:href="#DejaVuSans-29" transform="translate(1147.314453 0.015625)"/>
      <use xlink:href="#DejaVuSans-2c" transform="translate(1186.328125 0.015625)"/>
      <use xlink:href="#DejaVuSans-Oblique-3ba" transform="translate(1237.597656 0.015625)"/>
      <use xlink:href="#DejaVuSans-32" transform="translate(1296.533203 -16.390625) scale(0.7)"/>
      <use xlink:href="#DejaVuSans-3d" transform="translate(1363.286133 0.015625)"/>
      <use xlink:href="#DejaVuSans-32" transform="translate(1466.557617 0.015625)"/>
      <use xlink:href="#DejaVuSans-2e" transform="translate(1530.180664 0.015625)"/>
      <use xlink:href="#DejaVuSans-35" transform="translate(1561.967773 0.015625)"/>
      <use xlink:href="#DejaVuSans-38" transform="translate(1625.59082 0.015625)"/>
      <use xlink:href="#DejaVuSans-Oblique-45" transform="translate(1689.213867 0.015625)"/>
      <use xlink:href="#DejaVuSans-2b" transform="translate(1771.879883 0.015625)"/>
      <use xlink:href="#DejaVuSans-30" transform="translate(1875.151367 0.015625)"/>
      <use xlink:href="#DejaVuSans-34" transform="translate(1938.774414 0.015625)"/>
     </g>
    </g>
    <g id="line2d_117">
     <path d="M 786.8 140.930938 
L 796.8 140.930938 
L 806.8 140.930938 
" style="fill: none; stroke: #9467bd; stroke-width: 1.5; stroke-linecap: square"/>
    </g>
    <g id="text_24">
     <!-- PCG: $(c,h)=(100, 0.001), \kappa_2=4.67E+03$ -->
     <g transform="translate(814.8 144.430938) scale(0.1 -0.1)">
      <use xlink:href="#DejaVuSans-50" transform="translate(0 0.015625)"/>
      <use xlink:href="#DejaVuSans-43" transform="translate(60.302734 0.015625)"/>
      <use xlink:href="#DejaVuSans-47" transform="translate(130.126953 0.015625)"/>
      <use xlink:href="#DejaVuSans-3a" transform="translate(207.617188 0.015625)"/>
      <use xlink:href="#DejaVuSans-20" transform="translate(241.308594 0.015625)"/>
      <use xlink:href="#DejaVuSans-28" transform="translate(273.095703 0.015625)"/>
      <use xlink:href="#DejaVuSans-Oblique-63" transform="translate(312.109375 0.015625)"/>
      <use xlink:href="#DejaVuSans-2c" transform="translate(367.089844 0.015625)"/>
      <use xlink:href="#DejaVuSans-Oblique-68" transform="translate(418.359375 0.015625)"/>
      <use xlink:href="#DejaVuSans-29" transform="translate(481.738281 0.015625)"/>
      <use xlink:href="#DejaVuSans-3d" transform="translate(540.234375 0.015625)"/>
      <use xlink:href="#DejaVuSans-28" transform="translate(643.505859 0.015625)"/>
      <use xlink:href="#DejaVuSans-31" transform="translate(682.519531 0.015625)"/>
      <use xlink:href="#DejaVuSans-30" transform="translate(746.142578 0.015625)"/>
      <use xlink:href="#DejaVuSans-30" transform="translate(809.765625 0.015625)"/>
      <use xlink:href="#DejaVuSans-2c" transform="translate(873.388672 0.015625)"/>
      <use xlink:href="#DejaVuSans-30" transform="translate(924.658203 0.015625)"/>
      <use xlink:href="#DejaVuSans-2e" transform="translate(988.28125 0.015625)"/>
      <use xlink:href="#DejaVuSans-30" transform="translate(1020.068359 0.015625)"/>
      <use xlink:href="#DejaVuSans-30" transform="translate(1083.691406 0.015625)"/>
      <use xlink:href="#DejaVuSans-31" transform="translate(1147.314453 0.015625)"/>
      <use xlink:href="#DejaVuSans-29" transform="translate(1210.9375 0.015625)"/>
      <use xlink:href="#DejaVuSans-2c" transform="translate(1249.951172 0.015625)"/>
      <use xlink:href="#DejaVuSans-Oblique-3ba" transform="translate(1301.220703 0.015625)"/>
      <use xlink:href="#DejaVuSans-32" transform="translate(1360.15625 -16.390625) scale(0.7)"/>
      <use xlink:href="#DejaVuSans-3d" transform="translate(1426.90918 0.015625)"/>
      <use xlink:href="#DejaVuSans-34" transform="translate(1530.180664 0.015625)"/>
      <use xlink:href="#DejaVuSans-2e" transform="translate(1593.803711 0.015625)"/>
      <use xlink:href="#DejaVuSans-36" transform="translate(1625.59082 0.015625)"/>
      <use xlink:href="#DejaVuSans-37" transform="translate(1689.213867 0.015625)"/>
      <use xlink:href="#DejaVuSans-Oblique-45" transform="translate(1752.836914 0.015625)"/>
      <use xlink:href="#DejaVuSans-2b" transform="translate(1835.50293 0.015625)"/>
      <use xlink:href="#DejaVuSans-30" transform="translate(1938.774414 0.015625)"/>
      <use xlink:href="#DejaVuSans-33" transform="translate(2002.397461 0.015625)"/>
     </g>
    </g>
    <g id="line2d_118">
     <path d="M 786.8 155.609063 
L 796.8 155.609063 
L 806.8 155.609063 
" style="fill: none; stroke: #8c564b; stroke-width: 1.5; stroke-linecap: square"/>
    </g>
    <g id="text_25">
     <!-- PCG: $(c,h)=(1000, 0.001), \kappa_2=5.09E+02$ -->
     <g transform="translate(814.8 159.109063) scale(0.1 -0.1)">
      <use xlink:href="#DejaVuSans-50" transform="translate(0 0.015625)"/>
      <use xlink:href="#DejaVuSans-43" transform="translate(60.302734 0.015625)"/>
      <use xlink:href="#DejaVuSans-47" transform="translate(130.126953 0.015625)"/>
      <use xlink:href="#DejaVuSans-3a" transform="translate(207.617188 0.015625)"/>
      <use xlink:href="#DejaVuSans-20" transform="translate(241.308594 0.015625)"/>
      <use xlink:href="#DejaVuSans-28" transform="translate(273.095703 0.015625)"/>
      <use xlink:href="#DejaVuSans-Oblique-63" transform="translate(312.109375 0.015625)"/>
      <use xlink:href="#DejaVuSans-2c" transform="translate(367.089844 0.015625)"/>
      <use xlink:href="#DejaVuSans-Oblique-68" transform="translate(418.359375 0.015625)"/>
      <use xlink:href="#DejaVuSans-29" transform="translate(481.738281 0.015625)"/>
      <use xlink:href="#DejaVuSans-3d" transform="translate(540.234375 0.015625)"/>
      <use xlink:href="#DejaVuSans-28" transform="translate(643.505859 0.015625)"/>
      <use xlink:href="#DejaVuSans-31" transform="translate(682.519531 0.015625)"/>
      <use xlink:href="#DejaVuSans-30" transform="translate(746.142578 0.015625)"/>
      <use xlink:href="#DejaVuSans-30" transform="translate(809.765625 0.015625)"/>
      <use xlink:href="#DejaVuSans-30" transform="translate(873.388672 0.015625)"/>
      <use xlink:href="#DejaVuSans-2c" transform="translate(937.011719 0.015625)"/>
      <use xlink:href="#DejaVuSans-30" transform="translate(988.28125 0.015625)"/>
      <use xlink:href="#DejaVuSans-2e" transform="translate(1051.904297 0.015625)"/>
      <use xlink:href="#DejaVuSans-30" transform="translate(1083.691406 0.015625)"/>
      <use xlink:href="#DejaVuSans-30" transform="translate(1147.314453 0.015625)"/>
      <use xlink:href="#DejaVuSans-31" transform="translate(1210.9375 0.015625)"/>
      <use xlink:href="#DejaVuSans-29" transform="translate(1274.560547 0.015625)"/>
      <use xlink:href="#DejaVuSans-2c" transform="translate(1313.574219 0.015625)"/>
      <use xlink:href="#DejaVuSans-Oblique-3ba" transform="translate(1364.84375 0.015625)"/>
      <use xlink:href="#DejaVuSans-32" transform="translate(1423.779297 -16.390625) scale(0.7)"/>
      <use xlink:href="#DejaVuSans-3d" transform="translate(1490.532227 0.015625)"/>
      <use xlink:href="#DejaVuSans-35" transform="translate(1593.803711 0.015625)"/>
      <use xlink:href="#DejaVuSans-2e" transform="translate(1657.426758 0.015625)"/>
      <use xlink:href="#DejaVuSans-30" transform="translate(1689.213867 0.015625)"/>
      <use xlink:href="#DejaVuSans-39" transform="translate(1752.836914 0.015625)"/>
      <use xlink:href="#DejaVuSans-Oblique-45" transform="translate(1816.459961 0.015625)"/>
      <use xlink:href="#DejaVuSans-2b" transform="translate(1899.125977 0.015625)"/>
      <use xlink:href="#DejaVuSans-30" transform="translate(2002.397461 0.015625)"/>
      <use xlink:href="#DejaVuSans-32" transform="translate(2066.020508 0.015625)"/>
     </g>
    </g>
   </g>
  </g>
 </g>
 <defs>
  <clipPath id="p19b720a117">
   <rect x="144" y="69.12" width="892.8" height="443.52"/>
  </clipPath>
 </defs>
</svg>
