<?xml version="1.0" encoding="utf-8" standalone="no"?>
<!DOCTYPE svg PUBLIC "-//W3C//DTD SVG 1.1//EN"
  "http://www.w3.org/Graphics/SVG/1.1/DTD/svg11.dtd">
<svg xmlns:xlink="http://www.w3.org/1999/xlink" width="1152pt" height="576pt" viewBox="0 0 1152 576" xmlns="http://www.w3.org/2000/svg" version="1.1">
 <metadata>
  <rdf:RDF xmlns:dc="http://purl.org/dc/elements/1.1/" xmlns:cc="http://creativecommons.org/ns#" xmlns:rdf="http://www.w3.org/1999/02/22-rdf-syntax-ns#">
   <cc:Work>
    <dc:type rdf:resource="http://purl.org/dc/dcmitype/StillImage"/>
    <dc:date>2024-01-12T23:32:30.838983</dc:date>
    <dc:format>image/svg+xml</dc:format>
    <dc:creator>
     <cc:Agent>
      <dc:title>Matplotlib v3.8.2, https://matplotlib.org/</dc:title>
     </cc:Agent>
    </dc:creator>
   </cc:Work>
  </rdf:RDF>
 </metadata>
 <defs>
  <style type="text/css">*{stroke-linejoin: round; stroke-linecap: butt}</style>
 </defs>
 <g id="figure_1">
  <g id="patch_1">
   <path d="M 0 576 
L 1152 576 
L 1152 0 
L 0 0 
z
" style="fill: #ffffff"/>
  </g>
  <g id="axes_1">
   <g id="patch_2">
    <path d="M 144 512.64 
L 1036.8 512.64 
L 1036.8 69.12 
L 144 69.12 
z
" style="fill: #ffffff"/>
   </g>
   <g id="matplotlib.axis_1">
    <g id="xtick_1">
     <g id="line2d_1">
      <defs>
       <path id="m7f6a4d45ab" d="M 0 0 
L 0 3.5 
" style="stroke: #000000; stroke-width: 0.8"/>
      </defs>
      <g>
       <use xlink:href="#m7f6a4d45ab" x="184.581818" y="512.64" style="stroke: #000000; stroke-width: 0.8"/>
      </g>
     </g>
     <g id="text_1">
      <!-- 0 -->
      <g transform="translate(181.400568 527.238438) scale(0.1 -0.1)">
       <defs>
        <path id="DejaVuSans-30" d="M 2034 4250 
Q 1547 4250 1301 3770 
Q 1056 3291 1056 2328 
Q 1056 1369 1301 889 
Q 1547 409 2034 409 
Q 2525 409 2770 889 
Q 3016 1369 3016 2328 
Q 3016 3291 2770 3770 
Q 2525 4250 2034 4250 
z
M 2034 4750 
Q 2819 4750 3233 4129 
Q 3647 3509 3647 2328 
Q 3647 1150 3233 529 
Q 2819 -91 2034 -91 
Q 1250 -91 836 529 
Q 422 1150 422 2328 
Q 422 3509 836 4129 
Q 1250 4750 2034 4750 
z
" transform="scale(0.015625)"/>
       </defs>
       <use xlink:href="#DejaVuSans-30"/>
      </g>
     </g>
    </g>
    <g id="xtick_2">
     <g id="line2d_2">
      <g>
       <use xlink:href="#m7f6a4d45ab" x="364.945455" y="512.64" style="stroke: #000000; stroke-width: 0.8"/>
      </g>
     </g>
     <g id="text_2">
      <!-- 2 -->
      <g transform="translate(361.764205 527.238438) scale(0.1 -0.1)">
       <defs>
        <path id="DejaVuSans-32" d="M 1228 531 
L 3431 531 
L 3431 0 
L 469 0 
L 469 531 
Q 828 903 1448 1529 
Q 2069 2156 2228 2338 
Q 2531 2678 2651 2914 
Q 2772 3150 2772 3378 
Q 2772 3750 2511 3984 
Q 2250 4219 1831 4219 
Q 1534 4219 1204 4116 
Q 875 4013 500 3803 
L 500 4441 
Q 881 4594 1212 4672 
Q 1544 4750 1819 4750 
Q 2544 4750 2975 4387 
Q 3406 4025 3406 3419 
Q 3406 3131 3298 2873 
Q 3191 2616 2906 2266 
Q 2828 2175 2409 1742 
Q 1991 1309 1228 531 
z
" transform="scale(0.015625)"/>
       </defs>
       <use xlink:href="#DejaVuSans-32"/>
      </g>
     </g>
    </g>
    <g id="xtick_3">
     <g id="line2d_3">
      <g>
       <use xlink:href="#m7f6a4d45ab" x="545.309091" y="512.64" style="stroke: #000000; stroke-width: 0.8"/>
      </g>
     </g>
     <g id="text_3">
      <!-- 4 -->
      <g transform="translate(542.127841 527.238438) scale(0.1 -0.1)">
       <defs>
        <path id="DejaVuSans-34" d="M 2419 4116 
L 825 1625 
L 2419 1625 
L 2419 4116 
z
M 2253 4666 
L 3047 4666 
L 3047 1625 
L 3713 1625 
L 3713 1100 
L 3047 1100 
L 3047 0 
L 2419 0 
L 2419 1100 
L 313 1100 
L 313 1709 
L 2253 4666 
z
" transform="scale(0.015625)"/>
       </defs>
       <use xlink:href="#DejaVuSans-34"/>
      </g>
     </g>
    </g>
    <g id="xtick_4">
     <g id="line2d_4">
      <g>
       <use xlink:href="#m7f6a4d45ab" x="725.672727" y="512.64" style="stroke: #000000; stroke-width: 0.8"/>
      </g>
     </g>
     <g id="text_4">
      <!-- 6 -->
      <g transform="translate(722.491477 527.238438) scale(0.1 -0.1)">
       <defs>
        <path id="DejaVuSans-36" d="M 2113 2584 
Q 1688 2584 1439 2293 
Q 1191 2003 1191 1497 
Q 1191 994 1439 701 
Q 1688 409 2113 409 
Q 2538 409 2786 701 
Q 3034 994 3034 1497 
Q 3034 2003 2786 2293 
Q 2538 2584 2113 2584 
z
M 3366 4563 
L 3366 3988 
Q 3128 4100 2886 4159 
Q 2644 4219 2406 4219 
Q 1781 4219 1451 3797 
Q 1122 3375 1075 2522 
Q 1259 2794 1537 2939 
Q 1816 3084 2150 3084 
Q 2853 3084 3261 2657 
Q 3669 2231 3669 1497 
Q 3669 778 3244 343 
Q 2819 -91 2113 -91 
Q 1303 -91 875 529 
Q 447 1150 447 2328 
Q 447 3434 972 4092 
Q 1497 4750 2381 4750 
Q 2619 4750 2861 4703 
Q 3103 4656 3366 4563 
z
" transform="scale(0.015625)"/>
       </defs>
       <use xlink:href="#DejaVuSans-36"/>
      </g>
     </g>
    </g>
    <g id="xtick_5">
     <g id="line2d_5">
      <g>
       <use xlink:href="#m7f6a4d45ab" x="906.036364" y="512.64" style="stroke: #000000; stroke-width: 0.8"/>
      </g>
     </g>
     <g id="text_5">
      <!-- 8 -->
      <g transform="translate(902.855114 527.238438) scale(0.1 -0.1)">
       <defs>
        <path id="DejaVuSans-38" d="M 2034 2216 
Q 1584 2216 1326 1975 
Q 1069 1734 1069 1313 
Q 1069 891 1326 650 
Q 1584 409 2034 409 
Q 2484 409 2743 651 
Q 3003 894 3003 1313 
Q 3003 1734 2745 1975 
Q 2488 2216 2034 2216 
z
M 1403 2484 
Q 997 2584 770 2862 
Q 544 3141 544 3541 
Q 544 4100 942 4425 
Q 1341 4750 2034 4750 
Q 2731 4750 3128 4425 
Q 3525 4100 3525 3541 
Q 3525 3141 3298 2862 
Q 3072 2584 2669 2484 
Q 3125 2378 3379 2068 
Q 3634 1759 3634 1313 
Q 3634 634 3220 271 
Q 2806 -91 2034 -91 
Q 1263 -91 848 271 
Q 434 634 434 1313 
Q 434 1759 690 2068 
Q 947 2378 1403 2484 
z
M 1172 3481 
Q 1172 3119 1398 2916 
Q 1625 2713 2034 2713 
Q 2441 2713 2670 2916 
Q 2900 3119 2900 3481 
Q 2900 3844 2670 4047 
Q 2441 4250 2034 4250 
Q 1625 4250 1398 4047 
Q 1172 3844 1172 3481 
z
" transform="scale(0.015625)"/>
       </defs>
       <use xlink:href="#DejaVuSans-38"/>
      </g>
     </g>
    </g>
    <g id="text_6">
     <!-- # iterations -->
     <g transform="translate(560.89375 540.916563) scale(0.1 -0.1)">
      <defs>
       <path id="DejaVuSans-23" d="M 3272 2816 
L 2363 2816 
L 2100 1772 
L 3016 1772 
L 3272 2816 
z
M 2803 4594 
L 2478 3297 
L 3391 3297 
L 3719 4594 
L 4219 4594 
L 3897 3297 
L 4872 3297 
L 4872 2816 
L 3775 2816 
L 3519 1772 
L 4513 1772 
L 4513 1294 
L 3397 1294 
L 3072 0 
L 2572 0 
L 2894 1294 
L 1978 1294 
L 1656 0 
L 1153 0 
L 1478 1294 
L 494 1294 
L 494 1772 
L 1594 1772 
L 1856 2816 
L 850 2816 
L 850 3297 
L 1978 3297 
L 2297 4594 
L 2803 4594 
z
" transform="scale(0.015625)"/>
       <path id="DejaVuSans-20" transform="scale(0.015625)"/>
       <path id="DejaVuSans-69" d="M 603 3500 
L 1178 3500 
L 1178 0 
L 603 0 
L 603 3500 
z
M 603 4863 
L 1178 4863 
L 1178 4134 
L 603 4134 
L 603 4863 
z
" transform="scale(0.015625)"/>
       <path id="DejaVuSans-74" d="M 1172 4494 
L 1172 3500 
L 2356 3500 
L 2356 3053 
L 1172 3053 
L 1172 1153 
Q 1172 725 1289 603 
Q 1406 481 1766 481 
L 2356 481 
L 2356 0 
L 1766 0 
Q 1100 0 847 248 
Q 594 497 594 1153 
L 594 3053 
L 172 3053 
L 172 3500 
L 594 3500 
L 594 4494 
L 1172 4494 
z
" transform="scale(0.015625)"/>
       <path id="DejaVuSans-65" d="M 3597 1894 
L 3597 1613 
L 953 1613 
Q 991 1019 1311 708 
Q 1631 397 2203 397 
Q 2534 397 2845 478 
Q 3156 559 3463 722 
L 3463 178 
Q 3153 47 2828 -22 
Q 2503 -91 2169 -91 
Q 1331 -91 842 396 
Q 353 884 353 1716 
Q 353 2575 817 3079 
Q 1281 3584 2069 3584 
Q 2775 3584 3186 3129 
Q 3597 2675 3597 1894 
z
M 3022 2063 
Q 3016 2534 2758 2815 
Q 2500 3097 2075 3097 
Q 1594 3097 1305 2825 
Q 1016 2553 972 2059 
L 3022 2063 
z
" transform="scale(0.015625)"/>
       <path id="DejaVuSans-72" d="M 2631 2963 
Q 2534 3019 2420 3045 
Q 2306 3072 2169 3072 
Q 1681 3072 1420 2755 
Q 1159 2438 1159 1844 
L 1159 0 
L 581 0 
L 581 3500 
L 1159 3500 
L 1159 2956 
Q 1341 3275 1631 3429 
Q 1922 3584 2338 3584 
Q 2397 3584 2469 3576 
Q 2541 3569 2628 3553 
L 2631 2963 
z
" transform="scale(0.015625)"/>
       <path id="DejaVuSans-61" d="M 2194 1759 
Q 1497 1759 1228 1600 
Q 959 1441 959 1056 
Q 959 750 1161 570 
Q 1363 391 1709 391 
Q 2188 391 2477 730 
Q 2766 1069 2766 1631 
L 2766 1759 
L 2194 1759 
z
M 3341 1997 
L 3341 0 
L 2766 0 
L 2766 531 
Q 2569 213 2275 61 
Q 1981 -91 1556 -91 
Q 1019 -91 701 211 
Q 384 513 384 1019 
Q 384 1609 779 1909 
Q 1175 2209 1959 2209 
L 2766 2209 
L 2766 2266 
Q 2766 2663 2505 2880 
Q 2244 3097 1772 3097 
Q 1472 3097 1187 3025 
Q 903 2953 641 2809 
L 641 3341 
Q 956 3463 1253 3523 
Q 1550 3584 1831 3584 
Q 2591 3584 2966 3190 
Q 3341 2797 3341 1997 
z
" transform="scale(0.015625)"/>
       <path id="DejaVuSans-6f" d="M 1959 3097 
Q 1497 3097 1228 2736 
Q 959 2375 959 1747 
Q 959 1119 1226 758 
Q 1494 397 1959 397 
Q 2419 397 2687 759 
Q 2956 1122 2956 1747 
Q 2956 2369 2687 2733 
Q 2419 3097 1959 3097 
z
M 1959 3584 
Q 2709 3584 3137 3096 
Q 3566 2609 3566 1747 
Q 3566 888 3137 398 
Q 2709 -91 1959 -91 
Q 1206 -91 779 398 
Q 353 888 353 1747 
Q 353 2609 779 3096 
Q 1206 3584 1959 3584 
z
" transform="scale(0.015625)"/>
       <path id="DejaVuSans-6e" d="M 3513 2113 
L 3513 0 
L 2938 0 
L 2938 2094 
Q 2938 2591 2744 2837 
Q 2550 3084 2163 3084 
Q 1697 3084 1428 2787 
Q 1159 2491 1159 1978 
L 1159 0 
L 581 0 
L 581 3500 
L 1159 3500 
L 1159 2956 
Q 1366 3272 1645 3428 
Q 1925 3584 2291 3584 
Q 2894 3584 3203 3211 
Q 3513 2838 3513 2113 
z
" transform="scale(0.015625)"/>
       <path id="DejaVuSans-73" d="M 2834 3397 
L 2834 2853 
Q 2591 2978 2328 3040 
Q 2066 3103 1784 3103 
Q 1356 3103 1142 2972 
Q 928 2841 928 2578 
Q 928 2378 1081 2264 
Q 1234 2150 1697 2047 
L 1894 2003 
Q 2506 1872 2764 1633 
Q 3022 1394 3022 966 
Q 3022 478 2636 193 
Q 2250 -91 1575 -91 
Q 1294 -91 989 -36 
Q 684 19 347 128 
L 347 722 
Q 666 556 975 473 
Q 1284 391 1588 391 
Q 1994 391 2212 530 
Q 2431 669 2431 922 
Q 2431 1156 2273 1281 
Q 2116 1406 1581 1522 
L 1381 1569 
Q 847 1681 609 1914 
Q 372 2147 372 2553 
Q 372 3047 722 3315 
Q 1072 3584 1716 3584 
Q 2034 3584 2315 3537 
Q 2597 3491 2834 3397 
z
" transform="scale(0.015625)"/>
      </defs>
      <use xlink:href="#DejaVuSans-23"/>
      <use xlink:href="#DejaVuSans-20" x="83.789062"/>
      <use xlink:href="#DejaVuSans-69" x="115.576172"/>
      <use xlink:href="#DejaVuSans-74" x="143.359375"/>
      <use xlink:href="#DejaVuSans-65" x="182.568359"/>
      <use xlink:href="#DejaVuSans-72" x="244.091797"/>
      <use xlink:href="#DejaVuSans-61" x="285.205078"/>
      <use xlink:href="#DejaVuSans-74" x="346.484375"/>
      <use xlink:href="#DejaVuSans-69" x="385.693359"/>
      <use xlink:href="#DejaVuSans-6f" x="413.476562"/>
      <use xlink:href="#DejaVuSans-6e" x="474.658203"/>
      <use xlink:href="#DejaVuSans-73" x="538.037109"/>
     </g>
    </g>
   </g>
   <g id="matplotlib.axis_2">
    <g id="ytick_1">
     <g id="line2d_6">
      <defs>
       <path id="m73d524561c" d="M 0 0 
L -3.5 0 
" style="stroke: #000000; stroke-width: 0.8"/>
      </defs>
      <g>
       <use xlink:href="#m73d524561c" x="144" y="492.48" style="stroke: #000000; stroke-width: 0.8"/>
      </g>
     </g>
     <g id="text_7">
      <!-- 0.0 -->
      <g transform="translate(121.096875 496.279219) scale(0.1 -0.1)">
       <defs>
        <path id="DejaVuSans-2e" d="M 684 794 
L 1344 794 
L 1344 0 
L 684 0 
L 684 794 
z
" transform="scale(0.015625)"/>
       </defs>
       <use xlink:href="#DejaVuSans-30"/>
       <use xlink:href="#DejaVuSans-2e" x="63.623047"/>
       <use xlink:href="#DejaVuSans-30" x="95.410156"/>
      </g>
     </g>
    </g>
    <g id="ytick_2">
     <g id="line2d_7">
      <g>
       <use xlink:href="#m73d524561c" x="144" y="411.944707" style="stroke: #000000; stroke-width: 0.8"/>
      </g>
     </g>
     <g id="text_8">
      <!-- 0.2 -->
      <g transform="translate(121.096875 415.743926) scale(0.1 -0.1)">
       <use xlink:href="#DejaVuSans-30"/>
       <use xlink:href="#DejaVuSans-2e" x="63.623047"/>
       <use xlink:href="#DejaVuSans-32" x="95.410156"/>
      </g>
     </g>
    </g>
    <g id="ytick_3">
     <g id="line2d_8">
      <g>
       <use xlink:href="#m73d524561c" x="144" y="331.409414" style="stroke: #000000; stroke-width: 0.8"/>
      </g>
     </g>
     <g id="text_9">
      <!-- 0.4 -->
      <g transform="translate(121.096875 335.208633) scale(0.1 -0.1)">
       <use xlink:href="#DejaVuSans-30"/>
       <use xlink:href="#DejaVuSans-2e" x="63.623047"/>
       <use xlink:href="#DejaVuSans-34" x="95.410156"/>
      </g>
     </g>
    </g>
    <g id="ytick_4">
     <g id="line2d_9">
      <g>
       <use xlink:href="#m73d524561c" x="144" y="250.874121" style="stroke: #000000; stroke-width: 0.8"/>
      </g>
     </g>
     <g id="text_10">
      <!-- 0.6 -->
      <g transform="translate(121.096875 254.67334) scale(0.1 -0.1)">
       <use xlink:href="#DejaVuSans-30"/>
       <use xlink:href="#DejaVuSans-2e" x="63.623047"/>
       <use xlink:href="#DejaVuSans-36" x="95.410156"/>
      </g>
     </g>
    </g>
    <g id="ytick_5">
     <g id="line2d_10">
      <g>
       <use xlink:href="#m73d524561c" x="144" y="170.338828" style="stroke: #000000; stroke-width: 0.8"/>
      </g>
     </g>
     <g id="text_11">
      <!-- 0.8 -->
      <g transform="translate(121.096875 174.138047) scale(0.1 -0.1)">
       <use xlink:href="#DejaVuSans-30"/>
       <use xlink:href="#DejaVuSans-2e" x="63.623047"/>
       <use xlink:href="#DejaVuSans-38" x="95.410156"/>
      </g>
     </g>
    </g>
    <g id="ytick_6">
     <g id="line2d_11">
      <g>
       <use xlink:href="#m73d524561c" x="144" y="89.803536" style="stroke: #000000; stroke-width: 0.8"/>
      </g>
     </g>
     <g id="text_12">
      <!-- 1.0 -->
      <g transform="translate(121.096875 93.602754) scale(0.1 -0.1)">
       <defs>
        <path id="DejaVuSans-31" d="M 794 531 
L 1825 531 
L 1825 4091 
L 703 3866 
L 703 4441 
L 1819 4666 
L 2450 4666 
L 2450 531 
L 3481 531 
L 3481 0 
L 794 0 
L 794 531 
z
" transform="scale(0.015625)"/>
       </defs>
       <use xlink:href="#DejaVuSans-31"/>
       <use xlink:href="#DejaVuSans-2e" x="63.623047"/>
       <use xlink:href="#DejaVuSans-30" x="95.410156"/>
      </g>
     </g>
    </g>
    <g id="text_13">
     <!-- 2-norm of residual -->
     <g transform="translate(115.017187 336.738594) rotate(-90) scale(0.1 -0.1)">
      <defs>
       <path id="DejaVuSans-2d" d="M 313 2009 
L 1997 2009 
L 1997 1497 
L 313 1497 
L 313 2009 
z
" transform="scale(0.015625)"/>
       <path id="DejaVuSans-6d" d="M 3328 2828 
Q 3544 3216 3844 3400 
Q 4144 3584 4550 3584 
Q 5097 3584 5394 3201 
Q 5691 2819 5691 2113 
L 5691 0 
L 5113 0 
L 5113 2094 
Q 5113 2597 4934 2840 
Q 4756 3084 4391 3084 
Q 3944 3084 3684 2787 
Q 3425 2491 3425 1978 
L 3425 0 
L 2847 0 
L 2847 2094 
Q 2847 2600 2669 2842 
Q 2491 3084 2119 3084 
Q 1678 3084 1418 2786 
Q 1159 2488 1159 1978 
L 1159 0 
L 581 0 
L 581 3500 
L 1159 3500 
L 1159 2956 
Q 1356 3278 1631 3431 
Q 1906 3584 2284 3584 
Q 2666 3584 2933 3390 
Q 3200 3197 3328 2828 
z
" transform="scale(0.015625)"/>
       <path id="DejaVuSans-66" d="M 2375 4863 
L 2375 4384 
L 1825 4384 
Q 1516 4384 1395 4259 
Q 1275 4134 1275 3809 
L 1275 3500 
L 2222 3500 
L 2222 3053 
L 1275 3053 
L 1275 0 
L 697 0 
L 697 3053 
L 147 3053 
L 147 3500 
L 697 3500 
L 697 3744 
Q 697 4328 969 4595 
Q 1241 4863 1831 4863 
L 2375 4863 
z
" transform="scale(0.015625)"/>
       <path id="DejaVuSans-64" d="M 2906 2969 
L 2906 4863 
L 3481 4863 
L 3481 0 
L 2906 0 
L 2906 525 
Q 2725 213 2448 61 
Q 2172 -91 1784 -91 
Q 1150 -91 751 415 
Q 353 922 353 1747 
Q 353 2572 751 3078 
Q 1150 3584 1784 3584 
Q 2172 3584 2448 3432 
Q 2725 3281 2906 2969 
z
M 947 1747 
Q 947 1113 1208 752 
Q 1469 391 1925 391 
Q 2381 391 2643 752 
Q 2906 1113 2906 1747 
Q 2906 2381 2643 2742 
Q 2381 3103 1925 3103 
Q 1469 3103 1208 2742 
Q 947 2381 947 1747 
z
" transform="scale(0.015625)"/>
       <path id="DejaVuSans-75" d="M 544 1381 
L 544 3500 
L 1119 3500 
L 1119 1403 
Q 1119 906 1312 657 
Q 1506 409 1894 409 
Q 2359 409 2629 706 
Q 2900 1003 2900 1516 
L 2900 3500 
L 3475 3500 
L 3475 0 
L 2900 0 
L 2900 538 
Q 2691 219 2414 64 
Q 2138 -91 1772 -91 
Q 1169 -91 856 284 
Q 544 659 544 1381 
z
M 1991 3584 
L 1991 3584 
z
" transform="scale(0.015625)"/>
       <path id="DejaVuSans-6c" d="M 603 4863 
L 1178 4863 
L 1178 0 
L 603 0 
L 603 4863 
z
" transform="scale(0.015625)"/>
      </defs>
      <use xlink:href="#DejaVuSans-32"/>
      <use xlink:href="#DejaVuSans-2d" x="63.623047"/>
      <use xlink:href="#DejaVuSans-6e" x="99.707031"/>
      <use xlink:href="#DejaVuSans-6f" x="163.085938"/>
      <use xlink:href="#DejaVuSans-72" x="224.267578"/>
      <use xlink:href="#DejaVuSans-6d" x="263.630859"/>
      <use xlink:href="#DejaVuSans-20" x="361.042969"/>
      <use xlink:href="#DejaVuSans-6f" x="392.830078"/>
      <use xlink:href="#DejaVuSans-66" x="454.011719"/>
      <use xlink:href="#DejaVuSans-20" x="489.216797"/>
      <use xlink:href="#DejaVuSans-72" x="521.003906"/>
      <use xlink:href="#DejaVuSans-65" x="559.867188"/>
      <use xlink:href="#DejaVuSans-73" x="621.390625"/>
      <use xlink:href="#DejaVuSans-69" x="673.490234"/>
      <use xlink:href="#DejaVuSans-64" x="701.273438"/>
      <use xlink:href="#DejaVuSans-75" x="764.75"/>
      <use xlink:href="#DejaVuSans-61" x="828.128906"/>
      <use xlink:href="#DejaVuSans-6c" x="889.408203"/>
     </g>
    </g>
    <g id="text_14">
     <!-- 1e6 -->
     <g transform="translate(144 66.12) scale(0.1 -0.1)">
      <use xlink:href="#DejaVuSans-31"/>
      <use xlink:href="#DejaVuSans-65" x="63.623047"/>
      <use xlink:href="#DejaVuSans-36" x="125.146484"/>
     </g>
    </g>
   </g>
   <g id="line2d_12">
    <path d="M 184.581818 492.439092 
L 274.763636 492.474618 
L 364.945455 492.479834 
L 455.127273 492.479997 
L 545.309091 492.48 
L 635.490909 492.48 
" clip-path="url(#p37ca92fe70)" style="fill: none; stroke: #393b79; stroke-width: 1.5; stroke-linecap: square"/>
   </g>
   <g id="line2d_13">
    <path d="M 184.581818 488.452803 
L 274.763636 491.981255 
L 364.945455 492.466872 
L 455.127273 492.479654 
L 545.309091 492.479991 
L 635.490909 492.48 
L 725.672727 492.48 
L 815.854545 492.48 
L 906.036364 492.48 
L 996.218182 492.48 
" clip-path="url(#p37ca92fe70)" style="fill: none; stroke: #cedb9c; stroke-width: 1.5; stroke-linecap: square"/>
   </g>
   <g id="line2d_14">
    <path d="M 184.581818 89.803126 
L 274.763636 442.570172 
L 364.945455 491.169484 
L 455.127273 492.445533 
L 545.309091 492.479092 
L 635.490909 492.479976 
L 725.672727 492.479999 
L 815.854545 492.48 
L 906.036364 492.48 
L 996.218182 492.48 
" clip-path="url(#p37ca92fe70)" style="fill: none; stroke: #d6616b; stroke-width: 1.5; stroke-linecap: square"/>
   </g>
   <g id="line2d_15">
    <path d="M 184.581818 492.439051 
L 274.763636 492.47462 
L 364.945455 492.479834 
L 455.127273 492.479997 
L 545.309091 492.48 
L 635.490909 492.48 
L 725.672727 492.48 
" clip-path="url(#p37ca92fe70)" style="fill: none; stroke: #5254a3; stroke-width: 1.5; stroke-linecap: square"/>
   </g>
   <g id="line2d_16">
    <path d="M 184.581818 488.452766 
L 274.763636 491.981277 
L 364.945455 492.466871 
L 455.127273 492.479654 
L 545.309091 492.479991 
L 635.490909 492.48 
L 725.672727 492.48 
L 815.854545 492.48 
L 906.036364 492.48 
L 996.218182 492.48 
" clip-path="url(#p37ca92fe70)" style="fill: none; stroke: #8c6d31; stroke-width: 1.5; stroke-linecap: square"/>
   </g>
   <g id="line2d_17">
    <path d="M 184.581818 89.80309 
L 274.763636 442.570405 
L 364.945455 491.169485 
L 455.127273 492.445533 
L 545.309091 492.479092 
L 635.490909 492.479976 
L 725.672727 492.479999 
L 815.854545 492.48 
L 906.036364 492.48 
L 996.218182 492.48 
" clip-path="url(#p37ca92fe70)" style="fill: none; stroke: #e7969c; stroke-width: 1.5; stroke-linecap: square"/>
   </g>
   <g id="line2d_18">
    <path d="M 184.581818 492.438633 
L 274.763636 492.474639 
L 364.945455 492.479833 
L 455.127273 492.479997 
L 545.309091 492.48 
L 635.490909 492.48 
L 725.672727 492.48 
" clip-path="url(#p37ca92fe70)" style="fill: none; stroke: #6b6ecf; stroke-width: 1.5; stroke-linecap: square"/>
   </g>
   <g id="line2d_19">
    <path d="M 184.581818 488.452397 
L 274.763636 491.981494 
L 364.945455 492.46687 
L 455.127273 492.479654 
L 545.309091 492.479991 
L 635.490909 492.48 
L 725.672727 492.48 
L 815.854545 492.48 
L 906.036364 492.48 
L 996.218182 492.48 
" clip-path="url(#p37ca92fe70)" style="fill: none; stroke: #bd9e39; stroke-width: 1.5; stroke-linecap: square"/>
   </g>
   <g id="line2d_20">
    <path d="M 184.581818 89.802727 
L 274.763636 442.572734 
L 364.945455 491.169488 
L 455.127273 492.445533 
L 545.309091 492.479092 
L 635.490909 492.479976 
L 725.672727 492.479999 
L 815.854545 492.48 
L 906.036364 492.48 
L 996.218182 492.48 
" clip-path="url(#p37ca92fe70)" style="fill: none; stroke: #7b4173; stroke-width: 1.5; stroke-linecap: square"/>
   </g>
   <g id="line2d_21">
    <path d="M 184.581818 492.433803 
L 274.763636 492.474786 
L 364.945455 492.479837 
L 455.127273 492.479997 
L 545.309091 492.48 
L 635.490909 492.48 
L 725.672727 492.48 
" clip-path="url(#p37ca92fe70)" style="fill: none; stroke: #9c9ede; stroke-width: 1.5; stroke-linecap: square"/>
   </g>
   <g id="line2d_22">
    <path d="M 184.581818 488.4486 
L 274.763636 491.983506 
L 364.945455 492.466858 
L 455.127273 492.479653 
L 545.309091 492.479991 
L 635.490909 492.48 
L 725.672727 492.48 
L 815.854545 492.48 
L 906.036364 492.48 
L 996.218182 492.48 
" clip-path="url(#p37ca92fe70)" style="fill: none; stroke: #e7ba52; stroke-width: 1.5; stroke-linecap: square"/>
   </g>
   <g id="line2d_23">
    <path d="M 184.581818 89.799085 
L 274.763636 442.595841 
L 364.945455 491.169517 
L 455.127273 492.445532 
L 545.309091 492.479092 
L 635.490909 492.479976 
L 725.672727 492.479999 
L 815.854545 492.48 
L 906.036364 492.48 
L 996.218182 492.48 
" clip-path="url(#p37ca92fe70)" style="fill: none; stroke: #a55194; stroke-width: 1.5; stroke-linecap: square"/>
   </g>
   <g id="line2d_24">
    <path d="M 184.581818 492.360545 
L 274.763636 492.475653 
L 364.945455 492.479939 
L 455.127273 492.479999 
L 545.309091 492.48 
L 635.490909 492.48 
L 725.672727 492.48 
" clip-path="url(#p37ca92fe70)" style="fill: none; stroke: #637939; stroke-width: 1.5; stroke-linecap: square"/>
   </g>
   <g id="line2d_25">
    <path d="M 184.581818 488.400323 
L 274.763636 491.994499 
L 364.945455 492.46676 
L 455.127273 492.479649 
L 545.309091 492.479991 
L 635.490909 492.48 
L 725.672727 492.48 
L 815.854545 492.48 
L 906.036364 492.48 
L 996.218182 492.48 
" clip-path="url(#p37ca92fe70)" style="fill: none; stroke: #e7cb94; stroke-width: 1.5; stroke-linecap: square"/>
   </g>
   <g id="line2d_26">
    <path d="M 184.581818 89.761599 
L 274.763636 442.809372 
L 364.945455 491.169775 
L 455.127273 492.445524 
L 545.309091 492.479092 
L 635.490909 492.479976 
L 725.672727 492.479999 
L 815.854545 492.48 
L 906.036364 492.48 
L 996.218182 492.48 
" clip-path="url(#p37ca92fe70)" style="fill: none; stroke: #ce6dbd; stroke-width: 1.5; stroke-linecap: square"/>
   </g>
   <g id="line2d_27">
    <path d="M 184.581818 491.517576 
L 274.763636 492.478578 
L 364.945455 492.479999 
L 455.127273 492.48 
L 545.309091 492.48 
" clip-path="url(#p37ca92fe70)" style="fill: none; stroke: #8ca252; stroke-width: 1.5; stroke-linecap: square"/>
   </g>
   <g id="line2d_28">
    <path d="M 184.581818 487.084059 
L 274.763636 492.006228 
L 364.945455 492.466978 
L 455.127273 492.479683 
L 545.309091 492.479992 
L 635.490909 492.48 
L 725.672727 492.48 
L 815.854545 492.48 
L 906.036364 492.48 
L 996.218182 492.48 
" clip-path="url(#p37ca92fe70)" style="fill: none; stroke: #843c39; stroke-width: 1.5; stroke-linecap: square"/>
   </g>
   <g id="line2d_29">
    <path d="M 184.581818 89.28 
L 274.763636 443.964291 
L 364.945455 491.170461 
L 455.127273 492.445449 
L 545.309091 492.479089 
L 635.490909 492.479976 
L 725.672727 492.479999 
L 815.854545 492.48 
L 906.036364 492.48 
L 996.218182 492.48 
" clip-path="url(#p37ca92fe70)" style="fill: none; stroke: #de9ed6; stroke-width: 1.5; stroke-linecap: square"/>
   </g>
   <g id="patch_3">
    <path d="M 144 512.64 
L 144 69.12 
" style="fill: none; stroke: #000000; stroke-width: 0.8; stroke-linejoin: miter; stroke-linecap: square"/>
   </g>
   <g id="patch_4">
    <path d="M 1036.8 512.64 
L 1036.8 69.12 
" style="fill: none; stroke: #000000; stroke-width: 0.8; stroke-linejoin: miter; stroke-linecap: square"/>
   </g>
   <g id="patch_5">
    <path d="M 144 512.64 
L 1036.8 512.64 
" style="fill: none; stroke: #000000; stroke-width: 0.8; stroke-linejoin: miter; stroke-linecap: square"/>
   </g>
   <g id="patch_6">
    <path d="M 144 69.12 
L 1036.8 69.12 
" style="fill: none; stroke: #000000; stroke-width: 0.8; stroke-linejoin: miter; stroke-linecap: square"/>
   </g>
   <g id="legend_1">
    <g id="patch_7">
     <path d="M 149.6 508.64 
L 366.16 508.64 
Q 367.76 508.64 367.76 507.04 
L 367.76 296.475 
Q 367.76 294.875 366.16 294.875 
L 149.6 294.875 
Q 148 294.875 148 296.475 
L 148 507.04 
Q 148 508.64 149.6 508.64 
z
" style="fill: #ffffff; opacity: 0.8; stroke: #cccccc; stroke-linejoin: miter"/>
    </g>
    <g id="line2d_30">
     <path d="M 151.2 301.35375 
L 159.2 301.35375 
L 167.2 301.35375 
" style="fill: none; stroke: #393b79; stroke-width: 1.5; stroke-linecap: square"/>
    </g>
    <g id="text_15">
     <!-- TGM PCG: $(c,h)=(0.01, 0.1), \kappa_2=1.42E+00$ -->
     <g transform="translate(173.6 304.15375) scale(0.08 -0.08)">
      <defs>
       <path id="DejaVuSans-54" d="M -19 4666 
L 3928 4666 
L 3928 4134 
L 2272 4134 
L 2272 0 
L 1638 0 
L 1638 4134 
L -19 4134 
L -19 4666 
z
" transform="scale(0.015625)"/>
       <path id="DejaVuSans-47" d="M 3809 666 
L 3809 1919 
L 2778 1919 
L 2778 2438 
L 4434 2438 
L 4434 434 
Q 4069 175 3628 42 
Q 3188 -91 2688 -91 
Q 1594 -91 976 548 
Q 359 1188 359 2328 
Q 359 3472 976 4111 
Q 1594 4750 2688 4750 
Q 3144 4750 3555 4637 
Q 3966 4525 4313 4306 
L 4313 3634 
Q 3963 3931 3569 4081 
Q 3175 4231 2741 4231 
Q 1884 4231 1454 3753 
Q 1025 3275 1025 2328 
Q 1025 1384 1454 906 
Q 1884 428 2741 428 
Q 3075 428 3337 486 
Q 3600 544 3809 666 
z
" transform="scale(0.015625)"/>
       <path id="DejaVuSans-4d" d="M 628 4666 
L 1569 4666 
L 2759 1491 
L 3956 4666 
L 4897 4666 
L 4897 0 
L 4281 0 
L 4281 4097 
L 3078 897 
L 2444 897 
L 1241 4097 
L 1241 0 
L 628 0 
L 628 4666 
z
" transform="scale(0.015625)"/>
       <path id="DejaVuSans-50" d="M 1259 4147 
L 1259 2394 
L 2053 2394 
Q 2494 2394 2734 2622 
Q 2975 2850 2975 3272 
Q 2975 3691 2734 3919 
Q 2494 4147 2053 4147 
L 1259 4147 
z
M 628 4666 
L 2053 4666 
Q 2838 4666 3239 4311 
Q 3641 3956 3641 3272 
Q 3641 2581 3239 2228 
Q 2838 1875 2053 1875 
L 1259 1875 
L 1259 0 
L 628 0 
L 628 4666 
z
" transform="scale(0.015625)"/>
       <path id="DejaVuSans-43" d="M 4122 4306 
L 4122 3641 
Q 3803 3938 3442 4084 
Q 3081 4231 2675 4231 
Q 1875 4231 1450 3742 
Q 1025 3253 1025 2328 
Q 1025 1406 1450 917 
Q 1875 428 2675 428 
Q 3081 428 3442 575 
Q 3803 722 4122 1019 
L 4122 359 
Q 3791 134 3420 21 
Q 3050 -91 2638 -91 
Q 1578 -91 968 557 
Q 359 1206 359 2328 
Q 359 3453 968 4101 
Q 1578 4750 2638 4750 
Q 3056 4750 3426 4639 
Q 3797 4528 4122 4306 
z
" transform="scale(0.015625)"/>
       <path id="DejaVuSans-3a" d="M 750 794 
L 1409 794 
L 1409 0 
L 750 0 
L 750 794 
z
M 750 3309 
L 1409 3309 
L 1409 2516 
L 750 2516 
L 750 3309 
z
" transform="scale(0.015625)"/>
       <path id="DejaVuSans-28" d="M 1984 4856 
Q 1566 4138 1362 3434 
Q 1159 2731 1159 2009 
Q 1159 1288 1364 580 
Q 1569 -128 1984 -844 
L 1484 -844 
Q 1016 -109 783 600 
Q 550 1309 550 2009 
Q 550 2706 781 3412 
Q 1013 4119 1484 4856 
L 1984 4856 
z
" transform="scale(0.015625)"/>
       <path id="DejaVuSans-Oblique-63" d="M 3431 3366 
L 3316 2797 
Q 3109 2947 2876 3022 
Q 2644 3097 2394 3097 
Q 2119 3097 1870 3000 
Q 1622 2903 1453 2725 
Q 1184 2453 1037 2087 
Q 891 1722 891 1331 
Q 891 859 1127 628 
Q 1363 397 1844 397 
Q 2081 397 2348 469 
Q 2616 541 2906 684 
L 2797 116 
Q 2547 13 2283 -39 
Q 2019 -91 1741 -91 
Q 1044 -91 669 257 
Q 294 606 294 1253 
Q 294 1797 489 2255 
Q 684 2713 1069 3078 
Q 1331 3328 1684 3456 
Q 2038 3584 2456 3584 
Q 2700 3584 2940 3529 
Q 3181 3475 3431 3366 
z
" transform="scale(0.015625)"/>
       <path id="DejaVuSans-2c" d="M 750 794 
L 1409 794 
L 1409 256 
L 897 -744 
L 494 -744 
L 750 256 
L 750 794 
z
" transform="scale(0.015625)"/>
       <path id="DejaVuSans-Oblique-68" d="M 3566 2113 
L 3156 0 
L 2578 0 
L 2988 2091 
Q 3016 2238 3031 2350 
Q 3047 2463 3047 2528 
Q 3047 2791 2881 2937 
Q 2716 3084 2419 3084 
Q 1956 3084 1617 2771 
Q 1278 2459 1178 1941 
L 800 0 
L 225 0 
L 1172 4863 
L 1747 4863 
L 1375 2950 
Q 1594 3244 1934 3414 
Q 2275 3584 2650 3584 
Q 3113 3584 3367 3334 
Q 3622 3084 3622 2631 
Q 3622 2519 3608 2391 
Q 3594 2263 3566 2113 
z
" transform="scale(0.015625)"/>
       <path id="DejaVuSans-29" d="M 513 4856 
L 1013 4856 
Q 1481 4119 1714 3412 
Q 1947 2706 1947 2009 
Q 1947 1309 1714 600 
Q 1481 -109 1013 -844 
L 513 -844 
Q 928 -128 1133 580 
Q 1338 1288 1338 2009 
Q 1338 2731 1133 3434 
Q 928 4138 513 4856 
z
" transform="scale(0.015625)"/>
       <path id="DejaVuSans-3d" d="M 678 2906 
L 4684 2906 
L 4684 2381 
L 678 2381 
L 678 2906 
z
M 678 1631 
L 4684 1631 
L 4684 1100 
L 678 1100 
L 678 1631 
z
" transform="scale(0.015625)"/>
       <path id="DejaVuSans-Oblique-3ba" d="M 938 3500 
L 1531 3500 
L 1247 2047 
L 3041 3500 
L 3741 3500 
L 2106 2181 
L 3275 0 
L 2572 0 
L 1628 1806 
L 1122 1403 
L 850 0 
L 256 0 
L 938 3500 
z
" transform="scale(0.015625)"/>
       <path id="DejaVuSans-Oblique-45" d="M 1081 4666 
L 4031 4666 
L 3928 4134 
L 1606 4134 
L 1338 2753 
L 3566 2753 
L 3463 2222 
L 1234 2222 
L 909 531 
L 3284 531 
L 3181 0 
L 172 0 
L 1081 4666 
z
" transform="scale(0.015625)"/>
       <path id="DejaVuSans-2b" d="M 2944 4013 
L 2944 2272 
L 4684 2272 
L 4684 1741 
L 2944 1741 
L 2944 0 
L 2419 0 
L 2419 1741 
L 678 1741 
L 678 2272 
L 2419 2272 
L 2419 4013 
L 2944 4013 
z
" transform="scale(0.015625)"/>
      </defs>
      <use xlink:href="#DejaVuSans-54" transform="translate(0 0.015625)"/>
      <use xlink:href="#DejaVuSans-47" transform="translate(61.083984 0.015625)"/>
      <use xlink:href="#DejaVuSans-4d" transform="translate(138.574219 0.015625)"/>
      <use xlink:href="#DejaVuSans-20" transform="translate(224.853516 0.015625)"/>
      <use xlink:href="#DejaVuSans-50" transform="translate(256.640625 0.015625)"/>
      <use xlink:href="#DejaVuSans-43" transform="translate(316.943359 0.015625)"/>
      <use xlink:href="#DejaVuSans-47" transform="translate(386.767578 0.015625)"/>
      <use xlink:href="#DejaVuSans-3a" transform="translate(464.257812 0.015625)"/>
      <use xlink:href="#DejaVuSans-20" transform="translate(497.949219 0.015625)"/>
      <use xlink:href="#DejaVuSans-28" transform="translate(529.736328 0.015625)"/>
      <use xlink:href="#DejaVuSans-Oblique-63" transform="translate(568.75 0.015625)"/>
      <use xlink:href="#DejaVuSans-2c" transform="translate(623.730469 0.015625)"/>
      <use xlink:href="#DejaVuSans-Oblique-68" transform="translate(675 0.015625)"/>
      <use xlink:href="#DejaVuSans-29" transform="translate(738.378906 0.015625)"/>
      <use xlink:href="#DejaVuSans-3d" transform="translate(796.875 0.015625)"/>
      <use xlink:href="#DejaVuSans-28" transform="translate(900.146484 0.015625)"/>
      <use xlink:href="#DejaVuSans-30" transform="translate(939.160156 0.015625)"/>
      <use xlink:href="#DejaVuSans-2e" transform="translate(1002.783203 0.015625)"/>
      <use xlink:href="#DejaVuSans-30" transform="translate(1034.570312 0.015625)"/>
      <use xlink:href="#DejaVuSans-31" transform="translate(1098.193359 0.015625)"/>
      <use xlink:href="#DejaVuSans-2c" transform="translate(1161.816406 0.015625)"/>
      <use xlink:href="#DejaVuSans-30" transform="translate(1213.085938 0.015625)"/>
      <use xlink:href="#DejaVuSans-2e" transform="translate(1276.708984 0.015625)"/>
      <use xlink:href="#DejaVuSans-31" transform="translate(1308.496094 0.015625)"/>
      <use xlink:href="#DejaVuSans-29" transform="translate(1372.119141 0.015625)"/>
      <use xlink:href="#DejaVuSans-2c" transform="translate(1411.132812 0.015625)"/>
      <use xlink:href="#DejaVuSans-Oblique-3ba" transform="translate(1462.402344 0.015625)"/>
      <use xlink:href="#DejaVuSans-32" transform="translate(1521.337891 -16.390625) scale(0.7)"/>
      <use xlink:href="#DejaVuSans-3d" transform="translate(1588.09082 0.015625)"/>
      <use xlink:href="#DejaVuSans-31" transform="translate(1691.362305 0.015625)"/>
      <use xlink:href="#DejaVuSans-2e" transform="translate(1754.985352 0.015625)"/>
      <use xlink:href="#DejaVuSans-34" transform="translate(1786.772461 0.015625)"/>
      <use xlink:href="#DejaVuSans-32" transform="translate(1850.395508 0.015625)"/>
      <use xlink:href="#DejaVuSans-Oblique-45" transform="translate(1914.018555 0.015625)"/>
      <use xlink:href="#DejaVuSans-2b" transform="translate(1996.68457 0.015625)"/>
      <use xlink:href="#DejaVuSans-30" transform="translate(2099.956055 0.015625)"/>
      <use xlink:href="#DejaVuSans-30" transform="translate(2163.579102 0.015625)"/>
     </g>
    </g>
    <g id="line2d_31">
     <path d="M 151.2 313.09625 
L 159.2 313.09625 
L 167.2 313.09625 
" style="fill: none; stroke: #cedb9c; stroke-width: 1.5; stroke-linecap: square"/>
    </g>
    <g id="text_16">
     <!-- TGM PCG: $(c,h)=(0.01, 0.01), \kappa_2=1.45E+00$ -->
     <g transform="translate(173.6 315.89625) scale(0.08 -0.08)">
      <defs>
       <path id="DejaVuSans-35" d="M 691 4666 
L 3169 4666 
L 3169 4134 
L 1269 4134 
L 1269 2991 
Q 1406 3038 1543 3061 
Q 1681 3084 1819 3084 
Q 2600 3084 3056 2656 
Q 3513 2228 3513 1497 
Q 3513 744 3044 326 
Q 2575 -91 1722 -91 
Q 1428 -91 1123 -41 
Q 819 9 494 109 
L 494 744 
Q 775 591 1075 516 
Q 1375 441 1709 441 
Q 2250 441 2565 725 
Q 2881 1009 2881 1497 
Q 2881 1984 2565 2268 
Q 2250 2553 1709 2553 
Q 1456 2553 1204 2497 
Q 953 2441 691 2322 
L 691 4666 
z
" transform="scale(0.015625)"/>
      </defs>
      <use xlink:href="#DejaVuSans-54" transform="translate(0 0.015625)"/>
      <use xlink:href="#DejaVuSans-47" transform="translate(61.083984 0.015625)"/>
      <use xlink:href="#DejaVuSans-4d" transform="translate(138.574219 0.015625)"/>
      <use xlink:href="#DejaVuSans-20" transform="translate(224.853516 0.015625)"/>
      <use xlink:href="#DejaVuSans-50" transform="translate(256.640625 0.015625)"/>
      <use xlink:href="#DejaVuSans-43" transform="translate(316.943359 0.015625)"/>
      <use xlink:href="#DejaVuSans-47" transform="translate(386.767578 0.015625)"/>
      <use xlink:href="#DejaVuSans-3a" transform="translate(464.257812 0.015625)"/>
      <use xlink:href="#DejaVuSans-20" transform="translate(497.949219 0.015625)"/>
      <use xlink:href="#DejaVuSans-28" transform="translate(529.736328 0.015625)"/>
      <use xlink:href="#DejaVuSans-Oblique-63" transform="translate(568.75 0.015625)"/>
      <use xlink:href="#DejaVuSans-2c" transform="translate(623.730469 0.015625)"/>
      <use xlink:href="#DejaVuSans-Oblique-68" transform="translate(675 0.015625)"/>
      <use xlink:href="#DejaVuSans-29" transform="translate(738.378906 0.015625)"/>
      <use xlink:href="#DejaVuSans-3d" transform="translate(796.875 0.015625)"/>
      <use xlink:href="#DejaVuSans-28" transform="translate(900.146484 0.015625)"/>
      <use xlink:href="#DejaVuSans-30" transform="translate(939.160156 0.015625)"/>
      <use xlink:href="#DejaVuSans-2e" transform="translate(1002.783203 0.015625)"/>
      <use xlink:href="#DejaVuSans-30" transform="translate(1034.570312 0.015625)"/>
      <use xlink:href="#DejaVuSans-31" transform="translate(1098.193359 0.015625)"/>
      <use xlink:href="#DejaVuSans-2c" transform="translate(1161.816406 0.015625)"/>
      <use xlink:href="#DejaVuSans-30" transform="translate(1213.085938 0.015625)"/>
      <use xlink:href="#DejaVuSans-2e" transform="translate(1276.708984 0.015625)"/>
      <use xlink:href="#DejaVuSans-30" transform="translate(1308.496094 0.015625)"/>
      <use xlink:href="#DejaVuSans-31" transform="translate(1372.119141 0.015625)"/>
      <use xlink:href="#DejaVuSans-29" transform="translate(1435.742188 0.015625)"/>
      <use xlink:href="#DejaVuSans-2c" transform="translate(1474.755859 0.015625)"/>
      <use xlink:href="#DejaVuSans-Oblique-3ba" transform="translate(1526.025391 0.015625)"/>
      <use xlink:href="#DejaVuSans-32" transform="translate(1584.960938 -16.390625) scale(0.7)"/>
      <use xlink:href="#DejaVuSans-3d" transform="translate(1651.713867 0.015625)"/>
      <use xlink:href="#DejaVuSans-31" transform="translate(1754.985352 0.015625)"/>
      <use xlink:href="#DejaVuSans-2e" transform="translate(1818.608398 0.015625)"/>
      <use xlink:href="#DejaVuSans-34" transform="translate(1850.395508 0.015625)"/>
      <use xlink:href="#DejaVuSans-35" transform="translate(1914.018555 0.015625)"/>
      <use xlink:href="#DejaVuSans-Oblique-45" transform="translate(1977.641602 0.015625)"/>
      <use xlink:href="#DejaVuSans-2b" transform="translate(2060.307617 0.015625)"/>
      <use xlink:href="#DejaVuSans-30" transform="translate(2163.579102 0.015625)"/>
      <use xlink:href="#DejaVuSans-30" transform="translate(2227.202148 0.015625)"/>
     </g>
    </g>
    <g id="line2d_32">
     <path d="M 151.2 324.83875 
L 159.2 324.83875 
L 167.2 324.83875 
" style="fill: none; stroke: #d6616b; stroke-width: 1.5; stroke-linecap: square"/>
    </g>
    <g id="text_17">
     <!-- TGM PCG: $(c,h)=(0.01, 0.001), \kappa_2=1.45E+00$ -->
     <g transform="translate(173.6 327.63875) scale(0.08 -0.08)">
      <use xlink:href="#DejaVuSans-54" transform="translate(0 0.015625)"/>
      <use xlink:href="#DejaVuSans-47" transform="translate(61.083984 0.015625)"/>
      <use xlink:href="#DejaVuSans-4d" transform="translate(138.574219 0.015625)"/>
      <use xlink:href="#DejaVuSans-20" transform="translate(224.853516 0.015625)"/>
      <use xlink:href="#DejaVuSans-50" transform="translate(256.640625 0.015625)"/>
      <use xlink:href="#DejaVuSans-43" transform="translate(316.943359 0.015625)"/>
      <use xlink:href="#DejaVuSans-47" transform="translate(386.767578 0.015625)"/>
      <use xlink:href="#DejaVuSans-3a" transform="translate(464.257812 0.015625)"/>
      <use xlink:href="#DejaVuSans-20" transform="translate(497.949219 0.015625)"/>
      <use xlink:href="#DejaVuSans-28" transform="translate(529.736328 0.015625)"/>
      <use xlink:href="#DejaVuSans-Oblique-63" transform="translate(568.75 0.015625)"/>
      <use xlink:href="#DejaVuSans-2c" transform="translate(623.730469 0.015625)"/>
      <use xlink:href="#DejaVuSans-Oblique-68" transform="translate(675 0.015625)"/>
      <use xlink:href="#DejaVuSans-29" transform="translate(738.378906 0.015625)"/>
      <use xlink:href="#DejaVuSans-3d" transform="translate(796.875 0.015625)"/>
      <use xlink:href="#DejaVuSans-28" transform="translate(900.146484 0.015625)"/>
      <use xlink:href="#DejaVuSans-30" transform="translate(939.160156 0.015625)"/>
      <use xlink:href="#DejaVuSans-2e" transform="translate(1002.783203 0.015625)"/>
      <use xlink:href="#DejaVuSans-30" transform="translate(1034.570312 0.015625)"/>
      <use xlink:href="#DejaVuSans-31" transform="translate(1098.193359 0.015625)"/>
      <use xlink:href="#DejaVuSans-2c" transform="translate(1161.816406 0.015625)"/>
      <use xlink:href="#DejaVuSans-30" transform="translate(1213.085938 0.015625)"/>
      <use xlink:href="#DejaVuSans-2e" transform="translate(1276.708984 0.015625)"/>
      <use xlink:href="#DejaVuSans-30" transform="translate(1308.496094 0.015625)"/>
      <use xlink:href="#DejaVuSans-30" transform="translate(1372.119141 0.015625)"/>
      <use xlink:href="#DejaVuSans-31" transform="translate(1435.742188 0.015625)"/>
      <use xlink:href="#DejaVuSans-29" transform="translate(1499.365234 0.015625)"/>
      <use xlink:href="#DejaVuSans-2c" transform="translate(1538.378906 0.015625)"/>
      <use xlink:href="#DejaVuSans-Oblique-3ba" transform="translate(1589.648438 0.015625)"/>
      <use xlink:href="#DejaVuSans-32" transform="translate(1648.583984 -16.390625) scale(0.7)"/>
      <use xlink:href="#DejaVuSans-3d" transform="translate(1715.336914 0.015625)"/>
      <use xlink:href="#DejaVuSans-31" transform="translate(1818.608398 0.015625)"/>
      <use xlink:href="#DejaVuSans-2e" transform="translate(1882.231445 0.015625)"/>
      <use xlink:href="#DejaVuSans-34" transform="translate(1914.018555 0.015625)"/>
      <use xlink:href="#DejaVuSans-35" transform="translate(1977.641602 0.015625)"/>
      <use xlink:href="#DejaVuSans-Oblique-45" transform="translate(2041.264648 0.015625)"/>
      <use xlink:href="#DejaVuSans-2b" transform="translate(2123.930664 0.015625)"/>
      <use xlink:href="#DejaVuSans-30" transform="translate(2227.202148 0.015625)"/>
      <use xlink:href="#DejaVuSans-30" transform="translate(2290.825195 0.015625)"/>
     </g>
    </g>
    <g id="line2d_33">
     <path d="M 151.2 336.58125 
L 159.2 336.58125 
L 167.2 336.58125 
" style="fill: none; stroke: #5254a3; stroke-width: 1.5; stroke-linecap: square"/>
    </g>
    <g id="text_18">
     <!-- TGM PCG: $(c,h)=(0.1, 0.1), \kappa_2=1.41E+00$ -->
     <g transform="translate(173.6 339.38125) scale(0.08 -0.08)">
      <use xlink:href="#DejaVuSans-54" transform="translate(0 0.015625)"/>
      <use xlink:href="#DejaVuSans-47" transform="translate(61.083984 0.015625)"/>
      <use xlink:href="#DejaVuSans-4d" transform="translate(138.574219 0.015625)"/>
      <use xlink:href="#DejaVuSans-20" transform="translate(224.853516 0.015625)"/>
      <use xlink:href="#DejaVuSans-50" transform="translate(256.640625 0.015625)"/>
      <use xlink:href="#DejaVuSans-43" transform="translate(316.943359 0.015625)"/>
      <use xlink:href="#DejaVuSans-47" transform="translate(386.767578 0.015625)"/>
      <use xlink:href="#DejaVuSans-3a" transform="translate(464.257812 0.015625)"/>
      <use xlink:href="#DejaVuSans-20" transform="translate(497.949219 0.015625)"/>
      <use xlink:href="#DejaVuSans-28" transform="translate(529.736328 0.015625)"/>
      <use xlink:href="#DejaVuSans-Oblique-63" transform="translate(568.75 0.015625)"/>
      <use xlink:href="#DejaVuSans-2c" transform="translate(623.730469 0.015625)"/>
      <use xlink:href="#DejaVuSans-Oblique-68" transform="translate(675 0.015625)"/>
      <use xlink:href="#DejaVuSans-29" transform="translate(738.378906 0.015625)"/>
      <use xlink:href="#DejaVuSans-3d" transform="translate(796.875 0.015625)"/>
      <use xlink:href="#DejaVuSans-28" transform="translate(900.146484 0.015625)"/>
      <use xlink:href="#DejaVuSans-30" transform="translate(939.160156 0.015625)"/>
      <use xlink:href="#DejaVuSans-2e" transform="translate(1002.783203 0.015625)"/>
      <use xlink:href="#DejaVuSans-31" transform="translate(1034.570312 0.015625)"/>
      <use xlink:href="#DejaVuSans-2c" transform="translate(1098.193359 0.015625)"/>
      <use xlink:href="#DejaVuSans-30" transform="translate(1149.462891 0.015625)"/>
      <use xlink:href="#DejaVuSans-2e" transform="translate(1213.085938 0.015625)"/>
      <use xlink:href="#DejaVuSans-31" transform="translate(1244.873047 0.015625)"/>
      <use xlink:href="#DejaVuSans-29" transform="translate(1308.496094 0.015625)"/>
      <use xlink:href="#DejaVuSans-2c" transform="translate(1347.509766 0.015625)"/>
      <use xlink:href="#DejaVuSans-Oblique-3ba" transform="translate(1398.779297 0.015625)"/>
      <use xlink:href="#DejaVuSans-32" transform="translate(1457.714844 -16.390625) scale(0.7)"/>
      <use xlink:href="#DejaVuSans-3d" transform="translate(1524.467773 0.015625)"/>
      <use xlink:href="#DejaVuSans-31" transform="translate(1627.739258 0.015625)"/>
      <use xlink:href="#DejaVuSans-2e" transform="translate(1691.362305 0.015625)"/>
      <use xlink:href="#DejaVuSans-34" transform="translate(1723.149414 0.015625)"/>
      <use xlink:href="#DejaVuSans-31" transform="translate(1786.772461 0.015625)"/>
      <use xlink:href="#DejaVuSans-Oblique-45" transform="translate(1850.395508 0.015625)"/>
      <use xlink:href="#DejaVuSans-2b" transform="translate(1933.061523 0.015625)"/>
      <use xlink:href="#DejaVuSans-30" transform="translate(2036.333008 0.015625)"/>
      <use xlink:href="#DejaVuSans-30" transform="translate(2099.956055 0.015625)"/>
     </g>
    </g>
    <g id="line2d_34">
     <path d="M 151.2 348.32375 
L 159.2 348.32375 
L 167.2 348.32375 
" style="fill: none; stroke: #8c6d31; stroke-width: 1.5; stroke-linecap: square"/>
    </g>
    <g id="text_19">
     <!-- TGM PCG: $(c,h)=(0.1, 0.01), \kappa_2=1.45E+00$ -->
     <g transform="translate(173.6 351.12375) scale(0.08 -0.08)">
      <use xlink:href="#DejaVuSans-54" transform="translate(0 0.015625)"/>
      <use xlink:href="#DejaVuSans-47" transform="translate(61.083984 0.015625)"/>
      <use xlink:href="#DejaVuSans-4d" transform="translate(138.574219 0.015625)"/>
      <use xlink:href="#DejaVuSans-20" transform="translate(224.853516 0.015625)"/>
      <use xlink:href="#DejaVuSans-50" transform="translate(256.640625 0.015625)"/>
      <use xlink:href="#DejaVuSans-43" transform="translate(316.943359 0.015625)"/>
      <use xlink:href="#DejaVuSans-47" transform="translate(386.767578 0.015625)"/>
      <use xlink:href="#DejaVuSans-3a" transform="translate(464.257812 0.015625)"/>
      <use xlink:href="#DejaVuSans-20" transform="translate(497.949219 0.015625)"/>
      <use xlink:href="#DejaVuSans-28" transform="translate(529.736328 0.015625)"/>
      <use xlink:href="#DejaVuSans-Oblique-63" transform="translate(568.75 0.015625)"/>
      <use xlink:href="#DejaVuSans-2c" transform="translate(623.730469 0.015625)"/>
      <use xlink:href="#DejaVuSans-Oblique-68" transform="translate(675 0.015625)"/>
      <use xlink:href="#DejaVuSans-29" transform="translate(738.378906 0.015625)"/>
      <use xlink:href="#DejaVuSans-3d" transform="translate(796.875 0.015625)"/>
      <use xlink:href="#DejaVuSans-28" transform="translate(900.146484 0.015625)"/>
      <use xlink:href="#DejaVuSans-30" transform="translate(939.160156 0.015625)"/>
      <use xlink:href="#DejaVuSans-2e" transform="translate(1002.783203 0.015625)"/>
      <use xlink:href="#DejaVuSans-31" transform="translate(1034.570312 0.015625)"/>
      <use xlink:href="#DejaVuSans-2c" transform="translate(1098.193359 0.015625)"/>
      <use xlink:href="#DejaVuSans-30" transform="translate(1149.462891 0.015625)"/>
      <use xlink:href="#DejaVuSans-2e" transform="translate(1213.085938 0.015625)"/>
      <use xlink:href="#DejaVuSans-30" transform="translate(1244.873047 0.015625)"/>
      <use xlink:href="#DejaVuSans-31" transform="translate(1308.496094 0.015625)"/>
      <use xlink:href="#DejaVuSans-29" transform="translate(1372.119141 0.015625)"/>
      <use xlink:href="#DejaVuSans-2c" transform="translate(1411.132812 0.015625)"/>
      <use xlink:href="#DejaVuSans-Oblique-3ba" transform="translate(1462.402344 0.015625)"/>
      <use xlink:href="#DejaVuSans-32" transform="translate(1521.337891 -16.390625) scale(0.7)"/>
      <use xlink:href="#DejaVuSans-3d" transform="translate(1588.09082 0.015625)"/>
      <use xlink:href="#DejaVuSans-31" transform="translate(1691.362305 0.015625)"/>
      <use xlink:href="#DejaVuSans-2e" transform="translate(1754.985352 0.015625)"/>
      <use xlink:href="#DejaVuSans-34" transform="translate(1786.772461 0.015625)"/>
      <use xlink:href="#DejaVuSans-35" transform="translate(1850.395508 0.015625)"/>
      <use xlink:href="#DejaVuSans-Oblique-45" transform="translate(1914.018555 0.015625)"/>
      <use xlink:href="#DejaVuSans-2b" transform="translate(1996.68457 0.015625)"/>
      <use xlink:href="#DejaVuSans-30" transform="translate(2099.956055 0.015625)"/>
      <use xlink:href="#DejaVuSans-30" transform="translate(2163.579102 0.015625)"/>
     </g>
    </g>
    <g id="line2d_35">
     <path d="M 151.2 360.06625 
L 159.2 360.06625 
L 167.2 360.06625 
" style="fill: none; stroke: #e7969c; stroke-width: 1.5; stroke-linecap: square"/>
    </g>
    <g id="text_20">
     <!-- TGM PCG: $(c,h)=(0.1, 0.001), \kappa_2=1.45E+00$ -->
     <g transform="translate(173.6 362.86625) scale(0.08 -0.08)">
      <use xlink:href="#DejaVuSans-54" transform="translate(0 0.015625)"/>
      <use xlink:href="#DejaVuSans-47" transform="translate(61.083984 0.015625)"/>
      <use xlink:href="#DejaVuSans-4d" transform="translate(138.574219 0.015625)"/>
      <use xlink:href="#DejaVuSans-20" transform="translate(224.853516 0.015625)"/>
      <use xlink:href="#DejaVuSans-50" transform="translate(256.640625 0.015625)"/>
      <use xlink:href="#DejaVuSans-43" transform="translate(316.943359 0.015625)"/>
      <use xlink:href="#DejaVuSans-47" transform="translate(386.767578 0.015625)"/>
      <use xlink:href="#DejaVuSans-3a" transform="translate(464.257812 0.015625)"/>
      <use xlink:href="#DejaVuSans-20" transform="translate(497.949219 0.015625)"/>
      <use xlink:href="#DejaVuSans-28" transform="translate(529.736328 0.015625)"/>
      <use xlink:href="#DejaVuSans-Oblique-63" transform="translate(568.75 0.015625)"/>
      <use xlink:href="#DejaVuSans-2c" transform="translate(623.730469 0.015625)"/>
      <use xlink:href="#DejaVuSans-Oblique-68" transform="translate(675 0.015625)"/>
      <use xlink:href="#DejaVuSans-29" transform="translate(738.378906 0.015625)"/>
      <use xlink:href="#DejaVuSans-3d" transform="translate(796.875 0.015625)"/>
      <use xlink:href="#DejaVuSans-28" transform="translate(900.146484 0.015625)"/>
      <use xlink:href="#DejaVuSans-30" transform="translate(939.160156 0.015625)"/>
      <use xlink:href="#DejaVuSans-2e" transform="translate(1002.783203 0.015625)"/>
      <use xlink:href="#DejaVuSans-31" transform="translate(1034.570312 0.015625)"/>
      <use xlink:href="#DejaVuSans-2c" transform="translate(1098.193359 0.015625)"/>
      <use xlink:href="#DejaVuSans-30" transform="translate(1149.462891 0.015625)"/>
      <use xlink:href="#DejaVuSans-2e" transform="translate(1213.085938 0.015625)"/>
      <use xlink:href="#DejaVuSans-30" transform="translate(1244.873047 0.015625)"/>
      <use xlink:href="#DejaVuSans-30" transform="translate(1308.496094 0.015625)"/>
      <use xlink:href="#DejaVuSans-31" transform="translate(1372.119141 0.015625)"/>
      <use xlink:href="#DejaVuSans-29" transform="translate(1435.742188 0.015625)"/>
      <use xlink:href="#DejaVuSans-2c" transform="translate(1474.755859 0.015625)"/>
      <use xlink:href="#DejaVuSans-Oblique-3ba" transform="translate(1526.025391 0.015625)"/>
      <use xlink:href="#DejaVuSans-32" transform="translate(1584.960938 -16.390625) scale(0.7)"/>
      <use xlink:href="#DejaVuSans-3d" transform="translate(1651.713867 0.015625)"/>
      <use xlink:href="#DejaVuSans-31" transform="translate(1754.985352 0.015625)"/>
      <use xlink:href="#DejaVuSans-2e" transform="translate(1818.608398 0.015625)"/>
      <use xlink:href="#DejaVuSans-34" transform="translate(1850.395508 0.015625)"/>
      <use xlink:href="#DejaVuSans-35" transform="translate(1914.018555 0.015625)"/>
      <use xlink:href="#DejaVuSans-Oblique-45" transform="translate(1977.641602 0.015625)"/>
      <use xlink:href="#DejaVuSans-2b" transform="translate(2060.307617 0.015625)"/>
      <use xlink:href="#DejaVuSans-30" transform="translate(2163.579102 0.015625)"/>
      <use xlink:href="#DejaVuSans-30" transform="translate(2227.202148 0.015625)"/>
     </g>
    </g>
    <g id="line2d_36">
     <path d="M 151.2 371.80875 
L 159.2 371.80875 
L 167.2 371.80875 
" style="fill: none; stroke: #6b6ecf; stroke-width: 1.5; stroke-linecap: square"/>
    </g>
    <g id="text_21">
     <!-- TGM PCG: $(c,h)=(1, 0.1), \kappa_2=1.39E+00$ -->
     <g transform="translate(173.6 374.60875) scale(0.08 -0.08)">
      <defs>
       <path id="DejaVuSans-33" d="M 2597 2516 
Q 3050 2419 3304 2112 
Q 3559 1806 3559 1356 
Q 3559 666 3084 287 
Q 2609 -91 1734 -91 
Q 1441 -91 1130 -33 
Q 819 25 488 141 
L 488 750 
Q 750 597 1062 519 
Q 1375 441 1716 441 
Q 2309 441 2620 675 
Q 2931 909 2931 1356 
Q 2931 1769 2642 2001 
Q 2353 2234 1838 2234 
L 1294 2234 
L 1294 2753 
L 1863 2753 
Q 2328 2753 2575 2939 
Q 2822 3125 2822 3475 
Q 2822 3834 2567 4026 
Q 2313 4219 1838 4219 
Q 1578 4219 1281 4162 
Q 984 4106 628 3988 
L 628 4550 
Q 988 4650 1302 4700 
Q 1616 4750 1894 4750 
Q 2613 4750 3031 4423 
Q 3450 4097 3450 3541 
Q 3450 3153 3228 2886 
Q 3006 2619 2597 2516 
z
" transform="scale(0.015625)"/>
       <path id="DejaVuSans-39" d="M 703 97 
L 703 672 
Q 941 559 1184 500 
Q 1428 441 1663 441 
Q 2288 441 2617 861 
Q 2947 1281 2994 2138 
Q 2813 1869 2534 1725 
Q 2256 1581 1919 1581 
Q 1219 1581 811 2004 
Q 403 2428 403 3163 
Q 403 3881 828 4315 
Q 1253 4750 1959 4750 
Q 2769 4750 3195 4129 
Q 3622 3509 3622 2328 
Q 3622 1225 3098 567 
Q 2575 -91 1691 -91 
Q 1453 -91 1209 -44 
Q 966 3 703 97 
z
M 1959 2075 
Q 2384 2075 2632 2365 
Q 2881 2656 2881 3163 
Q 2881 3666 2632 3958 
Q 2384 4250 1959 4250 
Q 1534 4250 1286 3958 
Q 1038 3666 1038 3163 
Q 1038 2656 1286 2365 
Q 1534 2075 1959 2075 
z
" transform="scale(0.015625)"/>
      </defs>
      <use xlink:href="#DejaVuSans-54" transform="translate(0 0.015625)"/>
      <use xlink:href="#DejaVuSans-47" transform="translate(61.083984 0.015625)"/>
      <use xlink:href="#DejaVuSans-4d" transform="translate(138.574219 0.015625)"/>
      <use xlink:href="#DejaVuSans-20" transform="translate(224.853516 0.015625)"/>
      <use xlink:href="#DejaVuSans-50" transform="translate(256.640625 0.015625)"/>
      <use xlink:href="#DejaVuSans-43" transform="translate(316.943359 0.015625)"/>
      <use xlink:href="#DejaVuSans-47" transform="translate(386.767578 0.015625)"/>
      <use xlink:href="#DejaVuSans-3a" transform="translate(464.257812 0.015625)"/>
      <use xlink:href="#DejaVuSans-20" transform="translate(497.949219 0.015625)"/>
      <use xlink:href="#DejaVuSans-28" transform="translate(529.736328 0.015625)"/>
      <use xlink:href="#DejaVuSans-Oblique-63" transform="translate(568.75 0.015625)"/>
      <use xlink:href="#DejaVuSans-2c" transform="translate(623.730469 0.015625)"/>
      <use xlink:href="#DejaVuSans-Oblique-68" transform="translate(675 0.015625)"/>
      <use xlink:href="#DejaVuSans-29" transform="translate(738.378906 0.015625)"/>
      <use xlink:href="#DejaVuSans-3d" transform="translate(796.875 0.015625)"/>
      <use xlink:href="#DejaVuSans-28" transform="translate(900.146484 0.015625)"/>
      <use xlink:href="#DejaVuSans-31" transform="translate(939.160156 0.015625)"/>
      <use xlink:href="#DejaVuSans-2c" transform="translate(1002.783203 0.015625)"/>
      <use xlink:href="#DejaVuSans-30" transform="translate(1054.052734 0.015625)"/>
      <use xlink:href="#DejaVuSans-2e" transform="translate(1117.675781 0.015625)"/>
      <use xlink:href="#DejaVuSans-31" transform="translate(1149.462891 0.015625)"/>
      <use xlink:href="#DejaVuSans-29" transform="translate(1213.085938 0.015625)"/>
      <use xlink:href="#DejaVuSans-2c" transform="translate(1252.099609 0.015625)"/>
      <use xlink:href="#DejaVuSans-Oblique-3ba" transform="translate(1303.369141 0.015625)"/>
      <use xlink:href="#DejaVuSans-32" transform="translate(1362.304688 -16.390625) scale(0.7)"/>
      <use xlink:href="#DejaVuSans-3d" transform="translate(1429.057617 0.015625)"/>
      <use xlink:href="#DejaVuSans-31" transform="translate(1532.329102 0.015625)"/>
      <use xlink:href="#DejaVuSans-2e" transform="translate(1595.952148 0.015625)"/>
      <use xlink:href="#DejaVuSans-33" transform="translate(1627.739258 0.015625)"/>
      <use xlink:href="#DejaVuSans-39" transform="translate(1691.362305 0.015625)"/>
      <use xlink:href="#DejaVuSans-Oblique-45" transform="translate(1754.985352 0.015625)"/>
      <use xlink:href="#DejaVuSans-2b" transform="translate(1837.651367 0.015625)"/>
      <use xlink:href="#DejaVuSans-30" transform="translate(1940.922852 0.015625)"/>
      <use xlink:href="#DejaVuSans-30" transform="translate(2004.545898 0.015625)"/>
     </g>
    </g>
    <g id="line2d_37">
     <path d="M 151.2 383.55125 
L 159.2 383.55125 
L 167.2 383.55125 
" style="fill: none; stroke: #bd9e39; stroke-width: 1.5; stroke-linecap: square"/>
    </g>
    <g id="text_22">
     <!-- TGM PCG: $(c,h)=(1, 0.01), \kappa_2=1.45E+00$ -->
     <g transform="translate(173.6 386.35125) scale(0.08 -0.08)">
      <use xlink:href="#DejaVuSans-54" transform="translate(0 0.015625)"/>
      <use xlink:href="#DejaVuSans-47" transform="translate(61.083984 0.015625)"/>
      <use xlink:href="#DejaVuSans-4d" transform="translate(138.574219 0.015625)"/>
      <use xlink:href="#DejaVuSans-20" transform="translate(224.853516 0.015625)"/>
      <use xlink:href="#DejaVuSans-50" transform="translate(256.640625 0.015625)"/>
      <use xlink:href="#DejaVuSans-43" transform="translate(316.943359 0.015625)"/>
      <use xlink:href="#DejaVuSans-47" transform="translate(386.767578 0.015625)"/>
      <use xlink:href="#DejaVuSans-3a" transform="translate(464.257812 0.015625)"/>
      <use xlink:href="#DejaVuSans-20" transform="translate(497.949219 0.015625)"/>
      <use xlink:href="#DejaVuSans-28" transform="translate(529.736328 0.015625)"/>
      <use xlink:href="#DejaVuSans-Oblique-63" transform="translate(568.75 0.015625)"/>
      <use xlink:href="#DejaVuSans-2c" transform="translate(623.730469 0.015625)"/>
      <use xlink:href="#DejaVuSans-Oblique-68" transform="translate(675 0.015625)"/>
      <use xlink:href="#DejaVuSans-29" transform="translate(738.378906 0.015625)"/>
      <use xlink:href="#DejaVuSans-3d" transform="translate(796.875 0.015625)"/>
      <use xlink:href="#DejaVuSans-28" transform="translate(900.146484 0.015625)"/>
      <use xlink:href="#DejaVuSans-31" transform="translate(939.160156 0.015625)"/>
      <use xlink:href="#DejaVuSans-2c" transform="translate(1002.783203 0.015625)"/>
      <use xlink:href="#DejaVuSans-30" transform="translate(1054.052734 0.015625)"/>
      <use xlink:href="#DejaVuSans-2e" transform="translate(1117.675781 0.015625)"/>
      <use xlink:href="#DejaVuSans-30" transform="translate(1149.462891 0.015625)"/>
      <use xlink:href="#DejaVuSans-31" transform="translate(1213.085938 0.015625)"/>
      <use xlink:href="#DejaVuSans-29" transform="translate(1276.708984 0.015625)"/>
      <use xlink:href="#DejaVuSans-2c" transform="translate(1315.722656 0.015625)"/>
      <use xlink:href="#DejaVuSans-Oblique-3ba" transform="translate(1366.992188 0.015625)"/>
      <use xlink:href="#DejaVuSans-32" transform="translate(1425.927734 -16.390625) scale(0.7)"/>
      <use xlink:href="#DejaVuSans-3d" transform="translate(1492.680664 0.015625)"/>
      <use xlink:href="#DejaVuSans-31" transform="translate(1595.952148 0.015625)"/>
      <use xlink:href="#DejaVuSans-2e" transform="translate(1659.575195 0.015625)"/>
      <use xlink:href="#DejaVuSans-34" transform="translate(1691.362305 0.015625)"/>
      <use xlink:href="#DejaVuSans-35" transform="translate(1754.985352 0.015625)"/>
      <use xlink:href="#DejaVuSans-Oblique-45" transform="translate(1818.608398 0.015625)"/>
      <use xlink:href="#DejaVuSans-2b" transform="translate(1901.274414 0.015625)"/>
      <use xlink:href="#DejaVuSans-30" transform="translate(2004.545898 0.015625)"/>
      <use xlink:href="#DejaVuSans-30" transform="translate(2068.168945 0.015625)"/>
     </g>
    </g>
    <g id="line2d_38">
     <path d="M 151.2 395.29375 
L 159.2 395.29375 
L 167.2 395.29375 
" style="fill: none; stroke: #7b4173; stroke-width: 1.5; stroke-linecap: square"/>
    </g>
    <g id="text_23">
     <!-- TGM PCG: $(c,h)=(1, 0.001), \kappa_2=1.45E+00$ -->
     <g transform="translate(173.6 398.09375) scale(0.08 -0.08)">
      <use xlink:href="#DejaVuSans-54" transform="translate(0 0.015625)"/>
      <use xlink:href="#DejaVuSans-47" transform="translate(61.083984 0.015625)"/>
      <use xlink:href="#DejaVuSans-4d" transform="translate(138.574219 0.015625)"/>
      <use xlink:href="#DejaVuSans-20" transform="translate(224.853516 0.015625)"/>
      <use xlink:href="#DejaVuSans-50" transform="translate(256.640625 0.015625)"/>
      <use xlink:href="#DejaVuSans-43" transform="translate(316.943359 0.015625)"/>
      <use xlink:href="#DejaVuSans-47" transform="translate(386.767578 0.015625)"/>
      <use xlink:href="#DejaVuSans-3a" transform="translate(464.257812 0.015625)"/>
      <use xlink:href="#DejaVuSans-20" transform="translate(497.949219 0.015625)"/>
      <use xlink:href="#DejaVuSans-28" transform="translate(529.736328 0.015625)"/>
      <use xlink:href="#DejaVuSans-Oblique-63" transform="translate(568.75 0.015625)"/>
      <use xlink:href="#DejaVuSans-2c" transform="translate(623.730469 0.015625)"/>
      <use xlink:href="#DejaVuSans-Oblique-68" transform="translate(675 0.015625)"/>
      <use xlink:href="#DejaVuSans-29" transform="translate(738.378906 0.015625)"/>
      <use xlink:href="#DejaVuSans-3d" transform="translate(796.875 0.015625)"/>
      <use xlink:href="#DejaVuSans-28" transform="translate(900.146484 0.015625)"/>
      <use xlink:href="#DejaVuSans-31" transform="translate(939.160156 0.015625)"/>
      <use xlink:href="#DejaVuSans-2c" transform="translate(1002.783203 0.015625)"/>
      <use xlink:href="#DejaVuSans-30" transform="translate(1054.052734 0.015625)"/>
      <use xlink:href="#DejaVuSans-2e" transform="translate(1117.675781 0.015625)"/>
      <use xlink:href="#DejaVuSans-30" transform="translate(1149.462891 0.015625)"/>
      <use xlink:href="#DejaVuSans-30" transform="translate(1213.085938 0.015625)"/>
      <use xlink:href="#DejaVuSans-31" transform="translate(1276.708984 0.015625)"/>
      <use xlink:href="#DejaVuSans-29" transform="translate(1340.332031 0.015625)"/>
      <use xlink:href="#DejaVuSans-2c" transform="translate(1379.345703 0.015625)"/>
      <use xlink:href="#DejaVuSans-Oblique-3ba" transform="translate(1430.615234 0.015625)"/>
      <use xlink:href="#DejaVuSans-32" transform="translate(1489.550781 -16.390625) scale(0.7)"/>
      <use xlink:href="#DejaVuSans-3d" transform="translate(1556.303711 0.015625)"/>
      <use xlink:href="#DejaVuSans-31" transform="translate(1659.575195 0.015625)"/>
      <use xlink:href="#DejaVuSans-2e" transform="translate(1723.198242 0.015625)"/>
      <use xlink:href="#DejaVuSans-34" transform="translate(1754.985352 0.015625)"/>
      <use xlink:href="#DejaVuSans-35" transform="translate(1818.608398 0.015625)"/>
      <use xlink:href="#DejaVuSans-Oblique-45" transform="translate(1882.231445 0.015625)"/>
      <use xlink:href="#DejaVuSans-2b" transform="translate(1964.897461 0.015625)"/>
      <use xlink:href="#DejaVuSans-30" transform="translate(2068.168945 0.015625)"/>
      <use xlink:href="#DejaVuSans-30" transform="translate(2131.791992 0.015625)"/>
     </g>
    </g>
    <g id="line2d_39">
     <path d="M 151.2 407.03625 
L 159.2 407.03625 
L 167.2 407.03625 
" style="fill: none; stroke: #9c9ede; stroke-width: 1.5; stroke-linecap: square"/>
    </g>
    <g id="text_24">
     <!-- TGM PCG: $(c,h)=(10, 0.1), \kappa_2=1.29E+00$ -->
     <g transform="translate(173.6 409.83625) scale(0.08 -0.08)">
      <use xlink:href="#DejaVuSans-54" transform="translate(0 0.015625)"/>
      <use xlink:href="#DejaVuSans-47" transform="translate(61.083984 0.015625)"/>
      <use xlink:href="#DejaVuSans-4d" transform="translate(138.574219 0.015625)"/>
      <use xlink:href="#DejaVuSans-20" transform="translate(224.853516 0.015625)"/>
      <use xlink:href="#DejaVuSans-50" transform="translate(256.640625 0.015625)"/>
      <use xlink:href="#DejaVuSans-43" transform="translate(316.943359 0.015625)"/>
      <use xlink:href="#DejaVuSans-47" transform="translate(386.767578 0.015625)"/>
      <use xlink:href="#DejaVuSans-3a" transform="translate(464.257812 0.015625)"/>
      <use xlink:href="#DejaVuSans-20" transform="translate(497.949219 0.015625)"/>
      <use xlink:href="#DejaVuSans-28" transform="translate(529.736328 0.015625)"/>
      <use xlink:href="#DejaVuSans-Oblique-63" transform="translate(568.75 0.015625)"/>
      <use xlink:href="#DejaVuSans-2c" transform="translate(623.730469 0.015625)"/>
      <use xlink:href="#DejaVuSans-Oblique-68" transform="translate(675 0.015625)"/>
      <use xlink:href="#DejaVuSans-29" transform="translate(738.378906 0.015625)"/>
      <use xlink:href="#DejaVuSans-3d" transform="translate(796.875 0.015625)"/>
      <use xlink:href="#DejaVuSans-28" transform="translate(900.146484 0.015625)"/>
      <use xlink:href="#DejaVuSans-31" transform="translate(939.160156 0.015625)"/>
      <use xlink:href="#DejaVuSans-30" transform="translate(1002.783203 0.015625)"/>
      <use xlink:href="#DejaVuSans-2c" transform="translate(1066.40625 0.015625)"/>
      <use xlink:href="#DejaVuSans-30" transform="translate(1117.675781 0.015625)"/>
      <use xlink:href="#DejaVuSans-2e" transform="translate(1181.298828 0.015625)"/>
      <use xlink:href="#DejaVuSans-31" transform="translate(1213.085938 0.015625)"/>
      <use xlink:href="#DejaVuSans-29" transform="translate(1276.708984 0.015625)"/>
      <use xlink:href="#DejaVuSans-2c" transform="translate(1315.722656 0.015625)"/>
      <use xlink:href="#DejaVuSans-Oblique-3ba" transform="translate(1366.992188 0.015625)"/>
      <use xlink:href="#DejaVuSans-32" transform="translate(1425.927734 -16.390625) scale(0.7)"/>
      <use xlink:href="#DejaVuSans-3d" transform="translate(1492.680664 0.015625)"/>
      <use xlink:href="#DejaVuSans-31" transform="translate(1595.952148 0.015625)"/>
      <use xlink:href="#DejaVuSans-2e" transform="translate(1659.575195 0.015625)"/>
      <use xlink:href="#DejaVuSans-32" transform="translate(1685.862305 0.015625)"/>
      <use xlink:href="#DejaVuSans-39" transform="translate(1747.735352 0.015625)"/>
      <use xlink:href="#DejaVuSans-Oblique-45" transform="translate(1811.358398 0.015625)"/>
      <use xlink:href="#DejaVuSans-2b" transform="translate(1894.024414 0.015625)"/>
      <use xlink:href="#DejaVuSans-30" transform="translate(1997.295898 0.015625)"/>
      <use xlink:href="#DejaVuSans-30" transform="translate(2060.918945 0.015625)"/>
     </g>
    </g>
    <g id="line2d_40">
     <path d="M 151.2 418.77875 
L 159.2 418.77875 
L 167.2 418.77875 
" style="fill: none; stroke: #e7ba52; stroke-width: 1.5; stroke-linecap: square"/>
    </g>
    <g id="text_25">
     <!-- TGM PCG: $(c,h)=(10, 0.01), \kappa_2=1.43E+00$ -->
     <g transform="translate(173.6 421.57875) scale(0.08 -0.08)">
      <use xlink:href="#DejaVuSans-54" transform="translate(0 0.015625)"/>
      <use xlink:href="#DejaVuSans-47" transform="translate(61.083984 0.015625)"/>
      <use xlink:href="#DejaVuSans-4d" transform="translate(138.574219 0.015625)"/>
      <use xlink:href="#DejaVuSans-20" transform="translate(224.853516 0.015625)"/>
      <use xlink:href="#DejaVuSans-50" transform="translate(256.640625 0.015625)"/>
      <use xlink:href="#DejaVuSans-43" transform="translate(316.943359 0.015625)"/>
      <use xlink:href="#DejaVuSans-47" transform="translate(386.767578 0.015625)"/>
      <use xlink:href="#DejaVuSans-3a" transform="translate(464.257812 0.015625)"/>
      <use xlink:href="#DejaVuSans-20" transform="translate(497.949219 0.015625)"/>
      <use xlink:href="#DejaVuSans-28" transform="translate(529.736328 0.015625)"/>
      <use xlink:href="#DejaVuSans-Oblique-63" transform="translate(568.75 0.015625)"/>
      <use xlink:href="#DejaVuSans-2c" transform="translate(623.730469 0.015625)"/>
      <use xlink:href="#DejaVuSans-Oblique-68" transform="translate(675 0.015625)"/>
      <use xlink:href="#DejaVuSans-29" transform="translate(738.378906 0.015625)"/>
      <use xlink:href="#DejaVuSans-3d" transform="translate(796.875 0.015625)"/>
      <use xlink:href="#DejaVuSans-28" transform="translate(900.146484 0.015625)"/>
      <use xlink:href="#DejaVuSans-31" transform="translate(939.160156 0.015625)"/>
      <use xlink:href="#DejaVuSans-30" transform="translate(1002.783203 0.015625)"/>
      <use xlink:href="#DejaVuSans-2c" transform="translate(1066.40625 0.015625)"/>
      <use xlink:href="#DejaVuSans-30" transform="translate(1117.675781 0.015625)"/>
      <use xlink:href="#DejaVuSans-2e" transform="translate(1181.298828 0.015625)"/>
      <use xlink:href="#DejaVuSans-30" transform="translate(1213.085938 0.015625)"/>
      <use xlink:href="#DejaVuSans-31" transform="translate(1276.708984 0.015625)"/>
      <use xlink:href="#DejaVuSans-29" transform="translate(1340.332031 0.015625)"/>
      <use xlink:href="#DejaVuSans-2c" transform="translate(1379.345703 0.015625)"/>
      <use xlink:href="#DejaVuSans-Oblique-3ba" transform="translate(1430.615234 0.015625)"/>
      <use xlink:href="#DejaVuSans-32" transform="translate(1489.550781 -16.390625) scale(0.7)"/>
      <use xlink:href="#DejaVuSans-3d" transform="translate(1556.303711 0.015625)"/>
      <use xlink:href="#DejaVuSans-31" transform="translate(1659.575195 0.015625)"/>
      <use xlink:href="#DejaVuSans-2e" transform="translate(1723.198242 0.015625)"/>
      <use xlink:href="#DejaVuSans-34" transform="translate(1754.985352 0.015625)"/>
      <use xlink:href="#DejaVuSans-33" transform="translate(1818.608398 0.015625)"/>
      <use xlink:href="#DejaVuSans-Oblique-45" transform="translate(1882.231445 0.015625)"/>
      <use xlink:href="#DejaVuSans-2b" transform="translate(1964.897461 0.015625)"/>
      <use xlink:href="#DejaVuSans-30" transform="translate(2068.168945 0.015625)"/>
      <use xlink:href="#DejaVuSans-30" transform="translate(2131.791992 0.015625)"/>
     </g>
    </g>
    <g id="line2d_41">
     <path d="M 151.2 430.52125 
L 159.2 430.52125 
L 167.2 430.52125 
" style="fill: none; stroke: #a55194; stroke-width: 1.5; stroke-linecap: square"/>
    </g>
    <g id="text_26">
     <!-- TGM PCG: $(c,h)=(10, 0.001), \kappa_2=1.45E+00$ -->
     <g transform="translate(173.6 433.32125) scale(0.08 -0.08)">
      <use xlink:href="#DejaVuSans-54" transform="translate(0 0.015625)"/>
      <use xlink:href="#DejaVuSans-47" transform="translate(61.083984 0.015625)"/>
      <use xlink:href="#DejaVuSans-4d" transform="translate(138.574219 0.015625)"/>
      <use xlink:href="#DejaVuSans-20" transform="translate(224.853516 0.015625)"/>
      <use xlink:href="#DejaVuSans-50" transform="translate(256.640625 0.015625)"/>
      <use xlink:href="#DejaVuSans-43" transform="translate(316.943359 0.015625)"/>
      <use xlink:href="#DejaVuSans-47" transform="translate(386.767578 0.015625)"/>
      <use xlink:href="#DejaVuSans-3a" transform="translate(464.257812 0.015625)"/>
      <use xlink:href="#DejaVuSans-20" transform="translate(497.949219 0.015625)"/>
      <use xlink:href="#DejaVuSans-28" transform="translate(529.736328 0.015625)"/>
      <use xlink:href="#DejaVuSans-Oblique-63" transform="translate(568.75 0.015625)"/>
      <use xlink:href="#DejaVuSans-2c" transform="translate(623.730469 0.015625)"/>
      <use xlink:href="#DejaVuSans-Oblique-68" transform="translate(675 0.015625)"/>
      <use xlink:href="#DejaVuSans-29" transform="translate(738.378906 0.015625)"/>
      <use xlink:href="#DejaVuSans-3d" transform="translate(796.875 0.015625)"/>
      <use xlink:href="#DejaVuSans-28" transform="translate(900.146484 0.015625)"/>
      <use xlink:href="#DejaVuSans-31" transform="translate(939.160156 0.015625)"/>
      <use xlink:href="#DejaVuSans-30" transform="translate(1002.783203 0.015625)"/>
      <use xlink:href="#DejaVuSans-2c" transform="translate(1066.40625 0.015625)"/>
      <use xlink:href="#DejaVuSans-30" transform="translate(1117.675781 0.015625)"/>
      <use xlink:href="#DejaVuSans-2e" transform="translate(1181.298828 0.015625)"/>
      <use xlink:href="#DejaVuSans-30" transform="translate(1213.085938 0.015625)"/>
      <use xlink:href="#DejaVuSans-30" transform="translate(1276.708984 0.015625)"/>
      <use xlink:href="#DejaVuSans-31" transform="translate(1340.332031 0.015625)"/>
      <use xlink:href="#DejaVuSans-29" transform="translate(1403.955078 0.015625)"/>
      <use xlink:href="#DejaVuSans-2c" transform="translate(1442.96875 0.015625)"/>
      <use xlink:href="#DejaVuSans-Oblique-3ba" transform="translate(1494.238281 0.015625)"/>
      <use xlink:href="#DejaVuSans-32" transform="translate(1553.173828 -16.390625) scale(0.7)"/>
      <use xlink:href="#DejaVuSans-3d" transform="translate(1619.926758 0.015625)"/>
      <use xlink:href="#DejaVuSans-31" transform="translate(1723.198242 0.015625)"/>
      <use xlink:href="#DejaVuSans-2e" transform="translate(1786.821289 0.015625)"/>
      <use xlink:href="#DejaVuSans-34" transform="translate(1818.608398 0.015625)"/>
      <use xlink:href="#DejaVuSans-35" transform="translate(1882.231445 0.015625)"/>
      <use xlink:href="#DejaVuSans-Oblique-45" transform="translate(1945.854492 0.015625)"/>
      <use xlink:href="#DejaVuSans-2b" transform="translate(2028.520508 0.015625)"/>
      <use xlink:href="#DejaVuSans-30" transform="translate(2131.791992 0.015625)"/>
      <use xlink:href="#DejaVuSans-30" transform="translate(2195.415039 0.015625)"/>
     </g>
    </g>
    <g id="line2d_42">
     <path d="M 151.2 442.26375 
L 159.2 442.26375 
L 167.2 442.26375 
" style="fill: none; stroke: #637939; stroke-width: 1.5; stroke-linecap: square"/>
    </g>
    <g id="text_27">
     <!-- TGM PCG: $(c,h)=(100, 0.1), \kappa_2=1.12E+00$ -->
     <g transform="translate(173.6 445.06375) scale(0.08 -0.08)">
      <use xlink:href="#DejaVuSans-54" transform="translate(0 0.015625)"/>
      <use xlink:href="#DejaVuSans-47" transform="translate(61.083984 0.015625)"/>
      <use xlink:href="#DejaVuSans-4d" transform="translate(138.574219 0.015625)"/>
      <use xlink:href="#DejaVuSans-20" transform="translate(224.853516 0.015625)"/>
      <use xlink:href="#DejaVuSans-50" transform="translate(256.640625 0.015625)"/>
      <use xlink:href="#DejaVuSans-43" transform="translate(316.943359 0.015625)"/>
      <use xlink:href="#DejaVuSans-47" transform="translate(386.767578 0.015625)"/>
      <use xlink:href="#DejaVuSans-3a" transform="translate(464.257812 0.015625)"/>
      <use xlink:href="#DejaVuSans-20" transform="translate(497.949219 0.015625)"/>
      <use xlink:href="#DejaVuSans-28" transform="translate(529.736328 0.015625)"/>
      <use xlink:href="#DejaVuSans-Oblique-63" transform="translate(568.75 0.015625)"/>
      <use xlink:href="#DejaVuSans-2c" transform="translate(623.730469 0.015625)"/>
      <use xlink:href="#DejaVuSans-Oblique-68" transform="translate(675 0.015625)"/>
      <use xlink:href="#DejaVuSans-29" transform="translate(738.378906 0.015625)"/>
      <use xlink:href="#DejaVuSans-3d" transform="translate(796.875 0.015625)"/>
      <use xlink:href="#DejaVuSans-28" transform="translate(900.146484 0.015625)"/>
      <use xlink:href="#DejaVuSans-31" transform="translate(939.160156 0.015625)"/>
      <use xlink:href="#DejaVuSans-30" transform="translate(1002.783203 0.015625)"/>
      <use xlink:href="#DejaVuSans-30" transform="translate(1066.40625 0.015625)"/>
      <use xlink:href="#DejaVuSans-2c" transform="translate(1130.029297 0.015625)"/>
      <use xlink:href="#DejaVuSans-30" transform="translate(1181.298828 0.015625)"/>
      <use xlink:href="#DejaVuSans-2e" transform="translate(1244.921875 0.015625)"/>
      <use xlink:href="#DejaVuSans-31" transform="translate(1276.708984 0.015625)"/>
      <use xlink:href="#DejaVuSans-29" transform="translate(1340.332031 0.015625)"/>
      <use xlink:href="#DejaVuSans-2c" transform="translate(1379.345703 0.015625)"/>
      <use xlink:href="#DejaVuSans-Oblique-3ba" transform="translate(1430.615234 0.015625)"/>
      <use xlink:href="#DejaVuSans-32" transform="translate(1489.550781 -16.390625) scale(0.7)"/>
      <use xlink:href="#DejaVuSans-3d" transform="translate(1556.303711 0.015625)"/>
      <use xlink:href="#DejaVuSans-31" transform="translate(1659.575195 0.015625)"/>
      <use xlink:href="#DejaVuSans-2e" transform="translate(1723.198242 0.015625)"/>
      <use xlink:href="#DejaVuSans-31" transform="translate(1754.985352 0.015625)"/>
      <use xlink:href="#DejaVuSans-32" transform="translate(1818.608398 0.015625)"/>
      <use xlink:href="#DejaVuSans-Oblique-45" transform="translate(1882.231445 0.015625)"/>
      <use xlink:href="#DejaVuSans-2b" transform="translate(1964.897461 0.015625)"/>
      <use xlink:href="#DejaVuSans-30" transform="translate(2068.168945 0.015625)"/>
      <use xlink:href="#DejaVuSans-30" transform="translate(2131.791992 0.015625)"/>
     </g>
    </g>
    <g id="line2d_43">
     <path d="M 151.2 454.00625 
L 159.2 454.00625 
L 167.2 454.00625 
" style="fill: none; stroke: #e7cb94; stroke-width: 1.5; stroke-linecap: square"/>
    </g>
    <g id="text_28">
     <!-- TGM PCG: $(c,h)=(100, 0.01), \kappa_2=1.39E+00$ -->
     <g transform="translate(173.6 456.80625) scale(0.08 -0.08)">
      <use xlink:href="#DejaVuSans-54" transform="translate(0 0.015625)"/>
      <use xlink:href="#DejaVuSans-47" transform="translate(61.083984 0.015625)"/>
      <use xlink:href="#DejaVuSans-4d" transform="translate(138.574219 0.015625)"/>
      <use xlink:href="#DejaVuSans-20" transform="translate(224.853516 0.015625)"/>
      <use xlink:href="#DejaVuSans-50" transform="translate(256.640625 0.015625)"/>
      <use xlink:href="#DejaVuSans-43" transform="translate(316.943359 0.015625)"/>
      <use xlink:href="#DejaVuSans-47" transform="translate(386.767578 0.015625)"/>
      <use xlink:href="#DejaVuSans-3a" transform="translate(464.257812 0.015625)"/>
      <use xlink:href="#DejaVuSans-20" transform="translate(497.949219 0.015625)"/>
      <use xlink:href="#DejaVuSans-28" transform="translate(529.736328 0.015625)"/>
      <use xlink:href="#DejaVuSans-Oblique-63" transform="translate(568.75 0.015625)"/>
      <use xlink:href="#DejaVuSans-2c" transform="translate(623.730469 0.015625)"/>
      <use xlink:href="#DejaVuSans-Oblique-68" transform="translate(675 0.015625)"/>
      <use xlink:href="#DejaVuSans-29" transform="translate(738.378906 0.015625)"/>
      <use xlink:href="#DejaVuSans-3d" transform="translate(796.875 0.015625)"/>
      <use xlink:href="#DejaVuSans-28" transform="translate(900.146484 0.015625)"/>
      <use xlink:href="#DejaVuSans-31" transform="translate(939.160156 0.015625)"/>
      <use xlink:href="#DejaVuSans-30" transform="translate(1002.783203 0.015625)"/>
      <use xlink:href="#DejaVuSans-30" transform="translate(1066.40625 0.015625)"/>
      <use xlink:href="#DejaVuSans-2c" transform="translate(1130.029297 0.015625)"/>
      <use xlink:href="#DejaVuSans-30" transform="translate(1181.298828 0.015625)"/>
      <use xlink:href="#DejaVuSans-2e" transform="translate(1244.921875 0.015625)"/>
      <use xlink:href="#DejaVuSans-30" transform="translate(1276.708984 0.015625)"/>
      <use xlink:href="#DejaVuSans-31" transform="translate(1340.332031 0.015625)"/>
      <use xlink:href="#DejaVuSans-29" transform="translate(1403.955078 0.015625)"/>
      <use xlink:href="#DejaVuSans-2c" transform="translate(1442.96875 0.015625)"/>
      <use xlink:href="#DejaVuSans-Oblique-3ba" transform="translate(1494.238281 0.015625)"/>
      <use xlink:href="#DejaVuSans-32" transform="translate(1553.173828 -16.390625) scale(0.7)"/>
      <use xlink:href="#DejaVuSans-3d" transform="translate(1619.926758 0.015625)"/>
      <use xlink:href="#DejaVuSans-31" transform="translate(1723.198242 0.015625)"/>
      <use xlink:href="#DejaVuSans-2e" transform="translate(1786.821289 0.015625)"/>
      <use xlink:href="#DejaVuSans-33" transform="translate(1818.608398 0.015625)"/>
      <use xlink:href="#DejaVuSans-39" transform="translate(1882.231445 0.015625)"/>
      <use xlink:href="#DejaVuSans-Oblique-45" transform="translate(1945.854492 0.015625)"/>
      <use xlink:href="#DejaVuSans-2b" transform="translate(2028.520508 0.015625)"/>
      <use xlink:href="#DejaVuSans-30" transform="translate(2131.791992 0.015625)"/>
      <use xlink:href="#DejaVuSans-30" transform="translate(2195.415039 0.015625)"/>
     </g>
    </g>
    <g id="line2d_44">
     <path d="M 151.2 465.74875 
L 159.2 465.74875 
L 167.2 465.74875 
" style="fill: none; stroke: #ce6dbd; stroke-width: 1.5; stroke-linecap: square"/>
    </g>
    <g id="text_29">
     <!-- TGM PCG: $(c,h)=(100, 0.001), \kappa_2=1.45E+00$ -->
     <g transform="translate(173.6 468.54875) scale(0.08 -0.08)">
      <use xlink:href="#DejaVuSans-54" transform="translate(0 0.015625)"/>
      <use xlink:href="#DejaVuSans-47" transform="translate(61.083984 0.015625)"/>
      <use xlink:href="#DejaVuSans-4d" transform="translate(138.574219 0.015625)"/>
      <use xlink:href="#DejaVuSans-20" transform="translate(224.853516 0.015625)"/>
      <use xlink:href="#DejaVuSans-50" transform="translate(256.640625 0.015625)"/>
      <use xlink:href="#DejaVuSans-43" transform="translate(316.943359 0.015625)"/>
      <use xlink:href="#DejaVuSans-47" transform="translate(386.767578 0.015625)"/>
      <use xlink:href="#DejaVuSans-3a" transform="translate(464.257812 0.015625)"/>
      <use xlink:href="#DejaVuSans-20" transform="translate(497.949219 0.015625)"/>
      <use xlink:href="#DejaVuSans-28" transform="translate(529.736328 0.015625)"/>
      <use xlink:href="#DejaVuSans-Oblique-63" transform="translate(568.75 0.015625)"/>
      <use xlink:href="#DejaVuSans-2c" transform="translate(623.730469 0.015625)"/>
      <use xlink:href="#DejaVuSans-Oblique-68" transform="translate(675 0.015625)"/>
      <use xlink:href="#DejaVuSans-29" transform="translate(738.378906 0.015625)"/>
      <use xlink:href="#DejaVuSans-3d" transform="translate(796.875 0.015625)"/>
      <use xlink:href="#DejaVuSans-28" transform="translate(900.146484 0.015625)"/>
      <use xlink:href="#DejaVuSans-31" transform="translate(939.160156 0.015625)"/>
      <use xlink:href="#DejaVuSans-30" transform="translate(1002.783203 0.015625)"/>
      <use xlink:href="#DejaVuSans-30" transform="translate(1066.40625 0.015625)"/>
      <use xlink:href="#DejaVuSans-2c" transform="translate(1130.029297 0.015625)"/>
      <use xlink:href="#DejaVuSans-30" transform="translate(1181.298828 0.015625)"/>
      <use xlink:href="#DejaVuSans-2e" transform="translate(1244.921875 0.015625)"/>
      <use xlink:href="#DejaVuSans-30" transform="translate(1276.708984 0.015625)"/>
      <use xlink:href="#DejaVuSans-30" transform="translate(1340.332031 0.015625)"/>
      <use xlink:href="#DejaVuSans-31" transform="translate(1403.955078 0.015625)"/>
      <use xlink:href="#DejaVuSans-29" transform="translate(1467.578125 0.015625)"/>
      <use xlink:href="#DejaVuSans-2c" transform="translate(1506.591797 0.015625)"/>
      <use xlink:href="#DejaVuSans-Oblique-3ba" transform="translate(1557.861328 0.015625)"/>
      <use xlink:href="#DejaVuSans-32" transform="translate(1616.796875 -16.390625) scale(0.7)"/>
      <use xlink:href="#DejaVuSans-3d" transform="translate(1683.549805 0.015625)"/>
      <use xlink:href="#DejaVuSans-31" transform="translate(1786.821289 0.015625)"/>
      <use xlink:href="#DejaVuSans-2e" transform="translate(1850.444336 0.015625)"/>
      <use xlink:href="#DejaVuSans-34" transform="translate(1882.231445 0.015625)"/>
      <use xlink:href="#DejaVuSans-35" transform="translate(1945.854492 0.015625)"/>
      <use xlink:href="#DejaVuSans-Oblique-45" transform="translate(2009.477539 0.015625)"/>
      <use xlink:href="#DejaVuSans-2b" transform="translate(2092.143555 0.015625)"/>
      <use xlink:href="#DejaVuSans-30" transform="translate(2195.415039 0.015625)"/>
      <use xlink:href="#DejaVuSans-30" transform="translate(2259.038086 0.015625)"/>
     </g>
    </g>
    <g id="line2d_45">
     <path d="M 151.2 477.49125 
L 159.2 477.49125 
L 167.2 477.49125 
" style="fill: none; stroke: #8ca252; stroke-width: 1.5; stroke-linecap: square"/>
    </g>
    <g id="text_30">
     <!-- TGM PCG: $(c,h)=(1000, 0.1), \kappa_2=1.01E+00$ -->
     <g transform="translate(173.6 480.29125) scale(0.08 -0.08)">
      <use xlink:href="#DejaVuSans-54" transform="translate(0 0.015625)"/>
      <use xlink:href="#DejaVuSans-47" transform="translate(61.083984 0.015625)"/>
      <use xlink:href="#DejaVuSans-4d" transform="translate(138.574219 0.015625)"/>
      <use xlink:href="#DejaVuSans-20" transform="translate(224.853516 0.015625)"/>
      <use xlink:href="#DejaVuSans-50" transform="translate(256.640625 0.015625)"/>
      <use xlink:href="#DejaVuSans-43" transform="translate(316.943359 0.015625)"/>
      <use xlink:href="#DejaVuSans-47" transform="translate(386.767578 0.015625)"/>
      <use xlink:href="#DejaVuSans-3a" transform="translate(464.257812 0.015625)"/>
      <use xlink:href="#DejaVuSans-20" transform="translate(497.949219 0.015625)"/>
      <use xlink:href="#DejaVuSans-28" transform="translate(529.736328 0.015625)"/>
      <use xlink:href="#DejaVuSans-Oblique-63" transform="translate(568.75 0.015625)"/>
      <use xlink:href="#DejaVuSans-2c" transform="translate(623.730469 0.015625)"/>
      <use xlink:href="#DejaVuSans-Oblique-68" transform="translate(675 0.015625)"/>
      <use xlink:href="#DejaVuSans-29" transform="translate(738.378906 0.015625)"/>
      <use xlink:href="#DejaVuSans-3d" transform="translate(796.875 0.015625)"/>
      <use xlink:href="#DejaVuSans-28" transform="translate(900.146484 0.015625)"/>
      <use xlink:href="#DejaVuSans-31" transform="translate(939.160156 0.015625)"/>
      <use xlink:href="#DejaVuSans-30" transform="translate(1002.783203 0.015625)"/>
      <use xlink:href="#DejaVuSans-30" transform="translate(1066.40625 0.015625)"/>
      <use xlink:href="#DejaVuSans-30" transform="translate(1130.029297 0.015625)"/>
      <use xlink:href="#DejaVuSans-2c" transform="translate(1193.652344 0.015625)"/>
      <use xlink:href="#DejaVuSans-30" transform="translate(1244.921875 0.015625)"/>
      <use xlink:href="#DejaVuSans-2e" transform="translate(1308.544922 0.015625)"/>
      <use xlink:href="#DejaVuSans-31" transform="translate(1340.332031 0.015625)"/>
      <use xlink:href="#DejaVuSans-29" transform="translate(1403.955078 0.015625)"/>
      <use xlink:href="#DejaVuSans-2c" transform="translate(1442.96875 0.015625)"/>
      <use xlink:href="#DejaVuSans-Oblique-3ba" transform="translate(1494.238281 0.015625)"/>
      <use xlink:href="#DejaVuSans-32" transform="translate(1553.173828 -16.390625) scale(0.7)"/>
      <use xlink:href="#DejaVuSans-3d" transform="translate(1619.926758 0.015625)"/>
      <use xlink:href="#DejaVuSans-31" transform="translate(1723.198242 0.015625)"/>
      <use xlink:href="#DejaVuSans-2e" transform="translate(1786.821289 0.015625)"/>
      <use xlink:href="#DejaVuSans-30" transform="translate(1818.608398 0.015625)"/>
      <use xlink:href="#DejaVuSans-31" transform="translate(1882.231445 0.015625)"/>
      <use xlink:href="#DejaVuSans-Oblique-45" transform="translate(1945.854492 0.015625)"/>
      <use xlink:href="#DejaVuSans-2b" transform="translate(2028.520508 0.015625)"/>
      <use xlink:href="#DejaVuSans-30" transform="translate(2131.791992 0.015625)"/>
      <use xlink:href="#DejaVuSans-30" transform="translate(2195.415039 0.015625)"/>
     </g>
    </g>
    <g id="line2d_46">
     <path d="M 151.2 489.23375 
L 159.2 489.23375 
L 167.2 489.23375 
" style="fill: none; stroke: #843c39; stroke-width: 1.5; stroke-linecap: square"/>
    </g>
    <g id="text_31">
     <!-- TGM PCG: $(c,h)=(1000, 0.01), \kappa_2=1.29E+00$ -->
     <g transform="translate(173.6 492.03375) scale(0.08 -0.08)">
      <use xlink:href="#DejaVuSans-54" transform="translate(0 0.015625)"/>
      <use xlink:href="#DejaVuSans-47" transform="translate(61.083984 0.015625)"/>
      <use xlink:href="#DejaVuSans-4d" transform="translate(138.574219 0.015625)"/>
      <use xlink:href="#DejaVuSans-20" transform="translate(224.853516 0.015625)"/>
      <use xlink:href="#DejaVuSans-50" transform="translate(256.640625 0.015625)"/>
      <use xlink:href="#DejaVuSans-43" transform="translate(316.943359 0.015625)"/>
      <use xlink:href="#DejaVuSans-47" transform="translate(386.767578 0.015625)"/>
      <use xlink:href="#DejaVuSans-3a" transform="translate(464.257812 0.015625)"/>
      <use xlink:href="#DejaVuSans-20" transform="translate(497.949219 0.015625)"/>
      <use xlink:href="#DejaVuSans-28" transform="translate(529.736328 0.015625)"/>
      <use xlink:href="#DejaVuSans-Oblique-63" transform="translate(568.75 0.015625)"/>
      <use xlink:href="#DejaVuSans-2c" transform="translate(623.730469 0.015625)"/>
      <use xlink:href="#DejaVuSans-Oblique-68" transform="translate(675 0.015625)"/>
      <use xlink:href="#DejaVuSans-29" transform="translate(738.378906 0.015625)"/>
      <use xlink:href="#DejaVuSans-3d" transform="translate(796.875 0.015625)"/>
      <use xlink:href="#DejaVuSans-28" transform="translate(900.146484 0.015625)"/>
      <use xlink:href="#DejaVuSans-31" transform="translate(939.160156 0.015625)"/>
      <use xlink:href="#DejaVuSans-30" transform="translate(1002.783203 0.015625)"/>
      <use xlink:href="#DejaVuSans-30" transform="translate(1066.40625 0.015625)"/>
      <use xlink:href="#DejaVuSans-30" transform="translate(1130.029297 0.015625)"/>
      <use xlink:href="#DejaVuSans-2c" transform="translate(1193.652344 0.015625)"/>
      <use xlink:href="#DejaVuSans-30" transform="translate(1244.921875 0.015625)"/>
      <use xlink:href="#DejaVuSans-2e" transform="translate(1308.544922 0.015625)"/>
      <use xlink:href="#DejaVuSans-30" transform="translate(1340.332031 0.015625)"/>
      <use xlink:href="#DejaVuSans-31" transform="translate(1403.955078 0.015625)"/>
      <use xlink:href="#DejaVuSans-29" transform="translate(1467.578125 0.015625)"/>
      <use xlink:href="#DejaVuSans-2c" transform="translate(1506.591797 0.015625)"/>
      <use xlink:href="#DejaVuSans-Oblique-3ba" transform="translate(1557.861328 0.015625)"/>
      <use xlink:href="#DejaVuSans-32" transform="translate(1616.796875 -16.390625) scale(0.7)"/>
      <use xlink:href="#DejaVuSans-3d" transform="translate(1683.549805 0.015625)"/>
      <use xlink:href="#DejaVuSans-31" transform="translate(1786.821289 0.015625)"/>
      <use xlink:href="#DejaVuSans-2e" transform="translate(1850.444336 0.015625)"/>
      <use xlink:href="#DejaVuSans-32" transform="translate(1876.731445 0.015625)"/>
      <use xlink:href="#DejaVuSans-39" transform="translate(1938.604492 0.015625)"/>
      <use xlink:href="#DejaVuSans-Oblique-45" transform="translate(2002.227539 0.015625)"/>
      <use xlink:href="#DejaVuSans-2b" transform="translate(2084.893555 0.015625)"/>
      <use xlink:href="#DejaVuSans-30" transform="translate(2188.165039 0.015625)"/>
      <use xlink:href="#DejaVuSans-30" transform="translate(2251.788086 0.015625)"/>
     </g>
    </g>
    <g id="line2d_47">
     <path d="M 151.2 500.97625 
L 159.2 500.97625 
L 167.2 500.97625 
" style="fill: none; stroke: #de9ed6; stroke-width: 1.5; stroke-linecap: square"/>
    </g>
    <g id="text_32">
     <!-- TGM PCG: $(c,h)=(1000, 0.001), \kappa_2=1.43E+00$ -->
     <g transform="translate(173.6 503.77625) scale(0.08 -0.08)">
      <use xlink:href="#DejaVuSans-54" transform="translate(0 0.015625)"/>
      <use xlink:href="#DejaVuSans-47" transform="translate(61.083984 0.015625)"/>
      <use xlink:href="#DejaVuSans-4d" transform="translate(138.574219 0.015625)"/>
      <use xlink:href="#DejaVuSans-20" transform="translate(224.853516 0.015625)"/>
      <use xlink:href="#DejaVuSans-50" transform="translate(256.640625 0.015625)"/>
      <use xlink:href="#DejaVuSans-43" transform="translate(316.943359 0.015625)"/>
      <use xlink:href="#DejaVuSans-47" transform="translate(386.767578 0.015625)"/>
      <use xlink:href="#DejaVuSans-3a" transform="translate(464.257812 0.015625)"/>
      <use xlink:href="#DejaVuSans-20" transform="translate(497.949219 0.015625)"/>
      <use xlink:href="#DejaVuSans-28" transform="translate(529.736328 0.015625)"/>
      <use xlink:href="#DejaVuSans-Oblique-63" transform="translate(568.75 0.015625)"/>
      <use xlink:href="#DejaVuSans-2c" transform="translate(623.730469 0.015625)"/>
      <use xlink:href="#DejaVuSans-Oblique-68" transform="translate(675 0.015625)"/>
      <use xlink:href="#DejaVuSans-29" transform="translate(738.378906 0.015625)"/>
      <use xlink:href="#DejaVuSans-3d" transform="translate(796.875 0.015625)"/>
      <use xlink:href="#DejaVuSans-28" transform="translate(900.146484 0.015625)"/>
      <use xlink:href="#DejaVuSans-31" transform="translate(939.160156 0.015625)"/>
      <use xlink:href="#DejaVuSans-30" transform="translate(1002.783203 0.015625)"/>
      <use xlink:href="#DejaVuSans-30" transform="translate(1066.40625 0.015625)"/>
      <use xlink:href="#DejaVuSans-30" transform="translate(1130.029297 0.015625)"/>
      <use xlink:href="#DejaVuSans-2c" transform="translate(1193.652344 0.015625)"/>
      <use xlink:href="#DejaVuSans-30" transform="translate(1244.921875 0.015625)"/>
      <use xlink:href="#DejaVuSans-2e" transform="translate(1308.544922 0.015625)"/>
      <use xlink:href="#DejaVuSans-30" transform="translate(1340.332031 0.015625)"/>
      <use xlink:href="#DejaVuSans-30" transform="translate(1403.955078 0.015625)"/>
      <use xlink:href="#DejaVuSans-31" transform="translate(1467.578125 0.015625)"/>
      <use xlink:href="#DejaVuSans-29" transform="translate(1531.201172 0.015625)"/>
      <use xlink:href="#DejaVuSans-2c" transform="translate(1570.214844 0.015625)"/>
      <use xlink:href="#DejaVuSans-Oblique-3ba" transform="translate(1621.484375 0.015625)"/>
      <use xlink:href="#DejaVuSans-32" transform="translate(1680.419922 -16.390625) scale(0.7)"/>
      <use xlink:href="#DejaVuSans-3d" transform="translate(1747.172852 0.015625)"/>
      <use xlink:href="#DejaVuSans-31" transform="translate(1850.444336 0.015625)"/>
      <use xlink:href="#DejaVuSans-2e" transform="translate(1914.067383 0.015625)"/>
      <use xlink:href="#DejaVuSans-34" transform="translate(1945.854492 0.015625)"/>
      <use xlink:href="#DejaVuSans-33" transform="translate(2009.477539 0.015625)"/>
      <use xlink:href="#DejaVuSans-Oblique-45" transform="translate(2073.100586 0.015625)"/>
      <use xlink:href="#DejaVuSans-2b" transform="translate(2155.766602 0.015625)"/>
      <use xlink:href="#DejaVuSans-30" transform="translate(2259.038086 0.015625)"/>
      <use xlink:href="#DejaVuSans-30" transform="translate(2322.661133 0.015625)"/>
     </g>
    </g>
   </g>
  </g>
 </g>
 <defs>
  <clipPath id="p37ca92fe70">
   <rect x="144" y="69.12" width="892.8" height="443.52"/>
  </clipPath>
 </defs>
</svg>
