<?xml version="1.0" encoding="utf-8" standalone="no"?>
<!DOCTYPE svg PUBLIC "-//W3C//DTD SVG 1.1//EN"
  "http://www.w3.org/Graphics/SVG/1.1/DTD/svg11.dtd">
<svg xmlns:xlink="http://www.w3.org/1999/xlink" width="1080pt" height="576pt" viewBox="0 0 1080 576" xmlns="http://www.w3.org/2000/svg" version="1.1">
 <metadata>
  <rdf:RDF xmlns:dc="http://purl.org/dc/elements/1.1/" xmlns:cc="http://creativecommons.org/ns#" xmlns:rdf="http://www.w3.org/1999/02/22-rdf-syntax-ns#">
   <cc:Work>
    <dc:type rdf:resource="http://purl.org/dc/dcmitype/StillImage"/>
    <dc:date>2024-01-03T15:52:05.775428</dc:date>
    <dc:format>image/svg+xml</dc:format>
    <dc:creator>
     <cc:Agent>
      <dc:title>Matplotlib v3.8.2, https://matplotlib.org/</dc:title>
     </cc:Agent>
    </dc:creator>
   </cc:Work>
  </rdf:RDF>
 </metadata>
 <defs>
  <style type="text/css">*{stroke-linejoin: round; stroke-linecap: butt}</style>
 </defs>
 <g id="figure_1">
  <g id="patch_1">
   <path d="M 0 576 
L 1080 576 
L 1080 0 
L 0 0 
z
" style="fill: #ffffff"/>
  </g>
  <g id="axes_1">
   <g id="patch_2">
    <path d="M 135 512.64 
L 972 512.64 
L 972 69.12 
L 135 69.12 
z
" style="fill: #ffffff"/>
   </g>
   <g id="PolyCollection_1">
    <path d="M 249.14662 111.18077 
L 205.645587 111.18077 
L 205.113368 110.76075 
L 204.591508 110.350092 
L 204.0807 109.948388 
L 203.581557 109.555256 
L 203.094606 109.170339 
L 202.620287 108.793299 
L 202.158948 108.42382 
L 201.710843 108.061606 
L 201.276129 107.706376 
L 200.854867 107.357866 
L 200.447018 107.015826 
L 200.052447 106.680021 
L 199.67092 106.350227 
L 199.302108 106.026233 
L 198.945588 105.707838 
L 198.600844 105.394852 
L 198.267277 105.087095 
L 197.944198 104.784395 
L 197.630845 104.486587 
L 197.326377 104.193517 
L 197.029888 103.905036 
L 196.740409 103.621002 
L 196.456917 103.341281 
L 196.178337 103.065743 
L 195.903558 102.794266 
L 195.631432 102.526731 
L 195.36079 102.263025 
L 195.090442 102.003041 
L 194.819195 101.746674 
L 194.545852 101.493826 
L 194.269228 101.244401 
L 193.988156 100.998308 
L 193.701494 100.755459 
L 193.408137 100.515769 
L 193.107024 100.279157 
L 192.797144 100.045546 
L 192.477551 99.81486 
L 192.147362 99.587027 
L 191.805774 99.361977 
L 191.452064 99.139642 
L 191.085602 98.919959 
L 190.705852 98.702865 
L 190.312381 98.488299 
L 189.904864 98.276203 
L 189.48309 98.066521 
L 189.046964 97.859198 
L 188.596514 97.654183 
L 188.131891 97.451424 
L 187.653378 97.250872 
L 187.161383 97.05248 
L 186.656452 96.856201 
L 186.139261 96.661991 
L 185.610622 96.469808 
L 185.071479 96.279608 
L 184.522913 96.091352 
L 183.966135 95.905 
L 183.402489 95.720514 
L 182.833446 95.537857 
L 182.260601 95.356994 
L 181.685675 95.177888 
L 181.1105 95.000507 
L 180.537024 94.824818 
L 179.967299 94.650788 
L 179.403475 94.478387 
L 178.847795 94.307584 
L 178.302582 94.13835 
L 177.770236 93.970656 
L 177.253216 93.804475 
L 176.754038 93.639779 
L 176.275254 93.476543 
L 175.819448 93.314741 
L 175.389217 93.154347 
L 174.987157 92.995337 
L 174.615854 92.837688 
L 174.27786 92.681376 
L 173.975686 92.52638 
L 173.711777 92.372677 
L 173.488504 92.220245 
L 173.308139 92.069064 
L 173.172845 91.919114 
L 173.084655 91.770374 
L 173.045455 91.622826 
L 173.056971 91.476449 
L 173.120752 91.331227 
L 173.238154 91.18714 
L 173.410327 91.044172 
L 173.638203 90.902304 
L 173.922482 90.76152 
L 174.263626 90.621805 
L 174.661845 90.48314 
L 175.117096 90.345512 
L 175.629075 90.208904 
L 176.197212 90.073301 
L 176.820676 89.938689 
L 177.498372 89.805054 
L 178.228944 89.672381 
L 179.010782 89.540657 
L 179.842032 89.409867 
L 180.720602 89.28 
L 274.071606 89.28 
L 274.071606 89.28 
L 274.950175 89.409867 
L 275.781425 89.540657 
L 276.563264 89.672381 
L 277.293836 89.805054 
L 277.971531 89.938689 
L 278.594996 90.073301 
L 279.163133 90.208904 
L 279.675111 90.345512 
L 280.130362 90.48314 
L 280.528582 90.621805 
L 280.869725 90.76152 
L 281.154005 90.902304 
L 281.381881 91.044172 
L 281.554054 91.18714 
L 281.671456 91.331227 
L 281.735237 91.476449 
L 281.746753 91.622826 
L 281.707553 91.770374 
L 281.619363 91.919114 
L 281.484069 92.069064 
L 281.303704 92.220245 
L 281.080431 92.372677 
L 280.816522 92.52638 
L 280.514347 92.681376 
L 280.176354 92.837688 
L 279.80505 92.995337 
L 279.402991 93.154347 
L 278.972759 93.314741 
L 278.516953 93.476543 
L 278.03817 93.639779 
L 277.538991 93.804475 
L 277.021972 93.970656 
L 276.489625 94.13835 
L 275.944413 94.307584 
L 275.388733 94.478387 
L 274.824909 94.650788 
L 274.255184 94.824818 
L 273.681708 95.000507 
L 273.106533 95.177888 
L 272.531606 95.356994 
L 271.958762 95.537857 
L 271.389719 95.720514 
L 270.826072 95.905 
L 270.269295 96.091352 
L 269.720729 96.279608 
L 269.181586 96.469808 
L 268.652946 96.661991 
L 268.135755 96.856201 
L 267.630824 97.05248 
L 267.13883 97.250872 
L 266.660316 97.451424 
L 266.195694 97.654183 
L 265.745244 97.859198 
L 265.309118 98.066521 
L 264.887344 98.276203 
L 264.479827 98.488299 
L 264.086356 98.702865 
L 263.706606 98.919959 
L 263.340143 99.139642 
L 262.986434 99.361977 
L 262.644846 99.587027 
L 262.314657 99.81486 
L 261.995063 100.045546 
L 261.685184 100.279157 
L 261.384071 100.515769 
L 261.090714 100.755459 
L 260.804052 100.998308 
L 260.522979 101.244401 
L 260.246356 101.493826 
L 259.973013 101.746674 
L 259.701765 102.003041 
L 259.431418 102.263025 
L 259.160776 102.526731 
L 258.88865 102.794266 
L 258.613871 103.065743 
L 258.335291 103.341281 
L 258.051798 103.621002 
L 257.76232 103.905036 
L 257.465831 104.193517 
L 257.161363 104.486587 
L 256.84801 104.784395 
L 256.524931 105.087095 
L 256.191363 105.394852 
L 255.84662 105.707838 
L 255.4901 106.026233 
L 255.121288 106.350227 
L 254.739761 106.680021 
L 254.34519 107.015826 
L 253.937341 107.357866 
L 253.516079 107.706376 
L 253.081365 108.061606 
L 252.633259 108.42382 
L 252.17192 108.793299 
L 251.697601 109.170339 
L 251.210651 109.555256 
L 250.711508 109.948388 
L 250.2007 110.350092 
L 249.67884 110.76075 
L 249.14662 111.18077 
z
" clip-path="url(#p2a60d491ec)" style="fill: #1f77b4; fill-opacity: 0.3"/>
   </g>
   <g id="PolyCollection_2">
    <path d="M 455.482175 237.225028 
L 434.115228 237.225028 
L 433.43897 232.34856 
L 432.768393 228.496411 
L 432.107481 225.312075 
L 431.459956 222.597859 
L 430.829207 220.232642 
L 430.218229 218.136815 
L 429.629577 216.255238 
L 429.065333 214.548142 
L 428.527088 212.985895 
L 428.01594 211.545828 
L 427.532499 210.210207 
L 427.076915 208.964902 
L 426.648905 207.798467 
L 426.2478 206.701505 
L 425.872589 205.666204 
L 425.521972 204.685997 
L 425.194415 203.755318 
L 424.888208 202.8694 
L 424.601512 202.024135 
L 424.332411 201.215955 
L 424.07896 200.441743 
L 423.839222 199.698757 
L 423.611303 198.984576 
L 423.393377 198.29705 
L 423.183714 197.63426 
L 422.980687 196.994489 
L 422.782787 196.37619 
L 422.588629 195.77797 
L 422.396947 195.198565 
L 422.206596 194.636827 
L 422.016545 194.091711 
L 421.825866 193.562261 
L 421.633729 193.047603 
L 421.439386 192.546931 
L 421.242164 192.059507 
L 421.041452 191.584646 
L 420.836689 191.121717 
L 420.627352 190.670136 
L 420.412948 190.22936 
L 420.193004 189.798882 
L 419.967054 189.378234 
L 419.734633 188.966976 
L 419.495268 188.564699 
L 419.248468 188.171017 
L 418.993717 187.785572 
L 418.730466 187.408027 
L 418.458126 187.038063 
L 418.176054 186.675382 
L 417.883553 186.319703 
L 417.579855 185.970761 
L 417.264115 185.628305 
L 416.935404 185.292099 
L 416.592695 184.961918 
L 416.234857 184.63755 
L 415.860642 184.318795 
L 415.468685 184.005461 
L 415.057489 183.697367 
L 414.625431 183.39434 
L 414.170756 183.096217 
L 413.691588 182.802842 
L 413.185938 182.514065 
L 412.651728 182.229744 
L 412.086819 181.949745 
L 411.489054 181.673937 
L 410.856307 181.402198 
L 410.186559 181.134408 
L 409.477972 180.870455 
L 408.728994 180.61023 
L 407.938471 180.35363 
L 407.105773 180.100555 
L 406.230937 179.850909 
L 405.314818 179.6046 
L 404.35924 179.361541 
L 403.367158 179.121647 
L 402.342803 178.884836 
L 401.291815 178.651031 
L 400.221361 178.420156 
L 399.140211 178.192138 
L 398.058783 177.966908 
L 396.989134 177.744398 
L 395.944896 177.524543 
L 394.941154 177.307281 
L 393.994253 177.092551 
L 393.121539 176.880295 
L 392.34104 176.670457 
L 391.671077 176.462982 
L 391.129835 176.257817 
L 390.734882 176.054912 
L 390.502676 175.854217 
L 390.448052 175.655685 
L 390.583731 175.459269 
L 390.919857 175.264925 
L 391.463587 175.07261 
L 392.218755 174.882282 
L 393.185622 174.6939 
L 394.360734 174.507425 
L 395.736883 174.322818 
L 397.303199 174.140042 
L 399.045343 173.959062 
L 490.552059 173.959062 
L 490.552059 173.959062 
L 492.294204 174.140042 
L 493.860519 174.322818 
L 495.236669 174.507425 
L 496.41178 174.6939 
L 497.378648 174.882282 
L 498.133816 175.07261 
L 498.677546 175.264925 
L 499.013672 175.459269 
L 499.149351 175.655685 
L 499.094726 175.854217 
L 498.86252 176.054912 
L 498.467568 176.257817 
L 497.926325 176.462982 
L 497.256363 176.670457 
L 496.475863 176.880295 
L 495.60315 177.092551 
L 494.656248 177.307281 
L 493.652507 177.524543 
L 492.608269 177.744398 
L 491.53862 177.966908 
L 490.457192 178.192138 
L 489.376042 178.420156 
L 488.305588 178.651031 
L 487.2546 178.884836 
L 486.230244 179.121647 
L 485.238163 179.361541 
L 484.282585 179.6046 
L 483.366465 179.850909 
L 482.49163 180.100555 
L 481.658932 180.35363 
L 480.868408 180.61023 
L 480.119431 180.870455 
L 479.410844 181.134408 
L 478.741096 181.402198 
L 478.108349 181.673937 
L 477.510583 181.949745 
L 476.945675 182.229744 
L 476.411465 182.514065 
L 475.905815 182.802842 
L 475.426646 183.096217 
L 474.971972 183.39434 
L 474.539914 183.697367 
L 474.128718 184.005461 
L 473.73676 184.318795 
L 473.362546 184.63755 
L 473.004707 184.961918 
L 472.661998 185.292099 
L 472.333287 185.628305 
L 472.017548 185.970761 
L 471.71385 186.319703 
L 471.421348 186.675382 
L 471.139277 187.038063 
L 470.866936 187.408027 
L 470.603686 187.785572 
L 470.348935 188.171017 
L 470.102135 188.564699 
L 469.86277 188.966976 
L 469.630349 189.378234 
L 469.404399 189.798882 
L 469.184455 190.22936 
L 468.970051 190.670136 
L 468.760714 191.121717 
L 468.55595 191.584646 
L 468.355238 192.059507 
L 468.158017 192.546931 
L 467.963674 193.047603 
L 467.771537 193.562261 
L 467.580858 194.091711 
L 467.390807 194.636827 
L 467.200456 195.198565 
L 467.008774 195.77797 
L 466.814615 196.37619 
L 466.616716 196.994489 
L 466.413689 197.63426 
L 466.204025 198.29705 
L 465.9861 198.984576 
L 465.758181 199.698757 
L 465.518443 200.441743 
L 465.264992 201.215955 
L 464.995891 202.024135 
L 464.709194 202.8694 
L 464.402987 203.755318 
L 464.075431 204.685997 
L 463.724814 205.666204 
L 463.349602 206.701505 
L 462.948497 207.798467 
L 462.520488 208.964902 
L 462.064903 210.210207 
L 461.581463 211.545828 
L 461.070314 212.985895 
L 460.53207 214.548142 
L 459.967826 216.255238 
L 459.379174 218.136815 
L 458.768196 220.232642 
L 458.137447 222.597859 
L 457.489922 225.312075 
L 456.82901 228.496411 
L 456.158432 232.34856 
L 455.482175 237.225028 
z
" clip-path="url(#p2a60d491ec)" style="fill: #1f77b4; fill-opacity: 0.3"/>
   </g>
   <g id="PolyCollection_3">
    <path d="M 669.927996 364.368489 
L 654.474602 364.368489 
L 653.642102 338.365934 
L 652.82085 327.990718 
L 652.024119 321.393511 
L 651.263722 316.545845 
L 650.549463 312.711653 
L 649.888755 309.539582 
L 649.286429 306.834277 
L 648.744742 304.475827 
L 648.26355 302.385312 
L 647.840625 300.508018 
L 647.472071 298.804447 
L 647.152777 297.245153 
L 646.876883 295.807595 
L 646.638204 294.474133 
L 646.430591 293.230704 
L 646.248218 292.065915 
L 646.08578 290.97041 
L 645.93861 289.936405 
L 645.802731 288.957361 
L 645.674848 288.02773 
L 645.5523 287.142762 
L 645.432991 286.298362 
L 645.3153 285.490973 
L 645.198002 284.717485 
L 645.080182 283.975168 
L 644.961162 283.261604 
L 644.840443 282.57465 
L 644.717653 281.912393 
L 644.59251 281.273117 
L 644.464791 280.655281 
L 644.334312 280.057494 
L 644.200913 279.478495 
L 644.064444 278.917139 
L 643.924762 278.372383 
L 643.781725 277.843273 
L 643.635185 277.328935 
L 643.48499 276.828567 
L 643.330979 276.34143 
L 643.172983 275.866842 
L 643.010822 275.404173 
L 642.844304 274.952839 
L 642.673227 274.512297 
L 642.497371 274.082045 
L 642.316505 273.661611 
L 642.130378 273.250558 
L 641.938724 272.848476 
L 641.741255 272.454982 
L 641.537662 272.069717 
L 641.327611 271.692344 
L 641.110742 271.322546 
L 640.886664 270.960024 
L 640.654955 270.604498 
L 640.415152 270.255704 
L 640.166756 269.91339 
L 639.909216 269.57732 
L 639.641931 269.247271 
L 639.364239 268.923031 
L 639.075408 268.604399 
L 638.774629 268.291184 
L 638.461 267.983205 
L 638.133511 267.680289 
L 637.791027 267.382274 
L 637.432265 267.089003 
L 637.055761 266.800327 
L 636.65984 266.516104 
L 636.242567 266.2362 
L 635.801693 265.960484 
L 635.334593 265.688834 
L 634.838183 265.421131 
L 634.308837 265.157263 
L 633.742289 264.89712 
L 633.133537 264.6406 
L 632.476759 264.387602 
L 631.765266 264.138031 
L 630.991496 263.891796 
L 630.147118 263.648808 
L 629.223254 263.408984 
L 628.210883 263.172241 
L 627.101468 262.938502 
L 625.887828 262.707692 
L 624.565293 262.479737 
L 623.133101 262.254568 
L 621.596002 262.032118 
L 619.965938 261.812322 
L 618.263665 261.595117 
L 616.520084 261.380443 
L 614.777059 261.168242 
L 613.087464 260.958457 
L 611.514253 260.751033 
L 610.128407 260.54592 
L 609.005719 260.343064 
L 608.222526 260.142418 
L 607.850649 259.943934 
L 607.951933 259.747565 
L 608.572914 259.553267 
L 609.740174 259.360997 
L 611.456929 259.170712 
L 613.701302 258.982373 
L 616.426568 258.79594 
L 707.97603 258.79594 
L 707.97603 258.79594 
L 710.701295 258.982373 
L 712.945668 259.170712 
L 714.662423 259.360997 
L 715.829684 259.553267 
L 716.450665 259.747565 
L 716.551948 259.943934 
L 716.180071 260.142418 
L 715.396879 260.343064 
L 714.274191 260.54592 
L 712.888345 260.751033 
L 711.315134 260.958457 
L 709.625538 261.168242 
L 707.882513 261.380443 
L 706.138932 261.595117 
L 704.436659 261.812322 
L 702.806596 262.032118 
L 701.269496 262.254568 
L 699.837305 262.479737 
L 698.51477 262.707692 
L 697.30113 262.938502 
L 696.191714 263.172241 
L 695.179344 263.408984 
L 694.255479 263.648808 
L 693.411102 263.891796 
L 692.637332 264.138031 
L 691.925838 264.387602 
L 691.269061 264.6406 
L 690.660308 264.89712 
L 690.09376 265.157263 
L 689.564414 265.421131 
L 689.068005 265.688834 
L 688.600905 265.960484 
L 688.160031 266.2362 
L 687.742757 266.516104 
L 687.346836 266.800327 
L 686.970333 267.089003 
L 686.61157 267.382274 
L 686.269087 267.680289 
L 685.941597 267.983205 
L 685.627968 268.291184 
L 685.327189 268.604399 
L 685.038359 268.923031 
L 684.760666 269.247271 
L 684.493381 269.57732 
L 684.235841 269.91339 
L 683.987445 270.255704 
L 683.747643 270.604498 
L 683.515933 270.960024 
L 683.291855 271.322546 
L 683.074986 271.692344 
L 682.864935 272.069717 
L 682.661342 272.454982 
L 682.463873 272.848476 
L 682.272219 273.250558 
L 682.086093 273.661611 
L 681.905226 274.082045 
L 681.729371 274.512297 
L 681.558293 274.952839 
L 681.391775 275.404173 
L 681.229614 275.866842 
L 681.071618 276.34143 
L 680.917607 276.828567 
L 680.767412 277.328935 
L 680.620872 277.843273 
L 680.477835 278.372383 
L 680.338154 278.917139 
L 680.201685 279.478495 
L 680.068285 280.057494 
L 679.937806 280.655281 
L 679.810087 281.273117 
L 679.684944 281.912393 
L 679.562154 282.57465 
L 679.441435 283.261604 
L 679.322416 283.975168 
L 679.204595 284.717485 
L 679.087298 285.490973 
L 678.969607 286.298362 
L 678.850297 287.142762 
L 678.727749 288.02773 
L 678.599866 288.957361 
L 678.463988 289.936405 
L 678.316818 290.97041 
L 678.154379 292.065915 
L 677.972007 293.230704 
L 677.764394 294.474133 
L 677.525714 295.807595 
L 677.249821 297.245153 
L 676.930527 298.804447 
L 676.561972 300.508018 
L 676.139048 302.385312 
L 675.657855 304.475827 
L 675.116168 306.834277 
L 674.513842 309.539582 
L 673.853134 312.711653 
L 673.138875 316.545845 
L 672.378478 321.393511 
L 671.581747 327.990718 
L 670.760496 338.365934 
L 669.927996 364.368489 
z
" clip-path="url(#p2a60d491ec)" style="fill: #1f77b4; fill-opacity: 0.3"/>
   </g>
   <g id="PolyCollection_4">
    <path d="M 885.799992 492.48 
L 873.4078 492.48 
L 872.346544 428.123943 
L 871.325539 415.635899 
L 870.384582 408.26081 
L 869.55294 403.008372 
L 868.846809 398.925943 
L 868.269224 395.586067 
L 867.812119 392.759741 
L 867.45971 390.309882 
L 867.19229 388.147886 
L 866.989587 386.213161 
L 866.833216 384.462439 
L 866.708043 382.863738 
L 866.602599 381.392755 
L 866.508827 380.030585 
L 866.421458 378.762231 
L 866.337281 377.5756 
L 866.254473 376.460794 
L 866.172071 375.409613 
L 866.089597 374.415185 
L 866.006827 373.471695 
L 865.923649 372.574176 
L 865.839996 371.718358 
L 865.755804 370.900535 
L 865.670989 370.117478 
L 865.585428 369.36635 
L 865.498935 368.64465 
L 865.411249 367.950158 
L 865.322015 367.280898 
L 865.23079 366.635099 
L 865.137053 366.011173 
L 865.040237 365.407686 
L 864.939767 364.823341 
L 864.83512 364.256962 
L 864.725869 363.707477 
L 864.611733 363.173906 
L 864.492609 362.655355 
L 864.368571 362.151 
L 864.239861 361.660084 
L 864.106848 361.181911 
L 863.969971 360.715835 
L 863.829682 360.26126 
L 863.686381 359.817631 
L 863.540359 359.384433 
L 863.391755 358.961188 
L 863.24052 358.547448 
L 863.086411 358.142796 
L 862.929003 357.74684 
L 862.76772 357.359216 
L 862.601895 356.979579 
L 862.430839 356.607608 
L 862.253915 356.242998 
L 862.070594 355.885464 
L 861.880489 355.534737 
L 861.683358 355.190562 
L 861.479074 354.852698 
L 861.267567 354.52092 
L 861.048756 354.19501 
L 860.822478 353.874766 
L 860.588429 353.559993 
L 860.346124 353.250508 
L 860.094877 352.946136 
L 859.8338 352.646711 
L 859.561825 352.352074 
L 859.277739 352.062076 
L 858.98023 351.776571 
L 858.667929 351.495424 
L 858.339445 351.218502 
L 857.993367 350.945681 
L 857.628242 350.676841 
L 857.24251 350.411868 
L 856.834417 350.150652 
L 856.401908 349.893087 
L 855.942522 349.639074 
L 855.453275 349.388516 
L 854.930534 349.141319 
L 854.369859 348.897395 
L 853.765765 348.656659 
L 853.1114 348.419027 
L 852.398086 348.184422 
L 851.614732 347.952766 
L 850.747121 347.723988 
L 849.777157 347.498015 
L 848.682222 347.27478 
L 847.435005 347.054218 
L 846.004344 346.836266 
L 844.357906 346.620861 
L 842.467631 346.407946 
L 840.31869 346.197463 
L 837.922042 345.989358 
L 835.329347 345.783578 
L 832.64727 345.58007 
L 830.046479 345.378786 
L 827.759888 345.179677 
L 826.065605 344.982697 
L 825.253247 344.787801 
L 825.577236 344.594945 
L 827.205957 344.404087 
L 830.179241 344.215186 
L 834.386533 344.028202 
L 924.821259 344.028202 
L 924.821259 344.028202 
L 929.028551 344.215186 
L 932.001835 344.404087 
L 933.630556 344.594945 
L 933.954545 344.787801 
L 933.142188 344.982697 
L 931.447904 345.179677 
L 929.161313 345.378786 
L 926.560522 345.58007 
L 923.878445 345.783578 
L 921.28575 345.989358 
L 918.889102 346.197463 
L 916.740161 346.407946 
L 914.849886 346.620861 
L 913.203449 346.836266 
L 911.772787 347.054218 
L 910.52557 347.27478 
L 909.430635 347.498015 
L 908.460671 347.723988 
L 907.593061 347.952766 
L 906.809706 348.184422 
L 906.096392 348.419027 
L 905.442027 348.656659 
L 904.837934 348.897395 
L 904.277258 349.141319 
L 903.754518 349.388516 
L 903.26527 349.639074 
L 902.805884 349.893087 
L 902.373376 350.150652 
L 901.965282 350.411868 
L 901.57955 350.676841 
L 901.214425 350.945681 
L 900.868347 351.218502 
L 900.539863 351.495424 
L 900.227562 351.776571 
L 899.930053 352.062076 
L 899.645967 352.352074 
L 899.373992 352.646711 
L 899.112915 352.946136 
L 898.861668 353.250508 
L 898.619363 353.559993 
L 898.385314 353.874766 
L 898.159036 354.19501 
L 897.940225 354.52092 
L 897.728718 354.852698 
L 897.524434 355.190562 
L 897.327304 355.534737 
L 897.137198 355.885464 
L 896.953877 356.242998 
L 896.776953 356.607608 
L 896.605897 356.979579 
L 896.440072 357.359216 
L 896.278789 357.74684 
L 896.121381 358.142796 
L 895.967273 358.547448 
L 895.816038 358.961188 
L 895.667433 359.384433 
L 895.521411 359.817631 
L 895.37811 360.26126 
L 895.237821 360.715835 
L 895.100945 361.181911 
L 894.967931 361.660084 
L 894.839222 362.151 
L 894.715184 362.655355 
L 894.596059 363.173906 
L 894.481923 363.707477 
L 894.372672 364.256962 
L 894.268025 364.823341 
L 894.167556 365.407686 
L 894.070739 366.011173 
L 893.977002 366.635099 
L 893.885777 367.280898 
L 893.796543 367.950158 
L 893.708857 368.64465 
L 893.622365 369.36635 
L 893.536803 370.117478 
L 893.451988 370.900535 
L 893.367796 371.718358 
L 893.284143 372.574176 
L 893.200965 373.471695 
L 893.118195 374.415185 
L 893.035722 375.409613 
L 892.953319 376.460794 
L 892.870511 377.5756 
L 892.786334 378.762231 
L 892.698965 380.030585 
L 892.605193 381.392755 
L 892.499749 382.863738 
L 892.374576 384.462439 
L 892.218205 386.213161 
L 892.015503 388.147886 
L 891.748082 390.309882 
L 891.395674 392.759741 
L 890.938568 395.586067 
L 890.360983 398.925943 
L 889.654852 403.008372 
L 888.823211 408.26081 
L 887.882253 415.635899 
L 886.861248 428.123943 
L 885.799992 492.48 
z
" clip-path="url(#p2a60d491ec)" style="fill: #1f77b4; fill-opacity: 0.3"/>
   </g>
   <g id="matplotlib.axis_1">
    <g id="xtick_1">
     <g id="line2d_1">
      <defs>
       <path id="ma9dd03d54a" d="M 0 0 
L 0 3.5 
" style="stroke: #000000; stroke-width: 0.8"/>
      </defs>
      <g>
       <use xlink:href="#ma9dd03d54a" x="227.396104" y="512.64" style="stroke: #000000; stroke-width: 0.8"/>
      </g>
     </g>
     <g id="text_1">
      <!-- h = 0.1 -->
      <g transform="translate(208.907823 527.238438) scale(0.1 -0.1)">
       <defs>
        <path id="DejaVuSans-68" d="M 3513 2113 
L 3513 0 
L 2938 0 
L 2938 2094 
Q 2938 2591 2744 2837 
Q 2550 3084 2163 3084 
Q 1697 3084 1428 2787 
Q 1159 2491 1159 1978 
L 1159 0 
L 581 0 
L 581 4863 
L 1159 4863 
L 1159 2956 
Q 1366 3272 1645 3428 
Q 1925 3584 2291 3584 
Q 2894 3584 3203 3211 
Q 3513 2838 3513 2113 
z
" transform="scale(0.015625)"/>
        <path id="DejaVuSans-20" transform="scale(0.015625)"/>
        <path id="DejaVuSans-3d" d="M 678 2906 
L 4684 2906 
L 4684 2381 
L 678 2381 
L 678 2906 
z
M 678 1631 
L 4684 1631 
L 4684 1100 
L 678 1100 
L 678 1631 
z
" transform="scale(0.015625)"/>
        <path id="DejaVuSans-30" d="M 2034 4250 
Q 1547 4250 1301 3770 
Q 1056 3291 1056 2328 
Q 1056 1369 1301 889 
Q 1547 409 2034 409 
Q 2525 409 2770 889 
Q 3016 1369 3016 2328 
Q 3016 3291 2770 3770 
Q 2525 4250 2034 4250 
z
M 2034 4750 
Q 2819 4750 3233 4129 
Q 3647 3509 3647 2328 
Q 3647 1150 3233 529 
Q 2819 -91 2034 -91 
Q 1250 -91 836 529 
Q 422 1150 422 2328 
Q 422 3509 836 4129 
Q 1250 4750 2034 4750 
z
" transform="scale(0.015625)"/>
        <path id="DejaVuSans-2e" d="M 684 794 
L 1344 794 
L 1344 0 
L 684 0 
L 684 794 
z
" transform="scale(0.015625)"/>
        <path id="DejaVuSans-31" d="M 794 531 
L 1825 531 
L 1825 4091 
L 703 3866 
L 703 4441 
L 1819 4666 
L 2450 4666 
L 2450 531 
L 3481 531 
L 3481 0 
L 794 0 
L 794 531 
z
" transform="scale(0.015625)"/>
       </defs>
       <use xlink:href="#DejaVuSans-68"/>
       <use xlink:href="#DejaVuSans-20" x="63.378906"/>
       <use xlink:href="#DejaVuSans-3d" x="95.166016"/>
       <use xlink:href="#DejaVuSans-20" x="178.955078"/>
       <use xlink:href="#DejaVuSans-30" x="210.742188"/>
       <use xlink:href="#DejaVuSans-2e" x="274.365234"/>
       <use xlink:href="#DejaVuSans-31" x="306.152344"/>
      </g>
     </g>
    </g>
    <g id="xtick_2">
     <g id="line2d_2">
      <g>
       <use xlink:href="#ma9dd03d54a" x="444.798701" y="512.64" style="stroke: #000000; stroke-width: 0.8"/>
      </g>
     </g>
     <g id="text_2">
      <!-- h = 0.01 -->
      <g transform="translate(423.12917 527.238438) scale(0.1 -0.1)">
       <use xlink:href="#DejaVuSans-68"/>
       <use xlink:href="#DejaVuSans-20" x="63.378906"/>
       <use xlink:href="#DejaVuSans-3d" x="95.166016"/>
       <use xlink:href="#DejaVuSans-20" x="178.955078"/>
       <use xlink:href="#DejaVuSans-30" x="210.742188"/>
       <use xlink:href="#DejaVuSans-2e" x="274.365234"/>
       <use xlink:href="#DejaVuSans-30" x="306.152344"/>
       <use xlink:href="#DejaVuSans-31" x="369.775391"/>
      </g>
     </g>
    </g>
    <g id="xtick_3">
     <g id="line2d_3">
      <g>
       <use xlink:href="#ma9dd03d54a" x="662.201299" y="512.64" style="stroke: #000000; stroke-width: 0.8"/>
      </g>
     </g>
     <g id="text_3">
      <!-- h = 0.001 -->
      <g transform="translate(637.350517 527.238438) scale(0.1 -0.1)">
       <use xlink:href="#DejaVuSans-68"/>
       <use xlink:href="#DejaVuSans-20" x="63.378906"/>
       <use xlink:href="#DejaVuSans-3d" x="95.166016"/>
       <use xlink:href="#DejaVuSans-20" x="178.955078"/>
       <use xlink:href="#DejaVuSans-30" x="210.742188"/>
       <use xlink:href="#DejaVuSans-2e" x="274.365234"/>
       <use xlink:href="#DejaVuSans-30" x="306.152344"/>
       <use xlink:href="#DejaVuSans-30" x="369.775391"/>
       <use xlink:href="#DejaVuSans-31" x="433.398438"/>
      </g>
     </g>
    </g>
    <g id="xtick_4">
     <g id="line2d_4">
      <g>
       <use xlink:href="#ma9dd03d54a" x="879.603896" y="512.64" style="stroke: #000000; stroke-width: 0.8"/>
      </g>
     </g>
     <g id="text_4">
      <!-- h = 0.0001 -->
      <g transform="translate(851.571865 527.238438) scale(0.1 -0.1)">
       <use xlink:href="#DejaVuSans-68"/>
       <use xlink:href="#DejaVuSans-20" x="63.378906"/>
       <use xlink:href="#DejaVuSans-3d" x="95.166016"/>
       <use xlink:href="#DejaVuSans-20" x="178.955078"/>
       <use xlink:href="#DejaVuSans-30" x="210.742188"/>
       <use xlink:href="#DejaVuSans-2e" x="274.365234"/>
       <use xlink:href="#DejaVuSans-30" x="306.152344"/>
       <use xlink:href="#DejaVuSans-30" x="369.775391"/>
       <use xlink:href="#DejaVuSans-30" x="433.398438"/>
       <use xlink:href="#DejaVuSans-31" x="497.021484"/>
      </g>
     </g>
    </g>
    <g id="text_5">
     <!-- $x$ -->
     <g transform="translate(550.5 540.916563) scale(0.1 -0.1)">
      <defs>
       <path id="DejaVuSans-Oblique-78" d="M 3841 3500 
L 2234 1784 
L 3219 0 
L 2559 0 
L 1819 1388 
L 531 0 
L -166 0 
L 1556 1844 
L 641 3500 
L 1300 3500 
L 1972 2234 
L 3144 3500 
L 3841 3500 
z
" transform="scale(0.015625)"/>
      </defs>
      <use xlink:href="#DejaVuSans-Oblique-78" transform="translate(0 0.3125)"/>
     </g>
    </g>
   </g>
   <g id="matplotlib.axis_2">
    <g id="ytick_1">
     <g id="line2d_5">
      <defs>
       <path id="m0751a24f49" d="M 0 0 
L -3.5 0 
" style="stroke: #000000; stroke-width: 0.8"/>
      </defs>
      <g>
       <use xlink:href="#m0751a24f49" x="135" y="460.539665" style="stroke: #000000; stroke-width: 0.8"/>
      </g>
     </g>
     <g id="text_6">
      <!-- $\mathdefault{10^{-12}}$ -->
      <g transform="translate(100.1 464.338884) scale(0.1 -0.1)">
       <defs>
        <path id="DejaVuSans-2212" d="M 678 2272 
L 4684 2272 
L 4684 1741 
L 678 1741 
L 678 2272 
z
" transform="scale(0.015625)"/>
        <path id="DejaVuSans-32" d="M 1228 531 
L 3431 531 
L 3431 0 
L 469 0 
L 469 531 
Q 828 903 1448 1529 
Q 2069 2156 2228 2338 
Q 2531 2678 2651 2914 
Q 2772 3150 2772 3378 
Q 2772 3750 2511 3984 
Q 2250 4219 1831 4219 
Q 1534 4219 1204 4116 
Q 875 4013 500 3803 
L 500 4441 
Q 881 4594 1212 4672 
Q 1544 4750 1819 4750 
Q 2544 4750 2975 4387 
Q 3406 4025 3406 3419 
Q 3406 3131 3298 2873 
Q 3191 2616 2906 2266 
Q 2828 2175 2409 1742 
Q 1991 1309 1228 531 
z
" transform="scale(0.015625)"/>
       </defs>
       <use xlink:href="#DejaVuSans-31" transform="translate(0 0.765625)"/>
       <use xlink:href="#DejaVuSans-30" transform="translate(63.623047 0.765625)"/>
       <use xlink:href="#DejaVuSans-2212" transform="translate(128.203125 39.046875) scale(0.7)"/>
       <use xlink:href="#DejaVuSans-31" transform="translate(186.855469 39.046875) scale(0.7)"/>
       <use xlink:href="#DejaVuSans-32" transform="translate(231.391602 39.046875) scale(0.7)"/>
      </g>
     </g>
    </g>
    <g id="ytick_2">
     <g id="line2d_6">
      <g>
       <use xlink:href="#m0751a24f49" x="135" y="375.695719" style="stroke: #000000; stroke-width: 0.8"/>
      </g>
     </g>
     <g id="text_7">
      <!-- $\mathdefault{10^{-10}}$ -->
      <g transform="translate(100.1 379.494938) scale(0.1 -0.1)">
       <use xlink:href="#DejaVuSans-31" transform="translate(0 0.765625)"/>
       <use xlink:href="#DejaVuSans-30" transform="translate(63.623047 0.765625)"/>
       <use xlink:href="#DejaVuSans-2212" transform="translate(128.203125 39.046875) scale(0.7)"/>
       <use xlink:href="#DejaVuSans-31" transform="translate(186.855469 39.046875) scale(0.7)"/>
       <use xlink:href="#DejaVuSans-30" transform="translate(231.391602 39.046875) scale(0.7)"/>
      </g>
     </g>
    </g>
    <g id="ytick_3">
     <g id="line2d_7">
      <g>
       <use xlink:href="#m0751a24f49" x="135" y="290.851773" style="stroke: #000000; stroke-width: 0.8"/>
      </g>
     </g>
     <g id="text_8">
      <!-- $\mathdefault{10^{-8}}$ -->
      <g transform="translate(104.5 294.650992) scale(0.1 -0.1)">
       <defs>
        <path id="DejaVuSans-38" d="M 2034 2216 
Q 1584 2216 1326 1975 
Q 1069 1734 1069 1313 
Q 1069 891 1326 650 
Q 1584 409 2034 409 
Q 2484 409 2743 651 
Q 3003 894 3003 1313 
Q 3003 1734 2745 1975 
Q 2488 2216 2034 2216 
z
M 1403 2484 
Q 997 2584 770 2862 
Q 544 3141 544 3541 
Q 544 4100 942 4425 
Q 1341 4750 2034 4750 
Q 2731 4750 3128 4425 
Q 3525 4100 3525 3541 
Q 3525 3141 3298 2862 
Q 3072 2584 2669 2484 
Q 3125 2378 3379 2068 
Q 3634 1759 3634 1313 
Q 3634 634 3220 271 
Q 2806 -91 2034 -91 
Q 1263 -91 848 271 
Q 434 634 434 1313 
Q 434 1759 690 2068 
Q 947 2378 1403 2484 
z
M 1172 3481 
Q 1172 3119 1398 2916 
Q 1625 2713 2034 2713 
Q 2441 2713 2670 2916 
Q 2900 3119 2900 3481 
Q 2900 3844 2670 4047 
Q 2441 4250 2034 4250 
Q 1625 4250 1398 4047 
Q 1172 3844 1172 3481 
z
" transform="scale(0.015625)"/>
       </defs>
       <use xlink:href="#DejaVuSans-31" transform="translate(0 0.765625)"/>
       <use xlink:href="#DejaVuSans-30" transform="translate(63.623047 0.765625)"/>
       <use xlink:href="#DejaVuSans-2212" transform="translate(128.203125 39.046875) scale(0.7)"/>
       <use xlink:href="#DejaVuSans-38" transform="translate(186.855469 39.046875) scale(0.7)"/>
      </g>
     </g>
    </g>
    <g id="ytick_4">
     <g id="line2d_8">
      <g>
       <use xlink:href="#m0751a24f49" x="135" y="206.007827" style="stroke: #000000; stroke-width: 0.8"/>
      </g>
     </g>
     <g id="text_9">
      <!-- $\mathdefault{10^{-6}}$ -->
      <g transform="translate(104.5 209.807046) scale(0.1 -0.1)">
       <defs>
        <path id="DejaVuSans-36" d="M 2113 2584 
Q 1688 2584 1439 2293 
Q 1191 2003 1191 1497 
Q 1191 994 1439 701 
Q 1688 409 2113 409 
Q 2538 409 2786 701 
Q 3034 994 3034 1497 
Q 3034 2003 2786 2293 
Q 2538 2584 2113 2584 
z
M 3366 4563 
L 3366 3988 
Q 3128 4100 2886 4159 
Q 2644 4219 2406 4219 
Q 1781 4219 1451 3797 
Q 1122 3375 1075 2522 
Q 1259 2794 1537 2939 
Q 1816 3084 2150 3084 
Q 2853 3084 3261 2657 
Q 3669 2231 3669 1497 
Q 3669 778 3244 343 
Q 2819 -91 2113 -91 
Q 1303 -91 875 529 
Q 447 1150 447 2328 
Q 447 3434 972 4092 
Q 1497 4750 2381 4750 
Q 2619 4750 2861 4703 
Q 3103 4656 3366 4563 
z
" transform="scale(0.015625)"/>
       </defs>
       <use xlink:href="#DejaVuSans-31" transform="translate(0 0.765625)"/>
       <use xlink:href="#DejaVuSans-30" transform="translate(63.623047 0.765625)"/>
       <use xlink:href="#DejaVuSans-2212" transform="translate(128.203125 39.046875) scale(0.7)"/>
       <use xlink:href="#DejaVuSans-36" transform="translate(186.855469 39.046875) scale(0.7)"/>
      </g>
     </g>
    </g>
    <g id="ytick_5">
     <g id="line2d_9">
      <g>
       <use xlink:href="#m0751a24f49" x="135" y="121.163881" style="stroke: #000000; stroke-width: 0.8"/>
      </g>
     </g>
     <g id="text_10">
      <!-- $\mathdefault{10^{-4}}$ -->
      <g transform="translate(104.5 124.9631) scale(0.1 -0.1)">
       <defs>
        <path id="DejaVuSans-34" d="M 2419 4116 
L 825 1625 
L 2419 1625 
L 2419 4116 
z
M 2253 4666 
L 3047 4666 
L 3047 1625 
L 3713 1625 
L 3713 1100 
L 3047 1100 
L 3047 0 
L 2419 0 
L 2419 1100 
L 313 1100 
L 313 1709 
L 2253 4666 
z
" transform="scale(0.015625)"/>
       </defs>
       <use xlink:href="#DejaVuSans-31" transform="translate(0 0.684375)"/>
       <use xlink:href="#DejaVuSans-30" transform="translate(63.623047 0.684375)"/>
       <use xlink:href="#DejaVuSans-2212" transform="translate(128.203125 38.965625) scale(0.7)"/>
       <use xlink:href="#DejaVuSans-34" transform="translate(186.855469 38.965625) scale(0.7)"/>
      </g>
     </g>
    </g>
    <g id="text_11">
     <!-- $|u(x) - u^h(x)|$ -->
     <g transform="translate(93.7 323.03) rotate(-90) scale(0.1 -0.1)">
      <defs>
       <path id="DejaVuSans-7c" d="M 1344 4891 
L 1344 -1509 
L 813 -1509 
L 813 4891 
L 1344 4891 
z
" transform="scale(0.015625)"/>
       <path id="DejaVuSans-Oblique-75" d="M 428 1388 
L 838 3500 
L 1416 3500 
L 1006 1409 
Q 975 1256 961 1147 
Q 947 1038 947 966 
Q 947 700 1109 554 
Q 1272 409 1569 409 
Q 2031 409 2368 721 
Q 2706 1034 2809 1563 
L 3194 3500 
L 3769 3500 
L 3091 0 
L 2516 0 
L 2631 550 
Q 2388 244 2052 76 
Q 1716 -91 1338 -91 
Q 878 -91 622 161 
Q 366 413 366 863 
Q 366 956 381 1097 
Q 397 1238 428 1388 
z
" transform="scale(0.015625)"/>
       <path id="DejaVuSans-28" d="M 1984 4856 
Q 1566 4138 1362 3434 
Q 1159 2731 1159 2009 
Q 1159 1288 1364 580 
Q 1569 -128 1984 -844 
L 1484 -844 
Q 1016 -109 783 600 
Q 550 1309 550 2009 
Q 550 2706 781 3412 
Q 1013 4119 1484 4856 
L 1984 4856 
z
" transform="scale(0.015625)"/>
       <path id="DejaVuSans-29" d="M 513 4856 
L 1013 4856 
Q 1481 4119 1714 3412 
Q 1947 2706 1947 2009 
Q 1947 1309 1714 600 
Q 1481 -109 1013 -844 
L 513 -844 
Q 928 -128 1133 580 
Q 1338 1288 1338 2009 
Q 1338 2731 1133 3434 
Q 928 4138 513 4856 
z
" transform="scale(0.015625)"/>
       <path id="DejaVuSans-Oblique-68" d="M 3566 2113 
L 3156 0 
L 2578 0 
L 2988 2091 
Q 3016 2238 3031 2350 
Q 3047 2463 3047 2528 
Q 3047 2791 2881 2937 
Q 2716 3084 2419 3084 
Q 1956 3084 1617 2771 
Q 1278 2459 1178 1941 
L 800 0 
L 225 0 
L 1172 4863 
L 1747 4863 
L 1375 2950 
Q 1594 3244 1934 3414 
Q 2275 3584 2650 3584 
Q 3113 3584 3367 3334 
Q 3622 3084 3622 2631 
Q 3622 2519 3608 2391 
Q 3594 2263 3566 2113 
z
" transform="scale(0.015625)"/>
      </defs>
      <use xlink:href="#DejaVuSans-7c" transform="translate(0 0.529687)"/>
      <use xlink:href="#DejaVuSans-Oblique-75" transform="translate(33.691406 0.529687)"/>
      <use xlink:href="#DejaVuSans-28" transform="translate(97.070312 0.529687)"/>
      <use xlink:href="#DejaVuSans-Oblique-78" transform="translate(136.083984 0.529687)"/>
      <use xlink:href="#DejaVuSans-29" transform="translate(195.263672 0.529687)"/>
      <use xlink:href="#DejaVuSans-2212" transform="translate(253.759766 0.529687)"/>
      <use xlink:href="#DejaVuSans-Oblique-75" transform="translate(357.03125 0.529687)"/>
      <use xlink:href="#DejaVuSans-Oblique-68" transform="translate(424.876302 38.810937) scale(0.7)"/>
      <use xlink:href="#DejaVuSans-28" transform="translate(471.975911 0.529687)"/>
      <use xlink:href="#DejaVuSans-Oblique-78" transform="translate(510.989583 0.529687)"/>
      <use xlink:href="#DejaVuSans-29" transform="translate(570.169271 0.529687)"/>
      <use xlink:href="#DejaVuSans-7c" transform="translate(609.182943 0.529687)"/>
     </g>
    </g>
   </g>
   <g id="LineCollection_1">
    <path d="M 200.220779 89.28 
L 254.571429 89.28 
" clip-path="url(#p2a60d491ec)" style="fill: none; stroke: #1f77b4; stroke-width: 1.5"/>
    <path d="M 417.623377 173.959062 
L 471.974026 173.959062 
" clip-path="url(#p2a60d491ec)" style="fill: none; stroke: #1f77b4; stroke-width: 1.5"/>
    <path d="M 635.025974 258.79594 
L 689.376623 258.79594 
" clip-path="url(#p2a60d491ec)" style="fill: none; stroke: #1f77b4; stroke-width: 1.5"/>
    <path d="M 852.428571 344.028202 
L 906.779221 344.028202 
" clip-path="url(#p2a60d491ec)" style="fill: none; stroke: #1f77b4; stroke-width: 1.5"/>
   </g>
   <g id="LineCollection_2">
    <path d="M 200.220779 111.18077 
L 254.571429 111.18077 
" clip-path="url(#p2a60d491ec)" style="fill: none; stroke: #1f77b4; stroke-width: 1.5"/>
    <path d="M 417.623377 237.225028 
L 471.974026 237.225028 
" clip-path="url(#p2a60d491ec)" style="fill: none; stroke: #1f77b4; stroke-width: 1.5"/>
    <path d="M 635.025974 364.368489 
L 689.376623 364.368489 
" clip-path="url(#p2a60d491ec)" style="fill: none; stroke: #1f77b4; stroke-width: 1.5"/>
    <path d="M 852.428571 492.48 
L 906.779221 492.48 
" clip-path="url(#p2a60d491ec)" style="fill: none; stroke: #1f77b4; stroke-width: 1.5"/>
   </g>
   <g id="LineCollection_3">
    <path d="M 227.396104 111.18077 
L 227.396104 89.28 
" clip-path="url(#p2a60d491ec)" style="fill: none; stroke: #1f77b4; stroke-width: 1.5"/>
    <path d="M 444.798701 237.225028 
L 444.798701 173.959062 
" clip-path="url(#p2a60d491ec)" style="fill: none; stroke: #1f77b4; stroke-width: 1.5"/>
    <path d="M 662.201299 364.368489 
L 662.201299 258.79594 
" clip-path="url(#p2a60d491ec)" style="fill: none; stroke: #1f77b4; stroke-width: 1.5"/>
    <path d="M 879.603896 492.48 
L 879.603896 344.028202 
" clip-path="url(#p2a60d491ec)" style="fill: none; stroke: #1f77b4; stroke-width: 1.5"/>
   </g>
   <g id="LineCollection_4">
    <path d="M 200.220779 94.177665 
L 254.571429 94.177665 
" clip-path="url(#p2a60d491ec)" style="fill: none; stroke: #1f77b4; stroke-width: 1.5"/>
    <path d="M 417.623377 179.15506 
L 471.974026 179.15506 
" clip-path="url(#p2a60d491ec)" style="fill: none; stroke: #1f77b4; stroke-width: 1.5"/>
    <path d="M 635.025974 264.132897 
L 689.376623 264.132897 
" clip-path="url(#p2a60d491ec)" style="fill: none; stroke: #1f77b4; stroke-width: 1.5"/>
    <path d="M 852.428571 349.513229 
L 906.779221 349.513229 
" clip-path="url(#p2a60d491ec)" style="fill: none; stroke: #1f77b4; stroke-width: 1.5"/>
   </g>
   <g id="patch_3">
    <path d="M 135 512.64 
L 135 69.12 
" style="fill: none; stroke: #000000; stroke-width: 0.8; stroke-linejoin: miter; stroke-linecap: square"/>
   </g>
   <g id="patch_4">
    <path d="M 972 512.64 
L 972 69.12 
" style="fill: none; stroke: #000000; stroke-width: 0.8; stroke-linejoin: miter; stroke-linecap: square"/>
   </g>
   <g id="patch_5">
    <path d="M 135 512.64 
L 972 512.64 
" style="fill: none; stroke: #000000; stroke-width: 0.8; stroke-linejoin: miter; stroke-linecap: square"/>
   </g>
   <g id="patch_6">
    <path d="M 135 69.12 
L 972 69.12 
" style="fill: none; stroke: #000000; stroke-width: 0.8; stroke-linejoin: miter; stroke-linecap: square"/>
   </g>
   <g id="legend_1">
    <g id="patch_7">
     <path d="M 961 82.12 
L 965 82.12 
Q 967 82.12 967 80.12 
L 967 76.12 
Q 967 74.12 965 74.12 
L 961 74.12 
Q 959 74.12 959 76.12 
L 959 80.12 
Q 959 82.12 961 82.12 
z
" style="fill: #ffffff; opacity: 0.8; stroke: #cccccc; stroke-linejoin: miter"/>
    </g>
   </g>
  </g>
 </g>
 <defs>
  <clipPath id="p2a60d491ec">
   <rect x="135" y="69.12" width="837" height="443.52"/>
  </clipPath>
 </defs>
</svg>
