<?xml version="1.0" encoding="utf-8" standalone="no"?>
<!DOCTYPE svg PUBLIC "-//W3C//DTD SVG 1.1//EN"
  "http://www.w3.org/Graphics/SVG/1.1/DTD/svg11.dtd">
<svg xmlns:xlink="http://www.w3.org/1999/xlink" width="1152pt" height="576pt" viewBox="0 0 1152 576" xmlns="http://www.w3.org/2000/svg" version="1.1">
 <metadata>
  <rdf:RDF xmlns:dc="http://purl.org/dc/elements/1.1/" xmlns:cc="http://creativecommons.org/ns#" xmlns:rdf="http://www.w3.org/1999/02/22-rdf-syntax-ns#">
   <cc:Work>
    <dc:type rdf:resource="http://purl.org/dc/dcmitype/StillImage"/>
    <dc:date>2023-12-29T14:32:20.396535</dc:date>
    <dc:format>image/svg+xml</dc:format>
    <dc:creator>
     <cc:Agent>
      <dc:title>Matplotlib v3.8.2, https://matplotlib.org/</dc:title>
     </cc:Agent>
    </dc:creator>
   </cc:Work>
  </rdf:RDF>
 </metadata>
 <defs>
  <style type="text/css">*{stroke-linejoin: round; stroke-linecap: butt}</style>
 </defs>
 <g id="figure_1">
  <g id="patch_1">
   <path d="M 0 576 
L 1152 576 
L 1152 0 
L 0 0 
z
" style="fill: #ffffff"/>
  </g>
  <g id="axes_1">
   <g id="patch_2">
    <path d="M 144 512.64 
L 1036.8 512.64 
L 1036.8 69.12 
L 144 69.12 
z
" style="fill: #ffffff"/>
   </g>
   <g id="matplotlib.axis_1">
    <g id="xtick_1">
     <g id="line2d_1">
      <path d="M 184.581818 512.64 
L 184.581818 69.12 
" clip-path="url(#p4af32ac25d)" style="fill: none; stroke: #b0b0b0; stroke-width: 0.8; stroke-linecap: square"/>
     </g>
     <g id="line2d_2">
      <defs>
       <path id="m6d273bbdb6" d="M 0 0 
L 0 3.5 
" style="stroke: #000000; stroke-width: 0.8"/>
      </defs>
      <g>
       <use xlink:href="#m6d273bbdb6" x="184.581818" y="512.64" style="stroke: #000000; stroke-width: 0.8"/>
      </g>
     </g>
     <g id="text_1">
      <!-- 0 -->
      <g transform="translate(181.400568 527.238438) scale(0.1 -0.1)">
       <defs>
        <path id="DejaVuSans-30" d="M 2034 4250 
Q 1547 4250 1301 3770 
Q 1056 3291 1056 2328 
Q 1056 1369 1301 889 
Q 1547 409 2034 409 
Q 2525 409 2770 889 
Q 3016 1369 3016 2328 
Q 3016 3291 2770 3770 
Q 2525 4250 2034 4250 
z
M 2034 4750 
Q 2819 4750 3233 4129 
Q 3647 3509 3647 2328 
Q 3647 1150 3233 529 
Q 2819 -91 2034 -91 
Q 1250 -91 836 529 
Q 422 1150 422 2328 
Q 422 3509 836 4129 
Q 1250 4750 2034 4750 
z
" transform="scale(0.015625)"/>
       </defs>
       <use xlink:href="#DejaVuSans-30"/>
      </g>
     </g>
    </g>
    <g id="xtick_2">
     <g id="line2d_3">
      <path d="M 296.377461 512.64 
L 296.377461 69.12 
" clip-path="url(#p4af32ac25d)" style="fill: none; stroke: #b0b0b0; stroke-width: 0.8; stroke-linecap: square"/>
     </g>
     <g id="line2d_4">
      <g>
       <use xlink:href="#m6d273bbdb6" x="296.377461" y="512.64" style="stroke: #000000; stroke-width: 0.8"/>
      </g>
     </g>
     <g id="text_2">
      <!-- 50 -->
      <g transform="translate(290.014961 527.238438) scale(0.1 -0.1)">
       <defs>
        <path id="DejaVuSans-35" d="M 691 4666 
L 3169 4666 
L 3169 4134 
L 1269 4134 
L 1269 2991 
Q 1406 3038 1543 3061 
Q 1681 3084 1819 3084 
Q 2600 3084 3056 2656 
Q 3513 2228 3513 1497 
Q 3513 744 3044 326 
Q 2575 -91 1722 -91 
Q 1428 -91 1123 -41 
Q 819 9 494 109 
L 494 744 
Q 775 591 1075 516 
Q 1375 441 1709 441 
Q 2250 441 2565 725 
Q 2881 1009 2881 1497 
Q 2881 1984 2565 2268 
Q 2250 2553 1709 2553 
Q 1456 2553 1204 2497 
Q 953 2441 691 2322 
L 691 4666 
z
" transform="scale(0.015625)"/>
       </defs>
       <use xlink:href="#DejaVuSans-35"/>
       <use xlink:href="#DejaVuSans-30" x="63.623047"/>
      </g>
     </g>
    </g>
    <g id="xtick_3">
     <g id="line2d_5">
      <path d="M 408.173103 512.64 
L 408.173103 69.12 
" clip-path="url(#p4af32ac25d)" style="fill: none; stroke: #b0b0b0; stroke-width: 0.8; stroke-linecap: square"/>
     </g>
     <g id="line2d_6">
      <g>
       <use xlink:href="#m6d273bbdb6" x="408.173103" y="512.64" style="stroke: #000000; stroke-width: 0.8"/>
      </g>
     </g>
     <g id="text_3">
      <!-- 100 -->
      <g transform="translate(398.629353 527.238438) scale(0.1 -0.1)">
       <defs>
        <path id="DejaVuSans-31" d="M 794 531 
L 1825 531 
L 1825 4091 
L 703 3866 
L 703 4441 
L 1819 4666 
L 2450 4666 
L 2450 531 
L 3481 531 
L 3481 0 
L 794 0 
L 794 531 
z
" transform="scale(0.015625)"/>
       </defs>
       <use xlink:href="#DejaVuSans-31"/>
       <use xlink:href="#DejaVuSans-30" x="63.623047"/>
       <use xlink:href="#DejaVuSans-30" x="127.246094"/>
      </g>
     </g>
    </g>
    <g id="xtick_4">
     <g id="line2d_7">
      <path d="M 519.968745 512.64 
L 519.968745 69.12 
" clip-path="url(#p4af32ac25d)" style="fill: none; stroke: #b0b0b0; stroke-width: 0.8; stroke-linecap: square"/>
     </g>
     <g id="line2d_8">
      <g>
       <use xlink:href="#m6d273bbdb6" x="519.968745" y="512.64" style="stroke: #000000; stroke-width: 0.8"/>
      </g>
     </g>
     <g id="text_4">
      <!-- 150 -->
      <g transform="translate(510.424995 527.238438) scale(0.1 -0.1)">
       <use xlink:href="#DejaVuSans-31"/>
       <use xlink:href="#DejaVuSans-35" x="63.623047"/>
       <use xlink:href="#DejaVuSans-30" x="127.246094"/>
      </g>
     </g>
    </g>
    <g id="xtick_5">
     <g id="line2d_9">
      <path d="M 631.764388 512.64 
L 631.764388 69.12 
" clip-path="url(#p4af32ac25d)" style="fill: none; stroke: #b0b0b0; stroke-width: 0.8; stroke-linecap: square"/>
     </g>
     <g id="line2d_10">
      <g>
       <use xlink:href="#m6d273bbdb6" x="631.764388" y="512.64" style="stroke: #000000; stroke-width: 0.8"/>
      </g>
     </g>
     <g id="text_5">
      <!-- 200 -->
      <g transform="translate(622.220638 527.238438) scale(0.1 -0.1)">
       <defs>
        <path id="DejaVuSans-32" d="M 1228 531 
L 3431 531 
L 3431 0 
L 469 0 
L 469 531 
Q 828 903 1448 1529 
Q 2069 2156 2228 2338 
Q 2531 2678 2651 2914 
Q 2772 3150 2772 3378 
Q 2772 3750 2511 3984 
Q 2250 4219 1831 4219 
Q 1534 4219 1204 4116 
Q 875 4013 500 3803 
L 500 4441 
Q 881 4594 1212 4672 
Q 1544 4750 1819 4750 
Q 2544 4750 2975 4387 
Q 3406 4025 3406 3419 
Q 3406 3131 3298 2873 
Q 3191 2616 2906 2266 
Q 2828 2175 2409 1742 
Q 1991 1309 1228 531 
z
" transform="scale(0.015625)"/>
       </defs>
       <use xlink:href="#DejaVuSans-32"/>
       <use xlink:href="#DejaVuSans-30" x="63.623047"/>
       <use xlink:href="#DejaVuSans-30" x="127.246094"/>
      </g>
     </g>
    </g>
    <g id="xtick_6">
     <g id="line2d_11">
      <path d="M 743.56003 512.64 
L 743.56003 69.12 
" clip-path="url(#p4af32ac25d)" style="fill: none; stroke: #b0b0b0; stroke-width: 0.8; stroke-linecap: square"/>
     </g>
     <g id="line2d_12">
      <g>
       <use xlink:href="#m6d273bbdb6" x="743.56003" y="512.64" style="stroke: #000000; stroke-width: 0.8"/>
      </g>
     </g>
     <g id="text_6">
      <!-- 250 -->
      <g transform="translate(734.01628 527.238438) scale(0.1 -0.1)">
       <use xlink:href="#DejaVuSans-32"/>
       <use xlink:href="#DejaVuSans-35" x="63.623047"/>
       <use xlink:href="#DejaVuSans-30" x="127.246094"/>
      </g>
     </g>
    </g>
    <g id="xtick_7">
     <g id="line2d_13">
      <path d="M 855.355672 512.64 
L 855.355672 69.12 
" clip-path="url(#p4af32ac25d)" style="fill: none; stroke: #b0b0b0; stroke-width: 0.8; stroke-linecap: square"/>
     </g>
     <g id="line2d_14">
      <g>
       <use xlink:href="#m6d273bbdb6" x="855.355672" y="512.64" style="stroke: #000000; stroke-width: 0.8"/>
      </g>
     </g>
     <g id="text_7">
      <!-- 300 -->
      <g transform="translate(845.811922 527.238438) scale(0.1 -0.1)">
       <defs>
        <path id="DejaVuSans-33" d="M 2597 2516 
Q 3050 2419 3304 2112 
Q 3559 1806 3559 1356 
Q 3559 666 3084 287 
Q 2609 -91 1734 -91 
Q 1441 -91 1130 -33 
Q 819 25 488 141 
L 488 750 
Q 750 597 1062 519 
Q 1375 441 1716 441 
Q 2309 441 2620 675 
Q 2931 909 2931 1356 
Q 2931 1769 2642 2001 
Q 2353 2234 1838 2234 
L 1294 2234 
L 1294 2753 
L 1863 2753 
Q 2328 2753 2575 2939 
Q 2822 3125 2822 3475 
Q 2822 3834 2567 4026 
Q 2313 4219 1838 4219 
Q 1578 4219 1281 4162 
Q 984 4106 628 3988 
L 628 4550 
Q 988 4650 1302 4700 
Q 1616 4750 1894 4750 
Q 2613 4750 3031 4423 
Q 3450 4097 3450 3541 
Q 3450 3153 3228 2886 
Q 3006 2619 2597 2516 
z
" transform="scale(0.015625)"/>
       </defs>
       <use xlink:href="#DejaVuSans-33"/>
       <use xlink:href="#DejaVuSans-30" x="63.623047"/>
       <use xlink:href="#DejaVuSans-30" x="127.246094"/>
      </g>
     </g>
    </g>
    <g id="xtick_8">
     <g id="line2d_15">
      <path d="M 967.151315 512.64 
L 967.151315 69.12 
" clip-path="url(#p4af32ac25d)" style="fill: none; stroke: #b0b0b0; stroke-width: 0.8; stroke-linecap: square"/>
     </g>
     <g id="line2d_16">
      <g>
       <use xlink:href="#m6d273bbdb6" x="967.151315" y="512.64" style="stroke: #000000; stroke-width: 0.8"/>
      </g>
     </g>
     <g id="text_8">
      <!-- 350 -->
      <g transform="translate(957.607565 527.238438) scale(0.1 -0.1)">
       <use xlink:href="#DejaVuSans-33"/>
       <use xlink:href="#DejaVuSans-35" x="63.623047"/>
       <use xlink:href="#DejaVuSans-30" x="127.246094"/>
      </g>
     </g>
    </g>
    <g id="text_9">
     <!-- # iterations -->
     <g transform="translate(560.89375 540.916563) scale(0.1 -0.1)">
      <defs>
       <path id="DejaVuSans-23" d="M 3272 2816 
L 2363 2816 
L 2100 1772 
L 3016 1772 
L 3272 2816 
z
M 2803 4594 
L 2478 3297 
L 3391 3297 
L 3719 4594 
L 4219 4594 
L 3897 3297 
L 4872 3297 
L 4872 2816 
L 3775 2816 
L 3519 1772 
L 4513 1772 
L 4513 1294 
L 3397 1294 
L 3072 0 
L 2572 0 
L 2894 1294 
L 1978 1294 
L 1656 0 
L 1153 0 
L 1478 1294 
L 494 1294 
L 494 1772 
L 1594 1772 
L 1856 2816 
L 850 2816 
L 850 3297 
L 1978 3297 
L 2297 4594 
L 2803 4594 
z
" transform="scale(0.015625)"/>
       <path id="DejaVuSans-20" transform="scale(0.015625)"/>
       <path id="DejaVuSans-69" d="M 603 3500 
L 1178 3500 
L 1178 0 
L 603 0 
L 603 3500 
z
M 603 4863 
L 1178 4863 
L 1178 4134 
L 603 4134 
L 603 4863 
z
" transform="scale(0.015625)"/>
       <path id="DejaVuSans-74" d="M 1172 4494 
L 1172 3500 
L 2356 3500 
L 2356 3053 
L 1172 3053 
L 1172 1153 
Q 1172 725 1289 603 
Q 1406 481 1766 481 
L 2356 481 
L 2356 0 
L 1766 0 
Q 1100 0 847 248 
Q 594 497 594 1153 
L 594 3053 
L 172 3053 
L 172 3500 
L 594 3500 
L 594 4494 
L 1172 4494 
z
" transform="scale(0.015625)"/>
       <path id="DejaVuSans-65" d="M 3597 1894 
L 3597 1613 
L 953 1613 
Q 991 1019 1311 708 
Q 1631 397 2203 397 
Q 2534 397 2845 478 
Q 3156 559 3463 722 
L 3463 178 
Q 3153 47 2828 -22 
Q 2503 -91 2169 -91 
Q 1331 -91 842 396 
Q 353 884 353 1716 
Q 353 2575 817 3079 
Q 1281 3584 2069 3584 
Q 2775 3584 3186 3129 
Q 3597 2675 3597 1894 
z
M 3022 2063 
Q 3016 2534 2758 2815 
Q 2500 3097 2075 3097 
Q 1594 3097 1305 2825 
Q 1016 2553 972 2059 
L 3022 2063 
z
" transform="scale(0.015625)"/>
       <path id="DejaVuSans-72" d="M 2631 2963 
Q 2534 3019 2420 3045 
Q 2306 3072 2169 3072 
Q 1681 3072 1420 2755 
Q 1159 2438 1159 1844 
L 1159 0 
L 581 0 
L 581 3500 
L 1159 3500 
L 1159 2956 
Q 1341 3275 1631 3429 
Q 1922 3584 2338 3584 
Q 2397 3584 2469 3576 
Q 2541 3569 2628 3553 
L 2631 2963 
z
" transform="scale(0.015625)"/>
       <path id="DejaVuSans-61" d="M 2194 1759 
Q 1497 1759 1228 1600 
Q 959 1441 959 1056 
Q 959 750 1161 570 
Q 1363 391 1709 391 
Q 2188 391 2477 730 
Q 2766 1069 2766 1631 
L 2766 1759 
L 2194 1759 
z
M 3341 1997 
L 3341 0 
L 2766 0 
L 2766 531 
Q 2569 213 2275 61 
Q 1981 -91 1556 -91 
Q 1019 -91 701 211 
Q 384 513 384 1019 
Q 384 1609 779 1909 
Q 1175 2209 1959 2209 
L 2766 2209 
L 2766 2266 
Q 2766 2663 2505 2880 
Q 2244 3097 1772 3097 
Q 1472 3097 1187 3025 
Q 903 2953 641 2809 
L 641 3341 
Q 956 3463 1253 3523 
Q 1550 3584 1831 3584 
Q 2591 3584 2966 3190 
Q 3341 2797 3341 1997 
z
" transform="scale(0.015625)"/>
       <path id="DejaVuSans-6f" d="M 1959 3097 
Q 1497 3097 1228 2736 
Q 959 2375 959 1747 
Q 959 1119 1226 758 
Q 1494 397 1959 397 
Q 2419 397 2687 759 
Q 2956 1122 2956 1747 
Q 2956 2369 2687 2733 
Q 2419 3097 1959 3097 
z
M 1959 3584 
Q 2709 3584 3137 3096 
Q 3566 2609 3566 1747 
Q 3566 888 3137 398 
Q 2709 -91 1959 -91 
Q 1206 -91 779 398 
Q 353 888 353 1747 
Q 353 2609 779 3096 
Q 1206 3584 1959 3584 
z
" transform="scale(0.015625)"/>
       <path id="DejaVuSans-6e" d="M 3513 2113 
L 3513 0 
L 2938 0 
L 2938 2094 
Q 2938 2591 2744 2837 
Q 2550 3084 2163 3084 
Q 1697 3084 1428 2787 
Q 1159 2491 1159 1978 
L 1159 0 
L 581 0 
L 581 3500 
L 1159 3500 
L 1159 2956 
Q 1366 3272 1645 3428 
Q 1925 3584 2291 3584 
Q 2894 3584 3203 3211 
Q 3513 2838 3513 2113 
z
" transform="scale(0.015625)"/>
       <path id="DejaVuSans-73" d="M 2834 3397 
L 2834 2853 
Q 2591 2978 2328 3040 
Q 2066 3103 1784 3103 
Q 1356 3103 1142 2972 
Q 928 2841 928 2578 
Q 928 2378 1081 2264 
Q 1234 2150 1697 2047 
L 1894 2003 
Q 2506 1872 2764 1633 
Q 3022 1394 3022 966 
Q 3022 478 2636 193 
Q 2250 -91 1575 -91 
Q 1294 -91 989 -36 
Q 684 19 347 128 
L 347 722 
Q 666 556 975 473 
Q 1284 391 1588 391 
Q 1994 391 2212 530 
Q 2431 669 2431 922 
Q 2431 1156 2273 1281 
Q 2116 1406 1581 1522 
L 1381 1569 
Q 847 1681 609 1914 
Q 372 2147 372 2553 
Q 372 3047 722 3315 
Q 1072 3584 1716 3584 
Q 2034 3584 2315 3537 
Q 2597 3491 2834 3397 
z
" transform="scale(0.015625)"/>
      </defs>
      <use xlink:href="#DejaVuSans-23"/>
      <use xlink:href="#DejaVuSans-20" x="83.789062"/>
      <use xlink:href="#DejaVuSans-69" x="115.576172"/>
      <use xlink:href="#DejaVuSans-74" x="143.359375"/>
      <use xlink:href="#DejaVuSans-65" x="182.568359"/>
      <use xlink:href="#DejaVuSans-72" x="244.091797"/>
      <use xlink:href="#DejaVuSans-61" x="285.205078"/>
      <use xlink:href="#DejaVuSans-74" x="346.484375"/>
      <use xlink:href="#DejaVuSans-69" x="385.693359"/>
      <use xlink:href="#DejaVuSans-6f" x="413.476562"/>
      <use xlink:href="#DejaVuSans-6e" x="474.658203"/>
      <use xlink:href="#DejaVuSans-73" x="538.037109"/>
     </g>
    </g>
   </g>
   <g id="matplotlib.axis_2">
    <g id="ytick_1">
     <g id="line2d_17">
      <path d="M 144 442.907864 
L 1036.8 442.907864 
" clip-path="url(#p4af32ac25d)" style="fill: none; stroke: #b0b0b0; stroke-width: 0.8; stroke-linecap: square"/>
     </g>
     <g id="line2d_18">
      <defs>
       <path id="md05f6a8816" d="M 0 0 
L -3.5 0 
" style="stroke: #000000; stroke-width: 0.8"/>
      </defs>
      <g>
       <use xlink:href="#md05f6a8816" x="144" y="442.907864" style="stroke: #000000; stroke-width: 0.8"/>
      </g>
     </g>
     <g id="text_10">
      <!-- $\mathdefault{10^{-3}}$ -->
      <g transform="translate(113.5 446.707083) scale(0.1 -0.1)">
       <defs>
        <path id="DejaVuSans-2212" d="M 678 2272 
L 4684 2272 
L 4684 1741 
L 678 1741 
L 678 2272 
z
" transform="scale(0.015625)"/>
       </defs>
       <use xlink:href="#DejaVuSans-31" transform="translate(0 0.765625)"/>
       <use xlink:href="#DejaVuSans-30" transform="translate(63.623047 0.765625)"/>
       <use xlink:href="#DejaVuSans-2212" transform="translate(128.203125 39.046875) scale(0.7)"/>
       <use xlink:href="#DejaVuSans-33" transform="translate(186.855469 39.046875) scale(0.7)"/>
      </g>
     </g>
    </g>
    <g id="ytick_2">
     <g id="line2d_19">
      <path d="M 144 364.328821 
L 1036.8 364.328821 
" clip-path="url(#p4af32ac25d)" style="fill: none; stroke: #b0b0b0; stroke-width: 0.8; stroke-linecap: square"/>
     </g>
     <g id="line2d_20">
      <g>
       <use xlink:href="#md05f6a8816" x="144" y="364.328821" style="stroke: #000000; stroke-width: 0.8"/>
      </g>
     </g>
     <g id="text_11">
      <!-- $\mathdefault{10^{-1}}$ -->
      <g transform="translate(113.5 368.12804) scale(0.1 -0.1)">
       <use xlink:href="#DejaVuSans-31" transform="translate(0 0.684375)"/>
       <use xlink:href="#DejaVuSans-30" transform="translate(63.623047 0.684375)"/>
       <use xlink:href="#DejaVuSans-2212" transform="translate(128.203125 38.965625) scale(0.7)"/>
       <use xlink:href="#DejaVuSans-31" transform="translate(186.855469 38.965625) scale(0.7)"/>
      </g>
     </g>
    </g>
    <g id="ytick_3">
     <g id="line2d_21">
      <path d="M 144 285.749778 
L 1036.8 285.749778 
" clip-path="url(#p4af32ac25d)" style="fill: none; stroke: #b0b0b0; stroke-width: 0.8; stroke-linecap: square"/>
     </g>
     <g id="line2d_22">
      <g>
       <use xlink:href="#md05f6a8816" x="144" y="285.749778" style="stroke: #000000; stroke-width: 0.8"/>
      </g>
     </g>
     <g id="text_12">
      <!-- $\mathdefault{10^{1}}$ -->
      <g transform="translate(119.4 289.548997) scale(0.1 -0.1)">
       <use xlink:href="#DejaVuSans-31" transform="translate(0 0.684375)"/>
       <use xlink:href="#DejaVuSans-30" transform="translate(63.623047 0.684375)"/>
       <use xlink:href="#DejaVuSans-31" transform="translate(128.203125 38.965625) scale(0.7)"/>
      </g>
     </g>
    </g>
    <g id="ytick_4">
     <g id="line2d_23">
      <path d="M 144 207.170735 
L 1036.8 207.170735 
" clip-path="url(#p4af32ac25d)" style="fill: none; stroke: #b0b0b0; stroke-width: 0.8; stroke-linecap: square"/>
     </g>
     <g id="line2d_24">
      <g>
       <use xlink:href="#md05f6a8816" x="144" y="207.170735" style="stroke: #000000; stroke-width: 0.8"/>
      </g>
     </g>
     <g id="text_13">
      <!-- $\mathdefault{10^{3}}$ -->
      <g transform="translate(119.4 210.969954) scale(0.1 -0.1)">
       <use xlink:href="#DejaVuSans-31" transform="translate(0 0.765625)"/>
       <use xlink:href="#DejaVuSans-30" transform="translate(63.623047 0.765625)"/>
       <use xlink:href="#DejaVuSans-33" transform="translate(128.203125 39.046875) scale(0.7)"/>
      </g>
     </g>
    </g>
    <g id="ytick_5">
     <g id="line2d_25">
      <path d="M 144 128.591692 
L 1036.8 128.591692 
" clip-path="url(#p4af32ac25d)" style="fill: none; stroke: #b0b0b0; stroke-width: 0.8; stroke-linecap: square"/>
     </g>
     <g id="line2d_26">
      <g>
       <use xlink:href="#md05f6a8816" x="144" y="128.591692" style="stroke: #000000; stroke-width: 0.8"/>
      </g>
     </g>
     <g id="text_14">
      <!-- $\mathdefault{10^{5}}$ -->
      <g transform="translate(119.4 132.39091) scale(0.1 -0.1)">
       <use xlink:href="#DejaVuSans-31" transform="translate(0 0.684375)"/>
       <use xlink:href="#DejaVuSans-30" transform="translate(63.623047 0.684375)"/>
       <use xlink:href="#DejaVuSans-35" transform="translate(128.203125 38.965625) scale(0.7)"/>
      </g>
     </g>
    </g>
    <g id="text_15">
     <!-- 2-norm of residual -->
     <g transform="translate(107.420312 336.738594) rotate(-90) scale(0.1 -0.1)">
      <defs>
       <path id="DejaVuSans-2d" d="M 313 2009 
L 1997 2009 
L 1997 1497 
L 313 1497 
L 313 2009 
z
" transform="scale(0.015625)"/>
       <path id="DejaVuSans-6d" d="M 3328 2828 
Q 3544 3216 3844 3400 
Q 4144 3584 4550 3584 
Q 5097 3584 5394 3201 
Q 5691 2819 5691 2113 
L 5691 0 
L 5113 0 
L 5113 2094 
Q 5113 2597 4934 2840 
Q 4756 3084 4391 3084 
Q 3944 3084 3684 2787 
Q 3425 2491 3425 1978 
L 3425 0 
L 2847 0 
L 2847 2094 
Q 2847 2600 2669 2842 
Q 2491 3084 2119 3084 
Q 1678 3084 1418 2786 
Q 1159 2488 1159 1978 
L 1159 0 
L 581 0 
L 581 3500 
L 1159 3500 
L 1159 2956 
Q 1356 3278 1631 3431 
Q 1906 3584 2284 3584 
Q 2666 3584 2933 3390 
Q 3200 3197 3328 2828 
z
" transform="scale(0.015625)"/>
       <path id="DejaVuSans-66" d="M 2375 4863 
L 2375 4384 
L 1825 4384 
Q 1516 4384 1395 4259 
Q 1275 4134 1275 3809 
L 1275 3500 
L 2222 3500 
L 2222 3053 
L 1275 3053 
L 1275 0 
L 697 0 
L 697 3053 
L 147 3053 
L 147 3500 
L 697 3500 
L 697 3744 
Q 697 4328 969 4595 
Q 1241 4863 1831 4863 
L 2375 4863 
z
" transform="scale(0.015625)"/>
       <path id="DejaVuSans-64" d="M 2906 2969 
L 2906 4863 
L 3481 4863 
L 3481 0 
L 2906 0 
L 2906 525 
Q 2725 213 2448 61 
Q 2172 -91 1784 -91 
Q 1150 -91 751 415 
Q 353 922 353 1747 
Q 353 2572 751 3078 
Q 1150 3584 1784 3584 
Q 2172 3584 2448 3432 
Q 2725 3281 2906 2969 
z
M 947 1747 
Q 947 1113 1208 752 
Q 1469 391 1925 391 
Q 2381 391 2643 752 
Q 2906 1113 2906 1747 
Q 2906 2381 2643 2742 
Q 2381 3103 1925 3103 
Q 1469 3103 1208 2742 
Q 947 2381 947 1747 
z
" transform="scale(0.015625)"/>
       <path id="DejaVuSans-75" d="M 544 1381 
L 544 3500 
L 1119 3500 
L 1119 1403 
Q 1119 906 1312 657 
Q 1506 409 1894 409 
Q 2359 409 2629 706 
Q 2900 1003 2900 1516 
L 2900 3500 
L 3475 3500 
L 3475 0 
L 2900 0 
L 2900 538 
Q 2691 219 2414 64 
Q 2138 -91 1772 -91 
Q 1169 -91 856 284 
Q 544 659 544 1381 
z
M 1991 3584 
L 1991 3584 
z
" transform="scale(0.015625)"/>
       <path id="DejaVuSans-6c" d="M 603 4863 
L 1178 4863 
L 1178 0 
L 603 0 
L 603 4863 
z
" transform="scale(0.015625)"/>
      </defs>
      <use xlink:href="#DejaVuSans-32"/>
      <use xlink:href="#DejaVuSans-2d" x="63.623047"/>
      <use xlink:href="#DejaVuSans-6e" x="99.707031"/>
      <use xlink:href="#DejaVuSans-6f" x="163.085938"/>
      <use xlink:href="#DejaVuSans-72" x="224.267578"/>
      <use xlink:href="#DejaVuSans-6d" x="263.630859"/>
      <use xlink:href="#DejaVuSans-20" x="361.042969"/>
      <use xlink:href="#DejaVuSans-6f" x="392.830078"/>
      <use xlink:href="#DejaVuSans-66" x="454.011719"/>
      <use xlink:href="#DejaVuSans-20" x="489.216797"/>
      <use xlink:href="#DejaVuSans-72" x="521.003906"/>
      <use xlink:href="#DejaVuSans-65" x="559.867188"/>
      <use xlink:href="#DejaVuSans-73" x="621.390625"/>
      <use xlink:href="#DejaVuSans-69" x="673.490234"/>
      <use xlink:href="#DejaVuSans-64" x="701.273438"/>
      <use xlink:href="#DejaVuSans-75" x="764.75"/>
      <use xlink:href="#DejaVuSans-61" x="828.128906"/>
      <use xlink:href="#DejaVuSans-6c" x="889.408203"/>
     </g>
    </g>
   </g>
   <g id="line2d_27">
    <path d="M 184.581818 89.302153 
L 186.817731 112.956643 
L 189.053644 122.505079 
L 191.289557 128.590477 
L 193.52547 133.066376 
L 195.761382 136.60824 
L 197.997295 139.539156 
L 200.233208 142.039003 
L 202.469121 144.218282 
L 204.705034 146.149764 
L 206.940947 147.883923 
L 211.412772 150.896794 
L 215.884598 153.45359 
L 220.356424 155.673446 
L 224.828249 157.634004 
L 229.300075 159.388685 
L 236.007814 161.715726 
L 242.715552 163.754377 
L 249.423291 165.565939 
L 258.366942 167.701177 
L 267.310594 169.580669 
L 276.254245 171.250068 
L 280.726071 171.956806 
L 282.961983 172.147406 
L 287.433809 172.04785 
L 291.905635 173.463374 
L 294.141548 173.951891 
L 300.849286 174.958354 
L 314.264763 176.672886 
L 329.916153 178.413751 
L 345.567543 179.923899 
L 363.454846 181.41368 
L 381.342149 182.681621 
L 385.813974 182.856465 
L 388.049887 182.711991 
L 390.2858 182.351611 
L 392.521713 182.456368 
L 394.757626 183.066182 
L 396.993539 183.485607 
L 401.465364 183.857465 
L 419.352667 184.785903 
L 441.711796 185.740757 
L 466.306837 186.572348 
L 486.430053 187.088942 
L 490.901878 187.000571 
L 495.373704 186.293662 
L 497.609617 186.618095 
L 499.84553 187.109621 
L 502.081443 187.343951 
L 508.789181 187.539187 
L 537.856048 187.93625 
L 580.338392 188.459069 
L 593.753869 188.774682 
L 595.989782 188.596228 
L 598.225695 188.189537 
L 600.461608 188.187891 
L 602.697521 188.751502 
L 604.933434 189.158256 
L 609.405259 189.486753 
L 642.943952 191.245651 
L 678.718557 193.422426 
L 696.60586 194.485942 
L 698.841773 194.443105 
L 701.077686 194.137775 
L 703.313599 193.95785 
L 707.785424 195.011809 
L 712.25725 195.492513 
L 734.616379 196.918425 
L 783.806461 199.88001 
L 799.457851 200.72371 
L 801.693764 200.73244 
L 803.929677 200.516535 
L 806.16559 200.161805 
L 808.401503 200.405896 
L 810.637415 201.002026 
L 812.873328 201.361642 
L 817.345154 201.693532 
L 846.412021 203.199295 
L 891.130278 205.318425 
L 904.545755 205.831996 
L 906.781668 205.710012 
L 909.017581 205.333903 
L 911.253494 205.229355 
L 915.725319 206.252722 
L 924.668971 207.399677 
L 926.904884 207.987949 
L 929.140796 208.877573 
L 931.376709 210.190851 
L 933.612622 212.057283 
L 935.848535 214.593181 
L 938.084448 217.879626 
L 940.320361 221.950517 
L 942.556273 226.794472 
L 944.792186 232.369003 
L 947.028099 238.617365 
L 949.264012 245.481904 
L 951.499925 252.911143 
L 953.735838 260.861882 
L 955.971751 269.298881 
L 960.443576 287.520794 
L 964.915402 307.39761 
L 969.387228 328.797104 
L 973.859053 351.615822 
L 978.330879 375.769522 
L 982.802705 401.187703 
L 987.27453 427.810158 
L 991.746356 455.584637 
L 996.218182 484.46453 
L 996.218182 484.46453 
" clip-path="url(#p4af32ac25d)" style="fill: none; stroke: #1f77b4; stroke-width: 1.5; stroke-linecap: square"/>
   </g>
   <g id="line2d_28">
    <path d="M 184.581818 89.302151 
L 186.817731 112.956632 
L 189.053644 122.50504 
L 191.289557 128.590399 
L 193.52547 133.066242 
L 195.761382 136.608036 
L 197.997295 139.538867 
L 200.233208 142.038614 
L 202.469121 144.217777 
L 204.705034 146.149127 
L 206.940947 147.883138 
L 211.412772 150.895663 
L 215.884598 153.452047 
L 220.356424 155.671423 
L 224.828249 157.63143 
L 229.300075 159.38549 
L 236.007814 161.711465 
L 242.715552 163.748886 
L 249.423291 165.559052 
L 258.366942 167.692168 
L 267.310594 169.569253 
L 276.254245 171.238513 
L 280.726071 171.980488 
L 282.961983 172.266259 
L 285.197896 172.355023 
L 287.433809 172.195476 
L 289.669722 172.433998 
L 291.905635 173.225732 
L 294.141548 173.856387 
L 298.613373 174.61983 
L 309.792938 176.100103 
L 323.208415 177.666121 
L 338.859805 179.262532 
L 356.747107 180.8331 
L 374.63441 182.176041 
L 385.813974 182.891824 
L 388.049887 182.964403 
L 390.2858 182.876779 
L 392.521713 182.530275 
L 394.757626 182.453183 
L 399.229452 183.499398 
L 403.701277 183.904938 
L 419.352667 184.706018 
L 441.711796 185.651773 
L 466.306837 186.476104 
L 490.901878 187.0893 
L 493.137791 187.092701 
L 495.373704 186.979856 
L 499.84553 186.279279 
L 502.081443 186.639469 
L 504.317355 187.114707 
L 506.553268 187.33326 
L 513.261007 187.515354 
L 542.327874 187.889265 
L 575.866566 188.27958 
L 593.753869 188.828701 
L 600.461608 188.966359 
L 602.697521 188.763595 
L 604.933434 188.366884 
L 607.169346 188.478361 
L 609.405259 189.061701 
L 611.641172 189.442794 
L 616.112998 189.76942 
L 649.65169 191.635091 
L 692.134035 194.307082 
L 705.549512 195.066523 
L 707.785424 194.95523 
L 710.021337 194.603988 
L 712.25725 194.629784 
L 714.493163 195.236811 
L 716.729076 195.69915 
L 721.200902 196.12156 
L 750.267769 197.965091 
L 794.986026 200.62825 
L 810.637415 201.413448 
L 812.873328 201.31047 
L 815.109241 200.951518 
L 817.345154 200.870259 
L 821.81698 201.902295 
L 826.288805 202.298619 
L 848.647934 203.467935 
L 895.602104 205.726985 
L 915.725319 206.625247 
L 917.961232 206.590991 
L 920.197145 206.33931 
L 922.433058 206.303492 
L 924.668971 207.068018 
L 929.140796 209.073443 
L 931.376709 210.427385 
L 933.612622 212.305162 
L 935.848535 214.844798 
L 938.084448 218.132847 
L 940.320361 222.20458 
L 942.556273 227.049004 
L 944.792186 232.623793 
L 947.028099 238.872291 
L 949.264012 245.7369 
L 951.499925 253.166175 
L 953.735838 261.116935 
L 955.971751 269.553947 
L 960.443576 287.775877 
L 964.915402 307.652706 
L 969.387228 329.05221 
L 973.859053 351.870938 
L 978.330879 376.024647 
L 982.802705 401.442835 
L 987.27453 428.0653 
L 991.746356 455.839825 
L 996.218182 484.72054 
L 996.218182 484.72054 
" clip-path="url(#p4af32ac25d)" style="fill: none; stroke: #ff7f0e; stroke-width: 1.5; stroke-linecap: square"/>
   </g>
   <g id="line2d_29">
    <path d="M 184.581818 89.302136 
L 186.817731 112.956516 
L 189.053644 122.504652 
L 191.289557 128.589612 
L 193.52547 133.0649 
L 195.761382 136.605991 
L 197.997295 139.535963 
L 200.233208 142.034695 
L 202.469121 144.212682 
L 204.705034 146.142694 
L 206.940947 147.875203 
L 211.412772 150.88422 
L 215.884598 153.436409 
L 220.356424 155.650886 
L 224.828249 157.605277 
L 229.300075 159.35299 
L 236.007814 161.668053 
L 242.715552 163.692868 
L 249.423291 165.488719 
L 258.366942 167.600084 
L 267.310594 169.452404 
L 276.254245 171.095824 
L 287.433809 172.905209 
L 291.905635 173.490257 
L 294.141548 173.599891 
L 296.377461 173.434077 
L 298.613373 173.458137 
L 303.085199 174.810859 
L 307.557025 175.546131 
L 318.736589 176.857157 
L 334.387979 178.447021 
L 350.039369 179.813483 
L 367.926672 181.147133 
L 388.049887 182.405072 
L 405.93719 183.320269 
L 408.173103 183.361883 
L 410.409016 183.247083 
L 412.644929 182.873489 
L 414.880841 182.756222 
L 419.352667 183.745027 
L 423.824493 184.095694 
L 441.711796 184.786444 
L 468.54275 185.615921 
L 499.84553 186.359211 
L 526.676484 186.824972 
L 528.912397 186.781484 
L 531.14831 186.558729 
L 533.384222 186.10467 
L 535.620135 186.049728 
L 537.856048 186.559317 
L 540.091961 186.90897 
L 544.563787 187.107908 
L 578.102479 187.780505 
L 593.753869 188.414811 
L 611.641172 189.346476 
L 636.236213 190.867236 
L 642.943952 191.22703 
L 645.179865 191.155396 
L 647.415778 190.826911 
L 649.65169 190.765164 
L 654.123516 191.860887 
L 658.595342 192.332766 
L 705.549512 195.708942 
L 759.21142 199.462178 
L 763.683246 199.576484 
L 768.155071 199.058859 
L 770.390984 199.468284 
L 772.626897 200.06118 
L 774.86281 200.401781 
L 781.570548 200.918367 
L 824.052893 203.611416 
L 873.242975 206.517177 
L 879.950714 206.773323 
L 882.186627 206.602735 
L 884.422539 206.234609 
L 886.658452 206.370903 
L 888.894365 206.977559 
L 891.130278 207.380373 
L 895.602104 207.745395 
L 917.961232 209.134921 
L 922.433058 209.694312 
L 924.668971 210.166217 
L 926.904884 210.86882 
L 929.140796 211.910003 
L 931.376709 213.415414 
L 933.612622 215.51202 
L 935.848535 218.306151 
L 938.084448 221.864095 
L 940.320361 226.204211 
L 942.556273 231.303813 
L 944.792186 237.114535 
L 947.028099 243.578911 
L 949.264012 250.64113 
L 951.499925 258.25276 
L 953.735838 266.3734 
L 955.971751 274.970209 
L 960.443576 293.488216 
L 964.915402 313.63723 
L 969.387228 335.290737 
L 973.859053 358.348949 
L 978.330879 382.729949 
L 982.802705 408.360366 
L 996.218182 487.490762 
L 996.218182 487.490762 
" clip-path="url(#p4af32ac25d)" style="fill: none; stroke: #2ca02c; stroke-width: 1.5; stroke-linecap: square"/>
   </g>
   <g id="line2d_30">
    <path d="M 184.581818 89.301982 
L 186.817731 112.955339 
L 189.053644 122.500675 
L 191.289557 128.58146 
L 193.52547 133.050842 
L 195.761382 136.584368 
L 197.997295 139.504972 
L 200.233208 141.992507 
L 202.469121 144.157388 
L 204.705034 146.072335 
L 206.940947 147.787761 
L 209.17686 149.340062 
L 213.648685 152.05744 
L 218.120511 154.375572 
L 222.592337 156.389617 
L 227.064162 158.163407 
L 231.535988 159.74186 
L 238.243727 161.812853 
L 244.951465 163.595811 
L 251.659204 165.145677 
L 258.366942 166.502317 
L 267.310594 168.061682 
L 276.254245 169.384499 
L 285.197896 170.491397 
L 287.433809 170.68691 
L 289.669722 170.728061 
L 291.905635 170.494396 
L 294.141548 170.441721 
L 298.613373 171.647987 
L 303.085199 172.228658 
L 314.264763 173.132201 
L 329.916153 174.148512 
L 347.803456 175.079254 
L 374.63441 176.222406 
L 401.465364 177.228499 
L 403.701277 177.176339 
L 408.173103 176.545853 
L 410.409016 176.888191 
L 412.644929 177.432811 
L 414.880841 177.725211 
L 421.58858 178.090386 
L 452.89136 179.592179 
L 479.722314 181.122097 
L 506.553268 182.89422 
L 528.912397 184.393605 
L 531.14831 184.227763 
L 533.384222 183.920819 
L 535.620135 184.210492 
L 537.856048 184.86006 
L 540.091961 185.277952 
L 544.563787 185.733425 
L 569.158828 187.900477 
L 584.810218 189.586994 
L 607.169346 192.245742 
L 640.708039 196.254951 
L 642.943952 196.235128 
L 645.179865 196.000892 
L 647.415778 196.244004 
L 649.65169 196.984079 
L 651.887603 197.535628 
L 656.359429 198.19086 
L 680.95447 201.123706 
L 718.964989 205.45045 
L 750.267769 208.849266 
L 752.503681 209.030213 
L 754.739594 209.065634 
L 756.975507 208.834923 
L 759.21142 208.792884 
L 763.683246 210.041091 
L 768.155071 210.694818 
L 794.986026 213.565302 
L 853.11976 219.867052 
L 871.007062 221.83378 
L 873.242975 221.927178 
L 877.714801 221.628369 
L 879.950714 222.191575 
L 882.186627 222.874232 
L 884.422539 223.31033 
L 891.130278 224.176456 
L 913.489406 226.977451 
L 920.197145 228.032741 
L 922.433058 228.516534 
L 924.668971 229.144362 
L 926.904884 229.995994 
L 929.140796 231.174889 
L 931.376709 232.801734 
L 933.612622 234.999128 
L 935.848535 237.87104 
L 938.084448 241.484361 
L 940.320361 245.860787 
L 942.556273 250.98245 
L 944.792186 256.805773 
L 947.028099 263.277088 
L 949.264012 270.343131 
L 951.499925 277.956981 
L 953.735838 286.079043 
L 955.971751 294.676881 
L 960.443576 313.19642 
L 964.915402 333.346649 
L 969.387228 355.0012 
L 973.859053 378.060257 
L 978.330879 402.440308 
L 982.802705 428.035941 
L 987.27453 454.156599 
L 991.746356 478.809815 
L 993.982269 492.48 
L 993.982269 492.48 
" clip-path="url(#p4af32ac25d)" style="fill: none; stroke: #d62728; stroke-width: 1.5; stroke-linecap: square"/>
   </g>
   <g id="line2d_31">
    <path d="M 184.581818 89.300393 
L 186.817731 112.942046 
L 189.053644 122.450962 
L 191.289557 128.471418 
L 193.52547 132.847953 
L 195.761382 136.254058 
L 197.997295 139.007937 
L 200.233208 141.287338 
L 202.469121 143.200423 
L 204.705034 144.819119 
L 206.940947 146.193698 
L 209.17686 147.361509 
L 211.412772 148.351447 
L 213.648685 149.186913 
L 215.884598 149.887496 
L 220.356424 150.949701 
L 224.828249 151.652273 
L 229.300075 152.089022 
L 236.007814 152.415061 
L 247.187378 152.57981 
L 256.131029 152.753229 
L 262.838768 153.047974 
L 269.546506 153.536068 
L 276.254245 154.235422 
L 282.961983 155.142497 
L 289.669722 156.136575 
L 291.905635 156.279209 
L 294.141548 156.186194 
L 296.377461 156.485783 
L 300.849286 158.152162 
L 305.321112 159.258622 
L 316.500676 161.907959 
L 329.916153 165.329122 
L 352.275282 171.308207 
L 396.993539 183.300773 
L 401.465364 184.418557 
L 403.701277 184.833496 
L 408.173103 185.14363 
L 410.409016 186.00714 
L 412.644929 186.991498 
L 414.880841 187.738672 
L 421.58858 189.544246 
L 459.599098 199.296385 
L 513.261007 212.834072 
L 515.49692 213.241757 
L 519.968745 213.504228 
L 522.204658 214.309528 
L 524.440571 215.292125 
L 526.676484 216.037256 
L 533.384222 217.809424 
L 571.394741 227.583931 
L 598.225695 234.610314 
L 620.584823 240.234145 
L 627.292562 241.835259 
L 629.528475 242.242799 
L 634.000301 242.460895 
L 636.236213 243.180506 
L 638.472126 244.158133 
L 640.708039 244.900578 
L 647.415778 246.606469 
L 718.964989 264.078983 
L 748.031856 271.336899 
L 750.267769 271.73846 
L 754.739594 272.018733 
L 756.975507 272.861266 
L 759.21142 273.840882 
L 761.447333 274.584317 
L 768.155071 276.382938 
L 799.457851 284.638775 
L 824.052893 291.344121 
L 846.412021 297.662296 
L 859.827498 301.522944 
L 862.063411 302.020938 
L 866.535237 302.482363 
L 868.77115 303.409327 
L 871.007062 304.491625 
L 875.478888 306.081318 
L 895.602104 312.53362 
L 906.781668 316.348222 
L 915.725319 319.610584 
L 920.197145 321.426516 
L 922.433058 322.449253 
L 924.668971 323.607466 
L 926.904884 324.969583 
L 929.140796 326.624207 
L 931.376709 328.675381 
L 933.612622 331.230795 
L 935.848535 334.385691 
L 938.084448 338.207467 
L 940.320361 342.72726 
L 942.556273 347.94195 
L 944.792186 353.8234 
L 947.028099 360.33077 
L 949.264012 367.41986 
L 951.499925 375.049422 
L 953.735838 383.183109 
L 955.971751 391.790233 
L 960.443576 410.324364 
L 964.915402 430.481992 
L 969.387228 452.059384 
L 973.859053 473.897895 
L 976.094966 484.267711 
L 976.094966 484.267711 
" clip-path="url(#p4af32ac25d)" style="fill: none; stroke: #9467bd; stroke-width: 1.5; stroke-linecap: square"/>
   </g>
   <g id="line2d_32">
    <path d="M 184.581818 89.28 
L 186.817731 112.660166 
L 189.053644 121.035853 
L 191.289557 124.99913 
L 193.52547 126.382396 
L 195.761382 126.301056 
L 197.997295 125.463713 
L 200.233208 124.42605 
L 202.469121 123.537718 
L 204.705034 123.020233 
L 206.940947 122.980871 
L 209.17686 123.445365 
L 211.412772 124.378595 
L 213.648685 125.710149 
L 215.884598 127.35537 
L 218.120511 129.231389 
L 222.592337 133.400919 
L 238.243727 148.653656 
L 244.951465 154.771108 
L 251.659204 160.588011 
L 258.366942 166.155116 
L 267.310594 173.284322 
L 278.490158 181.875199 
L 285.197896 186.799771 
L 287.433809 188.169434 
L 289.669722 189.232097 
L 291.905635 190.634561 
L 296.377461 194.556862 
L 300.849286 197.969333 
L 325.444328 216.004914 
L 392.521713 264.888532 
L 394.757626 266.262073 
L 396.993539 267.320446 
L 399.229452 268.600248 
L 403.701277 272.47456 
L 408.173103 275.877964 
L 464.070924 316.7974 
L 499.84553 342.929951 
L 502.081443 344.340628 
L 506.553268 346.641857 
L 513.261007 352.264312 
L 524.440571 360.507216 
L 582.574305 403.000922 
L 607.169346 420.741602 
L 609.405259 422.164829 
L 613.877085 424.417015 
L 622.820736 431.667041 
L 692.134035 482.563567 
L 692.134035 482.563567 
" clip-path="url(#p4af32ac25d)" style="fill: none; stroke: #8c564b; stroke-width: 1.5; stroke-linecap: square"/>
   </g>
   <g id="patch_3">
    <path d="M 144 512.64 
L 144 69.12 
" style="fill: none; stroke: #000000; stroke-width: 0.8; stroke-linejoin: miter; stroke-linecap: square"/>
   </g>
   <g id="patch_4">
    <path d="M 1036.8 512.64 
L 1036.8 69.12 
" style="fill: none; stroke: #000000; stroke-width: 0.8; stroke-linejoin: miter; stroke-linecap: square"/>
   </g>
   <g id="patch_5">
    <path d="M 144 512.64 
L 1036.8 512.64 
" style="fill: none; stroke: #000000; stroke-width: 0.8; stroke-linejoin: miter; stroke-linecap: square"/>
   </g>
   <g id="patch_6">
    <path d="M 144 69.12 
L 1036.8 69.12 
" style="fill: none; stroke: #000000; stroke-width: 0.8; stroke-linejoin: miter; stroke-linecap: square"/>
   </g>
   <g id="legend_1">
    <g id="patch_7">
     <path d="M 784.8 165.18875 
L 1029.8 165.18875 
Q 1031.8 165.18875 1031.8 163.18875 
L 1031.8 76.12 
Q 1031.8 74.12 1029.8 74.12 
L 784.8 74.12 
Q 782.8 74.12 782.8 76.12 
L 782.8 163.18875 
Q 782.8 165.18875 784.8 165.18875 
z
" style="fill: #ffffff; opacity: 0.8; stroke: #cccccc; stroke-linejoin: miter"/>
    </g>
    <g id="line2d_33">
     <path d="M 786.8 82.218438 
L 796.8 82.218438 
L 806.8 82.218438 
" style="fill: none; stroke: #1f77b4; stroke-width: 1.5; stroke-linecap: square"/>
    </g>
    <g id="text_16">
     <!-- PCG: $(c,h)=(0.01, 0.001), \kappa_2=5.19E+04$ -->
     <g transform="translate(814.8 85.718438) scale(0.1 -0.1)">
      <defs>
       <path id="DejaVuSans-50" d="M 1259 4147 
L 1259 2394 
L 2053 2394 
Q 2494 2394 2734 2622 
Q 2975 2850 2975 3272 
Q 2975 3691 2734 3919 
Q 2494 4147 2053 4147 
L 1259 4147 
z
M 628 4666 
L 2053 4666 
Q 2838 4666 3239 4311 
Q 3641 3956 3641 3272 
Q 3641 2581 3239 2228 
Q 2838 1875 2053 1875 
L 1259 1875 
L 1259 0 
L 628 0 
L 628 4666 
z
" transform="scale(0.015625)"/>
       <path id="DejaVuSans-43" d="M 4122 4306 
L 4122 3641 
Q 3803 3938 3442 4084 
Q 3081 4231 2675 4231 
Q 1875 4231 1450 3742 
Q 1025 3253 1025 2328 
Q 1025 1406 1450 917 
Q 1875 428 2675 428 
Q 3081 428 3442 575 
Q 3803 722 4122 1019 
L 4122 359 
Q 3791 134 3420 21 
Q 3050 -91 2638 -91 
Q 1578 -91 968 557 
Q 359 1206 359 2328 
Q 359 3453 968 4101 
Q 1578 4750 2638 4750 
Q 3056 4750 3426 4639 
Q 3797 4528 4122 4306 
z
" transform="scale(0.015625)"/>
       <path id="DejaVuSans-47" d="M 3809 666 
L 3809 1919 
L 2778 1919 
L 2778 2438 
L 4434 2438 
L 4434 434 
Q 4069 175 3628 42 
Q 3188 -91 2688 -91 
Q 1594 -91 976 548 
Q 359 1188 359 2328 
Q 359 3472 976 4111 
Q 1594 4750 2688 4750 
Q 3144 4750 3555 4637 
Q 3966 4525 4313 4306 
L 4313 3634 
Q 3963 3931 3569 4081 
Q 3175 4231 2741 4231 
Q 1884 4231 1454 3753 
Q 1025 3275 1025 2328 
Q 1025 1384 1454 906 
Q 1884 428 2741 428 
Q 3075 428 3337 486 
Q 3600 544 3809 666 
z
" transform="scale(0.015625)"/>
       <path id="DejaVuSans-3a" d="M 750 794 
L 1409 794 
L 1409 0 
L 750 0 
L 750 794 
z
M 750 3309 
L 1409 3309 
L 1409 2516 
L 750 2516 
L 750 3309 
z
" transform="scale(0.015625)"/>
       <path id="DejaVuSans-28" d="M 1984 4856 
Q 1566 4138 1362 3434 
Q 1159 2731 1159 2009 
Q 1159 1288 1364 580 
Q 1569 -128 1984 -844 
L 1484 -844 
Q 1016 -109 783 600 
Q 550 1309 550 2009 
Q 550 2706 781 3412 
Q 1013 4119 1484 4856 
L 1984 4856 
z
" transform="scale(0.015625)"/>
       <path id="DejaVuSans-Oblique-63" d="M 3431 3366 
L 3316 2797 
Q 3109 2947 2876 3022 
Q 2644 3097 2394 3097 
Q 2119 3097 1870 3000 
Q 1622 2903 1453 2725 
Q 1184 2453 1037 2087 
Q 891 1722 891 1331 
Q 891 859 1127 628 
Q 1363 397 1844 397 
Q 2081 397 2348 469 
Q 2616 541 2906 684 
L 2797 116 
Q 2547 13 2283 -39 
Q 2019 -91 1741 -91 
Q 1044 -91 669 257 
Q 294 606 294 1253 
Q 294 1797 489 2255 
Q 684 2713 1069 3078 
Q 1331 3328 1684 3456 
Q 2038 3584 2456 3584 
Q 2700 3584 2940 3529 
Q 3181 3475 3431 3366 
z
" transform="scale(0.015625)"/>
       <path id="DejaVuSans-2c" d="M 750 794 
L 1409 794 
L 1409 256 
L 897 -744 
L 494 -744 
L 750 256 
L 750 794 
z
" transform="scale(0.015625)"/>
       <path id="DejaVuSans-Oblique-68" d="M 3566 2113 
L 3156 0 
L 2578 0 
L 2988 2091 
Q 3016 2238 3031 2350 
Q 3047 2463 3047 2528 
Q 3047 2791 2881 2937 
Q 2716 3084 2419 3084 
Q 1956 3084 1617 2771 
Q 1278 2459 1178 1941 
L 800 0 
L 225 0 
L 1172 4863 
L 1747 4863 
L 1375 2950 
Q 1594 3244 1934 3414 
Q 2275 3584 2650 3584 
Q 3113 3584 3367 3334 
Q 3622 3084 3622 2631 
Q 3622 2519 3608 2391 
Q 3594 2263 3566 2113 
z
" transform="scale(0.015625)"/>
       <path id="DejaVuSans-29" d="M 513 4856 
L 1013 4856 
Q 1481 4119 1714 3412 
Q 1947 2706 1947 2009 
Q 1947 1309 1714 600 
Q 1481 -109 1013 -844 
L 513 -844 
Q 928 -128 1133 580 
Q 1338 1288 1338 2009 
Q 1338 2731 1133 3434 
Q 928 4138 513 4856 
z
" transform="scale(0.015625)"/>
       <path id="DejaVuSans-3d" d="M 678 2906 
L 4684 2906 
L 4684 2381 
L 678 2381 
L 678 2906 
z
M 678 1631 
L 4684 1631 
L 4684 1100 
L 678 1100 
L 678 1631 
z
" transform="scale(0.015625)"/>
       <path id="DejaVuSans-2e" d="M 684 794 
L 1344 794 
L 1344 0 
L 684 0 
L 684 794 
z
" transform="scale(0.015625)"/>
       <path id="DejaVuSans-Oblique-3ba" d="M 938 3500 
L 1531 3500 
L 1247 2047 
L 3041 3500 
L 3741 3500 
L 2106 2181 
L 3275 0 
L 2572 0 
L 1628 1806 
L 1122 1403 
L 850 0 
L 256 0 
L 938 3500 
z
" transform="scale(0.015625)"/>
       <path id="DejaVuSans-39" d="M 703 97 
L 703 672 
Q 941 559 1184 500 
Q 1428 441 1663 441 
Q 2288 441 2617 861 
Q 2947 1281 2994 2138 
Q 2813 1869 2534 1725 
Q 2256 1581 1919 1581 
Q 1219 1581 811 2004 
Q 403 2428 403 3163 
Q 403 3881 828 4315 
Q 1253 4750 1959 4750 
Q 2769 4750 3195 4129 
Q 3622 3509 3622 2328 
Q 3622 1225 3098 567 
Q 2575 -91 1691 -91 
Q 1453 -91 1209 -44 
Q 966 3 703 97 
z
M 1959 2075 
Q 2384 2075 2632 2365 
Q 2881 2656 2881 3163 
Q 2881 3666 2632 3958 
Q 2384 4250 1959 4250 
Q 1534 4250 1286 3958 
Q 1038 3666 1038 3163 
Q 1038 2656 1286 2365 
Q 1534 2075 1959 2075 
z
" transform="scale(0.015625)"/>
       <path id="DejaVuSans-Oblique-45" d="M 1081 4666 
L 4031 4666 
L 3928 4134 
L 1606 4134 
L 1338 2753 
L 3566 2753 
L 3463 2222 
L 1234 2222 
L 909 531 
L 3284 531 
L 3181 0 
L 172 0 
L 1081 4666 
z
" transform="scale(0.015625)"/>
       <path id="DejaVuSans-2b" d="M 2944 4013 
L 2944 2272 
L 4684 2272 
L 4684 1741 
L 2944 1741 
L 2944 0 
L 2419 0 
L 2419 1741 
L 678 1741 
L 678 2272 
L 2419 2272 
L 2419 4013 
L 2944 4013 
z
" transform="scale(0.015625)"/>
       <path id="DejaVuSans-34" d="M 2419 4116 
L 825 1625 
L 2419 1625 
L 2419 4116 
z
M 2253 4666 
L 3047 4666 
L 3047 1625 
L 3713 1625 
L 3713 1100 
L 3047 1100 
L 3047 0 
L 2419 0 
L 2419 1100 
L 313 1100 
L 313 1709 
L 2253 4666 
z
" transform="scale(0.015625)"/>
      </defs>
      <use xlink:href="#DejaVuSans-50" transform="translate(0 0.015625)"/>
      <use xlink:href="#DejaVuSans-43" transform="translate(60.302734 0.015625)"/>
      <use xlink:href="#DejaVuSans-47" transform="translate(130.126953 0.015625)"/>
      <use xlink:href="#DejaVuSans-3a" transform="translate(207.617188 0.015625)"/>
      <use xlink:href="#DejaVuSans-20" transform="translate(241.308594 0.015625)"/>
      <use xlink:href="#DejaVuSans-28" transform="translate(273.095703 0.015625)"/>
      <use xlink:href="#DejaVuSans-Oblique-63" transform="translate(312.109375 0.015625)"/>
      <use xlink:href="#DejaVuSans-2c" transform="translate(367.089844 0.015625)"/>
      <use xlink:href="#DejaVuSans-Oblique-68" transform="translate(418.359375 0.015625)"/>
      <use xlink:href="#DejaVuSans-29" transform="translate(481.738281 0.015625)"/>
      <use xlink:href="#DejaVuSans-3d" transform="translate(540.234375 0.015625)"/>
      <use xlink:href="#DejaVuSans-28" transform="translate(643.505859 0.015625)"/>
      <use xlink:href="#DejaVuSans-30" transform="translate(682.519531 0.015625)"/>
      <use xlink:href="#DejaVuSans-2e" transform="translate(746.142578 0.015625)"/>
      <use xlink:href="#DejaVuSans-30" transform="translate(777.929688 0.015625)"/>
      <use xlink:href="#DejaVuSans-31" transform="translate(841.552734 0.015625)"/>
      <use xlink:href="#DejaVuSans-2c" transform="translate(905.175781 0.015625)"/>
      <use xlink:href="#DejaVuSans-30" transform="translate(956.445312 0.015625)"/>
      <use xlink:href="#DejaVuSans-2e" transform="translate(1020.068359 0.015625)"/>
      <use xlink:href="#DejaVuSans-30" transform="translate(1051.855469 0.015625)"/>
      <use xlink:href="#DejaVuSans-30" transform="translate(1115.478516 0.015625)"/>
      <use xlink:href="#DejaVuSans-31" transform="translate(1179.101562 0.015625)"/>
      <use xlink:href="#DejaVuSans-29" transform="translate(1242.724609 0.015625)"/>
      <use xlink:href="#DejaVuSans-2c" transform="translate(1281.738281 0.015625)"/>
      <use xlink:href="#DejaVuSans-Oblique-3ba" transform="translate(1333.007812 0.015625)"/>
      <use xlink:href="#DejaVuSans-32" transform="translate(1391.943359 -16.390625) scale(0.7)"/>
      <use xlink:href="#DejaVuSans-3d" transform="translate(1458.696289 0.015625)"/>
      <use xlink:href="#DejaVuSans-35" transform="translate(1561.967773 0.015625)"/>
      <use xlink:href="#DejaVuSans-2e" transform="translate(1625.59082 0.015625)"/>
      <use xlink:href="#DejaVuSans-31" transform="translate(1657.37793 0.015625)"/>
      <use xlink:href="#DejaVuSans-39" transform="translate(1721.000977 0.015625)"/>
      <use xlink:href="#DejaVuSans-Oblique-45" transform="translate(1784.624023 0.015625)"/>
      <use xlink:href="#DejaVuSans-2b" transform="translate(1867.290039 0.015625)"/>
      <use xlink:href="#DejaVuSans-30" transform="translate(1970.561523 0.015625)"/>
      <use xlink:href="#DejaVuSans-34" transform="translate(2034.18457 0.015625)"/>
     </g>
    </g>
    <g id="line2d_34">
     <path d="M 786.8 96.896563 
L 796.8 96.896563 
L 806.8 96.896563 
" style="fill: none; stroke: #ff7f0e; stroke-width: 1.5; stroke-linecap: square"/>
    </g>
    <g id="text_17">
     <!-- PCG: $(c,h)=(0.1, 0.001), \kappa_2=5.15E+04$ -->
     <g transform="translate(814.8 100.396563) scale(0.1 -0.1)">
      <use xlink:href="#DejaVuSans-50" transform="translate(0 0.015625)"/>
      <use xlink:href="#DejaVuSans-43" transform="translate(60.302734 0.015625)"/>
      <use xlink:href="#DejaVuSans-47" transform="translate(130.126953 0.015625)"/>
      <use xlink:href="#DejaVuSans-3a" transform="translate(207.617188 0.015625)"/>
      <use xlink:href="#DejaVuSans-20" transform="translate(241.308594 0.015625)"/>
      <use xlink:href="#DejaVuSans-28" transform="translate(273.095703 0.015625)"/>
      <use xlink:href="#DejaVuSans-Oblique-63" transform="translate(312.109375 0.015625)"/>
      <use xlink:href="#DejaVuSans-2c" transform="translate(367.089844 0.015625)"/>
      <use xlink:href="#DejaVuSans-Oblique-68" transform="translate(418.359375 0.015625)"/>
      <use xlink:href="#DejaVuSans-29" transform="translate(481.738281 0.015625)"/>
      <use xlink:href="#DejaVuSans-3d" transform="translate(540.234375 0.015625)"/>
      <use xlink:href="#DejaVuSans-28" transform="translate(643.505859 0.015625)"/>
      <use xlink:href="#DejaVuSans-30" transform="translate(682.519531 0.015625)"/>
      <use xlink:href="#DejaVuSans-2e" transform="translate(746.142578 0.015625)"/>
      <use xlink:href="#DejaVuSans-31" transform="translate(777.929688 0.015625)"/>
      <use xlink:href="#DejaVuSans-2c" transform="translate(841.552734 0.015625)"/>
      <use xlink:href="#DejaVuSans-30" transform="translate(892.822266 0.015625)"/>
      <use xlink:href="#DejaVuSans-2e" transform="translate(956.445312 0.015625)"/>
      <use xlink:href="#DejaVuSans-30" transform="translate(988.232422 0.015625)"/>
      <use xlink:href="#DejaVuSans-30" transform="translate(1051.855469 0.015625)"/>
      <use xlink:href="#DejaVuSans-31" transform="translate(1115.478516 0.015625)"/>
      <use xlink:href="#DejaVuSans-29" transform="translate(1179.101562 0.015625)"/>
      <use xlink:href="#DejaVuSans-2c" transform="translate(1218.115234 0.015625)"/>
      <use xlink:href="#DejaVuSans-Oblique-3ba" transform="translate(1269.384766 0.015625)"/>
      <use xlink:href="#DejaVuSans-32" transform="translate(1328.320312 -16.390625) scale(0.7)"/>
      <use xlink:href="#DejaVuSans-3d" transform="translate(1395.073242 0.015625)"/>
      <use xlink:href="#DejaVuSans-35" transform="translate(1498.344727 0.015625)"/>
      <use xlink:href="#DejaVuSans-2e" transform="translate(1561.967773 0.015625)"/>
      <use xlink:href="#DejaVuSans-31" transform="translate(1593.754883 0.015625)"/>
      <use xlink:href="#DejaVuSans-35" transform="translate(1657.37793 0.015625)"/>
      <use xlink:href="#DejaVuSans-Oblique-45" transform="translate(1721.000977 0.015625)"/>
      <use xlink:href="#DejaVuSans-2b" transform="translate(1803.666992 0.015625)"/>
      <use xlink:href="#DejaVuSans-30" transform="translate(1906.938477 0.015625)"/>
      <use xlink:href="#DejaVuSans-34" transform="translate(1970.561523 0.015625)"/>
     </g>
    </g>
    <g id="line2d_35">
     <path d="M 786.8 111.574688 
L 796.8 111.574688 
L 806.8 111.574688 
" style="fill: none; stroke: #2ca02c; stroke-width: 1.5; stroke-linecap: square"/>
    </g>
    <g id="text_18">
     <!-- PCG: $(c,h)=(1, 0.001), \kappa_2=4.72E+04$ -->
     <g transform="translate(814.8 115.074688) scale(0.1 -0.1)">
      <defs>
       <path id="DejaVuSans-37" d="M 525 4666 
L 3525 4666 
L 3525 4397 
L 1831 0 
L 1172 0 
L 2766 4134 
L 525 4134 
L 525 4666 
z
" transform="scale(0.015625)"/>
      </defs>
      <use xlink:href="#DejaVuSans-50" transform="translate(0 0.015625)"/>
      <use xlink:href="#DejaVuSans-43" transform="translate(60.302734 0.015625)"/>
      <use xlink:href="#DejaVuSans-47" transform="translate(130.126953 0.015625)"/>
      <use xlink:href="#DejaVuSans-3a" transform="translate(207.617188 0.015625)"/>
      <use xlink:href="#DejaVuSans-20" transform="translate(241.308594 0.015625)"/>
      <use xlink:href="#DejaVuSans-28" transform="translate(273.095703 0.015625)"/>
      <use xlink:href="#DejaVuSans-Oblique-63" transform="translate(312.109375 0.015625)"/>
      <use xlink:href="#DejaVuSans-2c" transform="translate(367.089844 0.015625)"/>
      <use xlink:href="#DejaVuSans-Oblique-68" transform="translate(418.359375 0.015625)"/>
      <use xlink:href="#DejaVuSans-29" transform="translate(481.738281 0.015625)"/>
      <use xlink:href="#DejaVuSans-3d" transform="translate(540.234375 0.015625)"/>
      <use xlink:href="#DejaVuSans-28" transform="translate(643.505859 0.015625)"/>
      <use xlink:href="#DejaVuSans-31" transform="translate(682.519531 0.015625)"/>
      <use xlink:href="#DejaVuSans-2c" transform="translate(746.142578 0.015625)"/>
      <use xlink:href="#DejaVuSans-30" transform="translate(797.412109 0.015625)"/>
      <use xlink:href="#DejaVuSans-2e" transform="translate(861.035156 0.015625)"/>
      <use xlink:href="#DejaVuSans-30" transform="translate(892.822266 0.015625)"/>
      <use xlink:href="#DejaVuSans-30" transform="translate(956.445312 0.015625)"/>
      <use xlink:href="#DejaVuSans-31" transform="translate(1020.068359 0.015625)"/>
      <use xlink:href="#DejaVuSans-29" transform="translate(1083.691406 0.015625)"/>
      <use xlink:href="#DejaVuSans-2c" transform="translate(1122.705078 0.015625)"/>
      <use xlink:href="#DejaVuSans-Oblique-3ba" transform="translate(1173.974609 0.015625)"/>
      <use xlink:href="#DejaVuSans-32" transform="translate(1232.910156 -16.390625) scale(0.7)"/>
      <use xlink:href="#DejaVuSans-3d" transform="translate(1299.663086 0.015625)"/>
      <use xlink:href="#DejaVuSans-34" transform="translate(1402.93457 0.015625)"/>
      <use xlink:href="#DejaVuSans-2e" transform="translate(1466.557617 0.015625)"/>
      <use xlink:href="#DejaVuSans-37" transform="translate(1490.594727 0.015625)"/>
      <use xlink:href="#DejaVuSans-32" transform="translate(1554.217773 0.015625)"/>
      <use xlink:href="#DejaVuSans-Oblique-45" transform="translate(1617.84082 0.015625)"/>
      <use xlink:href="#DejaVuSans-2b" transform="translate(1700.506836 0.015625)"/>
      <use xlink:href="#DejaVuSans-30" transform="translate(1803.77832 0.015625)"/>
      <use xlink:href="#DejaVuSans-34" transform="translate(1867.401367 0.015625)"/>
     </g>
    </g>
    <g id="line2d_36">
     <path d="M 786.8 126.252813 
L 796.8 126.252813 
L 806.8 126.252813 
" style="fill: none; stroke: #d62728; stroke-width: 1.5; stroke-linecap: square"/>
    </g>
    <g id="text_19">
     <!-- PCG: $(c,h)=(10, 0.001), \kappa_2=2.58E+04$ -->
     <g transform="translate(814.8 129.752813) scale(0.1 -0.1)">
      <defs>
       <path id="DejaVuSans-38" d="M 2034 2216 
Q 1584 2216 1326 1975 
Q 1069 1734 1069 1313 
Q 1069 891 1326 650 
Q 1584 409 2034 409 
Q 2484 409 2743 651 
Q 3003 894 3003 1313 
Q 3003 1734 2745 1975 
Q 2488 2216 2034 2216 
z
M 1403 2484 
Q 997 2584 770 2862 
Q 544 3141 544 3541 
Q 544 4100 942 4425 
Q 1341 4750 2034 4750 
Q 2731 4750 3128 4425 
Q 3525 4100 3525 3541 
Q 3525 3141 3298 2862 
Q 3072 2584 2669 2484 
Q 3125 2378 3379 2068 
Q 3634 1759 3634 1313 
Q 3634 634 3220 271 
Q 2806 -91 2034 -91 
Q 1263 -91 848 271 
Q 434 634 434 1313 
Q 434 1759 690 2068 
Q 947 2378 1403 2484 
z
M 1172 3481 
Q 1172 3119 1398 2916 
Q 1625 2713 2034 2713 
Q 2441 2713 2670 2916 
Q 2900 3119 2900 3481 
Q 2900 3844 2670 4047 
Q 2441 4250 2034 4250 
Q 1625 4250 1398 4047 
Q 1172 3844 1172 3481 
z
" transform="scale(0.015625)"/>
      </defs>
      <use xlink:href="#DejaVuSans-50" transform="translate(0 0.015625)"/>
      <use xlink:href="#DejaVuSans-43" transform="translate(60.302734 0.015625)"/>
      <use xlink:href="#DejaVuSans-47" transform="translate(130.126953 0.015625)"/>
      <use xlink:href="#DejaVuSans-3a" transform="translate(207.617188 0.015625)"/>
      <use xlink:href="#DejaVuSans-20" transform="translate(241.308594 0.015625)"/>
      <use xlink:href="#DejaVuSans-28" transform="translate(273.095703 0.015625)"/>
      <use xlink:href="#DejaVuSans-Oblique-63" transform="translate(312.109375 0.015625)"/>
      <use xlink:href="#DejaVuSans-2c" transform="translate(367.089844 0.015625)"/>
      <use xlink:href="#DejaVuSans-Oblique-68" transform="translate(418.359375 0.015625)"/>
      <use xlink:href="#DejaVuSans-29" transform="translate(481.738281 0.015625)"/>
      <use xlink:href="#DejaVuSans-3d" transform="translate(540.234375 0.015625)"/>
      <use xlink:href="#DejaVuSans-28" transform="translate(643.505859 0.015625)"/>
      <use xlink:href="#DejaVuSans-31" transform="translate(682.519531 0.015625)"/>
      <use xlink:href="#DejaVuSans-30" transform="translate(746.142578 0.015625)"/>
      <use xlink:href="#DejaVuSans-2c" transform="translate(809.765625 0.015625)"/>
      <use xlink:href="#DejaVuSans-30" transform="translate(861.035156 0.015625)"/>
      <use xlink:href="#DejaVuSans-2e" transform="translate(924.658203 0.015625)"/>
      <use xlink:href="#DejaVuSans-30" transform="translate(956.445312 0.015625)"/>
      <use xlink:href="#DejaVuSans-30" transform="translate(1020.068359 0.015625)"/>
      <use xlink:href="#DejaVuSans-31" transform="translate(1083.691406 0.015625)"/>
      <use xlink:href="#DejaVuSans-29" transform="translate(1147.314453 0.015625)"/>
      <use xlink:href="#DejaVuSans-2c" transform="translate(1186.328125 0.015625)"/>
      <use xlink:href="#DejaVuSans-Oblique-3ba" transform="translate(1237.597656 0.015625)"/>
      <use xlink:href="#DejaVuSans-32" transform="translate(1296.533203 -16.390625) scale(0.7)"/>
      <use xlink:href="#DejaVuSans-3d" transform="translate(1363.286133 0.015625)"/>
      <use xlink:href="#DejaVuSans-32" transform="translate(1466.557617 0.015625)"/>
      <use xlink:href="#DejaVuSans-2e" transform="translate(1530.180664 0.015625)"/>
      <use xlink:href="#DejaVuSans-35" transform="translate(1561.967773 0.015625)"/>
      <use xlink:href="#DejaVuSans-38" transform="translate(1625.59082 0.015625)"/>
      <use xlink:href="#DejaVuSans-Oblique-45" transform="translate(1689.213867 0.015625)"/>
      <use xlink:href="#DejaVuSans-2b" transform="translate(1771.879883 0.015625)"/>
      <use xlink:href="#DejaVuSans-30" transform="translate(1875.151367 0.015625)"/>
      <use xlink:href="#DejaVuSans-34" transform="translate(1938.774414 0.015625)"/>
     </g>
    </g>
    <g id="line2d_37">
     <path d="M 786.8 140.930938 
L 796.8 140.930938 
L 806.8 140.930938 
" style="fill: none; stroke: #9467bd; stroke-width: 1.5; stroke-linecap: square"/>
    </g>
    <g id="text_20">
     <!-- PCG: $(c,h)=(100, 0.001), \kappa_2=4.67E+03$ -->
     <g transform="translate(814.8 144.430938) scale(0.1 -0.1)">
      <defs>
       <path id="DejaVuSans-36" d="M 2113 2584 
Q 1688 2584 1439 2293 
Q 1191 2003 1191 1497 
Q 1191 994 1439 701 
Q 1688 409 2113 409 
Q 2538 409 2786 701 
Q 3034 994 3034 1497 
Q 3034 2003 2786 2293 
Q 2538 2584 2113 2584 
z
M 3366 4563 
L 3366 3988 
Q 3128 4100 2886 4159 
Q 2644 4219 2406 4219 
Q 1781 4219 1451 3797 
Q 1122 3375 1075 2522 
Q 1259 2794 1537 2939 
Q 1816 3084 2150 3084 
Q 2853 3084 3261 2657 
Q 3669 2231 3669 1497 
Q 3669 778 3244 343 
Q 2819 -91 2113 -91 
Q 1303 -91 875 529 
Q 447 1150 447 2328 
Q 447 3434 972 4092 
Q 1497 4750 2381 4750 
Q 2619 4750 2861 4703 
Q 3103 4656 3366 4563 
z
" transform="scale(0.015625)"/>
      </defs>
      <use xlink:href="#DejaVuSans-50" transform="translate(0 0.015625)"/>
      <use xlink:href="#DejaVuSans-43" transform="translate(60.302734 0.015625)"/>
      <use xlink:href="#DejaVuSans-47" transform="translate(130.126953 0.015625)"/>
      <use xlink:href="#DejaVuSans-3a" transform="translate(207.617188 0.015625)"/>
      <use xlink:href="#DejaVuSans-20" transform="translate(241.308594 0.015625)"/>
      <use xlink:href="#DejaVuSans-28" transform="translate(273.095703 0.015625)"/>
      <use xlink:href="#DejaVuSans-Oblique-63" transform="translate(312.109375 0.015625)"/>
      <use xlink:href="#DejaVuSans-2c" transform="translate(367.089844 0.015625)"/>
      <use xlink:href="#DejaVuSans-Oblique-68" transform="translate(418.359375 0.015625)"/>
      <use xlink:href="#DejaVuSans-29" transform="translate(481.738281 0.015625)"/>
      <use xlink:href="#DejaVuSans-3d" transform="translate(540.234375 0.015625)"/>
      <use xlink:href="#DejaVuSans-28" transform="translate(643.505859 0.015625)"/>
      <use xlink:href="#DejaVuSans-31" transform="translate(682.519531 0.015625)"/>
      <use xlink:href="#DejaVuSans-30" transform="translate(746.142578 0.015625)"/>
      <use xlink:href="#DejaVuSans-30" transform="translate(809.765625 0.015625)"/>
      <use xlink:href="#DejaVuSans-2c" transform="translate(873.388672 0.015625)"/>
      <use xlink:href="#DejaVuSans-30" transform="translate(924.658203 0.015625)"/>
      <use xlink:href="#DejaVuSans-2e" transform="translate(988.28125 0.015625)"/>
      <use xlink:href="#DejaVuSans-30" transform="translate(1020.068359 0.015625)"/>
      <use xlink:href="#DejaVuSans-30" transform="translate(1083.691406 0.015625)"/>
      <use xlink:href="#DejaVuSans-31" transform="translate(1147.314453 0.015625)"/>
      <use xlink:href="#DejaVuSans-29" transform="translate(1210.9375 0.015625)"/>
      <use xlink:href="#DejaVuSans-2c" transform="translate(1249.951172 0.015625)"/>
      <use xlink:href="#DejaVuSans-Oblique-3ba" transform="translate(1301.220703 0.015625)"/>
      <use xlink:href="#DejaVuSans-32" transform="translate(1360.15625 -16.390625) scale(0.7)"/>
      <use xlink:href="#DejaVuSans-3d" transform="translate(1426.90918 0.015625)"/>
      <use xlink:href="#DejaVuSans-34" transform="translate(1530.180664 0.015625)"/>
      <use xlink:href="#DejaVuSans-2e" transform="translate(1593.803711 0.015625)"/>
      <use xlink:href="#DejaVuSans-36" transform="translate(1625.59082 0.015625)"/>
      <use xlink:href="#DejaVuSans-37" transform="translate(1689.213867 0.015625)"/>
      <use xlink:href="#DejaVuSans-Oblique-45" transform="translate(1752.836914 0.015625)"/>
      <use xlink:href="#DejaVuSans-2b" transform="translate(1835.50293 0.015625)"/>
      <use xlink:href="#DejaVuSans-30" transform="translate(1938.774414 0.015625)"/>
      <use xlink:href="#DejaVuSans-33" transform="translate(2002.397461 0.015625)"/>
     </g>
    </g>
    <g id="line2d_38">
     <path d="M 786.8 155.609063 
L 796.8 155.609063 
L 806.8 155.609063 
" style="fill: none; stroke: #8c564b; stroke-width: 1.5; stroke-linecap: square"/>
    </g>
    <g id="text_21">
     <!-- PCG: $(c,h)=(1000, 0.001), \kappa_2=5.09E+02$ -->
     <g transform="translate(814.8 159.109063) scale(0.1 -0.1)">
      <use xlink:href="#DejaVuSans-50" transform="translate(0 0.015625)"/>
      <use xlink:href="#DejaVuSans-43" transform="translate(60.302734 0.015625)"/>
      <use xlink:href="#DejaVuSans-47" transform="translate(130.126953 0.015625)"/>
      <use xlink:href="#DejaVuSans-3a" transform="translate(207.617188 0.015625)"/>
      <use xlink:href="#DejaVuSans-20" transform="translate(241.308594 0.015625)"/>
      <use xlink:href="#DejaVuSans-28" transform="translate(273.095703 0.015625)"/>
      <use xlink:href="#DejaVuSans-Oblique-63" transform="translate(312.109375 0.015625)"/>
      <use xlink:href="#DejaVuSans-2c" transform="translate(367.089844 0.015625)"/>
      <use xlink:href="#DejaVuSans-Oblique-68" transform="translate(418.359375 0.015625)"/>
      <use xlink:href="#DejaVuSans-29" transform="translate(481.738281 0.015625)"/>
      <use xlink:href="#DejaVuSans-3d" transform="translate(540.234375 0.015625)"/>
      <use xlink:href="#DejaVuSans-28" transform="translate(643.505859 0.015625)"/>
      <use xlink:href="#DejaVuSans-31" transform="translate(682.519531 0.015625)"/>
      <use xlink:href="#DejaVuSans-30" transform="translate(746.142578 0.015625)"/>
      <use xlink:href="#DejaVuSans-30" transform="translate(809.765625 0.015625)"/>
      <use xlink:href="#DejaVuSans-30" transform="translate(873.388672 0.015625)"/>
      <use xlink:href="#DejaVuSans-2c" transform="translate(937.011719 0.015625)"/>
      <use xlink:href="#DejaVuSans-30" transform="translate(988.28125 0.015625)"/>
      <use xlink:href="#DejaVuSans-2e" transform="translate(1051.904297 0.015625)"/>
      <use xlink:href="#DejaVuSans-30" transform="translate(1083.691406 0.015625)"/>
      <use xlink:href="#DejaVuSans-30" transform="translate(1147.314453 0.015625)"/>
      <use xlink:href="#DejaVuSans-31" transform="translate(1210.9375 0.015625)"/>
      <use xlink:href="#DejaVuSans-29" transform="translate(1274.560547 0.015625)"/>
      <use xlink:href="#DejaVuSans-2c" transform="translate(1313.574219 0.015625)"/>
      <use xlink:href="#DejaVuSans-Oblique-3ba" transform="translate(1364.84375 0.015625)"/>
      <use xlink:href="#DejaVuSans-32" transform="translate(1423.779297 -16.390625) scale(0.7)"/>
      <use xlink:href="#DejaVuSans-3d" transform="translate(1490.532227 0.015625)"/>
      <use xlink:href="#DejaVuSans-35" transform="translate(1593.803711 0.015625)"/>
      <use xlink:href="#DejaVuSans-2e" transform="translate(1657.426758 0.015625)"/>
      <use xlink:href="#DejaVuSans-30" transform="translate(1689.213867 0.015625)"/>
      <use xlink:href="#DejaVuSans-39" transform="translate(1752.836914 0.015625)"/>
      <use xlink:href="#DejaVuSans-Oblique-45" transform="translate(1816.459961 0.015625)"/>
      <use xlink:href="#DejaVuSans-2b" transform="translate(1899.125977 0.015625)"/>
      <use xlink:href="#DejaVuSans-30" transform="translate(2002.397461 0.015625)"/>
      <use xlink:href="#DejaVuSans-32" transform="translate(2066.020508 0.015625)"/>
     </g>
    </g>
   </g>
  </g>
 </g>
 <defs>
  <clipPath id="p4af32ac25d">
   <rect x="144" y="69.12" width="892.8" height="443.52"/>
  </clipPath>
 </defs>
</svg>
