<?xml version="1.0" encoding="utf-8" standalone="no"?>
<!DOCTYPE svg PUBLIC "-//W3C//DTD SVG 1.1//EN"
  "http://www.w3.org/Graphics/SVG/1.1/DTD/svg11.dtd">
<svg xmlns:xlink="http://www.w3.org/1999/xlink" width="1080pt" height="576pt" viewBox="0 0 1080 576" xmlns="http://www.w3.org/2000/svg" version="1.1">
 <metadata>
  <rdf:RDF xmlns:dc="http://purl.org/dc/elements/1.1/" xmlns:cc="http://creativecommons.org/ns#" xmlns:rdf="http://www.w3.org/1999/02/22-rdf-syntax-ns#">
   <cc:Work>
    <dc:type rdf:resource="http://purl.org/dc/dcmitype/StillImage"/>
    <dc:date>2024-01-09T22:21:56.822778</dc:date>
    <dc:format>image/svg+xml</dc:format>
    <dc:creator>
     <cc:Agent>
      <dc:title>Matplotlib v3.8.2, https://matplotlib.org/</dc:title>
     </cc:Agent>
    </dc:creator>
   </cc:Work>
  </rdf:RDF>
 </metadata>
 <defs>
  <style type="text/css">*{stroke-linejoin: round; stroke-linecap: butt}</style>
 </defs>
 <g id="figure_1">
  <g id="patch_1">
   <path d="M 0 576 
L 1080 576 
L 1080 0 
L 0 0 
z
" style="fill: #ffffff"/>
  </g>
  <g id="axes_1">
   <g id="patch_2">
    <path d="M 135 512.64 
L 972 512.64 
L 972 69.12 
L 135 69.12 
z
" style="fill: #ffffff"/>
   </g>
   <g id="matplotlib.axis_1">
    <g id="xtick_1">
     <g id="line2d_1">
      <defs>
       <path id="m12f4cbf482" d="M 0 0 
L 0 3.5 
" style="stroke: #000000; stroke-width: 0.8"/>
      </defs>
      <g>
       <use xlink:href="#m12f4cbf482" x="173.045455" y="512.64" style="stroke: #000000; stroke-width: 0.8"/>
      </g>
     </g>
     <g id="text_1">
      <!-- 0 -->
      <g transform="translate(169.864205 527.238438) scale(0.1 -0.1)">
       <defs>
        <path id="DejaVuSans-30" d="M 2034 4250 
Q 1547 4250 1301 3770 
Q 1056 3291 1056 2328 
Q 1056 1369 1301 889 
Q 1547 409 2034 409 
Q 2525 409 2770 889 
Q 3016 1369 3016 2328 
Q 3016 3291 2770 3770 
Q 2525 4250 2034 4250 
z
M 2034 4750 
Q 2819 4750 3233 4129 
Q 3647 3509 3647 2328 
Q 3647 1150 3233 529 
Q 2819 -91 2034 -91 
Q 1250 -91 836 529 
Q 422 1150 422 2328 
Q 422 3509 836 4129 
Q 1250 4750 2034 4750 
z
" transform="scale(0.015625)"/>
       </defs>
       <use xlink:href="#DejaVuSans-30"/>
      </g>
     </g>
    </g>
    <g id="xtick_2">
     <g id="line2d_2">
      <g>
       <use xlink:href="#m12f4cbf482" x="325.242492" y="512.64" style="stroke: #000000; stroke-width: 0.8"/>
      </g>
     </g>
     <g id="text_2">
      <!-- 2000 -->
      <g transform="translate(312.517492 527.238438) scale(0.1 -0.1)">
       <defs>
        <path id="DejaVuSans-32" d="M 1228 531 
L 3431 531 
L 3431 0 
L 469 0 
L 469 531 
Q 828 903 1448 1529 
Q 2069 2156 2228 2338 
Q 2531 2678 2651 2914 
Q 2772 3150 2772 3378 
Q 2772 3750 2511 3984 
Q 2250 4219 1831 4219 
Q 1534 4219 1204 4116 
Q 875 4013 500 3803 
L 500 4441 
Q 881 4594 1212 4672 
Q 1544 4750 1819 4750 
Q 2544 4750 2975 4387 
Q 3406 4025 3406 3419 
Q 3406 3131 3298 2873 
Q 3191 2616 2906 2266 
Q 2828 2175 2409 1742 
Q 1991 1309 1228 531 
z
" transform="scale(0.015625)"/>
       </defs>
       <use xlink:href="#DejaVuSans-32"/>
       <use xlink:href="#DejaVuSans-30" x="63.623047"/>
       <use xlink:href="#DejaVuSans-30" x="127.246094"/>
       <use xlink:href="#DejaVuSans-30" x="190.869141"/>
      </g>
     </g>
    </g>
    <g id="xtick_3">
     <g id="line2d_3">
      <g>
       <use xlink:href="#m12f4cbf482" x="477.43953" y="512.64" style="stroke: #000000; stroke-width: 0.8"/>
      </g>
     </g>
     <g id="text_3">
      <!-- 4000 -->
      <g transform="translate(464.71453 527.238438) scale(0.1 -0.1)">
       <defs>
        <path id="DejaVuSans-34" d="M 2419 4116 
L 825 1625 
L 2419 1625 
L 2419 4116 
z
M 2253 4666 
L 3047 4666 
L 3047 1625 
L 3713 1625 
L 3713 1100 
L 3047 1100 
L 3047 0 
L 2419 0 
L 2419 1100 
L 313 1100 
L 313 1709 
L 2253 4666 
z
" transform="scale(0.015625)"/>
       </defs>
       <use xlink:href="#DejaVuSans-34"/>
       <use xlink:href="#DejaVuSans-30" x="63.623047"/>
       <use xlink:href="#DejaVuSans-30" x="127.246094"/>
       <use xlink:href="#DejaVuSans-30" x="190.869141"/>
      </g>
     </g>
    </g>
    <g id="xtick_4">
     <g id="line2d_4">
      <g>
       <use xlink:href="#m12f4cbf482" x="629.636568" y="512.64" style="stroke: #000000; stroke-width: 0.8"/>
      </g>
     </g>
     <g id="text_4">
      <!-- 6000 -->
      <g transform="translate(616.911568 527.238438) scale(0.1 -0.1)">
       <defs>
        <path id="DejaVuSans-36" d="M 2113 2584 
Q 1688 2584 1439 2293 
Q 1191 2003 1191 1497 
Q 1191 994 1439 701 
Q 1688 409 2113 409 
Q 2538 409 2786 701 
Q 3034 994 3034 1497 
Q 3034 2003 2786 2293 
Q 2538 2584 2113 2584 
z
M 3366 4563 
L 3366 3988 
Q 3128 4100 2886 4159 
Q 2644 4219 2406 4219 
Q 1781 4219 1451 3797 
Q 1122 3375 1075 2522 
Q 1259 2794 1537 2939 
Q 1816 3084 2150 3084 
Q 2853 3084 3261 2657 
Q 3669 2231 3669 1497 
Q 3669 778 3244 343 
Q 2819 -91 2113 -91 
Q 1303 -91 875 529 
Q 447 1150 447 2328 
Q 447 3434 972 4092 
Q 1497 4750 2381 4750 
Q 2619 4750 2861 4703 
Q 3103 4656 3366 4563 
z
" transform="scale(0.015625)"/>
       </defs>
       <use xlink:href="#DejaVuSans-36"/>
       <use xlink:href="#DejaVuSans-30" x="63.623047"/>
       <use xlink:href="#DejaVuSans-30" x="127.246094"/>
       <use xlink:href="#DejaVuSans-30" x="190.869141"/>
      </g>
     </g>
    </g>
    <g id="xtick_5">
     <g id="line2d_5">
      <g>
       <use xlink:href="#m12f4cbf482" x="781.833606" y="512.64" style="stroke: #000000; stroke-width: 0.8"/>
      </g>
     </g>
     <g id="text_5">
      <!-- 8000 -->
      <g transform="translate(769.108606 527.238438) scale(0.1 -0.1)">
       <defs>
        <path id="DejaVuSans-38" d="M 2034 2216 
Q 1584 2216 1326 1975 
Q 1069 1734 1069 1313 
Q 1069 891 1326 650 
Q 1584 409 2034 409 
Q 2484 409 2743 651 
Q 3003 894 3003 1313 
Q 3003 1734 2745 1975 
Q 2488 2216 2034 2216 
z
M 1403 2484 
Q 997 2584 770 2862 
Q 544 3141 544 3541 
Q 544 4100 942 4425 
Q 1341 4750 2034 4750 
Q 2731 4750 3128 4425 
Q 3525 4100 3525 3541 
Q 3525 3141 3298 2862 
Q 3072 2584 2669 2484 
Q 3125 2378 3379 2068 
Q 3634 1759 3634 1313 
Q 3634 634 3220 271 
Q 2806 -91 2034 -91 
Q 1263 -91 848 271 
Q 434 634 434 1313 
Q 434 1759 690 2068 
Q 947 2378 1403 2484 
z
M 1172 3481 
Q 1172 3119 1398 2916 
Q 1625 2713 2034 2713 
Q 2441 2713 2670 2916 
Q 2900 3119 2900 3481 
Q 2900 3844 2670 4047 
Q 2441 4250 2034 4250 
Q 1625 4250 1398 4047 
Q 1172 3844 1172 3481 
z
" transform="scale(0.015625)"/>
       </defs>
       <use xlink:href="#DejaVuSans-38"/>
       <use xlink:href="#DejaVuSans-30" x="63.623047"/>
       <use xlink:href="#DejaVuSans-30" x="127.246094"/>
       <use xlink:href="#DejaVuSans-30" x="190.869141"/>
      </g>
     </g>
    </g>
    <g id="xtick_6">
     <g id="line2d_6">
      <g>
       <use xlink:href="#m12f4cbf482" x="934.030644" y="512.64" style="stroke: #000000; stroke-width: 0.8"/>
      </g>
     </g>
     <g id="text_6">
      <!-- 10000 -->
      <g transform="translate(918.124394 527.238438) scale(0.1 -0.1)">
       <defs>
        <path id="DejaVuSans-31" d="M 794 531 
L 1825 531 
L 1825 4091 
L 703 3866 
L 703 4441 
L 1819 4666 
L 2450 4666 
L 2450 531 
L 3481 531 
L 3481 0 
L 794 0 
L 794 531 
z
" transform="scale(0.015625)"/>
       </defs>
       <use xlink:href="#DejaVuSans-31"/>
       <use xlink:href="#DejaVuSans-30" x="63.623047"/>
       <use xlink:href="#DejaVuSans-30" x="127.246094"/>
       <use xlink:href="#DejaVuSans-30" x="190.869141"/>
       <use xlink:href="#DejaVuSans-30" x="254.492188"/>
      </g>
     </g>
    </g>
    <g id="text_7">
     <!-- # iterations -->
     <g transform="translate(523.99375 540.916563) scale(0.1 -0.1)">
      <defs>
       <path id="DejaVuSans-23" d="M 3272 2816 
L 2363 2816 
L 2100 1772 
L 3016 1772 
L 3272 2816 
z
M 2803 4594 
L 2478 3297 
L 3391 3297 
L 3719 4594 
L 4219 4594 
L 3897 3297 
L 4872 3297 
L 4872 2816 
L 3775 2816 
L 3519 1772 
L 4513 1772 
L 4513 1294 
L 3397 1294 
L 3072 0 
L 2572 0 
L 2894 1294 
L 1978 1294 
L 1656 0 
L 1153 0 
L 1478 1294 
L 494 1294 
L 494 1772 
L 1594 1772 
L 1856 2816 
L 850 2816 
L 850 3297 
L 1978 3297 
L 2297 4594 
L 2803 4594 
z
" transform="scale(0.015625)"/>
       <path id="DejaVuSans-20" transform="scale(0.015625)"/>
       <path id="DejaVuSans-69" d="M 603 3500 
L 1178 3500 
L 1178 0 
L 603 0 
L 603 3500 
z
M 603 4863 
L 1178 4863 
L 1178 4134 
L 603 4134 
L 603 4863 
z
" transform="scale(0.015625)"/>
       <path id="DejaVuSans-74" d="M 1172 4494 
L 1172 3500 
L 2356 3500 
L 2356 3053 
L 1172 3053 
L 1172 1153 
Q 1172 725 1289 603 
Q 1406 481 1766 481 
L 2356 481 
L 2356 0 
L 1766 0 
Q 1100 0 847 248 
Q 594 497 594 1153 
L 594 3053 
L 172 3053 
L 172 3500 
L 594 3500 
L 594 4494 
L 1172 4494 
z
" transform="scale(0.015625)"/>
       <path id="DejaVuSans-65" d="M 3597 1894 
L 3597 1613 
L 953 1613 
Q 991 1019 1311 708 
Q 1631 397 2203 397 
Q 2534 397 2845 478 
Q 3156 559 3463 722 
L 3463 178 
Q 3153 47 2828 -22 
Q 2503 -91 2169 -91 
Q 1331 -91 842 396 
Q 353 884 353 1716 
Q 353 2575 817 3079 
Q 1281 3584 2069 3584 
Q 2775 3584 3186 3129 
Q 3597 2675 3597 1894 
z
M 3022 2063 
Q 3016 2534 2758 2815 
Q 2500 3097 2075 3097 
Q 1594 3097 1305 2825 
Q 1016 2553 972 2059 
L 3022 2063 
z
" transform="scale(0.015625)"/>
       <path id="DejaVuSans-72" d="M 2631 2963 
Q 2534 3019 2420 3045 
Q 2306 3072 2169 3072 
Q 1681 3072 1420 2755 
Q 1159 2438 1159 1844 
L 1159 0 
L 581 0 
L 581 3500 
L 1159 3500 
L 1159 2956 
Q 1341 3275 1631 3429 
Q 1922 3584 2338 3584 
Q 2397 3584 2469 3576 
Q 2541 3569 2628 3553 
L 2631 2963 
z
" transform="scale(0.015625)"/>
       <path id="DejaVuSans-61" d="M 2194 1759 
Q 1497 1759 1228 1600 
Q 959 1441 959 1056 
Q 959 750 1161 570 
Q 1363 391 1709 391 
Q 2188 391 2477 730 
Q 2766 1069 2766 1631 
L 2766 1759 
L 2194 1759 
z
M 3341 1997 
L 3341 0 
L 2766 0 
L 2766 531 
Q 2569 213 2275 61 
Q 1981 -91 1556 -91 
Q 1019 -91 701 211 
Q 384 513 384 1019 
Q 384 1609 779 1909 
Q 1175 2209 1959 2209 
L 2766 2209 
L 2766 2266 
Q 2766 2663 2505 2880 
Q 2244 3097 1772 3097 
Q 1472 3097 1187 3025 
Q 903 2953 641 2809 
L 641 3341 
Q 956 3463 1253 3523 
Q 1550 3584 1831 3584 
Q 2591 3584 2966 3190 
Q 3341 2797 3341 1997 
z
" transform="scale(0.015625)"/>
       <path id="DejaVuSans-6f" d="M 1959 3097 
Q 1497 3097 1228 2736 
Q 959 2375 959 1747 
Q 959 1119 1226 758 
Q 1494 397 1959 397 
Q 2419 397 2687 759 
Q 2956 1122 2956 1747 
Q 2956 2369 2687 2733 
Q 2419 3097 1959 3097 
z
M 1959 3584 
Q 2709 3584 3137 3096 
Q 3566 2609 3566 1747 
Q 3566 888 3137 398 
Q 2709 -91 1959 -91 
Q 1206 -91 779 398 
Q 353 888 353 1747 
Q 353 2609 779 3096 
Q 1206 3584 1959 3584 
z
" transform="scale(0.015625)"/>
       <path id="DejaVuSans-6e" d="M 3513 2113 
L 3513 0 
L 2938 0 
L 2938 2094 
Q 2938 2591 2744 2837 
Q 2550 3084 2163 3084 
Q 1697 3084 1428 2787 
Q 1159 2491 1159 1978 
L 1159 0 
L 581 0 
L 581 3500 
L 1159 3500 
L 1159 2956 
Q 1366 3272 1645 3428 
Q 1925 3584 2291 3584 
Q 2894 3584 3203 3211 
Q 3513 2838 3513 2113 
z
" transform="scale(0.015625)"/>
       <path id="DejaVuSans-73" d="M 2834 3397 
L 2834 2853 
Q 2591 2978 2328 3040 
Q 2066 3103 1784 3103 
Q 1356 3103 1142 2972 
Q 928 2841 928 2578 
Q 928 2378 1081 2264 
Q 1234 2150 1697 2047 
L 1894 2003 
Q 2506 1872 2764 1633 
Q 3022 1394 3022 966 
Q 3022 478 2636 193 
Q 2250 -91 1575 -91 
Q 1294 -91 989 -36 
Q 684 19 347 128 
L 347 722 
Q 666 556 975 473 
Q 1284 391 1588 391 
Q 1994 391 2212 530 
Q 2431 669 2431 922 
Q 2431 1156 2273 1281 
Q 2116 1406 1581 1522 
L 1381 1569 
Q 847 1681 609 1914 
Q 372 2147 372 2553 
Q 372 3047 722 3315 
Q 1072 3584 1716 3584 
Q 2034 3584 2315 3537 
Q 2597 3491 2834 3397 
z
" transform="scale(0.015625)"/>
      </defs>
      <use xlink:href="#DejaVuSans-23"/>
      <use xlink:href="#DejaVuSans-20" x="83.789062"/>
      <use xlink:href="#DejaVuSans-69" x="115.576172"/>
      <use xlink:href="#DejaVuSans-74" x="143.359375"/>
      <use xlink:href="#DejaVuSans-65" x="182.568359"/>
      <use xlink:href="#DejaVuSans-72" x="244.091797"/>
      <use xlink:href="#DejaVuSans-61" x="285.205078"/>
      <use xlink:href="#DejaVuSans-74" x="346.484375"/>
      <use xlink:href="#DejaVuSans-69" x="385.693359"/>
      <use xlink:href="#DejaVuSans-6f" x="413.476562"/>
      <use xlink:href="#DejaVuSans-6e" x="474.658203"/>
      <use xlink:href="#DejaVuSans-73" x="538.037109"/>
     </g>
    </g>
   </g>
   <g id="matplotlib.axis_2">
    <g id="ytick_1">
     <g id="line2d_7">
      <defs>
       <path id="m3f26bf2432" d="M 0 0 
L -3.5 0 
" style="stroke: #000000; stroke-width: 0.8"/>
      </defs>
      <g>
       <use xlink:href="#m3f26bf2432" x="135" y="445.637156" style="stroke: #000000; stroke-width: 0.8"/>
      </g>
     </g>
     <g id="text_8">
      <!-- $\mathdefault{10^{-9}}$ -->
      <g transform="translate(104.5 449.436375) scale(0.1 -0.1)">
       <defs>
        <path id="DejaVuSans-2212" d="M 678 2272 
L 4684 2272 
L 4684 1741 
L 678 1741 
L 678 2272 
z
" transform="scale(0.015625)"/>
        <path id="DejaVuSans-39" d="M 703 97 
L 703 672 
Q 941 559 1184 500 
Q 1428 441 1663 441 
Q 2288 441 2617 861 
Q 2947 1281 2994 2138 
Q 2813 1869 2534 1725 
Q 2256 1581 1919 1581 
Q 1219 1581 811 2004 
Q 403 2428 403 3163 
Q 403 3881 828 4315 
Q 1253 4750 1959 4750 
Q 2769 4750 3195 4129 
Q 3622 3509 3622 2328 
Q 3622 1225 3098 567 
Q 2575 -91 1691 -91 
Q 1453 -91 1209 -44 
Q 966 3 703 97 
z
M 1959 2075 
Q 2384 2075 2632 2365 
Q 2881 2656 2881 3163 
Q 2881 3666 2632 3958 
Q 2384 4250 1959 4250 
Q 1534 4250 1286 3958 
Q 1038 3666 1038 3163 
Q 1038 2656 1286 2365 
Q 1534 2075 1959 2075 
z
" transform="scale(0.015625)"/>
       </defs>
       <use xlink:href="#DejaVuSans-31" transform="translate(0 0.765625)"/>
       <use xlink:href="#DejaVuSans-30" transform="translate(63.623047 0.765625)"/>
       <use xlink:href="#DejaVuSans-2212" transform="translate(128.203125 39.046875) scale(0.7)"/>
       <use xlink:href="#DejaVuSans-39" transform="translate(186.855469 39.046875) scale(0.7)"/>
      </g>
     </g>
    </g>
    <g id="ytick_2">
     <g id="line2d_8">
      <g>
       <use xlink:href="#m3f26bf2432" x="135" y="363.546291" style="stroke: #000000; stroke-width: 0.8"/>
      </g>
     </g>
     <g id="text_9">
      <!-- $\mathdefault{10^{-7}}$ -->
      <g transform="translate(104.5 367.34551) scale(0.1 -0.1)">
       <defs>
        <path id="DejaVuSans-37" d="M 525 4666 
L 3525 4666 
L 3525 4397 
L 1831 0 
L 1172 0 
L 2766 4134 
L 525 4134 
L 525 4666 
z
" transform="scale(0.015625)"/>
       </defs>
       <use xlink:href="#DejaVuSans-31" transform="translate(0 0.684375)"/>
       <use xlink:href="#DejaVuSans-30" transform="translate(63.623047 0.684375)"/>
       <use xlink:href="#DejaVuSans-2212" transform="translate(128.203125 38.965625) scale(0.7)"/>
       <use xlink:href="#DejaVuSans-37" transform="translate(186.855469 38.965625) scale(0.7)"/>
      </g>
     </g>
    </g>
    <g id="ytick_3">
     <g id="line2d_9">
      <g>
       <use xlink:href="#m3f26bf2432" x="135" y="281.455427" style="stroke: #000000; stroke-width: 0.8"/>
      </g>
     </g>
     <g id="text_10">
      <!-- $\mathdefault{10^{-5}}$ -->
      <g transform="translate(104.5 285.254645) scale(0.1 -0.1)">
       <defs>
        <path id="DejaVuSans-35" d="M 691 4666 
L 3169 4666 
L 3169 4134 
L 1269 4134 
L 1269 2991 
Q 1406 3038 1543 3061 
Q 1681 3084 1819 3084 
Q 2600 3084 3056 2656 
Q 3513 2228 3513 1497 
Q 3513 744 3044 326 
Q 2575 -91 1722 -91 
Q 1428 -91 1123 -41 
Q 819 9 494 109 
L 494 744 
Q 775 591 1075 516 
Q 1375 441 1709 441 
Q 2250 441 2565 725 
Q 2881 1009 2881 1497 
Q 2881 1984 2565 2268 
Q 2250 2553 1709 2553 
Q 1456 2553 1204 2497 
Q 953 2441 691 2322 
L 691 4666 
z
" transform="scale(0.015625)"/>
       </defs>
       <use xlink:href="#DejaVuSans-31" transform="translate(0 0.684375)"/>
       <use xlink:href="#DejaVuSans-30" transform="translate(63.623047 0.684375)"/>
       <use xlink:href="#DejaVuSans-2212" transform="translate(128.203125 38.965625) scale(0.7)"/>
       <use xlink:href="#DejaVuSans-35" transform="translate(186.855469 38.965625) scale(0.7)"/>
      </g>
     </g>
    </g>
    <g id="ytick_4">
     <g id="line2d_10">
      <g>
       <use xlink:href="#m3f26bf2432" x="135" y="199.364562" style="stroke: #000000; stroke-width: 0.8"/>
      </g>
     </g>
     <g id="text_11">
      <!-- $\mathdefault{10^{-3}}$ -->
      <g transform="translate(104.5 203.16378) scale(0.1 -0.1)">
       <defs>
        <path id="DejaVuSans-33" d="M 2597 2516 
Q 3050 2419 3304 2112 
Q 3559 1806 3559 1356 
Q 3559 666 3084 287 
Q 2609 -91 1734 -91 
Q 1441 -91 1130 -33 
Q 819 25 488 141 
L 488 750 
Q 750 597 1062 519 
Q 1375 441 1716 441 
Q 2309 441 2620 675 
Q 2931 909 2931 1356 
Q 2931 1769 2642 2001 
Q 2353 2234 1838 2234 
L 1294 2234 
L 1294 2753 
L 1863 2753 
Q 2328 2753 2575 2939 
Q 2822 3125 2822 3475 
Q 2822 3834 2567 4026 
Q 2313 4219 1838 4219 
Q 1578 4219 1281 4162 
Q 984 4106 628 3988 
L 628 4550 
Q 988 4650 1302 4700 
Q 1616 4750 1894 4750 
Q 2613 4750 3031 4423 
Q 3450 4097 3450 3541 
Q 3450 3153 3228 2886 
Q 3006 2619 2597 2516 
z
" transform="scale(0.015625)"/>
       </defs>
       <use xlink:href="#DejaVuSans-31" transform="translate(0 0.765625)"/>
       <use xlink:href="#DejaVuSans-30" transform="translate(63.623047 0.765625)"/>
       <use xlink:href="#DejaVuSans-2212" transform="translate(128.203125 39.046875) scale(0.7)"/>
       <use xlink:href="#DejaVuSans-33" transform="translate(186.855469 39.046875) scale(0.7)"/>
      </g>
     </g>
    </g>
    <g id="ytick_5">
     <g id="line2d_11">
      <g>
       <use xlink:href="#m3f26bf2432" x="135" y="117.273697" style="stroke: #000000; stroke-width: 0.8"/>
      </g>
     </g>
     <g id="text_12">
      <!-- $\mathdefault{10^{-1}}$ -->
      <g transform="translate(104.5 121.072916) scale(0.1 -0.1)">
       <use xlink:href="#DejaVuSans-31" transform="translate(0 0.684375)"/>
       <use xlink:href="#DejaVuSans-30" transform="translate(63.623047 0.684375)"/>
       <use xlink:href="#DejaVuSans-2212" transform="translate(128.203125 38.965625) scale(0.7)"/>
       <use xlink:href="#DejaVuSans-31" transform="translate(186.855469 38.965625) scale(0.7)"/>
      </g>
     </g>
    </g>
    <g id="text_13">
     <!-- 2-norm of residual -->
     <g transform="translate(98.420312 336.738594) rotate(-90) scale(0.1 -0.1)">
      <defs>
       <path id="DejaVuSans-2d" d="M 313 2009 
L 1997 2009 
L 1997 1497 
L 313 1497 
L 313 2009 
z
" transform="scale(0.015625)"/>
       <path id="DejaVuSans-6d" d="M 3328 2828 
Q 3544 3216 3844 3400 
Q 4144 3584 4550 3584 
Q 5097 3584 5394 3201 
Q 5691 2819 5691 2113 
L 5691 0 
L 5113 0 
L 5113 2094 
Q 5113 2597 4934 2840 
Q 4756 3084 4391 3084 
Q 3944 3084 3684 2787 
Q 3425 2491 3425 1978 
L 3425 0 
L 2847 0 
L 2847 2094 
Q 2847 2600 2669 2842 
Q 2491 3084 2119 3084 
Q 1678 3084 1418 2786 
Q 1159 2488 1159 1978 
L 1159 0 
L 581 0 
L 581 3500 
L 1159 3500 
L 1159 2956 
Q 1356 3278 1631 3431 
Q 1906 3584 2284 3584 
Q 2666 3584 2933 3390 
Q 3200 3197 3328 2828 
z
" transform="scale(0.015625)"/>
       <path id="DejaVuSans-66" d="M 2375 4863 
L 2375 4384 
L 1825 4384 
Q 1516 4384 1395 4259 
Q 1275 4134 1275 3809 
L 1275 3500 
L 2222 3500 
L 2222 3053 
L 1275 3053 
L 1275 0 
L 697 0 
L 697 3053 
L 147 3053 
L 147 3500 
L 697 3500 
L 697 3744 
Q 697 4328 969 4595 
Q 1241 4863 1831 4863 
L 2375 4863 
z
" transform="scale(0.015625)"/>
       <path id="DejaVuSans-64" d="M 2906 2969 
L 2906 4863 
L 3481 4863 
L 3481 0 
L 2906 0 
L 2906 525 
Q 2725 213 2448 61 
Q 2172 -91 1784 -91 
Q 1150 -91 751 415 
Q 353 922 353 1747 
Q 353 2572 751 3078 
Q 1150 3584 1784 3584 
Q 2172 3584 2448 3432 
Q 2725 3281 2906 2969 
z
M 947 1747 
Q 947 1113 1208 752 
Q 1469 391 1925 391 
Q 2381 391 2643 752 
Q 2906 1113 2906 1747 
Q 2906 2381 2643 2742 
Q 2381 3103 1925 3103 
Q 1469 3103 1208 2742 
Q 947 2381 947 1747 
z
" transform="scale(0.015625)"/>
       <path id="DejaVuSans-75" d="M 544 1381 
L 544 3500 
L 1119 3500 
L 1119 1403 
Q 1119 906 1312 657 
Q 1506 409 1894 409 
Q 2359 409 2629 706 
Q 2900 1003 2900 1516 
L 2900 3500 
L 3475 3500 
L 3475 0 
L 2900 0 
L 2900 538 
Q 2691 219 2414 64 
Q 2138 -91 1772 -91 
Q 1169 -91 856 284 
Q 544 659 544 1381 
z
M 1991 3584 
L 1991 3584 
z
" transform="scale(0.015625)"/>
       <path id="DejaVuSans-6c" d="M 603 4863 
L 1178 4863 
L 1178 0 
L 603 0 
L 603 4863 
z
" transform="scale(0.015625)"/>
      </defs>
      <use xlink:href="#DejaVuSans-32"/>
      <use xlink:href="#DejaVuSans-2d" x="63.623047"/>
      <use xlink:href="#DejaVuSans-6e" x="99.707031"/>
      <use xlink:href="#DejaVuSans-6f" x="163.085938"/>
      <use xlink:href="#DejaVuSans-72" x="224.267578"/>
      <use xlink:href="#DejaVuSans-6d" x="263.630859"/>
      <use xlink:href="#DejaVuSans-20" x="361.042969"/>
      <use xlink:href="#DejaVuSans-6f" x="392.830078"/>
      <use xlink:href="#DejaVuSans-66" x="454.011719"/>
      <use xlink:href="#DejaVuSans-20" x="489.216797"/>
      <use xlink:href="#DejaVuSans-72" x="521.003906"/>
      <use xlink:href="#DejaVuSans-65" x="559.867188"/>
      <use xlink:href="#DejaVuSans-73" x="621.390625"/>
      <use xlink:href="#DejaVuSans-69" x="673.490234"/>
      <use xlink:href="#DejaVuSans-64" x="701.273438"/>
      <use xlink:href="#DejaVuSans-75" x="764.75"/>
      <use xlink:href="#DejaVuSans-61" x="828.128906"/>
      <use xlink:href="#DejaVuSans-6c" x="889.408203"/>
     </g>
    </g>
   </g>
   <g id="line2d_12">
    <path d="M 173.045455 138.840111 
L 933.954545 138.840111 
L 933.954545 138.840111 
" clip-path="url(#p30b467d47b)" style="fill: none; stroke: #1f77b4; stroke-width: 1.5; stroke-linecap: square"/>
   </g>
   <g id="line2d_13">
    <path d="M 173.045455 118.521405 
L 173.27375 135.556574 
L 173.578144 143.954908 
L 174.034735 150.174719 
L 174.567425 154.246961 
L 175.252312 157.65835 
L 176.241592 161.303104 
L 177.839661 166.199849 
L 181.796784 177.358084 
L 283.540504 460.859196 
L 294.498691 491.392953 
L 294.498691 491.392953 
" clip-path="url(#p30b467d47b)" style="fill: none; stroke: #ff7f0e; stroke-width: 1.5; stroke-linecap: square"/>
   </g>
   <g id="line2d_14">
    <path d="M 173.045455 138.840793 
L 933.954545 138.840793 
L 933.954545 138.840793 
" clip-path="url(#p30b467d47b)" style="fill: none; stroke: #2ca02c; stroke-width: 1.5; stroke-linecap: square"/>
   </g>
   <g id="line2d_15">
    <path d="M 173.045455 118.449463 
L 173.27375 135.281418 
L 173.578144 143.450905 
L 174.034735 149.454381 
L 174.567425 153.429314 
L 175.252312 156.858173 
L 176.317691 160.918764 
L 178.144055 166.85329 
L 183.775346 184.048089 
L 284.986376 491.463404 
L 284.986376 491.463404 
" clip-path="url(#p30b467d47b)" style="fill: none; stroke: #d62728; stroke-width: 1.5; stroke-linecap: square"/>
   </g>
   <g id="line2d_16">
    <path d="M 173.045455 138.847467 
L 933.954545 138.847467 
L 933.954545 138.847467 
" clip-path="url(#p30b467d47b)" style="fill: none; stroke: #9467bd; stroke-width: 1.5; stroke-linecap: square"/>
   </g>
   <g id="line2d_17">
    <path d="M 173.045455 117.607169 
L 173.27375 132.368059 
L 173.578144 138.885033 
L 174.034735 143.987321 
L 174.79572 149.654019 
L 176.241592 158.396536 
L 180.427011 181.822761 
L 236.283324 491.375674 
L 236.283324 491.375674 
" clip-path="url(#p30b467d47b)" style="fill: none; stroke: #8c564b; stroke-width: 1.5; stroke-linecap: square"/>
   </g>
   <g id="line2d_18">
    <path d="M 173.045455 138.896844 
L 933.954545 138.896844 
L 933.954545 138.896844 
" clip-path="url(#p30b467d47b)" style="fill: none; stroke: #e377c2; stroke-width: 1.5; stroke-linecap: square"/>
   </g>
   <g id="line2d_19">
    <path d="M 173.045455 107.270463 
L 173.425947 122.573568 
L 175.404509 183.350613 
L 185.677809 492.48 
L 185.677809 492.48 
" clip-path="url(#p30b467d47b)" style="fill: none; stroke: #7f7f7f; stroke-width: 1.5; stroke-linecap: square"/>
   </g>
   <g id="line2d_20">
    <path d="M 173.045455 138.278963 
L 933.954545 138.278963 
L 933.954545 138.278963 
" clip-path="url(#p30b467d47b)" style="fill: none; stroke: #bcbd22; stroke-width: 1.5; stroke-linecap: square"/>
   </g>
   <g id="line2d_21">
    <path d="M 173.045455 89.28 
L 173.121553 107.550399 
L 173.197652 125.71359 
L 173.27375 143.831239 
L 173.349849 161.922743 
L 173.425947 179.996961 
L 173.502046 198.05876 
L 173.578144 216.111137 
L 173.654243 234.156086 
L 173.730341 252.195008 
L 173.80644 270.228931 
L 173.882538 288.258634 
L 173.958637 306.284724 
L 174.034735 324.307685 
L 174.110834 342.327908 
L 174.186932 360.345716 
L 174.263031 378.361377 
L 174.339129 396.375118 
L 174.415228 414.387134 
L 174.491326 432.397591 
L 174.567425 450.406635 
L 174.643523 468.414388 
L 174.719622 486.420949 
" clip-path="url(#p30b467d47b)" style="fill: none; stroke: #17becf; stroke-width: 1.5; stroke-linecap: square"/>
   </g>
   <g id="patch_3">
    <path d="M 135 512.64 
L 135 69.12 
" style="fill: none; stroke: #000000; stroke-width: 0.8; stroke-linejoin: miter; stroke-linecap: square"/>
   </g>
   <g id="patch_4">
    <path d="M 972 512.64 
L 972 69.12 
" style="fill: none; stroke: #000000; stroke-width: 0.8; stroke-linejoin: miter; stroke-linecap: square"/>
   </g>
   <g id="patch_5">
    <path d="M 135 512.64 
L 972 512.64 
" style="fill: none; stroke: #000000; stroke-width: 0.8; stroke-linejoin: miter; stroke-linecap: square"/>
   </g>
   <g id="patch_6">
    <path d="M 135 69.12 
L 972 69.12 
" style="fill: none; stroke: #000000; stroke-width: 0.8; stroke-linejoin: miter; stroke-linecap: square"/>
   </g>
   <g id="legend_1">
    <g id="patch_7">
     <path d="M 827.4 509.64 
L 967.8 509.64 
Q 969 509.64 969 508.44 
L 969 420.84 
Q 969 419.64 967.8 419.64 
L 827.4 419.64 
Q 826.2 419.64 826.2 420.84 
L 826.2 508.44 
Q 826.2 509.64 827.4 509.64 
z
" style="fill: #ffffff; opacity: 0.8; stroke: #cccccc; stroke-linejoin: miter"/>
    </g>
    <g id="line2d_22">
     <path d="M 828.6 424.5 
L 834.6 424.5 
L 840.6 424.5 
" style="fill: none; stroke: #1f77b4; stroke-width: 1.5; stroke-linecap: square"/>
    </g>
    <g id="text_14">
     <!-- (c,h)=(0.1, 0.01), $\rho(B_{CGC})=$1.00E+00 -->
     <g transform="translate(845.4 426.6) scale(0.06 -0.06)">
      <defs>
       <path id="DejaVuSans-28" d="M 1984 4856 
Q 1566 4138 1362 3434 
Q 1159 2731 1159 2009 
Q 1159 1288 1364 580 
Q 1569 -128 1984 -844 
L 1484 -844 
Q 1016 -109 783 600 
Q 550 1309 550 2009 
Q 550 2706 781 3412 
Q 1013 4119 1484 4856 
L 1984 4856 
z
" transform="scale(0.015625)"/>
       <path id="DejaVuSans-63" d="M 3122 3366 
L 3122 2828 
Q 2878 2963 2633 3030 
Q 2388 3097 2138 3097 
Q 1578 3097 1268 2742 
Q 959 2388 959 1747 
Q 959 1106 1268 751 
Q 1578 397 2138 397 
Q 2388 397 2633 464 
Q 2878 531 3122 666 
L 3122 134 
Q 2881 22 2623 -34 
Q 2366 -91 2075 -91 
Q 1284 -91 818 406 
Q 353 903 353 1747 
Q 353 2603 823 3093 
Q 1294 3584 2113 3584 
Q 2378 3584 2631 3529 
Q 2884 3475 3122 3366 
z
" transform="scale(0.015625)"/>
       <path id="DejaVuSans-2c" d="M 750 794 
L 1409 794 
L 1409 256 
L 897 -744 
L 494 -744 
L 750 256 
L 750 794 
z
" transform="scale(0.015625)"/>
       <path id="DejaVuSans-68" d="M 3513 2113 
L 3513 0 
L 2938 0 
L 2938 2094 
Q 2938 2591 2744 2837 
Q 2550 3084 2163 3084 
Q 1697 3084 1428 2787 
Q 1159 2491 1159 1978 
L 1159 0 
L 581 0 
L 581 4863 
L 1159 4863 
L 1159 2956 
Q 1366 3272 1645 3428 
Q 1925 3584 2291 3584 
Q 2894 3584 3203 3211 
Q 3513 2838 3513 2113 
z
" transform="scale(0.015625)"/>
       <path id="DejaVuSans-29" d="M 513 4856 
L 1013 4856 
Q 1481 4119 1714 3412 
Q 1947 2706 1947 2009 
Q 1947 1309 1714 600 
Q 1481 -109 1013 -844 
L 513 -844 
Q 928 -128 1133 580 
Q 1338 1288 1338 2009 
Q 1338 2731 1133 3434 
Q 928 4138 513 4856 
z
" transform="scale(0.015625)"/>
       <path id="DejaVuSans-3d" d="M 678 2906 
L 4684 2906 
L 4684 2381 
L 678 2381 
L 678 2906 
z
M 678 1631 
L 4684 1631 
L 4684 1100 
L 678 1100 
L 678 1631 
z
" transform="scale(0.015625)"/>
       <path id="DejaVuSans-2e" d="M 684 794 
L 1344 794 
L 1344 0 
L 684 0 
L 684 794 
z
" transform="scale(0.015625)"/>
       <path id="DejaVuSans-Oblique-3c1" d="M 1203 2875 
Q 1453 3194 1981 3475 
Q 2188 3584 2756 3584 
Q 3394 3584 3694 3078 
Q 3994 2572 3834 1747 
Q 3672 922 3175 415 
Q 2678 -91 2041 -91 
Q 1656 -91 1409 63 
Q 1163 213 1044 525 
L 681 -1331 
L 103 -1331 
L 697 1716 
Q 838 2438 1203 2875 
z
M 3238 1747 
Q 3359 2381 3169 2744 
Q 2978 3103 2522 3103 
Q 2066 3103 1734 2744 
Q 1403 2381 1281 1747 
Q 1156 1113 1347 750 
Q 1538 391 1994 391 
Q 2450 391 2781 750 
Q 3113 1113 3238 1747 
z
" transform="scale(0.015625)"/>
       <path id="DejaVuSans-Oblique-42" d="M 1081 4666 
L 2694 4666 
Q 3350 4666 3675 4422 
Q 4000 4178 4000 3688 
Q 4000 3238 3720 2911 
Q 3441 2584 2988 2516 
Q 3375 2428 3569 2181 
Q 3763 1934 3763 1522 
Q 3763 819 3242 409 
Q 2722 0 1819 0 
L 172 0 
L 1081 4666 
z
M 1234 2228 
L 903 519 
L 1919 519 
Q 2491 519 2800 781 
Q 3109 1044 3109 1522 
Q 3109 1891 2904 2059 
Q 2700 2228 2247 2228 
L 1234 2228 
z
M 1606 4147 
L 1331 2741 
L 2272 2741 
Q 2775 2741 3058 2959 
Q 3341 3178 3341 3566 
Q 3341 3869 3150 4008 
Q 2959 4147 2541 4147 
L 1606 4147 
z
" transform="scale(0.015625)"/>
       <path id="DejaVuSans-Oblique-43" d="M 4447 4306 
L 4319 3641 
Q 4019 3944 3683 4091 
Q 3347 4238 2956 4238 
Q 2422 4238 2017 3981 
Q 1613 3725 1319 3200 
Q 1131 2863 1032 2486 
Q 934 2109 934 1728 
Q 934 1091 1264 756 
Q 1594 422 2222 422 
Q 2656 422 3056 561 
Q 3456 700 3834 978 
L 3688 231 
Q 3316 72 2936 -9 
Q 2556 -91 2175 -91 
Q 1278 -91 773 396 
Q 269 884 269 1753 
Q 269 2309 461 2846 
Q 653 3384 1013 3828 
Q 1394 4300 1883 4525 
Q 2372 4750 3022 4750 
Q 3422 4750 3780 4639 
Q 4138 4528 4447 4306 
z
" transform="scale(0.015625)"/>
       <path id="DejaVuSans-Oblique-47" d="M 3494 697 
L 3738 1919 
L 2700 1919 
L 2797 2438 
L 4453 2438 
L 4050 384 
Q 3634 156 3143 32 
Q 2653 -91 2156 -91 
Q 1278 -91 783 396 
Q 288 884 288 1753 
Q 288 2475 589 3126 
Q 891 3778 1422 4213 
Q 1756 4484 2153 4617 
Q 2550 4750 3034 4750 
Q 3472 4750 3873 4639 
Q 4275 4528 4641 4306 
L 4513 3634 
Q 4231 3928 3853 4083 
Q 3475 4238 3047 4238 
Q 2550 4238 2172 4048 
Q 1794 3859 1497 3463 
Q 1244 3125 1098 2667 
Q 953 2209 953 1734 
Q 953 1081 1287 751 
Q 1622 422 2284 422 
Q 2616 422 2925 492 
Q 3234 563 3494 697 
z
" transform="scale(0.015625)"/>
       <path id="DejaVuSans-45" d="M 628 4666 
L 3578 4666 
L 3578 4134 
L 1259 4134 
L 1259 2753 
L 3481 2753 
L 3481 2222 
L 1259 2222 
L 1259 531 
L 3634 531 
L 3634 0 
L 628 0 
L 628 4666 
z
" transform="scale(0.015625)"/>
       <path id="DejaVuSans-2b" d="M 2944 4013 
L 2944 2272 
L 4684 2272 
L 4684 1741 
L 2944 1741 
L 2944 0 
L 2419 0 
L 2419 1741 
L 678 1741 
L 678 2272 
L 2419 2272 
L 2419 4013 
L 2944 4013 
z
" transform="scale(0.015625)"/>
      </defs>
      <use xlink:href="#DejaVuSans-28" transform="translate(0 0.015625)"/>
      <use xlink:href="#DejaVuSans-63" transform="translate(39.013672 0.015625)"/>
      <use xlink:href="#DejaVuSans-2c" transform="translate(93.994141 0.015625)"/>
      <use xlink:href="#DejaVuSans-68" transform="translate(125.78125 0.015625)"/>
      <use xlink:href="#DejaVuSans-29" transform="translate(189.160156 0.015625)"/>
      <use xlink:href="#DejaVuSans-3d" transform="translate(228.173828 0.015625)"/>
      <use xlink:href="#DejaVuSans-28" transform="translate(311.962891 0.015625)"/>
      <use xlink:href="#DejaVuSans-30" transform="translate(350.976562 0.015625)"/>
      <use xlink:href="#DejaVuSans-2e" transform="translate(414.599609 0.015625)"/>
      <use xlink:href="#DejaVuSans-31" transform="translate(446.386719 0.015625)"/>
      <use xlink:href="#DejaVuSans-2c" transform="translate(510.009766 0.015625)"/>
      <use xlink:href="#DejaVuSans-20" transform="translate(541.796875 0.015625)"/>
      <use xlink:href="#DejaVuSans-30" transform="translate(573.583984 0.015625)"/>
      <use xlink:href="#DejaVuSans-2e" transform="translate(637.207031 0.015625)"/>
      <use xlink:href="#DejaVuSans-30" transform="translate(668.994141 0.015625)"/>
      <use xlink:href="#DejaVuSans-31" transform="translate(732.617188 0.015625)"/>
      <use xlink:href="#DejaVuSans-29" transform="translate(796.240234 0.015625)"/>
      <use xlink:href="#DejaVuSans-2c" transform="translate(835.253906 0.015625)"/>
      <use xlink:href="#DejaVuSans-20" transform="translate(867.041016 0.015625)"/>
      <use xlink:href="#DejaVuSans-Oblique-3c1" transform="translate(898.828125 0.015625)"/>
      <use xlink:href="#DejaVuSans-28" transform="translate(962.304688 0.015625)"/>
      <use xlink:href="#DejaVuSans-Oblique-42" transform="translate(1001.318359 0.015625)"/>
      <use xlink:href="#DejaVuSans-Oblique-43" transform="translate(1069.921875 -16.390625) scale(0.7)"/>
      <use xlink:href="#DejaVuSans-Oblique-47" transform="translate(1118.798828 -16.390625) scale(0.7)"/>
      <use xlink:href="#DejaVuSans-Oblique-43" transform="translate(1173.041992 -16.390625) scale(0.7)"/>
      <use xlink:href="#DejaVuSans-29" transform="translate(1224.65332 0.015625)"/>
      <use xlink:href="#DejaVuSans-3d" transform="translate(1283.149414 0.015625)"/>
      <use xlink:href="#DejaVuSans-31" transform="translate(1386.420898 0.015625)"/>
      <use xlink:href="#DejaVuSans-2e" transform="translate(1450.043945 0.015625)"/>
      <use xlink:href="#DejaVuSans-30" transform="translate(1481.831055 0.015625)"/>
      <use xlink:href="#DejaVuSans-30" transform="translate(1545.454102 0.015625)"/>
      <use xlink:href="#DejaVuSans-45" transform="translate(1609.077148 0.015625)"/>
      <use xlink:href="#DejaVuSans-2b" transform="translate(1672.260742 0.015625)"/>
      <use xlink:href="#DejaVuSans-30" transform="translate(1756.049805 0.015625)"/>
      <use xlink:href="#DejaVuSans-30" transform="translate(1819.672852 0.015625)"/>
     </g>
    </g>
    <g id="line2d_23">
     <path d="M 828.6 433.32 
L 834.6 433.32 
L 840.6 433.32 
" style="fill: none; stroke: #ff7f0e; stroke-width: 1.5; stroke-linecap: square"/>
    </g>
    <g id="text_15">
     <!-- (c,h)=(0.1, 0.01), $\rho(B_{SSOR})=$1.00E+00 -->
     <g transform="translate(845.4 435.42) scale(0.06 -0.06)">
      <defs>
       <path id="DejaVuSans-Oblique-53" d="M 3859 4513 
L 3738 3897 
Q 3422 4066 3111 4152 
Q 2800 4238 2509 4238 
Q 1944 4238 1609 3991 
Q 1275 3744 1275 3334 
Q 1275 3109 1398 2989 
Q 1522 2869 2034 2731 
L 2413 2638 
Q 3053 2472 3303 2217 
Q 3553 1963 3553 1503 
Q 3553 797 2998 353 
Q 2444 -91 1538 -91 
Q 1166 -91 791 -17 
Q 416 56 38 206 
L 166 856 
Q 513 641 861 531 
Q 1209 422 1556 422 
Q 2147 422 2503 684 
Q 2859 947 2859 1369 
Q 2859 1650 2717 1795 
Q 2575 1941 2106 2059 
L 1728 2156 
Q 1081 2325 845 2545 
Q 609 2766 609 3163 
Q 609 3859 1145 4304 
Q 1681 4750 2541 4750 
Q 2875 4750 3203 4690 
Q 3531 4631 3859 4513 
z
" transform="scale(0.015625)"/>
       <path id="DejaVuSans-Oblique-4f" d="M 2919 4238 
Q 2400 4238 2003 3986 
Q 1606 3734 1313 3219 
Q 1125 2891 1026 2522 
Q 928 2153 928 1778 
Q 928 1128 1239 775 
Q 1550 422 2119 422 
Q 2631 422 3032 676 
Q 3434 931 3719 1434 
Q 3909 1772 4009 2142 
Q 4109 2513 4109 2881 
Q 4109 3528 3796 3883 
Q 3484 4238 2919 4238 
z
M 2100 -91 
Q 1241 -91 748 418 
Q 256 928 256 1813 
Q 256 2319 448 2847 
Q 641 3375 978 3788 
Q 1375 4272 1862 4511 
Q 2350 4750 2938 4750 
Q 3794 4750 4287 4245 
Q 4781 3741 4781 2869 
Q 4781 2331 4593 1812 
Q 4406 1294 4056 872 
Q 3656 384 3173 146 
Q 2691 -91 2100 -91 
z
" transform="scale(0.015625)"/>
       <path id="DejaVuSans-Oblique-52" d="M 1613 4147 
L 1294 2491 
L 2106 2491 
Q 2584 2491 2879 2755 
Q 3175 3019 3175 3444 
Q 3175 3784 2976 3965 
Q 2778 4147 2406 4147 
L 1613 4147 
z
M 2772 2241 
Q 2972 2194 3105 2009 
Q 3238 1825 3413 1275 
L 3809 0 
L 3144 0 
L 2778 1197 
Q 2638 1659 2453 1815 
Q 2269 1972 1888 1972 
L 1191 1972 
L 806 0 
L 172 0 
L 1081 4666 
L 2503 4666 
Q 3150 4666 3495 4373 
Q 3841 4081 3841 3531 
Q 3841 3044 3547 2687 
Q 3253 2331 2772 2241 
z
" transform="scale(0.015625)"/>
      </defs>
      <use xlink:href="#DejaVuSans-28" transform="translate(0 0.015625)"/>
      <use xlink:href="#DejaVuSans-63" transform="translate(39.013672 0.015625)"/>
      <use xlink:href="#DejaVuSans-2c" transform="translate(93.994141 0.015625)"/>
      <use xlink:href="#DejaVuSans-68" transform="translate(125.78125 0.015625)"/>
      <use xlink:href="#DejaVuSans-29" transform="translate(189.160156 0.015625)"/>
      <use xlink:href="#DejaVuSans-3d" transform="translate(228.173828 0.015625)"/>
      <use xlink:href="#DejaVuSans-28" transform="translate(311.962891 0.015625)"/>
      <use xlink:href="#DejaVuSans-30" transform="translate(350.976562 0.015625)"/>
      <use xlink:href="#DejaVuSans-2e" transform="translate(414.599609 0.015625)"/>
      <use xlink:href="#DejaVuSans-31" transform="translate(446.386719 0.015625)"/>
      <use xlink:href="#DejaVuSans-2c" transform="translate(510.009766 0.015625)"/>
      <use xlink:href="#DejaVuSans-20" transform="translate(541.796875 0.015625)"/>
      <use xlink:href="#DejaVuSans-30" transform="translate(573.583984 0.015625)"/>
      <use xlink:href="#DejaVuSans-2e" transform="translate(637.207031 0.015625)"/>
      <use xlink:href="#DejaVuSans-30" transform="translate(668.994141 0.015625)"/>
      <use xlink:href="#DejaVuSans-31" transform="translate(732.617188 0.015625)"/>
      <use xlink:href="#DejaVuSans-29" transform="translate(796.240234 0.015625)"/>
      <use xlink:href="#DejaVuSans-2c" transform="translate(835.253906 0.015625)"/>
      <use xlink:href="#DejaVuSans-20" transform="translate(867.041016 0.015625)"/>
      <use xlink:href="#DejaVuSans-Oblique-3c1" transform="translate(898.828125 0.015625)"/>
      <use xlink:href="#DejaVuSans-28" transform="translate(962.304688 0.015625)"/>
      <use xlink:href="#DejaVuSans-Oblique-42" transform="translate(1001.318359 0.015625)"/>
      <use xlink:href="#DejaVuSans-Oblique-53" transform="translate(1069.921875 -16.390625) scale(0.7)"/>
      <use xlink:href="#DejaVuSans-Oblique-53" transform="translate(1114.355469 -16.390625) scale(0.7)"/>
      <use xlink:href="#DejaVuSans-Oblique-4f" transform="translate(1158.789062 -16.390625) scale(0.7)"/>
      <use xlink:href="#DejaVuSans-Oblique-52" transform="translate(1213.886719 -16.390625) scale(0.7)"/>
      <use xlink:href="#DejaVuSans-29" transform="translate(1265.258789 0.015625)"/>
      <use xlink:href="#DejaVuSans-3d" transform="translate(1323.754883 0.015625)"/>
      <use xlink:href="#DejaVuSans-31" transform="translate(1427.026367 0.015625)"/>
      <use xlink:href="#DejaVuSans-2e" transform="translate(1490.649414 0.015625)"/>
      <use xlink:href="#DejaVuSans-30" transform="translate(1522.436523 0.015625)"/>
      <use xlink:href="#DejaVuSans-30" transform="translate(1586.05957 0.015625)"/>
      <use xlink:href="#DejaVuSans-45" transform="translate(1649.682617 0.015625)"/>
      <use xlink:href="#DejaVuSans-2b" transform="translate(1712.866211 0.015625)"/>
      <use xlink:href="#DejaVuSans-30" transform="translate(1796.655273 0.015625)"/>
      <use xlink:href="#DejaVuSans-30" transform="translate(1860.27832 0.015625)"/>
     </g>
    </g>
    <g id="line2d_24">
     <path d="M 828.6 442.14 
L 834.6 442.14 
L 840.6 442.14 
" style="fill: none; stroke: #2ca02c; stroke-width: 1.5; stroke-linecap: square"/>
    </g>
    <g id="text_16">
     <!-- (c,h)=(1, 0.01), $\rho(B_{CGC})=$1.00E+00 -->
     <g transform="translate(845.4 444.24) scale(0.06 -0.06)">
      <use xlink:href="#DejaVuSans-28" transform="translate(0 0.015625)"/>
      <use xlink:href="#DejaVuSans-63" transform="translate(39.013672 0.015625)"/>
      <use xlink:href="#DejaVuSans-2c" transform="translate(93.994141 0.015625)"/>
      <use xlink:href="#DejaVuSans-68" transform="translate(125.78125 0.015625)"/>
      <use xlink:href="#DejaVuSans-29" transform="translate(189.160156 0.015625)"/>
      <use xlink:href="#DejaVuSans-3d" transform="translate(228.173828 0.015625)"/>
      <use xlink:href="#DejaVuSans-28" transform="translate(311.962891 0.015625)"/>
      <use xlink:href="#DejaVuSans-31" transform="translate(350.976562 0.015625)"/>
      <use xlink:href="#DejaVuSans-2c" transform="translate(414.599609 0.015625)"/>
      <use xlink:href="#DejaVuSans-20" transform="translate(446.386719 0.015625)"/>
      <use xlink:href="#DejaVuSans-30" transform="translate(478.173828 0.015625)"/>
      <use xlink:href="#DejaVuSans-2e" transform="translate(541.796875 0.015625)"/>
      <use xlink:href="#DejaVuSans-30" transform="translate(573.583984 0.015625)"/>
      <use xlink:href="#DejaVuSans-31" transform="translate(637.207031 0.015625)"/>
      <use xlink:href="#DejaVuSans-29" transform="translate(700.830078 0.015625)"/>
      <use xlink:href="#DejaVuSans-2c" transform="translate(739.84375 0.015625)"/>
      <use xlink:href="#DejaVuSans-20" transform="translate(771.630859 0.015625)"/>
      <use xlink:href="#DejaVuSans-Oblique-3c1" transform="translate(803.417969 0.015625)"/>
      <use xlink:href="#DejaVuSans-28" transform="translate(866.894531 0.015625)"/>
      <use xlink:href="#DejaVuSans-Oblique-42" transform="translate(905.908203 0.015625)"/>
      <use xlink:href="#DejaVuSans-Oblique-43" transform="translate(974.511719 -16.390625) scale(0.7)"/>
      <use xlink:href="#DejaVuSans-Oblique-47" transform="translate(1023.388672 -16.390625) scale(0.7)"/>
      <use xlink:href="#DejaVuSans-Oblique-43" transform="translate(1077.631836 -16.390625) scale(0.7)"/>
      <use xlink:href="#DejaVuSans-29" transform="translate(1129.243164 0.015625)"/>
      <use xlink:href="#DejaVuSans-3d" transform="translate(1187.739258 0.015625)"/>
      <use xlink:href="#DejaVuSans-31" transform="translate(1291.010742 0.015625)"/>
      <use xlink:href="#DejaVuSans-2e" transform="translate(1354.633789 0.015625)"/>
      <use xlink:href="#DejaVuSans-30" transform="translate(1386.420898 0.015625)"/>
      <use xlink:href="#DejaVuSans-30" transform="translate(1450.043945 0.015625)"/>
      <use xlink:href="#DejaVuSans-45" transform="translate(1513.666992 0.015625)"/>
      <use xlink:href="#DejaVuSans-2b" transform="translate(1576.850586 0.015625)"/>
      <use xlink:href="#DejaVuSans-30" transform="translate(1660.639648 0.015625)"/>
      <use xlink:href="#DejaVuSans-30" transform="translate(1724.262695 0.015625)"/>
     </g>
    </g>
    <g id="line2d_25">
     <path d="M 828.6 450.96 
L 834.6 450.96 
L 840.6 450.96 
" style="fill: none; stroke: #d62728; stroke-width: 1.5; stroke-linecap: square"/>
    </g>
    <g id="text_17">
     <!-- (c,h)=(1, 0.01), $\rho(B_{SSOR})=$1.00E+00 -->
     <g transform="translate(845.4 453.06) scale(0.06 -0.06)">
      <use xlink:href="#DejaVuSans-28" transform="translate(0 0.015625)"/>
      <use xlink:href="#DejaVuSans-63" transform="translate(39.013672 0.015625)"/>
      <use xlink:href="#DejaVuSans-2c" transform="translate(93.994141 0.015625)"/>
      <use xlink:href="#DejaVuSans-68" transform="translate(125.78125 0.015625)"/>
      <use xlink:href="#DejaVuSans-29" transform="translate(189.160156 0.015625)"/>
      <use xlink:href="#DejaVuSans-3d" transform="translate(228.173828 0.015625)"/>
      <use xlink:href="#DejaVuSans-28" transform="translate(311.962891 0.015625)"/>
      <use xlink:href="#DejaVuSans-31" transform="translate(350.976562 0.015625)"/>
      <use xlink:href="#DejaVuSans-2c" transform="translate(414.599609 0.015625)"/>
      <use xlink:href="#DejaVuSans-20" transform="translate(446.386719 0.015625)"/>
      <use xlink:href="#DejaVuSans-30" transform="translate(478.173828 0.015625)"/>
      <use xlink:href="#DejaVuSans-2e" transform="translate(541.796875 0.015625)"/>
      <use xlink:href="#DejaVuSans-30" transform="translate(573.583984 0.015625)"/>
      <use xlink:href="#DejaVuSans-31" transform="translate(637.207031 0.015625)"/>
      <use xlink:href="#DejaVuSans-29" transform="translate(700.830078 0.015625)"/>
      <use xlink:href="#DejaVuSans-2c" transform="translate(739.84375 0.015625)"/>
      <use xlink:href="#DejaVuSans-20" transform="translate(771.630859 0.015625)"/>
      <use xlink:href="#DejaVuSans-Oblique-3c1" transform="translate(803.417969 0.015625)"/>
      <use xlink:href="#DejaVuSans-28" transform="translate(866.894531 0.015625)"/>
      <use xlink:href="#DejaVuSans-Oblique-42" transform="translate(905.908203 0.015625)"/>
      <use xlink:href="#DejaVuSans-Oblique-53" transform="translate(974.511719 -16.390625) scale(0.7)"/>
      <use xlink:href="#DejaVuSans-Oblique-53" transform="translate(1018.945312 -16.390625) scale(0.7)"/>
      <use xlink:href="#DejaVuSans-Oblique-4f" transform="translate(1063.378906 -16.390625) scale(0.7)"/>
      <use xlink:href="#DejaVuSans-Oblique-52" transform="translate(1118.476562 -16.390625) scale(0.7)"/>
      <use xlink:href="#DejaVuSans-29" transform="translate(1169.848633 0.015625)"/>
      <use xlink:href="#DejaVuSans-3d" transform="translate(1228.344727 0.015625)"/>
      <use xlink:href="#DejaVuSans-31" transform="translate(1331.616211 0.015625)"/>
      <use xlink:href="#DejaVuSans-2e" transform="translate(1395.239258 0.015625)"/>
      <use xlink:href="#DejaVuSans-30" transform="translate(1427.026367 0.015625)"/>
      <use xlink:href="#DejaVuSans-30" transform="translate(1490.649414 0.015625)"/>
      <use xlink:href="#DejaVuSans-45" transform="translate(1554.272461 0.015625)"/>
      <use xlink:href="#DejaVuSans-2b" transform="translate(1617.456055 0.015625)"/>
      <use xlink:href="#DejaVuSans-30" transform="translate(1701.245117 0.015625)"/>
      <use xlink:href="#DejaVuSans-30" transform="translate(1764.868164 0.015625)"/>
     </g>
    </g>
    <g id="line2d_26">
     <path d="M 828.6 459.78 
L 834.6 459.78 
L 840.6 459.78 
" style="fill: none; stroke: #9467bd; stroke-width: 1.5; stroke-linecap: square"/>
    </g>
    <g id="text_18">
     <!-- (c,h)=(10, 0.01), $\rho(B_{CGC})=$1.00E+00 -->
     <g transform="translate(845.4 461.88) scale(0.06 -0.06)">
      <use xlink:href="#DejaVuSans-28" transform="translate(0 0.015625)"/>
      <use xlink:href="#DejaVuSans-63" transform="translate(39.013672 0.015625)"/>
      <use xlink:href="#DejaVuSans-2c" transform="translate(93.994141 0.015625)"/>
      <use xlink:href="#DejaVuSans-68" transform="translate(125.78125 0.015625)"/>
      <use xlink:href="#DejaVuSans-29" transform="translate(189.160156 0.015625)"/>
      <use xlink:href="#DejaVuSans-3d" transform="translate(228.173828 0.015625)"/>
      <use xlink:href="#DejaVuSans-28" transform="translate(311.962891 0.015625)"/>
      <use xlink:href="#DejaVuSans-31" transform="translate(350.976562 0.015625)"/>
      <use xlink:href="#DejaVuSans-30" transform="translate(414.599609 0.015625)"/>
      <use xlink:href="#DejaVuSans-2c" transform="translate(478.222656 0.015625)"/>
      <use xlink:href="#DejaVuSans-20" transform="translate(510.009766 0.015625)"/>
      <use xlink:href="#DejaVuSans-30" transform="translate(541.796875 0.015625)"/>
      <use xlink:href="#DejaVuSans-2e" transform="translate(605.419922 0.015625)"/>
      <use xlink:href="#DejaVuSans-30" transform="translate(637.207031 0.015625)"/>
      <use xlink:href="#DejaVuSans-31" transform="translate(700.830078 0.015625)"/>
      <use xlink:href="#DejaVuSans-29" transform="translate(764.453125 0.015625)"/>
      <use xlink:href="#DejaVuSans-2c" transform="translate(803.466797 0.015625)"/>
      <use xlink:href="#DejaVuSans-20" transform="translate(835.253906 0.015625)"/>
      <use xlink:href="#DejaVuSans-Oblique-3c1" transform="translate(867.041016 0.015625)"/>
      <use xlink:href="#DejaVuSans-28" transform="translate(930.517578 0.015625)"/>
      <use xlink:href="#DejaVuSans-Oblique-42" transform="translate(969.53125 0.015625)"/>
      <use xlink:href="#DejaVuSans-Oblique-43" transform="translate(1038.134766 -16.390625) scale(0.7)"/>
      <use xlink:href="#DejaVuSans-Oblique-47" transform="translate(1087.011719 -16.390625) scale(0.7)"/>
      <use xlink:href="#DejaVuSans-Oblique-43" transform="translate(1141.254883 -16.390625) scale(0.7)"/>
      <use xlink:href="#DejaVuSans-29" transform="translate(1192.866211 0.015625)"/>
      <use xlink:href="#DejaVuSans-3d" transform="translate(1251.362305 0.015625)"/>
      <use xlink:href="#DejaVuSans-31" transform="translate(1354.633789 0.015625)"/>
      <use xlink:href="#DejaVuSans-2e" transform="translate(1418.256836 0.015625)"/>
      <use xlink:href="#DejaVuSans-30" transform="translate(1450.043945 0.015625)"/>
      <use xlink:href="#DejaVuSans-30" transform="translate(1513.666992 0.015625)"/>
      <use xlink:href="#DejaVuSans-45" transform="translate(1577.290039 0.015625)"/>
      <use xlink:href="#DejaVuSans-2b" transform="translate(1640.473633 0.015625)"/>
      <use xlink:href="#DejaVuSans-30" transform="translate(1724.262695 0.015625)"/>
      <use xlink:href="#DejaVuSans-30" transform="translate(1787.885742 0.015625)"/>
     </g>
    </g>
    <g id="line2d_27">
     <path d="M 828.6 468.6 
L 834.6 468.6 
L 840.6 468.6 
" style="fill: none; stroke: #8c564b; stroke-width: 1.5; stroke-linecap: square"/>
    </g>
    <g id="text_19">
     <!-- (c,h)=(10, 0.01), $\rho(B_{SSOR})=$1.00E+00 -->
     <g transform="translate(845.4 470.7) scale(0.06 -0.06)">
      <use xlink:href="#DejaVuSans-28" transform="translate(0 0.015625)"/>
      <use xlink:href="#DejaVuSans-63" transform="translate(39.013672 0.015625)"/>
      <use xlink:href="#DejaVuSans-2c" transform="translate(93.994141 0.015625)"/>
      <use xlink:href="#DejaVuSans-68" transform="translate(125.78125 0.015625)"/>
      <use xlink:href="#DejaVuSans-29" transform="translate(189.160156 0.015625)"/>
      <use xlink:href="#DejaVuSans-3d" transform="translate(228.173828 0.015625)"/>
      <use xlink:href="#DejaVuSans-28" transform="translate(311.962891 0.015625)"/>
      <use xlink:href="#DejaVuSans-31" transform="translate(350.976562 0.015625)"/>
      <use xlink:href="#DejaVuSans-30" transform="translate(414.599609 0.015625)"/>
      <use xlink:href="#DejaVuSans-2c" transform="translate(478.222656 0.015625)"/>
      <use xlink:href="#DejaVuSans-20" transform="translate(510.009766 0.015625)"/>
      <use xlink:href="#DejaVuSans-30" transform="translate(541.796875 0.015625)"/>
      <use xlink:href="#DejaVuSans-2e" transform="translate(605.419922 0.015625)"/>
      <use xlink:href="#DejaVuSans-30" transform="translate(637.207031 0.015625)"/>
      <use xlink:href="#DejaVuSans-31" transform="translate(700.830078 0.015625)"/>
      <use xlink:href="#DejaVuSans-29" transform="translate(764.453125 0.015625)"/>
      <use xlink:href="#DejaVuSans-2c" transform="translate(803.466797 0.015625)"/>
      <use xlink:href="#DejaVuSans-20" transform="translate(835.253906 0.015625)"/>
      <use xlink:href="#DejaVuSans-Oblique-3c1" transform="translate(867.041016 0.015625)"/>
      <use xlink:href="#DejaVuSans-28" transform="translate(930.517578 0.015625)"/>
      <use xlink:href="#DejaVuSans-Oblique-42" transform="translate(969.53125 0.015625)"/>
      <use xlink:href="#DejaVuSans-Oblique-53" transform="translate(1038.134766 -16.390625) scale(0.7)"/>
      <use xlink:href="#DejaVuSans-Oblique-53" transform="translate(1082.568359 -16.390625) scale(0.7)"/>
      <use xlink:href="#DejaVuSans-Oblique-4f" transform="translate(1127.001953 -16.390625) scale(0.7)"/>
      <use xlink:href="#DejaVuSans-Oblique-52" transform="translate(1182.099609 -16.390625) scale(0.7)"/>
      <use xlink:href="#DejaVuSans-29" transform="translate(1233.47168 0.015625)"/>
      <use xlink:href="#DejaVuSans-3d" transform="translate(1291.967773 0.015625)"/>
      <use xlink:href="#DejaVuSans-31" transform="translate(1395.239258 0.015625)"/>
      <use xlink:href="#DejaVuSans-2e" transform="translate(1458.862305 0.015625)"/>
      <use xlink:href="#DejaVuSans-30" transform="translate(1490.649414 0.015625)"/>
      <use xlink:href="#DejaVuSans-30" transform="translate(1554.272461 0.015625)"/>
      <use xlink:href="#DejaVuSans-45" transform="translate(1617.895508 0.015625)"/>
      <use xlink:href="#DejaVuSans-2b" transform="translate(1681.079102 0.015625)"/>
      <use xlink:href="#DejaVuSans-30" transform="translate(1764.868164 0.015625)"/>
      <use xlink:href="#DejaVuSans-30" transform="translate(1828.491211 0.015625)"/>
     </g>
    </g>
    <g id="line2d_28">
     <path d="M 828.6 477.42 
L 834.6 477.42 
L 840.6 477.42 
" style="fill: none; stroke: #e377c2; stroke-width: 1.5; stroke-linecap: square"/>
    </g>
    <g id="text_20">
     <!-- (c,h)=(100, 0.01), $\rho(B_{CGC})=$1.00E+00 -->
     <g transform="translate(845.4 479.52) scale(0.06 -0.06)">
      <use xlink:href="#DejaVuSans-28" transform="translate(0 0.015625)"/>
      <use xlink:href="#DejaVuSans-63" transform="translate(39.013672 0.015625)"/>
      <use xlink:href="#DejaVuSans-2c" transform="translate(93.994141 0.015625)"/>
      <use xlink:href="#DejaVuSans-68" transform="translate(125.78125 0.015625)"/>
      <use xlink:href="#DejaVuSans-29" transform="translate(189.160156 0.015625)"/>
      <use xlink:href="#DejaVuSans-3d" transform="translate(228.173828 0.015625)"/>
      <use xlink:href="#DejaVuSans-28" transform="translate(311.962891 0.015625)"/>
      <use xlink:href="#DejaVuSans-31" transform="translate(350.976562 0.015625)"/>
      <use xlink:href="#DejaVuSans-30" transform="translate(414.599609 0.015625)"/>
      <use xlink:href="#DejaVuSans-30" transform="translate(478.222656 0.015625)"/>
      <use xlink:href="#DejaVuSans-2c" transform="translate(541.845703 0.015625)"/>
      <use xlink:href="#DejaVuSans-20" transform="translate(573.632812 0.015625)"/>
      <use xlink:href="#DejaVuSans-30" transform="translate(605.419922 0.015625)"/>
      <use xlink:href="#DejaVuSans-2e" transform="translate(669.042969 0.015625)"/>
      <use xlink:href="#DejaVuSans-30" transform="translate(700.830078 0.015625)"/>
      <use xlink:href="#DejaVuSans-31" transform="translate(764.453125 0.015625)"/>
      <use xlink:href="#DejaVuSans-29" transform="translate(828.076172 0.015625)"/>
      <use xlink:href="#DejaVuSans-2c" transform="translate(867.089844 0.015625)"/>
      <use xlink:href="#DejaVuSans-20" transform="translate(898.876953 0.015625)"/>
      <use xlink:href="#DejaVuSans-Oblique-3c1" transform="translate(930.664062 0.015625)"/>
      <use xlink:href="#DejaVuSans-28" transform="translate(994.140625 0.015625)"/>
      <use xlink:href="#DejaVuSans-Oblique-42" transform="translate(1033.154297 0.015625)"/>
      <use xlink:href="#DejaVuSans-Oblique-43" transform="translate(1101.757812 -16.390625) scale(0.7)"/>
      <use xlink:href="#DejaVuSans-Oblique-47" transform="translate(1150.634766 -16.390625) scale(0.7)"/>
      <use xlink:href="#DejaVuSans-Oblique-43" transform="translate(1204.87793 -16.390625) scale(0.7)"/>
      <use xlink:href="#DejaVuSans-29" transform="translate(1256.489258 0.015625)"/>
      <use xlink:href="#DejaVuSans-3d" transform="translate(1314.985352 0.015625)"/>
      <use xlink:href="#DejaVuSans-31" transform="translate(1418.256836 0.015625)"/>
      <use xlink:href="#DejaVuSans-2e" transform="translate(1481.879883 0.015625)"/>
      <use xlink:href="#DejaVuSans-30" transform="translate(1513.666992 0.015625)"/>
      <use xlink:href="#DejaVuSans-30" transform="translate(1577.290039 0.015625)"/>
      <use xlink:href="#DejaVuSans-45" transform="translate(1640.913086 0.015625)"/>
      <use xlink:href="#DejaVuSans-2b" transform="translate(1704.09668 0.015625)"/>
      <use xlink:href="#DejaVuSans-30" transform="translate(1787.885742 0.015625)"/>
      <use xlink:href="#DejaVuSans-30" transform="translate(1851.508789 0.015625)"/>
     </g>
    </g>
    <g id="line2d_29">
     <path d="M 828.6 486.24 
L 834.6 486.24 
L 840.6 486.24 
" style="fill: none; stroke: #7f7f7f; stroke-width: 1.5; stroke-linecap: square"/>
    </g>
    <g id="text_21">
     <!-- (c,h)=(100, 0.01), $\rho(B_{SSOR})=$1.00E+00 -->
     <g transform="translate(845.4 488.34) scale(0.06 -0.06)">
      <use xlink:href="#DejaVuSans-28" transform="translate(0 0.015625)"/>
      <use xlink:href="#DejaVuSans-63" transform="translate(39.013672 0.015625)"/>
      <use xlink:href="#DejaVuSans-2c" transform="translate(93.994141 0.015625)"/>
      <use xlink:href="#DejaVuSans-68" transform="translate(125.78125 0.015625)"/>
      <use xlink:href="#DejaVuSans-29" transform="translate(189.160156 0.015625)"/>
      <use xlink:href="#DejaVuSans-3d" transform="translate(228.173828 0.015625)"/>
      <use xlink:href="#DejaVuSans-28" transform="translate(311.962891 0.015625)"/>
      <use xlink:href="#DejaVuSans-31" transform="translate(350.976562 0.015625)"/>
      <use xlink:href="#DejaVuSans-30" transform="translate(414.599609 0.015625)"/>
      <use xlink:href="#DejaVuSans-30" transform="translate(478.222656 0.015625)"/>
      <use xlink:href="#DejaVuSans-2c" transform="translate(541.845703 0.015625)"/>
      <use xlink:href="#DejaVuSans-20" transform="translate(573.632812 0.015625)"/>
      <use xlink:href="#DejaVuSans-30" transform="translate(605.419922 0.015625)"/>
      <use xlink:href="#DejaVuSans-2e" transform="translate(669.042969 0.015625)"/>
      <use xlink:href="#DejaVuSans-30" transform="translate(700.830078 0.015625)"/>
      <use xlink:href="#DejaVuSans-31" transform="translate(764.453125 0.015625)"/>
      <use xlink:href="#DejaVuSans-29" transform="translate(828.076172 0.015625)"/>
      <use xlink:href="#DejaVuSans-2c" transform="translate(867.089844 0.015625)"/>
      <use xlink:href="#DejaVuSans-20" transform="translate(898.876953 0.015625)"/>
      <use xlink:href="#DejaVuSans-Oblique-3c1" transform="translate(930.664062 0.015625)"/>
      <use xlink:href="#DejaVuSans-28" transform="translate(994.140625 0.015625)"/>
      <use xlink:href="#DejaVuSans-Oblique-42" transform="translate(1033.154297 0.015625)"/>
      <use xlink:href="#DejaVuSans-Oblique-53" transform="translate(1101.757812 -16.390625) scale(0.7)"/>
      <use xlink:href="#DejaVuSans-Oblique-53" transform="translate(1146.191406 -16.390625) scale(0.7)"/>
      <use xlink:href="#DejaVuSans-Oblique-4f" transform="translate(1190.625 -16.390625) scale(0.7)"/>
      <use xlink:href="#DejaVuSans-Oblique-52" transform="translate(1245.722656 -16.390625) scale(0.7)"/>
      <use xlink:href="#DejaVuSans-29" transform="translate(1297.094727 0.015625)"/>
      <use xlink:href="#DejaVuSans-3d" transform="translate(1355.59082 0.015625)"/>
      <use xlink:href="#DejaVuSans-31" transform="translate(1458.862305 0.015625)"/>
      <use xlink:href="#DejaVuSans-2e" transform="translate(1522.485352 0.015625)"/>
      <use xlink:href="#DejaVuSans-30" transform="translate(1554.272461 0.015625)"/>
      <use xlink:href="#DejaVuSans-30" transform="translate(1617.895508 0.015625)"/>
      <use xlink:href="#DejaVuSans-45" transform="translate(1681.518555 0.015625)"/>
      <use xlink:href="#DejaVuSans-2b" transform="translate(1744.702148 0.015625)"/>
      <use xlink:href="#DejaVuSans-30" transform="translate(1828.491211 0.015625)"/>
      <use xlink:href="#DejaVuSans-30" transform="translate(1892.114258 0.015625)"/>
     </g>
    </g>
    <g id="line2d_30">
     <path d="M 828.6 495.06 
L 834.6 495.06 
L 840.6 495.06 
" style="fill: none; stroke: #bcbd22; stroke-width: 1.5; stroke-linecap: square"/>
    </g>
    <g id="text_22">
     <!-- (c,h)=(1000, 0.01), $\rho(B_{CGC})=$1.00E+00 -->
     <g transform="translate(845.4 497.16) scale(0.06 -0.06)">
      <use xlink:href="#DejaVuSans-28" transform="translate(0 0.015625)"/>
      <use xlink:href="#DejaVuSans-63" transform="translate(39.013672 0.015625)"/>
      <use xlink:href="#DejaVuSans-2c" transform="translate(93.994141 0.015625)"/>
      <use xlink:href="#DejaVuSans-68" transform="translate(125.78125 0.015625)"/>
      <use xlink:href="#DejaVuSans-29" transform="translate(189.160156 0.015625)"/>
      <use xlink:href="#DejaVuSans-3d" transform="translate(228.173828 0.015625)"/>
      <use xlink:href="#DejaVuSans-28" transform="translate(311.962891 0.015625)"/>
      <use xlink:href="#DejaVuSans-31" transform="translate(350.976562 0.015625)"/>
      <use xlink:href="#DejaVuSans-30" transform="translate(414.599609 0.015625)"/>
      <use xlink:href="#DejaVuSans-30" transform="translate(478.222656 0.015625)"/>
      <use xlink:href="#DejaVuSans-30" transform="translate(541.845703 0.015625)"/>
      <use xlink:href="#DejaVuSans-2c" transform="translate(605.46875 0.015625)"/>
      <use xlink:href="#DejaVuSans-20" transform="translate(637.255859 0.015625)"/>
      <use xlink:href="#DejaVuSans-30" transform="translate(669.042969 0.015625)"/>
      <use xlink:href="#DejaVuSans-2e" transform="translate(732.666016 0.015625)"/>
      <use xlink:href="#DejaVuSans-30" transform="translate(764.453125 0.015625)"/>
      <use xlink:href="#DejaVuSans-31" transform="translate(828.076172 0.015625)"/>
      <use xlink:href="#DejaVuSans-29" transform="translate(891.699219 0.015625)"/>
      <use xlink:href="#DejaVuSans-2c" transform="translate(930.712891 0.015625)"/>
      <use xlink:href="#DejaVuSans-20" transform="translate(962.5 0.015625)"/>
      <use xlink:href="#DejaVuSans-Oblique-3c1" transform="translate(994.287109 0.015625)"/>
      <use xlink:href="#DejaVuSans-28" transform="translate(1057.763672 0.015625)"/>
      <use xlink:href="#DejaVuSans-Oblique-42" transform="translate(1096.777344 0.015625)"/>
      <use xlink:href="#DejaVuSans-Oblique-43" transform="translate(1165.380859 -16.390625) scale(0.7)"/>
      <use xlink:href="#DejaVuSans-Oblique-47" transform="translate(1214.257812 -16.390625) scale(0.7)"/>
      <use xlink:href="#DejaVuSans-Oblique-43" transform="translate(1268.500977 -16.390625) scale(0.7)"/>
      <use xlink:href="#DejaVuSans-29" transform="translate(1320.112305 0.015625)"/>
      <use xlink:href="#DejaVuSans-3d" transform="translate(1378.608398 0.015625)"/>
      <use xlink:href="#DejaVuSans-31" transform="translate(1481.879883 0.015625)"/>
      <use xlink:href="#DejaVuSans-2e" transform="translate(1545.50293 0.015625)"/>
      <use xlink:href="#DejaVuSans-30" transform="translate(1577.290039 0.015625)"/>
      <use xlink:href="#DejaVuSans-30" transform="translate(1640.913086 0.015625)"/>
      <use xlink:href="#DejaVuSans-45" transform="translate(1704.536133 0.015625)"/>
      <use xlink:href="#DejaVuSans-2b" transform="translate(1767.719727 0.015625)"/>
      <use xlink:href="#DejaVuSans-30" transform="translate(1851.508789 0.015625)"/>
      <use xlink:href="#DejaVuSans-30" transform="translate(1915.131836 0.015625)"/>
     </g>
    </g>
    <g id="line2d_31">
     <path d="M 828.6 503.88 
L 834.6 503.88 
L 840.6 503.88 
" style="fill: none; stroke: #17becf; stroke-width: 1.5; stroke-linecap: square"/>
    </g>
    <g id="text_23">
     <!-- (c,h)=(1000, 0.01), $\rho(B_{SSOR})=$1.00E+00 -->
     <g transform="translate(845.4 505.98) scale(0.06 -0.06)">
      <use xlink:href="#DejaVuSans-28" transform="translate(0 0.015625)"/>
      <use xlink:href="#DejaVuSans-63" transform="translate(39.013672 0.015625)"/>
      <use xlink:href="#DejaVuSans-2c" transform="translate(93.994141 0.015625)"/>
      <use xlink:href="#DejaVuSans-68" transform="translate(125.78125 0.015625)"/>
      <use xlink:href="#DejaVuSans-29" transform="translate(189.160156 0.015625)"/>
      <use xlink:href="#DejaVuSans-3d" transform="translate(228.173828 0.015625)"/>
      <use xlink:href="#DejaVuSans-28" transform="translate(311.962891 0.015625)"/>
      <use xlink:href="#DejaVuSans-31" transform="translate(350.976562 0.015625)"/>
      <use xlink:href="#DejaVuSans-30" transform="translate(414.599609 0.015625)"/>
      <use xlink:href="#DejaVuSans-30" transform="translate(478.222656 0.015625)"/>
      <use xlink:href="#DejaVuSans-30" transform="translate(541.845703 0.015625)"/>
      <use xlink:href="#DejaVuSans-2c" transform="translate(605.46875 0.015625)"/>
      <use xlink:href="#DejaVuSans-20" transform="translate(637.255859 0.015625)"/>
      <use xlink:href="#DejaVuSans-30" transform="translate(669.042969 0.015625)"/>
      <use xlink:href="#DejaVuSans-2e" transform="translate(732.666016 0.015625)"/>
      <use xlink:href="#DejaVuSans-30" transform="translate(764.453125 0.015625)"/>
      <use xlink:href="#DejaVuSans-31" transform="translate(828.076172 0.015625)"/>
      <use xlink:href="#DejaVuSans-29" transform="translate(891.699219 0.015625)"/>
      <use xlink:href="#DejaVuSans-2c" transform="translate(930.712891 0.015625)"/>
      <use xlink:href="#DejaVuSans-20" transform="translate(962.5 0.015625)"/>
      <use xlink:href="#DejaVuSans-Oblique-3c1" transform="translate(994.287109 0.015625)"/>
      <use xlink:href="#DejaVuSans-28" transform="translate(1057.763672 0.015625)"/>
      <use xlink:href="#DejaVuSans-Oblique-42" transform="translate(1096.777344 0.015625)"/>
      <use xlink:href="#DejaVuSans-Oblique-53" transform="translate(1165.380859 -16.390625) scale(0.7)"/>
      <use xlink:href="#DejaVuSans-Oblique-53" transform="translate(1209.814453 -16.390625) scale(0.7)"/>
      <use xlink:href="#DejaVuSans-Oblique-4f" transform="translate(1254.248047 -16.390625) scale(0.7)"/>
      <use xlink:href="#DejaVuSans-Oblique-52" transform="translate(1309.345703 -16.390625) scale(0.7)"/>
      <use xlink:href="#DejaVuSans-29" transform="translate(1360.717773 0.015625)"/>
      <use xlink:href="#DejaVuSans-3d" transform="translate(1419.213867 0.015625)"/>
      <use xlink:href="#DejaVuSans-31" transform="translate(1522.485352 0.015625)"/>
      <use xlink:href="#DejaVuSans-2e" transform="translate(1586.108398 0.015625)"/>
      <use xlink:href="#DejaVuSans-30" transform="translate(1617.895508 0.015625)"/>
      <use xlink:href="#DejaVuSans-30" transform="translate(1681.518555 0.015625)"/>
      <use xlink:href="#DejaVuSans-45" transform="translate(1745.141602 0.015625)"/>
      <use xlink:href="#DejaVuSans-2b" transform="translate(1808.325195 0.015625)"/>
      <use xlink:href="#DejaVuSans-30" transform="translate(1892.114258 0.015625)"/>
      <use xlink:href="#DejaVuSans-30" transform="translate(1955.737305 0.015625)"/>
     </g>
    </g>
   </g>
  </g>
 </g>
 <defs>
  <clipPath id="p30b467d47b">
   <rect x="135" y="69.12" width="837" height="443.52"/>
  </clipPath>
 </defs>
</svg>
