<?xml version="1.0" encoding="utf-8" standalone="no"?>
<!DOCTYPE svg PUBLIC "-//W3C//DTD SVG 1.1//EN"
  "http://www.w3.org/Graphics/SVG/1.1/DTD/svg11.dtd">
<svg xmlns:xlink="http://www.w3.org/1999/xlink" width="1080pt" height="576pt" viewBox="0 0 1080 576" xmlns="http://www.w3.org/2000/svg" version="1.1">
 <metadata>
  <rdf:RDF xmlns:dc="http://purl.org/dc/elements/1.1/" xmlns:cc="http://creativecommons.org/ns#" xmlns:rdf="http://www.w3.org/1999/02/22-rdf-syntax-ns#">
   <cc:Work>
    <dc:type rdf:resource="http://purl.org/dc/dcmitype/StillImage"/>
    <dc:date>2024-01-12T23:31:36.786077</dc:date>
    <dc:format>image/svg+xml</dc:format>
    <dc:creator>
     <cc:Agent>
      <dc:title>Matplotlib v3.8.2, https://matplotlib.org/</dc:title>
     </cc:Agent>
    </dc:creator>
   </cc:Work>
  </rdf:RDF>
 </metadata>
 <defs>
  <style type="text/css">*{stroke-linejoin: round; stroke-linecap: butt}</style>
 </defs>
 <g id="figure_1">
  <g id="patch_1">
   <path d="M 0 576 
L 1080 576 
L 1080 0 
L 0 0 
z
" style="fill: #ffffff"/>
  </g>
  <g id="axes_1">
   <g id="patch_2">
    <path d="M 135 512.64 
L 972 512.64 
L 972 69.12 
L 135 69.12 
z
" style="fill: #ffffff"/>
   </g>
   <g id="matplotlib.axis_1">
    <g id="xtick_1">
     <g id="line2d_1">
      <defs>
       <path id="m201a2469f1" d="M 0 0 
L 0 3.5 
" style="stroke: #000000; stroke-width: 0.8"/>
      </defs>
      <g>
       <use xlink:href="#m201a2469f1" x="173.045455" y="512.64" style="stroke: #000000; stroke-width: 0.8"/>
      </g>
     </g>
     <g id="text_1">
      <!-- 0 -->
      <g transform="translate(169.864205 527.238438) scale(0.1 -0.1)">
       <defs>
        <path id="DejaVuSans-30" d="M 2034 4250 
Q 1547 4250 1301 3770 
Q 1056 3291 1056 2328 
Q 1056 1369 1301 889 
Q 1547 409 2034 409 
Q 2525 409 2770 889 
Q 3016 1369 3016 2328 
Q 3016 3291 2770 3770 
Q 2525 4250 2034 4250 
z
M 2034 4750 
Q 2819 4750 3233 4129 
Q 3647 3509 3647 2328 
Q 3647 1150 3233 529 
Q 2819 -91 2034 -91 
Q 1250 -91 836 529 
Q 422 1150 422 2328 
Q 422 3509 836 4129 
Q 1250 4750 2034 4750 
z
" transform="scale(0.015625)"/>
       </defs>
       <use xlink:href="#DejaVuSans-30"/>
      </g>
     </g>
    </g>
    <g id="xtick_2">
     <g id="line2d_2">
      <g>
       <use xlink:href="#m201a2469f1" x="326.764463" y="512.64" style="stroke: #000000; stroke-width: 0.8"/>
      </g>
     </g>
     <g id="text_2">
      <!-- 20 -->
      <g transform="translate(320.401963 527.238438) scale(0.1 -0.1)">
       <defs>
        <path id="DejaVuSans-32" d="M 1228 531 
L 3431 531 
L 3431 0 
L 469 0 
L 469 531 
Q 828 903 1448 1529 
Q 2069 2156 2228 2338 
Q 2531 2678 2651 2914 
Q 2772 3150 2772 3378 
Q 2772 3750 2511 3984 
Q 2250 4219 1831 4219 
Q 1534 4219 1204 4116 
Q 875 4013 500 3803 
L 500 4441 
Q 881 4594 1212 4672 
Q 1544 4750 1819 4750 
Q 2544 4750 2975 4387 
Q 3406 4025 3406 3419 
Q 3406 3131 3298 2873 
Q 3191 2616 2906 2266 
Q 2828 2175 2409 1742 
Q 1991 1309 1228 531 
z
" transform="scale(0.015625)"/>
       </defs>
       <use xlink:href="#DejaVuSans-32"/>
       <use xlink:href="#DejaVuSans-30" x="63.623047"/>
      </g>
     </g>
    </g>
    <g id="xtick_3">
     <g id="line2d_3">
      <g>
       <use xlink:href="#m201a2469f1" x="480.483471" y="512.64" style="stroke: #000000; stroke-width: 0.8"/>
      </g>
     </g>
     <g id="text_3">
      <!-- 40 -->
      <g transform="translate(474.120971 527.238438) scale(0.1 -0.1)">
       <defs>
        <path id="DejaVuSans-34" d="M 2419 4116 
L 825 1625 
L 2419 1625 
L 2419 4116 
z
M 2253 4666 
L 3047 4666 
L 3047 1625 
L 3713 1625 
L 3713 1100 
L 3047 1100 
L 3047 0 
L 2419 0 
L 2419 1100 
L 313 1100 
L 313 1709 
L 2253 4666 
z
" transform="scale(0.015625)"/>
       </defs>
       <use xlink:href="#DejaVuSans-34"/>
       <use xlink:href="#DejaVuSans-30" x="63.623047"/>
      </g>
     </g>
    </g>
    <g id="xtick_4">
     <g id="line2d_4">
      <g>
       <use xlink:href="#m201a2469f1" x="634.202479" y="512.64" style="stroke: #000000; stroke-width: 0.8"/>
      </g>
     </g>
     <g id="text_4">
      <!-- 60 -->
      <g transform="translate(627.839979 527.238438) scale(0.1 -0.1)">
       <defs>
        <path id="DejaVuSans-36" d="M 2113 2584 
Q 1688 2584 1439 2293 
Q 1191 2003 1191 1497 
Q 1191 994 1439 701 
Q 1688 409 2113 409 
Q 2538 409 2786 701 
Q 3034 994 3034 1497 
Q 3034 2003 2786 2293 
Q 2538 2584 2113 2584 
z
M 3366 4563 
L 3366 3988 
Q 3128 4100 2886 4159 
Q 2644 4219 2406 4219 
Q 1781 4219 1451 3797 
Q 1122 3375 1075 2522 
Q 1259 2794 1537 2939 
Q 1816 3084 2150 3084 
Q 2853 3084 3261 2657 
Q 3669 2231 3669 1497 
Q 3669 778 3244 343 
Q 2819 -91 2113 -91 
Q 1303 -91 875 529 
Q 447 1150 447 2328 
Q 447 3434 972 4092 
Q 1497 4750 2381 4750 
Q 2619 4750 2861 4703 
Q 3103 4656 3366 4563 
z
" transform="scale(0.015625)"/>
       </defs>
       <use xlink:href="#DejaVuSans-36"/>
       <use xlink:href="#DejaVuSans-30" x="63.623047"/>
      </g>
     </g>
    </g>
    <g id="xtick_5">
     <g id="line2d_5">
      <g>
       <use xlink:href="#m201a2469f1" x="787.921488" y="512.64" style="stroke: #000000; stroke-width: 0.8"/>
      </g>
     </g>
     <g id="text_5">
      <!-- 80 -->
      <g transform="translate(781.558988 527.238438) scale(0.1 -0.1)">
       <defs>
        <path id="DejaVuSans-38" d="M 2034 2216 
Q 1584 2216 1326 1975 
Q 1069 1734 1069 1313 
Q 1069 891 1326 650 
Q 1584 409 2034 409 
Q 2484 409 2743 651 
Q 3003 894 3003 1313 
Q 3003 1734 2745 1975 
Q 2488 2216 2034 2216 
z
M 1403 2484 
Q 997 2584 770 2862 
Q 544 3141 544 3541 
Q 544 4100 942 4425 
Q 1341 4750 2034 4750 
Q 2731 4750 3128 4425 
Q 3525 4100 3525 3541 
Q 3525 3141 3298 2862 
Q 3072 2584 2669 2484 
Q 3125 2378 3379 2068 
Q 3634 1759 3634 1313 
Q 3634 634 3220 271 
Q 2806 -91 2034 -91 
Q 1263 -91 848 271 
Q 434 634 434 1313 
Q 434 1759 690 2068 
Q 947 2378 1403 2484 
z
M 1172 3481 
Q 1172 3119 1398 2916 
Q 1625 2713 2034 2713 
Q 2441 2713 2670 2916 
Q 2900 3119 2900 3481 
Q 2900 3844 2670 4047 
Q 2441 4250 2034 4250 
Q 1625 4250 1398 4047 
Q 1172 3844 1172 3481 
z
" transform="scale(0.015625)"/>
       </defs>
       <use xlink:href="#DejaVuSans-38"/>
       <use xlink:href="#DejaVuSans-30" x="63.623047"/>
      </g>
     </g>
    </g>
    <g id="xtick_6">
     <g id="line2d_6">
      <g>
       <use xlink:href="#m201a2469f1" x="941.640496" y="512.64" style="stroke: #000000; stroke-width: 0.8"/>
      </g>
     </g>
     <g id="text_6">
      <!-- 100 -->
      <g transform="translate(932.096746 527.238438) scale(0.1 -0.1)">
       <defs>
        <path id="DejaVuSans-31" d="M 794 531 
L 1825 531 
L 1825 4091 
L 703 3866 
L 703 4441 
L 1819 4666 
L 2450 4666 
L 2450 531 
L 3481 531 
L 3481 0 
L 794 0 
L 794 531 
z
" transform="scale(0.015625)"/>
       </defs>
       <use xlink:href="#DejaVuSans-31"/>
       <use xlink:href="#DejaVuSans-30" x="63.623047"/>
       <use xlink:href="#DejaVuSans-30" x="127.246094"/>
      </g>
     </g>
    </g>
    <g id="text_7">
     <!-- # iterations -->
     <g transform="translate(494.4875 548.515) scale(0.2 -0.2)">
      <defs>
       <path id="DejaVuSans-23" d="M 3272 2816 
L 2363 2816 
L 2100 1772 
L 3016 1772 
L 3272 2816 
z
M 2803 4594 
L 2478 3297 
L 3391 3297 
L 3719 4594 
L 4219 4594 
L 3897 3297 
L 4872 3297 
L 4872 2816 
L 3775 2816 
L 3519 1772 
L 4513 1772 
L 4513 1294 
L 3397 1294 
L 3072 0 
L 2572 0 
L 2894 1294 
L 1978 1294 
L 1656 0 
L 1153 0 
L 1478 1294 
L 494 1294 
L 494 1772 
L 1594 1772 
L 1856 2816 
L 850 2816 
L 850 3297 
L 1978 3297 
L 2297 4594 
L 2803 4594 
z
" transform="scale(0.015625)"/>
       <path id="DejaVuSans-20" transform="scale(0.015625)"/>
       <path id="DejaVuSans-69" d="M 603 3500 
L 1178 3500 
L 1178 0 
L 603 0 
L 603 3500 
z
M 603 4863 
L 1178 4863 
L 1178 4134 
L 603 4134 
L 603 4863 
z
" transform="scale(0.015625)"/>
       <path id="DejaVuSans-74" d="M 1172 4494 
L 1172 3500 
L 2356 3500 
L 2356 3053 
L 1172 3053 
L 1172 1153 
Q 1172 725 1289 603 
Q 1406 481 1766 481 
L 2356 481 
L 2356 0 
L 1766 0 
Q 1100 0 847 248 
Q 594 497 594 1153 
L 594 3053 
L 172 3053 
L 172 3500 
L 594 3500 
L 594 4494 
L 1172 4494 
z
" transform="scale(0.015625)"/>
       <path id="DejaVuSans-65" d="M 3597 1894 
L 3597 1613 
L 953 1613 
Q 991 1019 1311 708 
Q 1631 397 2203 397 
Q 2534 397 2845 478 
Q 3156 559 3463 722 
L 3463 178 
Q 3153 47 2828 -22 
Q 2503 -91 2169 -91 
Q 1331 -91 842 396 
Q 353 884 353 1716 
Q 353 2575 817 3079 
Q 1281 3584 2069 3584 
Q 2775 3584 3186 3129 
Q 3597 2675 3597 1894 
z
M 3022 2063 
Q 3016 2534 2758 2815 
Q 2500 3097 2075 3097 
Q 1594 3097 1305 2825 
Q 1016 2553 972 2059 
L 3022 2063 
z
" transform="scale(0.015625)"/>
       <path id="DejaVuSans-72" d="M 2631 2963 
Q 2534 3019 2420 3045 
Q 2306 3072 2169 3072 
Q 1681 3072 1420 2755 
Q 1159 2438 1159 1844 
L 1159 0 
L 581 0 
L 581 3500 
L 1159 3500 
L 1159 2956 
Q 1341 3275 1631 3429 
Q 1922 3584 2338 3584 
Q 2397 3584 2469 3576 
Q 2541 3569 2628 3553 
L 2631 2963 
z
" transform="scale(0.015625)"/>
       <path id="DejaVuSans-61" d="M 2194 1759 
Q 1497 1759 1228 1600 
Q 959 1441 959 1056 
Q 959 750 1161 570 
Q 1363 391 1709 391 
Q 2188 391 2477 730 
Q 2766 1069 2766 1631 
L 2766 1759 
L 2194 1759 
z
M 3341 1997 
L 3341 0 
L 2766 0 
L 2766 531 
Q 2569 213 2275 61 
Q 1981 -91 1556 -91 
Q 1019 -91 701 211 
Q 384 513 384 1019 
Q 384 1609 779 1909 
Q 1175 2209 1959 2209 
L 2766 2209 
L 2766 2266 
Q 2766 2663 2505 2880 
Q 2244 3097 1772 3097 
Q 1472 3097 1187 3025 
Q 903 2953 641 2809 
L 641 3341 
Q 956 3463 1253 3523 
Q 1550 3584 1831 3584 
Q 2591 3584 2966 3190 
Q 3341 2797 3341 1997 
z
" transform="scale(0.015625)"/>
       <path id="DejaVuSans-6f" d="M 1959 3097 
Q 1497 3097 1228 2736 
Q 959 2375 959 1747 
Q 959 1119 1226 758 
Q 1494 397 1959 397 
Q 2419 397 2687 759 
Q 2956 1122 2956 1747 
Q 2956 2369 2687 2733 
Q 2419 3097 1959 3097 
z
M 1959 3584 
Q 2709 3584 3137 3096 
Q 3566 2609 3566 1747 
Q 3566 888 3137 398 
Q 2709 -91 1959 -91 
Q 1206 -91 779 398 
Q 353 888 353 1747 
Q 353 2609 779 3096 
Q 1206 3584 1959 3584 
z
" transform="scale(0.015625)"/>
       <path id="DejaVuSans-6e" d="M 3513 2113 
L 3513 0 
L 2938 0 
L 2938 2094 
Q 2938 2591 2744 2837 
Q 2550 3084 2163 3084 
Q 1697 3084 1428 2787 
Q 1159 2491 1159 1978 
L 1159 0 
L 581 0 
L 581 3500 
L 1159 3500 
L 1159 2956 
Q 1366 3272 1645 3428 
Q 1925 3584 2291 3584 
Q 2894 3584 3203 3211 
Q 3513 2838 3513 2113 
z
" transform="scale(0.015625)"/>
       <path id="DejaVuSans-73" d="M 2834 3397 
L 2834 2853 
Q 2591 2978 2328 3040 
Q 2066 3103 1784 3103 
Q 1356 3103 1142 2972 
Q 928 2841 928 2578 
Q 928 2378 1081 2264 
Q 1234 2150 1697 2047 
L 1894 2003 
Q 2506 1872 2764 1633 
Q 3022 1394 3022 966 
Q 3022 478 2636 193 
Q 2250 -91 1575 -91 
Q 1294 -91 989 -36 
Q 684 19 347 128 
L 347 722 
Q 666 556 975 473 
Q 1284 391 1588 391 
Q 1994 391 2212 530 
Q 2431 669 2431 922 
Q 2431 1156 2273 1281 
Q 2116 1406 1581 1522 
L 1381 1569 
Q 847 1681 609 1914 
Q 372 2147 372 2553 
Q 372 3047 722 3315 
Q 1072 3584 1716 3584 
Q 2034 3584 2315 3537 
Q 2597 3491 2834 3397 
z
" transform="scale(0.015625)"/>
      </defs>
      <use xlink:href="#DejaVuSans-23"/>
      <use xlink:href="#DejaVuSans-20" x="83.789062"/>
      <use xlink:href="#DejaVuSans-69" x="115.576172"/>
      <use xlink:href="#DejaVuSans-74" x="143.359375"/>
      <use xlink:href="#DejaVuSans-65" x="182.568359"/>
      <use xlink:href="#DejaVuSans-72" x="244.091797"/>
      <use xlink:href="#DejaVuSans-61" x="285.205078"/>
      <use xlink:href="#DejaVuSans-74" x="346.484375"/>
      <use xlink:href="#DejaVuSans-69" x="385.693359"/>
      <use xlink:href="#DejaVuSans-6f" x="413.476562"/>
      <use xlink:href="#DejaVuSans-6e" x="474.658203"/>
      <use xlink:href="#DejaVuSans-73" x="538.037109"/>
     </g>
    </g>
   </g>
   <g id="matplotlib.axis_2">
    <g id="ytick_1">
     <g id="line2d_7">
      <defs>
       <path id="m9762524f48" d="M 0 0 
L -2 0 
" style="stroke: #000000; stroke-width: 0.6"/>
      </defs>
      <g>
       <use xlink:href="#m9762524f48" x="135" y="466.393911" style="stroke: #000000; stroke-width: 0.6"/>
      </g>
     </g>
     <g id="text_8">
      <!-- $\mathdefault{2.25\times10^{8}}$ -->
      <g transform="translate(78 470.19313) scale(0.1 -0.1)">
       <defs>
        <path id="DejaVuSans-2e" d="M 684 794 
L 1344 794 
L 1344 0 
L 684 0 
L 684 794 
z
" transform="scale(0.015625)"/>
        <path id="DejaVuSans-35" d="M 691 4666 
L 3169 4666 
L 3169 4134 
L 1269 4134 
L 1269 2991 
Q 1406 3038 1543 3061 
Q 1681 3084 1819 3084 
Q 2600 3084 3056 2656 
Q 3513 2228 3513 1497 
Q 3513 744 3044 326 
Q 2575 -91 1722 -91 
Q 1428 -91 1123 -41 
Q 819 9 494 109 
L 494 744 
Q 775 591 1075 516 
Q 1375 441 1709 441 
Q 2250 441 2565 725 
Q 2881 1009 2881 1497 
Q 2881 1984 2565 2268 
Q 2250 2553 1709 2553 
Q 1456 2553 1204 2497 
Q 953 2441 691 2322 
L 691 4666 
z
" transform="scale(0.015625)"/>
        <path id="DejaVuSans-d7" d="M 4488 3438 
L 3059 2003 
L 4488 575 
L 4116 197 
L 2681 1631 
L 1247 197 
L 878 575 
L 2303 2003 
L 878 3438 
L 1247 3816 
L 2681 2381 
L 4116 3816 
L 4488 3438 
z
" transform="scale(0.015625)"/>
       </defs>
       <use xlink:href="#DejaVuSans-32" transform="translate(0 0.765625)"/>
       <use xlink:href="#DejaVuSans-2e" transform="translate(63.623047 0.765625)"/>
       <use xlink:href="#DejaVuSans-32" transform="translate(89.910156 0.765625)"/>
       <use xlink:href="#DejaVuSans-35" transform="translate(153.533203 0.765625)"/>
       <use xlink:href="#DejaVuSans-d7" transform="translate(236.638672 0.765625)"/>
       <use xlink:href="#DejaVuSans-31" transform="translate(339.910156 0.765625)"/>
       <use xlink:href="#DejaVuSans-30" transform="translate(403.533203 0.765625)"/>
       <use xlink:href="#DejaVuSans-38" transform="translate(468.113281 39.046875) scale(0.7)"/>
      </g>
     </g>
    </g>
    <g id="ytick_2">
     <g id="line2d_8">
      <g>
       <use xlink:href="#m9762524f48" x="135" y="373.937715" style="stroke: #000000; stroke-width: 0.6"/>
      </g>
     </g>
     <g id="text_9">
      <!-- $\mathdefault{2.3\times10^{8}}$ -->
      <g transform="translate(83.8 377.736934) scale(0.1 -0.1)">
       <defs>
        <path id="DejaVuSans-33" d="M 2597 2516 
Q 3050 2419 3304 2112 
Q 3559 1806 3559 1356 
Q 3559 666 3084 287 
Q 2609 -91 1734 -91 
Q 1441 -91 1130 -33 
Q 819 25 488 141 
L 488 750 
Q 750 597 1062 519 
Q 1375 441 1716 441 
Q 2309 441 2620 675 
Q 2931 909 2931 1356 
Q 2931 1769 2642 2001 
Q 2353 2234 1838 2234 
L 1294 2234 
L 1294 2753 
L 1863 2753 
Q 2328 2753 2575 2939 
Q 2822 3125 2822 3475 
Q 2822 3834 2567 4026 
Q 2313 4219 1838 4219 
Q 1578 4219 1281 4162 
Q 984 4106 628 3988 
L 628 4550 
Q 988 4650 1302 4700 
Q 1616 4750 1894 4750 
Q 2613 4750 3031 4423 
Q 3450 4097 3450 3541 
Q 3450 3153 3228 2886 
Q 3006 2619 2597 2516 
z
" transform="scale(0.015625)"/>
       </defs>
       <use xlink:href="#DejaVuSans-32" transform="translate(0 0.765625)"/>
       <use xlink:href="#DejaVuSans-2e" transform="translate(63.623047 0.765625)"/>
       <use xlink:href="#DejaVuSans-33" transform="translate(95.410156 0.765625)"/>
       <use xlink:href="#DejaVuSans-d7" transform="translate(178.515625 0.765625)"/>
       <use xlink:href="#DejaVuSans-31" transform="translate(281.787109 0.765625)"/>
       <use xlink:href="#DejaVuSans-30" transform="translate(345.410156 0.765625)"/>
       <use xlink:href="#DejaVuSans-38" transform="translate(409.990234 39.046875) scale(0.7)"/>
      </g>
     </g>
    </g>
    <g id="ytick_3">
     <g id="line2d_9">
      <g>
       <use xlink:href="#m9762524f48" x="135" y="283.46998" style="stroke: #000000; stroke-width: 0.6"/>
      </g>
     </g>
     <g id="text_10">
      <!-- $\mathdefault{2.35\times10^{8}}$ -->
      <g transform="translate(77.5 287.269198) scale(0.1 -0.1)">
       <use xlink:href="#DejaVuSans-32" transform="translate(0 0.765625)"/>
       <use xlink:href="#DejaVuSans-2e" transform="translate(63.623047 0.765625)"/>
       <use xlink:href="#DejaVuSans-33" transform="translate(95.410156 0.765625)"/>
       <use xlink:href="#DejaVuSans-35" transform="translate(159.033203 0.765625)"/>
       <use xlink:href="#DejaVuSans-d7" transform="translate(242.138672 0.765625)"/>
       <use xlink:href="#DejaVuSans-31" transform="translate(345.410156 0.765625)"/>
       <use xlink:href="#DejaVuSans-30" transform="translate(409.033203 0.765625)"/>
       <use xlink:href="#DejaVuSans-38" transform="translate(473.613281 39.046875) scale(0.7)"/>
      </g>
     </g>
    </g>
    <g id="ytick_4">
     <g id="line2d_10">
      <g>
       <use xlink:href="#m9762524f48" x="135" y="194.90697" style="stroke: #000000; stroke-width: 0.6"/>
      </g>
     </g>
     <g id="text_11">
      <!-- $\mathdefault{2.4\times10^{8}}$ -->
      <g transform="translate(83.8 198.706189) scale(0.1 -0.1)">
       <use xlink:href="#DejaVuSans-32" transform="translate(0 0.765625)"/>
       <use xlink:href="#DejaVuSans-2e" transform="translate(63.623047 0.765625)"/>
       <use xlink:href="#DejaVuSans-34" transform="translate(95.410156 0.765625)"/>
       <use xlink:href="#DejaVuSans-d7" transform="translate(178.515625 0.765625)"/>
       <use xlink:href="#DejaVuSans-31" transform="translate(281.787109 0.765625)"/>
       <use xlink:href="#DejaVuSans-30" transform="translate(345.410156 0.765625)"/>
       <use xlink:href="#DejaVuSans-38" transform="translate(409.990234 39.046875) scale(0.7)"/>
      </g>
     </g>
    </g>
    <g id="ytick_5">
     <g id="line2d_11">
      <g>
       <use xlink:href="#m9762524f48" x="135" y="108.170133" style="stroke: #000000; stroke-width: 0.6"/>
      </g>
     </g>
     <g id="text_12">
      <!-- $\mathdefault{2.45\times10^{8}}$ -->
      <g transform="translate(77.5 111.969351) scale(0.1 -0.1)">
       <use xlink:href="#DejaVuSans-32" transform="translate(0 0.765625)"/>
       <use xlink:href="#DejaVuSans-2e" transform="translate(63.623047 0.765625)"/>
       <use xlink:href="#DejaVuSans-34" transform="translate(95.410156 0.765625)"/>
       <use xlink:href="#DejaVuSans-35" transform="translate(159.033203 0.765625)"/>
       <use xlink:href="#DejaVuSans-d7" transform="translate(242.138672 0.765625)"/>
       <use xlink:href="#DejaVuSans-31" transform="translate(345.410156 0.765625)"/>
       <use xlink:href="#DejaVuSans-30" transform="translate(409.033203 0.765625)"/>
       <use xlink:href="#DejaVuSans-38" transform="translate(473.613281 39.046875) scale(0.7)"/>
      </g>
     </g>
    </g>
    <g id="text_13">
     <!-- 2-norm of residual -->
     <g transform="translate(69.340625 382.597188) rotate(-90) scale(0.2 -0.2)">
      <defs>
       <path id="DejaVuSans-2d" d="M 313 2009 
L 1997 2009 
L 1997 1497 
L 313 1497 
L 313 2009 
z
" transform="scale(0.015625)"/>
       <path id="DejaVuSans-6d" d="M 3328 2828 
Q 3544 3216 3844 3400 
Q 4144 3584 4550 3584 
Q 5097 3584 5394 3201 
Q 5691 2819 5691 2113 
L 5691 0 
L 5113 0 
L 5113 2094 
Q 5113 2597 4934 2840 
Q 4756 3084 4391 3084 
Q 3944 3084 3684 2787 
Q 3425 2491 3425 1978 
L 3425 0 
L 2847 0 
L 2847 2094 
Q 2847 2600 2669 2842 
Q 2491 3084 2119 3084 
Q 1678 3084 1418 2786 
Q 1159 2488 1159 1978 
L 1159 0 
L 581 0 
L 581 3500 
L 1159 3500 
L 1159 2956 
Q 1356 3278 1631 3431 
Q 1906 3584 2284 3584 
Q 2666 3584 2933 3390 
Q 3200 3197 3328 2828 
z
" transform="scale(0.015625)"/>
       <path id="DejaVuSans-66" d="M 2375 4863 
L 2375 4384 
L 1825 4384 
Q 1516 4384 1395 4259 
Q 1275 4134 1275 3809 
L 1275 3500 
L 2222 3500 
L 2222 3053 
L 1275 3053 
L 1275 0 
L 697 0 
L 697 3053 
L 147 3053 
L 147 3500 
L 697 3500 
L 697 3744 
Q 697 4328 969 4595 
Q 1241 4863 1831 4863 
L 2375 4863 
z
" transform="scale(0.015625)"/>
       <path id="DejaVuSans-64" d="M 2906 2969 
L 2906 4863 
L 3481 4863 
L 3481 0 
L 2906 0 
L 2906 525 
Q 2725 213 2448 61 
Q 2172 -91 1784 -91 
Q 1150 -91 751 415 
Q 353 922 353 1747 
Q 353 2572 751 3078 
Q 1150 3584 1784 3584 
Q 2172 3584 2448 3432 
Q 2725 3281 2906 2969 
z
M 947 1747 
Q 947 1113 1208 752 
Q 1469 391 1925 391 
Q 2381 391 2643 752 
Q 2906 1113 2906 1747 
Q 2906 2381 2643 2742 
Q 2381 3103 1925 3103 
Q 1469 3103 1208 2742 
Q 947 2381 947 1747 
z
" transform="scale(0.015625)"/>
       <path id="DejaVuSans-75" d="M 544 1381 
L 544 3500 
L 1119 3500 
L 1119 1403 
Q 1119 906 1312 657 
Q 1506 409 1894 409 
Q 2359 409 2629 706 
Q 2900 1003 2900 1516 
L 2900 3500 
L 3475 3500 
L 3475 0 
L 2900 0 
L 2900 538 
Q 2691 219 2414 64 
Q 2138 -91 1772 -91 
Q 1169 -91 856 284 
Q 544 659 544 1381 
z
M 1991 3584 
L 1991 3584 
z
" transform="scale(0.015625)"/>
       <path id="DejaVuSans-6c" d="M 603 4863 
L 1178 4863 
L 1178 0 
L 603 0 
L 603 4863 
z
" transform="scale(0.015625)"/>
      </defs>
      <use xlink:href="#DejaVuSans-32"/>
      <use xlink:href="#DejaVuSans-2d" x="63.623047"/>
      <use xlink:href="#DejaVuSans-6e" x="99.707031"/>
      <use xlink:href="#DejaVuSans-6f" x="163.085938"/>
      <use xlink:href="#DejaVuSans-72" x="224.267578"/>
      <use xlink:href="#DejaVuSans-6d" x="263.630859"/>
      <use xlink:href="#DejaVuSans-20" x="361.042969"/>
      <use xlink:href="#DejaVuSans-6f" x="392.830078"/>
      <use xlink:href="#DejaVuSans-66" x="454.011719"/>
      <use xlink:href="#DejaVuSans-20" x="489.216797"/>
      <use xlink:href="#DejaVuSans-72" x="521.003906"/>
      <use xlink:href="#DejaVuSans-65" x="559.867188"/>
      <use xlink:href="#DejaVuSans-73" x="621.390625"/>
      <use xlink:href="#DejaVuSans-69" x="673.490234"/>
      <use xlink:href="#DejaVuSans-64" x="701.273438"/>
      <use xlink:href="#DejaVuSans-75" x="764.75"/>
      <use xlink:href="#DejaVuSans-61" x="828.128906"/>
      <use xlink:href="#DejaVuSans-6c" x="889.408203"/>
     </g>
    </g>
   </g>
   <g id="line2d_12">
    <path d="M 173.045455 492.48 
L 180.731405 492.48 
L 188.417355 492.48 
L 196.103306 492.48 
L 203.789256 492.48 
L 211.475207 492.48 
L 219.161157 492.48 
L 226.847107 492.48 
L 234.533058 492.48 
L 242.219008 492.48 
L 249.904959 492.48 
L 257.590909 492.48 
L 265.27686 492.48 
L 272.96281 492.48 
L 280.64876 492.48 
L 288.334711 492.48 
L 296.020661 492.48 
L 303.706612 492.48 
L 311.392562 492.48 
L 319.078512 492.48 
L 326.764463 492.48 
L 334.450413 492.48 
L 342.136364 492.48 
L 349.822314 492.48 
L 357.508264 492.48 
L 365.194215 492.48 
L 372.880165 492.48 
L 380.566116 492.48 
L 388.252066 492.48 
L 395.938017 492.48 
L 403.623967 492.48 
L 411.309917 492.48 
L 418.995868 492.48 
L 426.681818 492.48 
L 434.367769 492.48 
L 442.053719 492.48 
L 449.739669 492.48 
L 457.42562 492.48 
L 465.11157 492.48 
L 472.797521 492.48 
L 480.483471 492.48 
L 488.169421 492.48 
L 495.855372 492.48 
L 503.541322 492.48 
L 511.227273 492.48 
L 518.913223 492.48 
L 526.599174 492.48 
L 534.285124 492.48 
L 541.971074 492.48 
L 549.657025 492.48 
L 557.342975 492.48 
L 565.028926 492.48 
L 572.714876 492.48 
L 580.400826 492.48 
L 588.086777 492.48 
L 595.772727 492.48 
L 603.458678 492.48 
L 611.144628 492.48 
L 618.830579 492.48 
L 626.516529 492.48 
L 634.202479 492.48 
L 641.88843 492.48 
L 649.57438 492.48 
L 657.260331 492.48 
L 664.946281 492.48 
L 672.632231 492.48 
L 680.318182 492.48 
L 688.004132 492.48 
L 695.690083 492.48 
L 703.376033 492.48 
L 711.061983 492.48 
L 718.747934 492.48 
L 726.433884 492.48 
L 734.119835 492.48 
L 741.805785 492.48 
L 749.491736 492.48 
L 757.177686 492.48 
L 764.863636 492.48 
L 772.549587 492.48 
L 780.235537 492.48 
L 787.921488 492.48 
L 795.607438 492.48 
L 803.293388 492.48 
L 810.979339 492.48 
L 818.665289 492.48 
L 826.35124 492.48 
L 834.03719 492.48 
L 841.72314 492.48 
L 849.409091 492.48 
L 857.095041 492.48 
L 864.780992 492.48 
L 872.466942 492.48 
L 880.152893 492.48 
L 887.838843 492.48 
L 895.524793 492.48 
L 903.210744 492.48 
L 910.896694 492.48 
L 918.582645 492.48 
L 926.268595 492.48 
L 933.954545 492.48 
" clip-path="url(#pe809c07b6b)" style="fill: none; stroke: #1f77b4; stroke-width: 1.5; stroke-linecap: square"/>
   </g>
   <g id="line2d_13">
    <path d="M 173.045455 492.101408 
L 180.731405 492.101408 
L 188.417355 492.101408 
L 196.103306 492.101408 
L 203.789256 492.101408 
L 211.475207 492.101408 
L 219.161157 492.101408 
L 226.847107 492.101408 
L 234.533058 492.101408 
L 242.219008 492.101408 
L 249.904959 492.101408 
L 257.590909 492.101408 
L 265.27686 492.101408 
L 272.96281 492.101408 
L 280.64876 492.101408 
L 288.334711 492.101408 
L 296.020661 492.101408 
L 303.706612 492.101408 
L 311.392562 492.101408 
L 319.078512 492.101408 
L 326.764463 492.101408 
L 334.450413 492.101408 
L 342.136364 492.101408 
L 349.822314 492.101408 
L 357.508264 492.101408 
L 365.194215 492.101408 
L 372.880165 492.101408 
L 380.566116 492.101408 
L 388.252066 492.101408 
L 395.938017 492.101408 
L 403.623967 492.101408 
L 411.309917 492.101408 
L 418.995868 492.101408 
L 426.681818 492.101408 
L 434.367769 492.101408 
L 442.053719 492.101408 
L 449.739669 492.101408 
L 457.42562 492.101408 
L 465.11157 492.101408 
L 472.797521 492.101408 
L 480.483471 492.101408 
L 488.169421 492.101408 
L 495.855372 492.101408 
L 503.541322 492.101408 
L 511.227273 492.101408 
L 518.913223 492.101408 
L 526.599174 492.101408 
L 534.285124 492.101408 
L 541.971074 492.101408 
L 549.657025 492.101408 
L 557.342975 492.101408 
L 565.028926 492.101408 
L 572.714876 492.101408 
L 580.400826 492.101408 
L 588.086777 492.101408 
L 595.772727 492.101408 
L 603.458678 492.101408 
L 611.144628 492.101408 
L 618.830579 492.101408 
L 626.516529 492.101408 
L 634.202479 492.101408 
L 641.88843 492.101408 
L 649.57438 492.101408 
L 657.260331 492.101408 
L 664.946281 492.101408 
L 672.632231 492.101408 
L 680.318182 492.101408 
L 688.004132 492.101408 
L 695.690083 492.101408 
L 703.376033 492.101408 
L 711.061983 492.101408 
L 718.747934 492.101408 
L 726.433884 492.101408 
L 734.119835 492.101408 
L 741.805785 492.101408 
L 749.491736 492.101408 
L 757.177686 492.101408 
L 764.863636 492.101408 
L 772.549587 492.101408 
L 780.235537 492.101408 
L 787.921488 492.101408 
L 795.607438 492.101408 
L 803.293388 492.101408 
L 810.979339 492.101408 
L 818.665289 492.101408 
L 826.35124 492.101408 
L 834.03719 492.101408 
L 841.72314 492.101408 
L 849.409091 492.101408 
L 857.095041 492.101408 
L 864.780992 492.101408 
L 872.466942 492.101408 
L 880.152893 492.101408 
L 887.838843 492.101408 
L 895.524793 492.101408 
L 903.210744 492.101408 
L 910.896694 492.101408 
L 918.582645 492.101408 
L 926.268595 492.101408 
L 933.954545 492.101408 
" clip-path="url(#pe809c07b6b)" style="fill: none; stroke: #ff7f0e; stroke-width: 1.5; stroke-linecap: square"/>
   </g>
   <g id="line2d_14">
    <path d="M 173.045455 488.317642 
L 180.731405 488.317642 
L 188.417355 488.317642 
L 196.103306 488.317642 
L 203.789256 488.317642 
L 211.475207 488.317642 
L 219.161157 488.317642 
L 226.847107 488.317642 
L 234.533058 488.317642 
L 242.219008 488.317642 
L 249.904959 488.317642 
L 257.590909 488.317642 
L 265.27686 488.317642 
L 272.96281 488.317642 
L 280.64876 488.317642 
L 288.334711 488.317642 
L 296.020661 488.317642 
L 303.706612 488.317642 
L 311.392562 488.317642 
L 319.078512 488.317642 
L 326.764463 488.317642 
L 334.450413 488.317642 
L 342.136364 488.317642 
L 349.822314 488.317642 
L 357.508264 488.317642 
L 365.194215 488.317642 
L 372.880165 488.317642 
L 380.566116 488.317642 
L 388.252066 488.317642 
L 395.938017 488.317642 
L 403.623967 488.317642 
L 411.309917 488.317642 
L 418.995868 488.317642 
L 426.681818 488.317642 
L 434.367769 488.317642 
L 442.053719 488.317642 
L 449.739669 488.317642 
L 457.42562 488.317642 
L 465.11157 488.317642 
L 472.797521 488.317642 
L 480.483471 488.317642 
L 488.169421 488.317642 
L 495.855372 488.317642 
L 503.541322 488.317642 
L 511.227273 488.317642 
L 518.913223 488.317642 
L 526.599174 488.317642 
L 534.285124 488.317642 
L 541.971074 488.317642 
L 549.657025 488.317642 
L 557.342975 488.317642 
L 565.028926 488.317642 
L 572.714876 488.317642 
L 580.400826 488.317642 
L 588.086777 488.317642 
L 595.772727 488.317642 
L 603.458678 488.317642 
L 611.144628 488.317642 
L 618.830579 488.317642 
L 626.516529 488.317642 
L 634.202479 488.317642 
L 641.88843 488.317642 
L 649.57438 488.317642 
L 657.260331 488.317642 
L 664.946281 488.317642 
L 672.632231 488.317642 
L 680.318182 488.317642 
L 688.004132 488.317642 
L 695.690083 488.317642 
L 703.376033 488.317642 
L 711.061983 488.317642 
L 718.747934 488.317642 
L 726.433884 488.317642 
L 734.119835 488.317642 
L 741.805785 488.317642 
L 749.491736 488.317642 
L 757.177686 488.317642 
L 764.863636 488.317642 
L 772.549587 488.317642 
L 780.235537 488.317642 
L 787.921488 488.317642 
L 795.607438 488.317642 
L 803.293388 488.317642 
L 810.979339 488.317642 
L 818.665289 488.317642 
L 826.35124 488.317642 
L 834.03719 488.317642 
L 841.72314 488.317642 
L 849.409091 488.317642 
L 857.095041 488.317642 
L 864.780992 488.317642 
L 872.466942 488.317642 
L 880.152893 488.317642 
L 887.838843 488.317642 
L 895.524793 488.317642 
L 903.210744 488.317642 
L 910.896694 488.317642 
L 918.582645 488.317642 
L 926.268595 488.317642 
L 933.954545 488.317642 
" clip-path="url(#pe809c07b6b)" style="fill: none; stroke: #2ca02c; stroke-width: 1.5; stroke-linecap: square"/>
   </g>
   <g id="line2d_15">
    <path d="M 173.045455 450.675817 
L 180.731405 450.675817 
L 188.417355 450.675817 
L 196.103306 450.675817 
L 203.789256 450.675817 
L 211.475207 450.675817 
L 219.161157 450.675817 
L 226.847107 450.675817 
L 234.533058 450.675817 
L 242.219008 450.675817 
L 249.904959 450.675817 
L 257.590909 450.675817 
L 265.27686 450.675817 
L 272.96281 450.675817 
L 280.64876 450.675817 
L 288.334711 450.675817 
L 296.020661 450.675817 
L 303.706612 450.675817 
L 311.392562 450.675817 
L 319.078512 450.675817 
L 326.764463 450.675817 
L 334.450413 450.675817 
L 342.136364 450.675817 
L 349.822314 450.675817 
L 357.508264 450.675817 
L 365.194215 450.675817 
L 372.880165 450.675817 
L 380.566116 450.675817 
L 388.252066 450.675817 
L 395.938017 450.675817 
L 403.623967 450.675817 
L 411.309917 450.675817 
L 418.995868 450.675817 
L 426.681818 450.675817 
L 434.367769 450.675817 
L 442.053719 450.675817 
L 449.739669 450.675817 
L 457.42562 450.675817 
L 465.11157 450.675817 
L 472.797521 450.675817 
L 480.483471 450.675817 
L 488.169421 450.675817 
L 495.855372 450.675817 
L 503.541322 450.675817 
L 511.227273 450.675817 
L 518.913223 450.675817 
L 526.599174 450.675817 
L 534.285124 450.675817 
L 541.971074 450.675817 
L 549.657025 450.675817 
L 557.342975 450.675817 
L 565.028926 450.675817 
L 572.714876 450.675817 
L 580.400826 450.675817 
L 588.086777 450.675817 
L 595.772727 450.675817 
L 603.458678 450.675817 
L 611.144628 450.675817 
L 618.830579 450.675817 
L 626.516529 450.675817 
L 634.202479 450.675817 
L 641.88843 450.675817 
L 649.57438 450.675817 
L 657.260331 450.675817 
L 664.946281 450.675817 
L 672.632231 450.675817 
L 680.318182 450.675817 
L 688.004132 450.675817 
L 695.690083 450.675817 
L 703.376033 450.675817 
L 711.061983 450.675817 
L 718.747934 450.675817 
L 726.433884 450.675817 
L 734.119835 450.675817 
L 741.805785 450.675817 
L 749.491736 450.675817 
L 757.177686 450.675817 
L 764.863636 450.675817 
L 772.549587 450.675817 
L 780.235537 450.675817 
L 787.921488 450.675817 
L 795.607438 450.675817 
L 803.293388 450.675817 
L 810.979339 450.675817 
L 818.665289 450.675817 
L 826.35124 450.675817 
L 834.03719 450.675817 
L 841.72314 450.675817 
L 849.409091 450.675817 
L 857.095041 450.675817 
L 864.780992 450.675817 
L 872.466942 450.675817 
L 880.152893 450.675817 
L 887.838843 450.675817 
L 895.524793 450.675817 
L 903.210744 450.675817 
L 910.896694 450.675817 
L 918.582645 450.675817 
L 926.268595 450.675817 
L 933.954545 450.675817 
" clip-path="url(#pe809c07b6b)" style="fill: none; stroke: #d62728; stroke-width: 1.5; stroke-linecap: square"/>
   </g>
   <g id="line2d_16">
    <path d="M 173.045455 89.28 
L 180.731405 89.28 
L 188.417355 89.28 
L 196.103306 89.28 
L 203.789256 89.28 
L 211.475207 89.28 
L 219.161157 89.28 
L 226.847107 89.28 
L 234.533058 89.28 
L 242.219008 89.28 
L 249.904959 89.28 
L 257.590909 89.28 
L 265.27686 89.28 
L 272.96281 89.28 
L 280.64876 89.28 
L 288.334711 89.28 
L 296.020661 89.28 
L 303.706612 89.28 
L 311.392562 89.28 
L 319.078512 89.28 
L 326.764463 89.28 
L 334.450413 89.28 
L 342.136364 89.28 
L 349.822314 89.28 
L 357.508264 89.28 
L 365.194215 89.28 
L 372.880165 89.28 
L 380.566116 89.28 
L 388.252066 89.28 
L 395.938017 89.28 
L 403.623967 89.28 
L 411.309917 89.28 
L 418.995868 89.28 
L 426.681818 89.28 
L 434.367769 89.28 
L 442.053719 89.28 
L 449.739669 89.28 
L 457.42562 89.28 
L 465.11157 89.28 
L 472.797521 89.28 
L 480.483471 89.28 
L 488.169421 89.28 
L 495.855372 89.28 
L 503.541322 89.28 
L 511.227273 89.28 
L 518.913223 89.28 
L 526.599174 89.28 
L 534.285124 89.28 
L 541.971074 89.28 
L 549.657025 89.28 
L 557.342975 89.28 
L 565.028926 89.28 
L 572.714876 89.28 
L 580.400826 89.28 
L 588.086777 89.28 
L 595.772727 89.28 
L 603.458678 89.28 
L 611.144628 89.28 
L 618.830579 89.28 
L 626.516529 89.28 
L 634.202479 89.28 
L 641.88843 89.28 
L 649.57438 89.28 
L 657.260331 89.28 
L 664.946281 89.28 
L 672.632231 89.28 
L 680.318182 89.28 
L 688.004132 89.28 
L 695.690083 89.28 
L 703.376033 89.28 
L 711.061983 89.28 
L 718.747934 89.28 
L 726.433884 89.28 
L 734.119835 89.28 
L 741.805785 89.28 
L 749.491736 89.28 
L 757.177686 89.28 
L 764.863636 89.28 
L 772.549587 89.28 
L 780.235537 89.28 
L 787.921488 89.28 
L 795.607438 89.28 
L 803.293388 89.28 
L 810.979339 89.28 
L 818.665289 89.28 
L 826.35124 89.28 
L 834.03719 89.28 
L 841.72314 89.28 
L 849.409091 89.28 
L 857.095041 89.28 
L 864.780992 89.28 
L 872.466942 89.28 
L 880.152893 89.28 
L 887.838843 89.28 
L 895.524793 89.28 
L 903.210744 89.28 
L 910.896694 89.28 
L 918.582645 89.28 
L 926.268595 89.28 
L 933.954545 89.28 
" clip-path="url(#pe809c07b6b)" style="fill: none; stroke: #9467bd; stroke-width: 1.5; stroke-linecap: square"/>
   </g>
   <g id="patch_3">
    <path d="M 135 512.64 
L 135 69.12 
" style="fill: none; stroke: #000000; stroke-width: 0.8; stroke-linejoin: miter; stroke-linecap: square"/>
   </g>
   <g id="patch_4">
    <path d="M 972 512.64 
L 972 69.12 
" style="fill: none; stroke: #000000; stroke-width: 0.8; stroke-linejoin: miter; stroke-linecap: square"/>
   </g>
   <g id="patch_5">
    <path d="M 135 512.64 
L 972 512.64 
" style="fill: none; stroke: #000000; stroke-width: 0.8; stroke-linejoin: miter; stroke-linecap: square"/>
   </g>
   <g id="patch_6">
    <path d="M 135 69.12 
L 972 69.12 
" style="fill: none; stroke: #000000; stroke-width: 0.8; stroke-linejoin: miter; stroke-linecap: square"/>
   </g>
   <g id="legend_1">
    <g id="patch_7">
     <path d="M 545.58 359.73 
L 959.4 359.73 
Q 963 359.73 963 356.13 
L 963 225.63 
Q 963 222.03 959.4 222.03 
L 545.58 222.03 
Q 541.98 222.03 541.98 225.63 
L 541.98 356.13 
Q 541.98 359.73 545.58 359.73 
z
" style="fill: #ffffff; opacity: 0.8; stroke: #cccccc; stroke-linejoin: miter"/>
    </g>
    <g id="line2d_17">
     <path d="M 549.18 236.61 
L 567.18 236.61 
L 585.18 236.61 
" style="fill: none; stroke: #1f77b4; stroke-width: 1.5; stroke-linecap: square"/>
    </g>
    <g id="text_14">
     <!-- (c,h)=(0.1, 0.01), $\rho(B_{CGC})=$1.00E+00 -->
     <g transform="translate(599.58 242.91) scale(0.18 -0.18)">
      <defs>
       <path id="DejaVuSans-28" d="M 1984 4856 
Q 1566 4138 1362 3434 
Q 1159 2731 1159 2009 
Q 1159 1288 1364 580 
Q 1569 -128 1984 -844 
L 1484 -844 
Q 1016 -109 783 600 
Q 550 1309 550 2009 
Q 550 2706 781 3412 
Q 1013 4119 1484 4856 
L 1984 4856 
z
" transform="scale(0.015625)"/>
       <path id="DejaVuSans-63" d="M 3122 3366 
L 3122 2828 
Q 2878 2963 2633 3030 
Q 2388 3097 2138 3097 
Q 1578 3097 1268 2742 
Q 959 2388 959 1747 
Q 959 1106 1268 751 
Q 1578 397 2138 397 
Q 2388 397 2633 464 
Q 2878 531 3122 666 
L 3122 134 
Q 2881 22 2623 -34 
Q 2366 -91 2075 -91 
Q 1284 -91 818 406 
Q 353 903 353 1747 
Q 353 2603 823 3093 
Q 1294 3584 2113 3584 
Q 2378 3584 2631 3529 
Q 2884 3475 3122 3366 
z
" transform="scale(0.015625)"/>
       <path id="DejaVuSans-2c" d="M 750 794 
L 1409 794 
L 1409 256 
L 897 -744 
L 494 -744 
L 750 256 
L 750 794 
z
" transform="scale(0.015625)"/>
       <path id="DejaVuSans-68" d="M 3513 2113 
L 3513 0 
L 2938 0 
L 2938 2094 
Q 2938 2591 2744 2837 
Q 2550 3084 2163 3084 
Q 1697 3084 1428 2787 
Q 1159 2491 1159 1978 
L 1159 0 
L 581 0 
L 581 4863 
L 1159 4863 
L 1159 2956 
Q 1366 3272 1645 3428 
Q 1925 3584 2291 3584 
Q 2894 3584 3203 3211 
Q 3513 2838 3513 2113 
z
" transform="scale(0.015625)"/>
       <path id="DejaVuSans-29" d="M 513 4856 
L 1013 4856 
Q 1481 4119 1714 3412 
Q 1947 2706 1947 2009 
Q 1947 1309 1714 600 
Q 1481 -109 1013 -844 
L 513 -844 
Q 928 -128 1133 580 
Q 1338 1288 1338 2009 
Q 1338 2731 1133 3434 
Q 928 4138 513 4856 
z
" transform="scale(0.015625)"/>
       <path id="DejaVuSans-3d" d="M 678 2906 
L 4684 2906 
L 4684 2381 
L 678 2381 
L 678 2906 
z
M 678 1631 
L 4684 1631 
L 4684 1100 
L 678 1100 
L 678 1631 
z
" transform="scale(0.015625)"/>
       <path id="DejaVuSans-Oblique-3c1" d="M 1203 2875 
Q 1453 3194 1981 3475 
Q 2188 3584 2756 3584 
Q 3394 3584 3694 3078 
Q 3994 2572 3834 1747 
Q 3672 922 3175 415 
Q 2678 -91 2041 -91 
Q 1656 -91 1409 63 
Q 1163 213 1044 525 
L 681 -1331 
L 103 -1331 
L 697 1716 
Q 838 2438 1203 2875 
z
M 3238 1747 
Q 3359 2381 3169 2744 
Q 2978 3103 2522 3103 
Q 2066 3103 1734 2744 
Q 1403 2381 1281 1747 
Q 1156 1113 1347 750 
Q 1538 391 1994 391 
Q 2450 391 2781 750 
Q 3113 1113 3238 1747 
z
" transform="scale(0.015625)"/>
       <path id="DejaVuSans-Oblique-42" d="M 1081 4666 
L 2694 4666 
Q 3350 4666 3675 4422 
Q 4000 4178 4000 3688 
Q 4000 3238 3720 2911 
Q 3441 2584 2988 2516 
Q 3375 2428 3569 2181 
Q 3763 1934 3763 1522 
Q 3763 819 3242 409 
Q 2722 0 1819 0 
L 172 0 
L 1081 4666 
z
M 1234 2228 
L 903 519 
L 1919 519 
Q 2491 519 2800 781 
Q 3109 1044 3109 1522 
Q 3109 1891 2904 2059 
Q 2700 2228 2247 2228 
L 1234 2228 
z
M 1606 4147 
L 1331 2741 
L 2272 2741 
Q 2775 2741 3058 2959 
Q 3341 3178 3341 3566 
Q 3341 3869 3150 4008 
Q 2959 4147 2541 4147 
L 1606 4147 
z
" transform="scale(0.015625)"/>
       <path id="DejaVuSans-Oblique-43" d="M 4447 4306 
L 4319 3641 
Q 4019 3944 3683 4091 
Q 3347 4238 2956 4238 
Q 2422 4238 2017 3981 
Q 1613 3725 1319 3200 
Q 1131 2863 1032 2486 
Q 934 2109 934 1728 
Q 934 1091 1264 756 
Q 1594 422 2222 422 
Q 2656 422 3056 561 
Q 3456 700 3834 978 
L 3688 231 
Q 3316 72 2936 -9 
Q 2556 -91 2175 -91 
Q 1278 -91 773 396 
Q 269 884 269 1753 
Q 269 2309 461 2846 
Q 653 3384 1013 3828 
Q 1394 4300 1883 4525 
Q 2372 4750 3022 4750 
Q 3422 4750 3780 4639 
Q 4138 4528 4447 4306 
z
" transform="scale(0.015625)"/>
       <path id="DejaVuSans-Oblique-47" d="M 3494 697 
L 3738 1919 
L 2700 1919 
L 2797 2438 
L 4453 2438 
L 4050 384 
Q 3634 156 3143 32 
Q 2653 -91 2156 -91 
Q 1278 -91 783 396 
Q 288 884 288 1753 
Q 288 2475 589 3126 
Q 891 3778 1422 4213 
Q 1756 4484 2153 4617 
Q 2550 4750 3034 4750 
Q 3472 4750 3873 4639 
Q 4275 4528 4641 4306 
L 4513 3634 
Q 4231 3928 3853 4083 
Q 3475 4238 3047 4238 
Q 2550 4238 2172 4048 
Q 1794 3859 1497 3463 
Q 1244 3125 1098 2667 
Q 953 2209 953 1734 
Q 953 1081 1287 751 
Q 1622 422 2284 422 
Q 2616 422 2925 492 
Q 3234 563 3494 697 
z
" transform="scale(0.015625)"/>
       <path id="DejaVuSans-45" d="M 628 4666 
L 3578 4666 
L 3578 4134 
L 1259 4134 
L 1259 2753 
L 3481 2753 
L 3481 2222 
L 1259 2222 
L 1259 531 
L 3634 531 
L 3634 0 
L 628 0 
L 628 4666 
z
" transform="scale(0.015625)"/>
       <path id="DejaVuSans-2b" d="M 2944 4013 
L 2944 2272 
L 4684 2272 
L 4684 1741 
L 2944 1741 
L 2944 0 
L 2419 0 
L 2419 1741 
L 678 1741 
L 678 2272 
L 2419 2272 
L 2419 4013 
L 2944 4013 
z
" transform="scale(0.015625)"/>
      </defs>
      <use xlink:href="#DejaVuSans-28" transform="translate(0 0.015625)"/>
      <use xlink:href="#DejaVuSans-63" transform="translate(39.013672 0.015625)"/>
      <use xlink:href="#DejaVuSans-2c" transform="translate(93.994141 0.015625)"/>
      <use xlink:href="#DejaVuSans-68" transform="translate(125.78125 0.015625)"/>
      <use xlink:href="#DejaVuSans-29" transform="translate(189.160156 0.015625)"/>
      <use xlink:href="#DejaVuSans-3d" transform="translate(228.173828 0.015625)"/>
      <use xlink:href="#DejaVuSans-28" transform="translate(311.962891 0.015625)"/>
      <use xlink:href="#DejaVuSans-30" transform="translate(350.976562 0.015625)"/>
      <use xlink:href="#DejaVuSans-2e" transform="translate(414.599609 0.015625)"/>
      <use xlink:href="#DejaVuSans-31" transform="translate(446.386719 0.015625)"/>
      <use xlink:href="#DejaVuSans-2c" transform="translate(510.009766 0.015625)"/>
      <use xlink:href="#DejaVuSans-20" transform="translate(541.796875 0.015625)"/>
      <use xlink:href="#DejaVuSans-30" transform="translate(573.583984 0.015625)"/>
      <use xlink:href="#DejaVuSans-2e" transform="translate(637.207031 0.015625)"/>
      <use xlink:href="#DejaVuSans-30" transform="translate(668.994141 0.015625)"/>
      <use xlink:href="#DejaVuSans-31" transform="translate(732.617188 0.015625)"/>
      <use xlink:href="#DejaVuSans-29" transform="translate(796.240234 0.015625)"/>
      <use xlink:href="#DejaVuSans-2c" transform="translate(835.253906 0.015625)"/>
      <use xlink:href="#DejaVuSans-20" transform="translate(867.041016 0.015625)"/>
      <use xlink:href="#DejaVuSans-Oblique-3c1" transform="translate(898.828125 0.015625)"/>
      <use xlink:href="#DejaVuSans-28" transform="translate(962.304688 0.015625)"/>
      <use xlink:href="#DejaVuSans-Oblique-42" transform="translate(1001.318359 0.015625)"/>
      <use xlink:href="#DejaVuSans-Oblique-43" transform="translate(1069.921875 -16.390625) scale(0.7)"/>
      <use xlink:href="#DejaVuSans-Oblique-47" transform="translate(1118.798828 -16.390625) scale(0.7)"/>
      <use xlink:href="#DejaVuSans-Oblique-43" transform="translate(1173.041992 -16.390625) scale(0.7)"/>
      <use xlink:href="#DejaVuSans-29" transform="translate(1224.65332 0.015625)"/>
      <use xlink:href="#DejaVuSans-3d" transform="translate(1283.149414 0.015625)"/>
      <use xlink:href="#DejaVuSans-31" transform="translate(1386.420898 0.015625)"/>
      <use xlink:href="#DejaVuSans-2e" transform="translate(1450.043945 0.015625)"/>
      <use xlink:href="#DejaVuSans-30" transform="translate(1481.831055 0.015625)"/>
      <use xlink:href="#DejaVuSans-30" transform="translate(1545.454102 0.015625)"/>
      <use xlink:href="#DejaVuSans-45" transform="translate(1609.077148 0.015625)"/>
      <use xlink:href="#DejaVuSans-2b" transform="translate(1672.260742 0.015625)"/>
      <use xlink:href="#DejaVuSans-30" transform="translate(1756.049805 0.015625)"/>
      <use xlink:href="#DejaVuSans-30" transform="translate(1819.672852 0.015625)"/>
     </g>
    </g>
    <g id="line2d_18">
     <path d="M 549.18 263.07 
L 567.18 263.07 
L 585.18 263.07 
" style="fill: none; stroke: #ff7f0e; stroke-width: 1.5; stroke-linecap: square"/>
    </g>
    <g id="text_15">
     <!-- (c,h)=(1, 0.01), $\rho(B_{CGC})=$1.00E+00 -->
     <g transform="translate(599.58 269.37) scale(0.18 -0.18)">
      <use xlink:href="#DejaVuSans-28" transform="translate(0 0.015625)"/>
      <use xlink:href="#DejaVuSans-63" transform="translate(39.013672 0.015625)"/>
      <use xlink:href="#DejaVuSans-2c" transform="translate(93.994141 0.015625)"/>
      <use xlink:href="#DejaVuSans-68" transform="translate(125.78125 0.015625)"/>
      <use xlink:href="#DejaVuSans-29" transform="translate(189.160156 0.015625)"/>
      <use xlink:href="#DejaVuSans-3d" transform="translate(228.173828 0.015625)"/>
      <use xlink:href="#DejaVuSans-28" transform="translate(311.962891 0.015625)"/>
      <use xlink:href="#DejaVuSans-31" transform="translate(350.976562 0.015625)"/>
      <use xlink:href="#DejaVuSans-2c" transform="translate(414.599609 0.015625)"/>
      <use xlink:href="#DejaVuSans-20" transform="translate(446.386719 0.015625)"/>
      <use xlink:href="#DejaVuSans-30" transform="translate(478.173828 0.015625)"/>
      <use xlink:href="#DejaVuSans-2e" transform="translate(541.796875 0.015625)"/>
      <use xlink:href="#DejaVuSans-30" transform="translate(573.583984 0.015625)"/>
      <use xlink:href="#DejaVuSans-31" transform="translate(637.207031 0.015625)"/>
      <use xlink:href="#DejaVuSans-29" transform="translate(700.830078 0.015625)"/>
      <use xlink:href="#DejaVuSans-2c" transform="translate(739.84375 0.015625)"/>
      <use xlink:href="#DejaVuSans-20" transform="translate(771.630859 0.015625)"/>
      <use xlink:href="#DejaVuSans-Oblique-3c1" transform="translate(803.417969 0.015625)"/>
      <use xlink:href="#DejaVuSans-28" transform="translate(866.894531 0.015625)"/>
      <use xlink:href="#DejaVuSans-Oblique-42" transform="translate(905.908203 0.015625)"/>
      <use xlink:href="#DejaVuSans-Oblique-43" transform="translate(974.511719 -16.390625) scale(0.7)"/>
      <use xlink:href="#DejaVuSans-Oblique-47" transform="translate(1023.388672 -16.390625) scale(0.7)"/>
      <use xlink:href="#DejaVuSans-Oblique-43" transform="translate(1077.631836 -16.390625) scale(0.7)"/>
      <use xlink:href="#DejaVuSans-29" transform="translate(1129.243164 0.015625)"/>
      <use xlink:href="#DejaVuSans-3d" transform="translate(1187.739258 0.015625)"/>
      <use xlink:href="#DejaVuSans-31" transform="translate(1291.010742 0.015625)"/>
      <use xlink:href="#DejaVuSans-2e" transform="translate(1354.633789 0.015625)"/>
      <use xlink:href="#DejaVuSans-30" transform="translate(1386.420898 0.015625)"/>
      <use xlink:href="#DejaVuSans-30" transform="translate(1450.043945 0.015625)"/>
      <use xlink:href="#DejaVuSans-45" transform="translate(1513.666992 0.015625)"/>
      <use xlink:href="#DejaVuSans-2b" transform="translate(1576.850586 0.015625)"/>
      <use xlink:href="#DejaVuSans-30" transform="translate(1660.639648 0.015625)"/>
      <use xlink:href="#DejaVuSans-30" transform="translate(1724.262695 0.015625)"/>
     </g>
    </g>
    <g id="line2d_19">
     <path d="M 549.18 289.53 
L 567.18 289.53 
L 585.18 289.53 
" style="fill: none; stroke: #2ca02c; stroke-width: 1.5; stroke-linecap: square"/>
    </g>
    <g id="text_16">
     <!-- (c,h)=(10, 0.01), $\rho(B_{CGC})=$1.00E+00 -->
     <g transform="translate(599.58 295.83) scale(0.18 -0.18)">
      <use xlink:href="#DejaVuSans-28" transform="translate(0 0.015625)"/>
      <use xlink:href="#DejaVuSans-63" transform="translate(39.013672 0.015625)"/>
      <use xlink:href="#DejaVuSans-2c" transform="translate(93.994141 0.015625)"/>
      <use xlink:href="#DejaVuSans-68" transform="translate(125.78125 0.015625)"/>
      <use xlink:href="#DejaVuSans-29" transform="translate(189.160156 0.015625)"/>
      <use xlink:href="#DejaVuSans-3d" transform="translate(228.173828 0.015625)"/>
      <use xlink:href="#DejaVuSans-28" transform="translate(311.962891 0.015625)"/>
      <use xlink:href="#DejaVuSans-31" transform="translate(350.976562 0.015625)"/>
      <use xlink:href="#DejaVuSans-30" transform="translate(414.599609 0.015625)"/>
      <use xlink:href="#DejaVuSans-2c" transform="translate(478.222656 0.015625)"/>
      <use xlink:href="#DejaVuSans-20" transform="translate(510.009766 0.015625)"/>
      <use xlink:href="#DejaVuSans-30" transform="translate(541.796875 0.015625)"/>
      <use xlink:href="#DejaVuSans-2e" transform="translate(605.419922 0.015625)"/>
      <use xlink:href="#DejaVuSans-30" transform="translate(637.207031 0.015625)"/>
      <use xlink:href="#DejaVuSans-31" transform="translate(700.830078 0.015625)"/>
      <use xlink:href="#DejaVuSans-29" transform="translate(764.453125 0.015625)"/>
      <use xlink:href="#DejaVuSans-2c" transform="translate(803.466797 0.015625)"/>
      <use xlink:href="#DejaVuSans-20" transform="translate(835.253906 0.015625)"/>
      <use xlink:href="#DejaVuSans-Oblique-3c1" transform="translate(867.041016 0.015625)"/>
      <use xlink:href="#DejaVuSans-28" transform="translate(930.517578 0.015625)"/>
      <use xlink:href="#DejaVuSans-Oblique-42" transform="translate(969.53125 0.015625)"/>
      <use xlink:href="#DejaVuSans-Oblique-43" transform="translate(1038.134766 -16.390625) scale(0.7)"/>
      <use xlink:href="#DejaVuSans-Oblique-47" transform="translate(1087.011719 -16.390625) scale(0.7)"/>
      <use xlink:href="#DejaVuSans-Oblique-43" transform="translate(1141.254883 -16.390625) scale(0.7)"/>
      <use xlink:href="#DejaVuSans-29" transform="translate(1192.866211 0.015625)"/>
      <use xlink:href="#DejaVuSans-3d" transform="translate(1251.362305 0.015625)"/>
      <use xlink:href="#DejaVuSans-31" transform="translate(1354.633789 0.015625)"/>
      <use xlink:href="#DejaVuSans-2e" transform="translate(1418.256836 0.015625)"/>
      <use xlink:href="#DejaVuSans-30" transform="translate(1450.043945 0.015625)"/>
      <use xlink:href="#DejaVuSans-30" transform="translate(1513.666992 0.015625)"/>
      <use xlink:href="#DejaVuSans-45" transform="translate(1577.290039 0.015625)"/>
      <use xlink:href="#DejaVuSans-2b" transform="translate(1640.473633 0.015625)"/>
      <use xlink:href="#DejaVuSans-30" transform="translate(1724.262695 0.015625)"/>
      <use xlink:href="#DejaVuSans-30" transform="translate(1787.885742 0.015625)"/>
     </g>
    </g>
    <g id="line2d_20">
     <path d="M 549.18 315.99 
L 567.18 315.99 
L 585.18 315.99 
" style="fill: none; stroke: #d62728; stroke-width: 1.5; stroke-linecap: square"/>
    </g>
    <g id="text_17">
     <!-- (c,h)=(100, 0.01), $\rho(B_{CGC})=$1.00E+00 -->
     <g transform="translate(599.58 322.29) scale(0.18 -0.18)">
      <use xlink:href="#DejaVuSans-28" transform="translate(0 0.015625)"/>
      <use xlink:href="#DejaVuSans-63" transform="translate(39.013672 0.015625)"/>
      <use xlink:href="#DejaVuSans-2c" transform="translate(93.994141 0.015625)"/>
      <use xlink:href="#DejaVuSans-68" transform="translate(125.78125 0.015625)"/>
      <use xlink:href="#DejaVuSans-29" transform="translate(189.160156 0.015625)"/>
      <use xlink:href="#DejaVuSans-3d" transform="translate(228.173828 0.015625)"/>
      <use xlink:href="#DejaVuSans-28" transform="translate(311.962891 0.015625)"/>
      <use xlink:href="#DejaVuSans-31" transform="translate(350.976562 0.015625)"/>
      <use xlink:href="#DejaVuSans-30" transform="translate(414.599609 0.015625)"/>
      <use xlink:href="#DejaVuSans-30" transform="translate(478.222656 0.015625)"/>
      <use xlink:href="#DejaVuSans-2c" transform="translate(541.845703 0.015625)"/>
      <use xlink:href="#DejaVuSans-20" transform="translate(573.632812 0.015625)"/>
      <use xlink:href="#DejaVuSans-30" transform="translate(605.419922 0.015625)"/>
      <use xlink:href="#DejaVuSans-2e" transform="translate(669.042969 0.015625)"/>
      <use xlink:href="#DejaVuSans-30" transform="translate(700.830078 0.015625)"/>
      <use xlink:href="#DejaVuSans-31" transform="translate(764.453125 0.015625)"/>
      <use xlink:href="#DejaVuSans-29" transform="translate(828.076172 0.015625)"/>
      <use xlink:href="#DejaVuSans-2c" transform="translate(867.089844 0.015625)"/>
      <use xlink:href="#DejaVuSans-20" transform="translate(898.876953 0.015625)"/>
      <use xlink:href="#DejaVuSans-Oblique-3c1" transform="translate(930.664062 0.015625)"/>
      <use xlink:href="#DejaVuSans-28" transform="translate(994.140625 0.015625)"/>
      <use xlink:href="#DejaVuSans-Oblique-42" transform="translate(1033.154297 0.015625)"/>
      <use xlink:href="#DejaVuSans-Oblique-43" transform="translate(1101.757812 -16.390625) scale(0.7)"/>
      <use xlink:href="#DejaVuSans-Oblique-47" transform="translate(1150.634766 -16.390625) scale(0.7)"/>
      <use xlink:href="#DejaVuSans-Oblique-43" transform="translate(1204.87793 -16.390625) scale(0.7)"/>
      <use xlink:href="#DejaVuSans-29" transform="translate(1256.489258 0.015625)"/>
      <use xlink:href="#DejaVuSans-3d" transform="translate(1314.985352 0.015625)"/>
      <use xlink:href="#DejaVuSans-31" transform="translate(1418.256836 0.015625)"/>
      <use xlink:href="#DejaVuSans-2e" transform="translate(1481.879883 0.015625)"/>
      <use xlink:href="#DejaVuSans-30" transform="translate(1513.666992 0.015625)"/>
      <use xlink:href="#DejaVuSans-30" transform="translate(1577.290039 0.015625)"/>
      <use xlink:href="#DejaVuSans-45" transform="translate(1640.913086 0.015625)"/>
      <use xlink:href="#DejaVuSans-2b" transform="translate(1704.09668 0.015625)"/>
      <use xlink:href="#DejaVuSans-30" transform="translate(1787.885742 0.015625)"/>
      <use xlink:href="#DejaVuSans-30" transform="translate(1851.508789 0.015625)"/>
     </g>
    </g>
    <g id="line2d_21">
     <path d="M 549.18 342.45 
L 567.18 342.45 
L 585.18 342.45 
" style="fill: none; stroke: #9467bd; stroke-width: 1.5; stroke-linecap: square"/>
    </g>
    <g id="text_18">
     <!-- (c,h)=(1000, 0.01), $\rho(B_{CGC})=$1.00E+00 -->
     <g transform="translate(599.58 348.75) scale(0.18 -0.18)">
      <use xlink:href="#DejaVuSans-28" transform="translate(0 0.015625)"/>
      <use xlink:href="#DejaVuSans-63" transform="translate(39.013672 0.015625)"/>
      <use xlink:href="#DejaVuSans-2c" transform="translate(93.994141 0.015625)"/>
      <use xlink:href="#DejaVuSans-68" transform="translate(125.78125 0.015625)"/>
      <use xlink:href="#DejaVuSans-29" transform="translate(189.160156 0.015625)"/>
      <use xlink:href="#DejaVuSans-3d" transform="translate(228.173828 0.015625)"/>
      <use xlink:href="#DejaVuSans-28" transform="translate(311.962891 0.015625)"/>
      <use xlink:href="#DejaVuSans-31" transform="translate(350.976562 0.015625)"/>
      <use xlink:href="#DejaVuSans-30" transform="translate(414.599609 0.015625)"/>
      <use xlink:href="#DejaVuSans-30" transform="translate(478.222656 0.015625)"/>
      <use xlink:href="#DejaVuSans-30" transform="translate(541.845703 0.015625)"/>
      <use xlink:href="#DejaVuSans-2c" transform="translate(605.46875 0.015625)"/>
      <use xlink:href="#DejaVuSans-20" transform="translate(637.255859 0.015625)"/>
      <use xlink:href="#DejaVuSans-30" transform="translate(669.042969 0.015625)"/>
      <use xlink:href="#DejaVuSans-2e" transform="translate(732.666016 0.015625)"/>
      <use xlink:href="#DejaVuSans-30" transform="translate(764.453125 0.015625)"/>
      <use xlink:href="#DejaVuSans-31" transform="translate(828.076172 0.015625)"/>
      <use xlink:href="#DejaVuSans-29" transform="translate(891.699219 0.015625)"/>
      <use xlink:href="#DejaVuSans-2c" transform="translate(930.712891 0.015625)"/>
      <use xlink:href="#DejaVuSans-20" transform="translate(962.5 0.015625)"/>
      <use xlink:href="#DejaVuSans-Oblique-3c1" transform="translate(994.287109 0.015625)"/>
      <use xlink:href="#DejaVuSans-28" transform="translate(1057.763672 0.015625)"/>
      <use xlink:href="#DejaVuSans-Oblique-42" transform="translate(1096.777344 0.015625)"/>
      <use xlink:href="#DejaVuSans-Oblique-43" transform="translate(1165.380859 -16.390625) scale(0.7)"/>
      <use xlink:href="#DejaVuSans-Oblique-47" transform="translate(1214.257812 -16.390625) scale(0.7)"/>
      <use xlink:href="#DejaVuSans-Oblique-43" transform="translate(1268.500977 -16.390625) scale(0.7)"/>
      <use xlink:href="#DejaVuSans-29" transform="translate(1320.112305 0.015625)"/>
      <use xlink:href="#DejaVuSans-3d" transform="translate(1378.608398 0.015625)"/>
      <use xlink:href="#DejaVuSans-31" transform="translate(1481.879883 0.015625)"/>
      <use xlink:href="#DejaVuSans-2e" transform="translate(1545.50293 0.015625)"/>
      <use xlink:href="#DejaVuSans-30" transform="translate(1577.290039 0.015625)"/>
      <use xlink:href="#DejaVuSans-30" transform="translate(1640.913086 0.015625)"/>
      <use xlink:href="#DejaVuSans-45" transform="translate(1704.536133 0.015625)"/>
      <use xlink:href="#DejaVuSans-2b" transform="translate(1767.719727 0.015625)"/>
      <use xlink:href="#DejaVuSans-30" transform="translate(1851.508789 0.015625)"/>
      <use xlink:href="#DejaVuSans-30" transform="translate(1915.131836 0.015625)"/>
     </g>
    </g>
   </g>
  </g>
 </g>
 <defs>
  <clipPath id="pe809c07b6b">
   <rect x="135" y="69.12" width="837" height="443.52"/>
  </clipPath>
 </defs>
</svg>
